<?xml version="1.0" encoding="UTF-8"?>
<svg xmlns="http://www.w3.org/2000/svg" viewBox="0 0 577 865">
  <defs>
    <style>
      .cls-1, .cls-2 {
        stroke-width: 0px;
      }

      .cls-1, .cls-3 {
        fill: #f7c1c4;
      }

      .cls-2 {
        fill: #d89091;
      }

      .cls-4 {
        fill: none;
        stroke: #de9697;
      }

      .cls-4, .cls-3 {
        stroke-width: 4px;
      }

      .cls-3 {
        stroke: #fff;
      }
    </style>
  </defs>
  <g id="_Слой_1" data-name=" Слой 1">
    <line class="cls-3" x1="242.37" y1="305.97" x2="245.59" y2="322.3"/>
    <line class="cls-3" x1="324.92" y1="305.52" x2="322.47" y2="321.98"/>
    <line class="cls-3" x1="394.3" y1="355.43" x2="381.15" y2="365.63"/>
    <line class="cls-3" x1="393.76" y1="516.02" x2="380.24" y2="506.3"/>
    <line class="cls-3" x1="174.31" y1="516.48" x2="185.89" y2="504.52"/>
    <line class="cls-4" x1="146.83" y1="435.91" x2="163.46" y2="436.34"/>
    <line class="cls-3" x1="172.37" y1="355.46" x2="185.13" y2="366.14"/>
  </g>
  <g id="_Слой_2" data-name="Слой 2">
    <rect class="cls-1" width="577" height="867.92"/>
    <g>
      <line class="cls-4" x1="-5.13" y1="177.33" x2="9.48" y2="168.09"/>
      <line class="cls-4" x1="-14.13" y1="11.58" x2=".69" y2="20.5"/>
      <line class="cls-4" x1="215.41" y1="-1.38" x2="201.18" y2="8.44"/>
      <line class="cls-4" x1="246.45" y1="80.5" x2="229.34" y2="83"/>
      <line class="cls-4" x1="224.36" y1="164.41" x2="208.43" y2="157.67"/>
      <line class="cls-4" x1="156.58" y1="221.23" x2="150.76" y2="204.95"/>
      <line class="cls-4" x1="69.06" y1="226.62" x2="74.62" y2="210.25"/>
      <path class="cls-2" d="M81.51,104.87c1.11-1.42,6.66,4.23,15.55,3.99,7.3-.2,16.06-4.35,20.77-12.7,4.74-8.39,4.16-18.85-.51-25.48-5.68-8.05-15.97-8.44-15.58-10.98.33-2.16,8.09-3.88,15.16-2.19,10.17,2.44,18.73,11.93,21.16,22.83,3.79,16.94-8.92,29.62-10.35,31.01-7.17,6.92-19.73,13.03-31.18,9.05-10.11-3.51-16.33-13.83-15.01-15.54Z"/>
      <polygon class="cls-4" points="58.87 89.75 -86.58 37.6 66.07 62.36 -20.66 -64.72 88.1 44.38 93.23 -109.09 116.55 42.69 211.58 -78.56 140.57 57.92 289.19 15.21 150.96 84.26 289.7 134 296.41 136.4 143.77 111.65 230.49 238.73 121.74 129.62 116.6 283.1 93.28 131.32 -1.75 252.57 69.27 116.09 -79.35 158.8 58.87 89.75"/>
      <line class="cls-4" x1="153.27" y1="100.2" x2="289.7" y2="134"/>
      <line class="cls-4" x1="-73.99" y1="42.05" x2="62.44" y2="75.85"/>
      <line class="cls-4" x1="-68.15" y1="154.35" x2="64.9" y2="102.9"/>
      <line class="cls-4" x1="2.25" y1="246.11" x2="81.87" y2="126.13"/>
      <line class="cls-4" x1="-11.8" y1="-54.68" x2="78.44" y2="55.8"/>
      <line class="cls-4" x1="94.78" y1="-99.04" x2="104.72" y2="43.58"/>
      <line class="cls-4" x1="280.71" y1="19.83" x2="147.12" y2="70.74"/>
      <line class="cls-4" x1="206.87" y1="-69.15" x2="130.45" y2="51.67"/>
      <line class="cls-4" x1="227.09" y1="233.55" x2="135.67" y2="123.64"/>
      <line class="cls-4" x1="114.93" y1="261.42" x2="108.91" y2="134.6"/>
    </g>
    <line class="cls-4" x1="526.7" y1="221.82" x2="522.57" y2="205.06"/>
    <line class="cls-4" x1="444.23" y1="210.19" x2="450.69" y2="195.63"/>
    <line class="cls-4" x1="406.13" y1="15.32" x2="419.76" y2="23.64"/>
    <line class="cls-4" x1="344.25" y1="48.28" x2="361.06" y2="52.24"/>
    <path class="cls-2" d="M486.64,60.21c1.52.96-3.57,7.03-2.48,15.84.9,7.24,5.87,15.54,14.61,19.42,8.79,3.9,19.13,2.33,25.28-2.96,7.46-6.41,6.86-16.69,9.42-16.54,2.18.12,4.64,7.67,3.63,14.86-1.45,10.35-10.06,19.76-20.66,23.23-16.47,5.39-30.3-6.02-31.82-7.31-7.57-6.46-14.84-18.36-11.99-30.12,2.52-10.38,12.18-17.56,14-16.41Z"/>
    <polygon class="cls-4" points="499.51 36.25 537.38 -113.34 527.42 40.77 645.43 -57.64 547.41 60.94 700.46 51.32 551.82 89.07 681.47 171.89 538.99 114.4 595.71 258.04 513.8 127.26 477.67 269.95 475.93 276.85 485.89 122.74 367.88 221.14 465.9 102.56 312.85 112.19 461.49 74.44 331.84 -8.39 474.32 49.11 417.6 -94.53 499.51 36.25"/>
    <line class="cls-4" x1="498.18" y1="131.09" x2="477.67" y2="269.95"/>
    <line class="cls-4" x1="534.17" y1="-100.41" x2="513.66" y2="38.45"/>
    <line class="cls-4" x1="423.1" y1="-83.83" x2="487.01" y2="43.5"/>
    <line class="cls-4" x1="338.64" y1="-5.03" x2="465.55" y2="62.6"/>
    <line class="cls-4" x1="636.29" y1="-47.87" x2="535.13" y2="52.44"/>
    <line class="cls-4" x1="690.62" y1="53.82" x2="549.8" y2="77.39"/>
    <line class="cls-4" x1="590.3" y1="250.06" x2="526.87" y2="122.15"/>
    <line class="cls-4" x1="671.66" y1="168.11" x2="544.23" y2="103.74"/>
    <line class="cls-4" x1="372.7" y1="217.27" x2="473.19" y2="115.85"/>
    <line class="cls-4" x1="334.24" y1="108.45" x2="459.72" y2="90.3"/>
    <line class="cls-4" x1="361.33" y1="125.72" x2="376.24" y2="120.1"/>
    <g>
      <line class="cls-4" x1="366.18" y1="277.36" x2="354.49" y2="294.89"/>
      <line class="cls-4" x1="440.7" y1="350.64" x2="423.8" y2="363.24"/>
      <line class="cls-4" x1="458.43" y1="457.39" x2="437.51" y2="454.82"/>
      <line class="cls-4" x1="408.78" y1="552.44" x2="394.01" y2="537.42"/>
      <line class="cls-4" x1="314.57" y1="601.09" x2="311.11" y2="580.3"/>
      <line class="cls-4" x1="209.36" y1="585.7" x2="220.33" y2="567.71"/>
      <line class="cls-4" x1="134.18" y1="509.95" x2="151.99" y2="498.68"/>
      <line class="cls-4" x1="115.7" y1="410.01" x2="135.05" y2="411.86"/>
      <line class="cls-4" x1="326.44" y1="290.45" x2="322.09" y2="309.44"/>
      <line class="cls-4" x1="259.15" y1="259.3" x2="261.07" y2="280.28"/>
      <path class="cls-2" d="M305.68,401c-.52,2.13-9.52-1.41-19.29,3.27-8.03,3.84-15.71,12.81-16.81,24.44-1.11,11.69,4.72,23.04,13.21,28.1,10.31,6.15,21.97,1.47,22.79,4.49.7,2.57-7.08,8.34-15.78,9.96-12.53,2.33-26.76-3.98-34.88-14.91-12.62-16.98-4.77-37.4-3.86-39.65,4.54-11.26,15.5-24.29,30.21-25.54,12.99-1.11,25.04,7.29,24.42,9.85Z"/>
      <polygon class="cls-4" points="338.39 406.6 526.16 392.48 343.97 440.66 503.55 539.09 328.37 471.6 398.8 644.98 297.53 487.6 251.91 669.71 263.25 482.56 119 603.84 238.61 458.4 59.49 471.87 50.84 472.52 233.03 424.34 73.45 325.91 248.63 393.4 178.2 220.02 279.47 377.4 325.09 195.29 313.75 382.44 458 261.16 338.39 406.6"/>
      <line class="cls-4" x1="228.13" y1="441.8" x2="59.49" y2="471.87"/>
      <line class="cls-4" x1="509.95" y1="393.77" x2="341.32" y2="423.84"/>
      <line class="cls-4" x1="447.74" y1="271.67" x2="325.16" y2="394.95"/>
      <line class="cls-4" x1="323.84" y1="204.47" x2="294.74" y2="377.52"/>
      <line class="cls-4" x1="488.71" y1="532.3" x2="333.45" y2="454.1"/>
      <line class="cls-4" x1="392.09" y1="634.55" x2="310.27" y2="480.74"/>
      <line class="cls-4" x1="126.15" y1="594.49" x2="249.59" y2="471.54"/>
      <line class="cls-4" x1="252.49" y1="656.9" x2="277.61" y2="484.49"/>
      <line class="cls-4" x1="79.8" y1="329.99" x2="236.09" y2="406.98"/>
      <line class="cls-4" x1="190.82" y1="243.32" x2="260.43" y2="381.5"/>
      <line class="cls-4" x1="176.15" y1="309.06" x2="188.42" y2="324.13"/>
    </g>
    <g>
      <line class="cls-4" x1="45.32" y1="657.6" x2="51.31" y2="673.82"/>
      <line class="cls-4" x1="129.92" y1="643.55" x2="130.12" y2="660.84"/>
      <line class="cls-4" x1="209.3" y1="683.33" x2="197.5" y2="695.97"/>
      <line class="cls-4" x1="248.39" y1="762.16" x2="231.29" y2="764.71"/>
      <line class="cls-4" x1="235.17" y1="848.16" x2="219.71" y2="840.42"/>
      <path class="cls-2" d="M98.13,757.44c1.16,1.38-5.53,5.63-7.14,14.37-1.33,7.18.91,16.61,8.09,22.95,7.22,6.38,17.57,7.99,25.02,4.81,9.06-3.87,11.59-13.86,13.99-12.95,2.04.78,2.11,8.73-1.01,15.28-4.5,9.44-15.57,15.83-26.73,15.94-17.36.17-27.12-14.89-28.17-16.58-5.28-8.45-8.63-22.01-2.36-32.38,5.54-9.15,16.93-13.09,18.32-11.44Z"/>
      <polygon class="cls-4" points="117.65 738.45 198.95 607.05 142.93 751.19 285.29 692.84 155.93 776.48 304.96 813.48 151.66 804.67 250.45 922.87 131.76 824.98 142.56 979.24 103.83 829.66 26.27 954.99 22.52 961.05 78.54 816.92 -63.82 875.26 65.55 791.62 -83.49 754.63 69.82 763.44 -28.97 645.23 89.72 743.12 78.91 588.87 117.65 738.45"/>
      <line class="cls-4" x1="87.76" y1="828.6" x2="26.27" y2="954.99"/>
      <line class="cls-4" x1="191.97" y1="618.43" x2="130.49" y2="744.83"/>
      <line class="cls-4" x1="80.93" y1="600.75" x2="103.52" y2="741.6"/>
      <line class="cls-4" x1="-23.49" y1="650.49" x2="77.27" y2="753.36"/>
      <line class="cls-4" x1="273.63" y1="699.42" x2="146.77" y2="764.66"/>
      <line class="cls-4" x1="294.81" y1="812.89" x2="153.25" y2="792.9"/>
      <line class="cls-4" x1="139.81" y1="969.98" x2="117.85" y2="828.72"/>
      <line class="cls-4" x1="242.22" y1="916.3" x2="139.97" y2="816.38"/>
      <line class="cls-4" x1="-58.05" y1="873.01" x2="68.49" y2="806.5"/>
      <line class="cls-4" x1="-61.94" y1="757.51" x2="63.35" y2="778.04"/>
    </g>
    <g>
      <line class="cls-4" x1="343.62" y1="876.14" x2="355.98" y2="864.04"/>
      <line class="cls-4" x1="317.51" y1="791.27" x2="334.8" y2="791.07"/>
      <line class="cls-4" x1="347.47" y1="708.54" x2="361.14" y2="719.14"/>
      <line class="cls-4" x1="418.76" y1="658.66" x2="423.85" y2="675.19"/>
      <line class="cls-4" x1="506.01" y1="659.65" x2="499.06" y2="675.49"/>
      <line class="cls-4" x1="575.44" y1="713.02" x2="562.2" y2="724.14"/>
      <path class="cls-2" d="M447.9,820.41c.19-1.79,7.89.1,15.33-4.77,6.11-4,11.37-12.14,11-21.71-.38-9.63-6.36-18.22-13.82-21.41-9.06-3.87-18.03,1.21-19.03-1.16-.85-2.01,4.85-7.56,11.75-9.83,9.94-3.27,22.2.31,30,8.31,12.12,12.42,7.98,29.89,7.48,31.82-2.46,9.66-9.95,21.45-21.77,24.08-10.44,2.32-21.16-3.19-20.93-5.33Z"/>
      <polygon class="cls-4" points="420.69 819.43 269.53 851.47 412.42 792.34 271.87 729.77 421.72 765.47 345.47 632.19 445.05 749.08 462.21 595.99 473.48 749.43 577.51 635.01 496.16 766.38 640.35 735.82 647.32 734.34 504.43 793.46 644.98 856.04 495.13 820.33 571.39 953.62 471.8 836.73 454.64 989.82 443.37 836.38 339.35 950.8 420.69 819.43"/>
      <line class="cls-4" x1="506.5" y1="778.73" x2="640.35" y2="735.82"/>
      <line class="cls-4" x1="282.58" y1="848.64" x2="416.42" y2="805.73"/>
      <line class="cls-4" x1="346.54" y1="941.13" x2="432.73" y2="827.46"/>
      <line class="cls-4" x1="454.65" y1="982.22" x2="459.37" y2="838.3"/>
      <line class="cls-4" x1="284.68" y1="733.66" x2="419.51" y2="780.26"/>
      <line class="cls-4" x1="352.06" y1="639.93" x2="435.44" y2="756.06"/>
      <line class="cls-4" x1="572.72" y1="643.4" x2="485.8" y2="756.89"/>
      <line class="cls-4" x1="463.14" y1="606.48" x2="461.59" y2="749.43"/>
      <line class="cls-4" x1="639.37" y1="853.42" x2="503.84" y2="807.92"/>
      <line class="cls-4" x1="558.57" y1="936.05" x2="486.83" y2="831.31"/>
    </g>
  </g>
</svg>