<svg width="146" height="191" viewBox="0 0 146 191" fill="none" xmlns="http://www.w3.org/2000/svg">
<path d="M73.0642 190.967L1.12793 13.2418L145.001 13.2418L73.0642 190.967Z" fill="#84A59D"/>
<path fill-rule="evenodd" clip-rule="evenodd" d="M97.565 131.385L89.5004 124.86L93.6657 110.583L82.7608 119.406L71.8558 110.583L76.0211 124.86L65.1162 133.683H78.5954L82.7607 147.959L86.9261 133.683H96.6479L97.565 131.385Z" fill="#F6BE61"/>
<path fill-rule="evenodd" clip-rule="evenodd" d="M109.474 73.2567L113.544 87.2417L117.615 73.2567H120.764L123.215 67.1154L120.131 64.6136L124.201 50.6287L113.544 59.2718L102.887 50.6287L106.958 64.6136L96.3008 73.2567H109.474Z" fill="#F6BE61"/>
<path fill-rule="evenodd" clip-rule="evenodd" d="M42.5247 88.1447L46.5006 102.421L50.4766 88.1447H63.3432L52.9339 79.3214L56.9099 65.0452L46.5006 73.8684L36.0914 65.0452L40.0674 79.3214L30.8086 87.1695L31.1875 88.1447H42.5247Z" fill="#F6BE61"/>
<ellipse cx="73.0179" cy="11.4322" rx="72.1106" ry="11.4175" fill="#759C92"/>
</svg>
