<svg width="386" height="629" viewBox="0 0 386 629" fill="none" xmlns="http://www.w3.org/2000/svg">
<rect x="116.995" y="34.0809" width="70.2098" height="515" transform="rotate(-8.63635 116.995 34.0809)" fill="#77ACA9"/>
<path d="M240.028 607.681L194.126 541.998L263.625 531.102L240.028 607.681Z" fill="#E5DAC7"/>
<path d="M239.982 607.431L231.257 594.877L244.625 592.131L239.982 607.431Z" fill="#898C44"/>
<path d="M116.706 34.1865L135.926 31.4335L213.101 538.699L194.351 541.281L116.706 34.1865Z" fill="#6D9C99"/>
<path d="M167.56 25.999L186.781 23.2467L264.117 531.516L245.367 534.097L167.56 25.999Z" fill="#6D9C99"/>
<path d="M193.871 541.986L212.45 538.935L235.186 593.977L231.429 595.347L193.871 541.986Z" fill="#E1D6C4"/>
<path d="M263.79 530.855L245.382 534.375L240.227 593.203L244.499 593.241L263.79 530.855Z" fill="#E1D6C4"/>
<ellipse cx="151.658" cy="27.6626" rx="35.5341" ry="9.5" transform="rotate(-9.11163 151.658 27.6626)" fill="#E1D6C4"/>
<ellipse cx="151.508" cy="27.401" rx="22.6926" ry="7.20056" transform="rotate(-11.3386 151.508 27.401)" fill="#5D8B88"/>
</svg>
