<svg width="352" height="247" viewBox="0 0 352 247" fill="none" xmlns="http://www.w3.org/2000/svg">
<path d="M341.719 0H10.0163C4.84663 0 0.655762 4.19086 0.655762 9.3605V179.958C0.655762 185.128 4.84663 189.318 10.0163 189.318H341.719C346.889 189.318 351.079 185.128 351.079 179.958V9.3605C351.079 4.19086 346.889 0 341.719 0Z" fill="#85A59D"/>
<path d="M301.525 14.0713H50.4745C46.8988 14.0713 44 16.7575 44 20.0713C44 23.385 46.8988 26.0713 50.4745 26.0713H301.525C305.101 26.0713 308 23.385 308 20.0713C308 16.7575 305.101 14.0713 301.525 14.0713Z" fill="#7B918B"/>
<rect x="1" y="26.0713" width="350" height="220" rx="24" fill="#85A59D"/>
</svg>
