<svg width="559" height="658" viewBox="0 0 559 658" fill="none" xmlns="http://www.w3.org/2000/svg">
<path d="M234.25 66.7596L460.597 432.816L142.232 487.192L234.25 66.7596Z" fill="#A2A54E"/>
<path d="M461.132 433.123C462.535 441.333 392.679 460.114 305.106 475.071C217.532 490.029 144.153 493.799 142.751 485.589C141.349 477.379 212.454 460.297 300.028 445.34C387.601 430.383 459.73 424.913 461.132 433.123Z" fill="#858740"/>
<path d="M160.474 494.037L141.817 491.167L133.781 483.456L140.97 480.714L142.931 469.781L153.161 468.034L152.433 446.962L169.173 444.103L179.478 448.399L183.727 434.047L195.415 418.425L211.953 436.796L221.027 417.078L246.362 430.919L253.251 404.005L275.192 425.995L285.02 410.69L301.61 395.745L308.27 406.719L326.116 399.129L332.476 385.931L355.775 404.662L370.429 383.991L390.585 412.342L399.259 379.067L416.224 394.337L426.454 392.59L424.695 382.293L443.595 403.288L455.685 401.224L457.697 432.674L442.129 439.875L422.756 432.586L409.058 436.439L387.417 438.621L375.085 440.728L353.611 436.825L340.992 452.607L325.666 443.617L318.194 450.444L309.902 444.291L298.138 453.87L293.563 460.707L255.962 453.503L247.994 468.49L228.063 458.269L213.509 468.324L212.253 460.969L201.419 470.389L191.264 478.18L175.455 480.88L159.57 477.537L160.474 494.037Z" fill="#F4C7C7"/>
<rect x="289.175" y="412.555" width="5.67742" height="20.8172" transform="rotate(39.3824 289.175 412.555)" fill="#F28482"/>
<rect x="229.276" y="447.561" width="5.67742" height="20.8172" transform="rotate(-49.1 229.276 447.561)" fill="#F2B4B3"/>
<rect x="426.424" y="421.569" width="5.67742" height="20.8172" transform="rotate(-49.1 426.424 421.569)" fill="#F2B4B3"/>
<rect x="363.18" y="399.733" width="5.67742" height="20.8172" transform="rotate(-49.1 363.18 399.733)" fill="#F2B4B3"/>
<rect x="192.395" y="448.656" width="5.67742" height="20.8172" transform="rotate(-163.481 192.395 448.656)" fill="#F28482"/>
<rect x="343.27" y="444.006" width="5.67742" height="20.8172" transform="rotate(-163.481 343.27 444.006)" fill="#F28482"/>
<rect x="429.479" y="392.432" width="5.67742" height="20.8172" transform="rotate(58.0834 429.479 392.432)" fill="#F28482"/>
<path d="M174.768 499.245L162.603 489.849L199.301 485.493L276.587 477.074L377.79 456.92L409.507 451.503L454.879 436.104L455.634 429.282L471.988 435.094L443.387 441.892L433.621 452.166L414.964 455.352L402.857 463.157L385.114 460.45L380.012 469.928L378.584 461.566L357.129 465.23L358.081 470.805L347.819 472.557L331.028 475.425L329.182 481.478L318.902 477.497L294.648 481.639L278.809 490.081L258.286 493.587L254.06 485.703L229.349 492.792L221.43 497.013L197.753 487.67L195.291 495.74L179.096 490.857L174.768 499.245Z" fill="#D6A09F"/>
<path d="M204.197 310.392L227.483 338.176L258.867 324.813L241.874 355.347L265.16 383.13L231.372 374.218L214.38 404.752L210.49 368.71L176.702 359.797L208.086 346.434L204.197 310.392Z" fill="#F5CAC3"/>
<path d="M232.915 145.9L256.204 173.954L287.281 160.722L270.597 191.292L293.886 219.345L260.286 210.185L243.602 240.755L239.52 204.524L205.92 195.363L236.997 182.131L232.915 145.9Z" fill="#F5CAC3"/>
<path d="M326.556 257.147L336.867 292.136L370.82 292.312L343.239 313.76L353.55 348.749L326.193 327.016L298.613 348.464L309.286 313.584L281.929 291.851L315.882 292.027L326.556 257.147Z" fill="#F5CAC3"/>
</svg>
