<?xml version="1.0" encoding="UTF-8"?>
<svg xmlns="http://www.w3.org/2000/svg" viewBox="0 0 1618 2427">
  <defs>
    <style>
      .cls-1 {
        fill: #728993;
      }

      .cls-1, .cls-2, .cls-3, .cls-4, .cls-5, .cls-6, .cls-7, .cls-8, .cls-9, .cls-10, .cls-11, .cls-12, .cls-13, .cls-14, .cls-15, .cls-16 {
        stroke-width: 0px;
      }

      .cls-2 {
        fill: #85a63c;
      }

      .cls-3, .cls-17 {
        fill: #f3a6b4;
      }

      .cls-4 {
        fill: #fbc665;
      }

      .cls-5 {
        fill: #f7c1c4;
      }

      .cls-6 {
        fill: #9cacb1;
      }

      .cls-17, .cls-18 {
        stroke: #f3a6b4;
        stroke-width: 9px;
      }

      .cls-17, .cls-18, .cls-19 {
        stroke-miterlimit: 10;
      }

      .cls-7 {
        fill: #86a0c2;
      }

      .cls-18 {
        fill: #f3a5b3;
      }

      .cls-8 {
        fill: #ffd56d;
      }

      .cls-9 {
        fill: #ede0d0;
      }

      .cls-10 {
        fill: #909fa3;
      }

      .cls-19 {
        fill: none;
        stroke: #f9b74d;
        stroke-width: 15px;
      }

      .cls-11 {
        fill: #ed7085;
        opacity: .56;
      }

      .cls-12 {
        fill: #fbf5eb;
      }

      .cls-13 {
        fill: #faeddb;
      }

      .cls-14 {
        fill: #f9b74d;
      }

      .cls-15 {
        fill: #d2a7a8;
      }

      .cls-16 {
        fill: #b6d2cc;
      }
    </style>
  </defs>
  <g id="_Слой_24" data-name="Слой 24">
    <path class="cls-1" d="M944.8,1100.39c-.56,2-1.65,4.83-3.92,7.45-3.98,4.59-9.3,5.9-10.59,6.28-5.82,1.69-15.12,9.06-30.6,32.95"/>
    <path class="cls-1" d="M1180.29,1167.92c2.02,14.71,4.04,29.41,6.06,44.12"/>
    <rect class="cls-16" x="-.63" width="1618.63" height="2427"/>
    <g>
      <polygon class="cls-6" points="-1.5 2021.66 112.47 1937.58 278.37 2070.26 367.7 1992.99 430.09 1992.99 483.97 2022.15 549.19 2013.4 597.4 2048.39 743.45 1909.88 840.18 1990.07 880.99 1974.03 919.27 2025.06 966.06 1990.07 1038.37 2058.6 1161.73 2001.73 1588.37 2379.82 -5.02 2287.48 -1.5 2021.66"/>
      <polygon class="cls-10" points="726.87 1954.21 842.43 2048.49 880.75 1994.96 939.74 2080.72 966.51 2035.11 1038.28 2095.93 966.06 1990.07 920.28 2016.86 880.99 1974.03 840.18 1990.07 743.45 1909.88 726.87 1954.21"/>
      <polygon class="cls-10" points="0 2065.15 114.95 2002.9 277.84 2085.79 360.4 2030.51 445.16 2064.41 510.76 2044.35 599.21 2085.79 549.19 2013.4 483.97 2022.15 430.09 1992.99 367.7 1992.99 278.37 2070.26 112.47 1937.58 -1.5 2021.66 0 2065.15"/>
    </g>
    <path class="cls-2" d="M-.63,2427h1618.63c-2.86-44.02.8-75.01,1.61-109.19,1.79-75.97,20.96-130.96-31.23-172.96-39.45-31.74-288.54,24.6-428.12,56.34-145.9,33.18-253.32-33.43-368.58-36.89-109.8-3.3-133.69,62.11-359.87-8.91-205.78-64.62-342.97-106.74-431.81-102.63l-.63,374.24Z"/>
    <path class="cls-12" d="M726.93,190.76c1.06.39,22.89,8.87,26.08,28.9,2.83,17.76-11.11,31.31-15.75,35.82-12.09,11.75-17.94,6.47-26.31,15.92-13.66,15.43-1.26,33.11-16.98,55.45-6.72,9.55-12.79,11.73-14.43,12.26-11.05,3.56-22.2-2.82-28.94-6.95-20.97-12.85-31.45-19.27-52.54-41.3-35.36-36.94-115.29-27.46-156.97-13.77-91.69,30.11-127.91,123.17-134.5,140.08-31.33,80.48-11.08,112.14-26.91,251.04-3.52,30.85-13.04,58.38-28.09,94.52-52.5,126.08-113.01,188.48-127.51,213.38-3.97,6.81,13.94,6.67,31.3,7,30.98.58,66.84-13.94,87.46-42.06,16.56-22.58,21.11-33.07,29.35-45.73,6.93-10.65,19.32,8.01,33.58,10.2,39.11,6,28.95-20.77,45.83-44.57,9-12.69,17.65-2.49,30.76-4.02,40.24-4.71,12.26-32.34,24.62-34.74,7.89-1.53,10.04.17,11.91.51,39.25,7.21,239.86-111.34,389.03-97.95,122.43,10.99,282.64,139.68,309.22,110.18,2.19-2.43,9.3-11.7,18.34-11.43,10.86.32.25,11.18,17.84,23.86,4.64,3.34,23.76,17.13,37.38,11.11,13.45-5.94,14.33-27.99,20.58-27.48,5.23.43,7.43,22.67,23.96,18.39,23.33-6.04.41-24.16,12.68-24.97,4.97-.33,7.85,3.32,14.07,8.3,12.99,10.42,36.24,20.57,48.06,18.19,35.97-7.23,1.34-34.39,12.87-39.62,5.95-2.7,11.02,3.56,16.53.37,9.45-5.47,7.08-16.74,12.65-18.79,3.93-1.45,5.48-2.74,12.18,5.09,18.28,21.36,51.93,35.43,80.88,29.2,6.95-1.49,23.28-6.23,39.32-24.2-4.2-1.6-13.09-4.1-22.58-10.21-115.25-74.23-185.72-211.11-247.19-466.34-15.02-62.34-56.03-87.54-95.64-107.66-60.24-30.59-156.47-34.76-204.05,21.04-16.11,18.9-5.05,50.92-27.1,63.82-13.94,8.15-30.08,4.44-32.59,3.82-11.42-2.79-26.51-11.26-29.67-24.62-1.33-5.61.26-8.66,2.71-18.76,3.21-13.26,8.03-33.22,4.58-51.22-1.43-7.44-4.6-24-19.21-32.94-12.04-7.36-28.25-7.34-40.48-.35-6.09,3.48-9.98,8-12.23,11.13"/>
    <rect class="cls-11" width="1621.63" height="484.74"/>
    <ellipse class="cls-8" cx="809" cy="544.57" rx="141.64" ry="141.81"/>
    <polyline class="cls-8" points="789.66 403.52 784.37 0 599.89 0 742.67 444.4"/>
    <g>
      <polygon class="cls-8" points="1621.63 0 1471.14 -.94 917.6 472.05 931.18 497.83 998.32 497.83 1618 244.61 1621.63 0"/>
      <polygon class="cls-8" points="941.4 1.64 844.1 425.84 905.91 446.58 1134.6 1.64 941.4 1.64"/>
      <polygon class="cls-8" points="82.08 0 672.67 501.65 710.07 457 373.63 0 82.08 0"/>
    </g>
    <path class="cls-7" d="M414.57,947.96c3.19,2.42-10.62,16.74-16.82,50.47-3.88,21.1-.12,24.4-4.01,47.27-3.96,23.26-8.01,47.09-24.84,54.48-10.31,4.53-24.82,2.62-32.05-5.61-3.75-4.26-8.91-14.06,1.6-44.86,21.05-61.7,70.32-106.14,76.11-101.75Z"/>
    <path class="cls-15" d="M1328.97,996.34c-23.92,2.57-26.03,28.26-103.39,109.46-63.94,67.11-86.4,74.65-90.78,109.46-5.97,47.51,28.01,96.04,58,120.41,22.7,18.44,35.64,16.97,52.95,27.37,84.04,50.45,102.6,279.19,25.22,336.6-47.39,35.16-102.97-14.55-133.65,21.89-37.53,44.6,36.95,129.42,0,224.4-25.69,66.04-77.68,66.12-83.21,112.2-8.93,74.38,111.88,195.97,209.3,183.35,187.6-24.3,343.57-553.5,237.03-957.81-35.43-134.46-110.13-293.93-171.47-287.34Z"/>
    <g>
      <g>
        <path class="cls-13" d="M542.79,1262.02c25.47,4.71,65.67,10.4,114.98,9.39,112.69-2.31,152.85-37.1,215.88-9.39,19.45,8.56,55.5,29.41,84.47,65.7,22.77,28.53,25.56,47.04,49.28,63.35,27.53,18.94,58.4,17.83,86.82,16.43,165.4-8.17,170.28-18.96,206.49-11.73,64.19,12.8,138.21,64.53,152.52,138.44,11.36,58.66-14.8,131.85-58.66,147.83-25.71,9.36-38.07-8.01-126.71-23.46-29.06-5.07-52.91-9.12-84.47-9.39-26.49-.23-69.63-.6-114.98,16.43-61.24,22.98-62.4,53.62-117.32,75.09-17.72,6.92-35.42,10.71-117.32,9.39-105.85-1.71-166.63-2.69-253.42-18.77-59.95-11.11-98.34-18.01-149.51-38.17-74.52-29.35-141.36-72.83-175.87-99.55-4.43-3.43-13.25-10.39-26.35-19.76-23.51-16.81-49.72-35.56-81.88-50.82-45.43-21.57-72.3-21.74-74.47-36.71-1.16-7.99,5.46-19.15,14.24-23.53,5.68-2.83,11.25-2.29,14.61-1.9,32.11,3.7,49.21,11.49,49.21,11.49,43.21,19.69,62.47,38.28,68.44,32.97,2.06-1.83,1.47-5.55-1.25-16.24-8.35-32.8-15.24-49.71-15.24-49.71-3.67-9.02-8.86-24.17-19.23-54.46-1.65-4.83-4.28-12.78-.75-16.24,4.31-4.23,15.31.72,17.49,1.75,14.29,6.75,20.83,20.65,26.23,31.97,31.62,66.36,24.06,45.19,38.97,80.68,9.53,22.69,9.97,25.03,14.49,32.47,15.4,25.36,34.7,38.9,39.22,41.97,7.14,4.84,22.51,10.21,52.96,20.73,38.91,13.45,55.17,18.1,74.94,13.99,3.96-.82,18.3-3.81,18.73-9.49.42-5.46-12.7-11.4-17.99-12.49-103.05-21.19-154.79-61.77-169.61-68.44-34.22-15.4-56.26-23.56-102.37-56.6-51.28-36.75-53.58-36.31-90.59-64.26-32.38-24.46-69.51-40.84-67.44-51.87.8-4.27,6.9-6.76,14.03-9.68,13.48-5.51,26.56-2.86,32.43-1.45,39.36,9.43,122.48,66,190.2,98.24.16.08,19.46,8.6,58.08,25.65,32.17,14.21,48.67,21.43,69.21,27.59,10.65,3.19,37.37,10.7,67.27,4.36,10.37-2.2,15.7-4.91,16.45-8.71,1.54-7.7-15.69-18.81-21.29-19.84-26.98-4.98-39.44-7.75-67.75-17.91-12.45-4.47-21.69-10.4-40.17-22.26-23.57-15.13-36.51-19.38-52.62-31.6-8.08-6.13-17.48-20.75-65.95-45.35-91.55-46.47-128.64-56.29-126.8-68.72,1.73-11.68,36.31-15.21,39.2-15.49,22.14-2.11,39.4,4.38,57.59,12.1,35.39,15.01,56.57,27.17,82.27,40.65,9.87,5.18,2.44,1.12,88.56,43.07,70.33,34.26,67.71,33.27,71.63,34.85,18.59,7.5,26.49,9.12,130.19,31.46,38.53,8.3,69.28,14.93,111.8,14.04,43.78-.92,51.22-8.8,53.72-14.04,7.41-15.54-11.66-43.69-33.88-56.14-8.24-4.62-22.38-7.01-50.33-11.61-37.99-6.26-34.7-3.42-44.52-6.78-3.74-1.28-46.95-16.72-59.04-55.17-1.36-4.33-2.05-8.06-2.42-10.65l1.76-5.28,5.87,1.59Z"/>
        <path class="cls-9" d="M226,1402.43c11.1,6.01,24,11.07,35.1,17.08l13.17,80.77-3.29-1.54-44.98-96.31Z"/>
        <path class="cls-9" d="M153.74,1361.67c11.1,6.01,15.9,8.75,27,14.77l28.2,84.98-9.99-4.69-45.21-95.06Z"/>
        <path class="cls-9" d="M194.94,1496.94c11.1,6.01,14,9.69,25.99,7.76l25.24,79.49-13.31-7.52-37.92-79.73Z"/>
      </g>
      <path class="cls-9" d="M597.23,1646.62c-.17-2.31,45.13.91,101.78-18.58,35.11-12.08,41.12-21.36,118.74-67.05,87-51.2,106.56-55.49,117.94-57.35,62.16-10.16,114.15,13.96,113.9,15.35-.21,1.15-36.78-12.06-86.43-5.65-34.39,4.43-59.14,16.22-87.24,29.89-48.87,23.77-51.38,35.57-105.82,63.81-26.67,13.83-48.97,25.23-80.78,33.12-49.32,12.23-91.92,8.7-92.09,6.46Z"/>
    </g>
    <g>
      <path class="cls-5" d="M1612.18,2045.58c7.5-3.3-11.44,36.28,6.54,39.52l-.73-1174.45c-28.62-22.35-36.52-14.8-36.52-14.8-18.97-4.97-63.53-16.65-94.4,5.39-35.52,25.36-23.03,73.99-55.29,86.31-16.24,6.2-23.91-4.4-49.9-6.74-42.13-3.8-97.54,17.26-117.33,53.94-28.38,52.63,24.6,122.52-2.7,142.95-9.36,7.01-15.98-.92-33.72,5.39-32.54,11.59-60.93,56.32-51.25,98.45,4.35,18.91,18.48,46.52,41.81,52.6,20.57,5.36,35.35-9.39,48.55,0,9.97,7.09,6.51,19.04,12.14,36.41,6.27,19.36,18.69,29.58,59.34,60.69,67.99,52.02,66.39,48.77,70.13,53.94,26.95,37.29-46.77,59.42-64.31,99-6.66,15.03,56.37,71.03,31.94,83.06-28.11,13.84-49.34-.73-64.73,14.83-17.98,18.18-1.14,50.35-17.53,60.69-10.59,6.68-22.15-3.91-41.81-6.74-33.71-4.85-77.27,15.15-93.05,43.16-29.89,53.02,43.25,128.56,9.44,168.58-6.82,8.07-9.96,5.19-24.27,18.88-11.89,11.37-42.37,40.52-39.11,67.43,4.11,33.91,57.92,32.12,110.59,101.15,7.6,9.96,4.86,7.87,14.83,21.58,20.31,27.91,54.87,75.37,105.19,102.49,12.28,6.62,76.86,41.43,153.74,18.88,52.25-15.32,110.35-57.19,125.42-115.98,16.1-62.8-11.72-112.78-3.02-116.61Z"/>
      <path class="cls-3" d="M1444.28,1174.44c-10.7-1.83-18.08-244.75,66.61-270.14,47.09-14.12,115.8,41.06,110.44,69.48-4.32,22.9-53.93,13.58-102.45,50.83-70.11,53.81-67.82,150.99-74.6,149.83Z"/>
      <path class="cls-3" d="M1279.97,1845.23c-9.62-10.31-21.22-24.96-39.72-25.76-23.38-1-50.33,20.44-58.05,42.93-10.73,31.25,22.99,43.28,15.28,75.13-7.62,31.46-43.38,31.53-48.88,59.03-7.33,36.61,47.7,78.25,105.4,90.16,20.15,4.16,56.14,7.89,62.63-1.07,11.54-15.92-86.99-48.6-79.43-86.94,4.88-24.74,52.74-45.73,74.85-38.64,27.54,8.83,4.72,57.86,29.02,65.47,27.17,8.5,106.46-36.91,99.29-76.2-7.25-39.72-95.88-34.95-160.4-104.11Z"/>
      <path class="cls-18" d="M1366.09,1256.44c-31.66-49.97-81.9-67.4-111-51.63-28.86,15.64-41.75,66.55-25.81,80.02,11.96,10.12,41.88.58,72.28-23.23"/>
      <path class="cls-17" d="M1371.45,1728.6c-36.99,52.68-33.09,116.1-1.79,145.01,49.25,45.49,156.71-3.37,161.12-41.17,3.25-27.87-47.01-71.28-80.56-57.29-21.77,9.08-35.3,41.83-28.64,78.77"/>
      <path class="cls-3" d="M1448.49,2194.16c53.55-65.39,55.28-133.34,29.92-153.31-20.59-16.21-64.62-5.2-104.7,22.44"/>
      <path class="cls-18" d="M1496.56,1305.46c109.39,146.42,123.21,202.72,106.15,222.47-21.74,25.19-108.4,8.06-120.82-31.78-7.9-25.33,12.45-65.53,36.67-66.01,18.04-.36,38.58,21.29,44.01,53.78"/>
      <path class="cls-18" d="M1494.11,1696.62c-8.27-4.67-26.18-16.3-26.89-31.78-.98-21.08,30.02-47.04,80.68-51.34"/>
      <path class="cls-18" d="M1410.87,1092.81c-15.36,47.84-61.93,70-93.26,58.46-38.25-14.09-52.63-77.98-25.05-111.36,30.78-37.26,102.47-22.76,111.36,0,7.09,18.17-20.32,55.78-50.11,55.68-21.94-.08-43.46-20.61-40.37-29.23,3.57-9.94,40.19-4.99,45.93-4.18"/>
      <path class="cls-18" d="M1443.52,1359.86c-39.13-17.44-47.44-37.69-49.79-47.02-16.56-65.9,119.59-164.63,161.81-139.68,23.7,14,27.34,72.62,1.38,94.05-18.48,15.25-55.07,14.22-65-2.77-5.89-10.07-4.36-29.06,8.3-35.96,9.26-5.05,22.43-2.52,31.81,6.91"/>
    </g>
    <path class="cls-7" d="M415.37,1113c2.11.51-2.54,13.34,0,31.25,3.24,22.89,14.34,26.59,19.23,52.07,2.28,11.92,4.65,24.27-2.4,32.05-8.16,9-27.2,9.97-36.85,1.6-14.94-12.95-5.1-46.28,5.61-82.52,4.94-16.74,11.89-35.06,14.42-34.45Z"/>
    <path class="cls-7" d="M267.96,1038.49c2.44,1.54-2.34,7.65-5.61,27.24-6.51,39,5.9,53.72-6.41,70.5-.52.71-9.39,12.44-24.03,14.42-2.49.34-15.57,1.8-20.83-5.61-3.84-5.41-1.77-13.08,0-18.43,11.01-33.18,49.49-92.79,56.88-88.13Z"/>
    <path class="cls-7" d="M1128.97,969.66c6.53-4.19,30.15,15.2,42.22,39.91,4.36,8.94,14.98,30.69,5.37,49.89-4.77,9.54-15.96,21.32-26.87,19.19-9.66-1.89-14.41-13.77-15.35-16.12-5.07-12.69-.32-22.11,1.54-36.08,4.45-33.46-13.05-52.85-6.91-56.8Z"/>
    <path class="cls-7" d="M1052.21,1067.15c3.97-1.94,25.3,23.65,36.08,58.34,4.02,12.92,12,39.87,2.3,69.85-3.25,10.05-8.72,26.96-24.56,34.54-7.57,3.62-21.3,6.92-29.94,0-12.52-10.04-5.66-34.62-4.61-38.38,3.47-12.42,8.38-14.04,16.89-32.24.46-.99,7.03-15.17,9.98-27.63,8.21-34.73-10.15-62.52-6.14-64.48Z"/>
    <polygon class="cls-8" points="0 202.67 -.63 504.42 662.03 489.45 0 202.67"/>
  </g>
  <g id="_Слой_25" data-name="Слой 25">
    <path class="cls-4" d="M862.15,1108.62c-.96,21.26-5.2,102.4-3.81,141.69,2.66,75.05,4.57,118.44,24.21,167.3,8.92,22.18,25.71,55.99,58.61,92.11-6.39,1.47-15.87,3.89-27.06,7.69-31.33,10.63-49.52,23.03-87.86,47.98-67.26,43.76-84.23,53.07-105.4,61.94-8.82,3.7-21.96,9.45-39.41,14.1-24.18,6.44-43.97,7.82-50.34,8.05-55.61,2.06-128.7-44.56-123.42-70.71,3.26-16.15,33.92-12.06,80.48-43.79,22.2-15.13,37.51-31.23,46.49-41.72,0,0,96.75-106,69.96-344.63-.79-7.04-5.11-45.5-25.52-56.49-2.22-1.2-7.41-3.56-18.87-9.43-13.14-6.74-19.71-10.1-21.38-11.32-19.75-14.35-7.18-39.26-27.67-59.74-6.76-6.75-13.96-9.88-24.53-14.46-24.51-10.64-32.73-4.14-42.13-12.58-16.29-14.61-1.02-42.51-15.72-52.2-10.43-6.87-21.19,5.14-40.88-2.52-2.23-.87-19.32-7.72-19.5-18.24-.14-8.45,10.66-17.79,27.04-20.75-1.47-2.6-2.92-5.23-4.34-7.88-32.88-61.42-59.86-151.16-45.3-278.95-1.7-.39-4.06-1.05-6.71-2.24-25.7-11.5-30-50.26-30.75-57.03-3.63-32.79,11.82-58.16,17.89-67.09h742.59c4.86,1.3,10.85,3.7,16.2,8.47,29.88,26.67,13.86,104.53-17.53,116.82-7.74,3.03-16.09,1.94-21.25,8.91-7.53,10.16-1.18-3.22,0,0,7.02,19.16,2.89,212.17-65.81,276.26l-1.67,7.23c1.09-.1,11.95-.99,18.05,6.44,6.3,7.68,5.16,21.38-4.73,30.51-14.04,2.72-28.07,5.44-42.11,8.16-.37,3.18-1.15,7.89-3.01,13.32-8.98,26.16-33.08,39.51-39.53,42.97-22.82,12.23-31.79,5.11-49.84,19.76-4.78,3.88-12.44,10.24-17.19,21.05-4.9,11.18-2.24,16.99-6.02,25.35-3.28,7.27-8.57,13.8-29.17,19.35"/>
    <path class="cls-14" d="M444.64,604.43c564.95-6.01,704.34-.65,704.48,4.59.16,5.83-158.3,43.69-241.32,47-170.98,6.82-353.72-26.4-463.16-34.26v-17.32Z"/>
    <path class="cls-14" d="M535.43,939.55c412.91-2.49,514.79-.27,514.9,1.9.12,2.41-122.98,5.52-183.66,6.89-124.97,2.82-251.26,1.63-331.24-1.62v-7.17Z"/>
    <path class="cls-14" d="M495.8,883.65c468.82-2.49,585.05,1.39,582.95,11.77-.48,2.37-137.96-4.35-206.85-2.98-141.89,2.82-285.28,1.63-376.09-1.62v-7.17Z"/>
    <path class="cls-14" d="M695.66,1109.09c2.59-4.55,32.55,13.5,79.24,13.84,49.35.36,86.09-19.99,86.3-14.53,3.5,91.47-16.22,71.96-34.66,67.83-10.58-2.37-39.1-26.96-76.74-35.31-32-7.11-56.59-27.5-54.13-31.82Z"/>
    <path class="cls-14" d="M631.17,1017.63c.59-6.1,306.84-9.34,308.45-2.6.62,2.59-43.56,6.93-79.79,8.44-52.88,2.19-50.96-3.24-109.4-1.62-29.99.83-60.1,3.09-101.17-1.3-10.39-1.11-18.19-1.94-18.1-2.92Z"/>
    <path class="cls-19" d="M487.55,871.35c29.12-64.3,58.24-128.6,87.35-192.91l113.75,192.91,101.44-192.91,108.24,192.91"/>
    <path class="cls-19" d="M898.34,878.07c29.12-64.3,69.37-135.32,98.49-199.62l98.49,190.44"/>
    <path class="cls-19" d="M707.38,1304.78c10.52,6.27,37.21,20.29,74.15,19.96,37.73-.35,64.57-15.48,74.87-22.02"/>
    <path class="cls-19" d="M692.85,1363.73c12.26,6.27,43.35,20.29,86.4,19.96,43.97-.35,75.23-15.48,87.23-22.02"/>
  </g>
</svg>