<?xml version="1.0" encoding="UTF-8"?>
<svg xmlns="http://www.w3.org/2000/svg" viewBox="0 0 1618 2427">
  <defs>
    <style>
      .cls-1 {
        opacity: .58;
      }

      .cls-1, .cls-2, .cls-3, .cls-4, .cls-5, .cls-6, .cls-7, .cls-8, .cls-9, .cls-10, .cls-11, .cls-12, .cls-13, .cls-14, .cls-15, .cls-16, .cls-17, .cls-18, .cls-19, .cls-20 {
        stroke-width: 0px;
      }

      .cls-1, .cls-16 {
        fill: #fbf5eb;
      }

      .cls-2 {
        fill: #547682;
      }

      .cls-3 {
        fill: #7a979e;
      }

      .cls-4 {
        fill: #fbe3bc;
      }

      .cls-5 {
        fill: #728993;
      }

      .cls-6 {
        fill: #6c8088;
      }

      .cls-7 {
        fill: #fff9dd;
      }

      .cls-8 {
        fill: #728088;
      }

      .cls-9 {
        fill: #85a63c;
      }

      .cls-10 {
        fill: #47718a;
      }

      .cls-11 {
        fill: #9cacb1;
      }

      .cls-12, .cls-21, .cls-22 {
        fill: #3d5f74;
      }

      .cls-13 {
        fill: #5f7e86;
      }

      .cls-23 {
        fill: #f6f5d3;
        stroke: #f6f5d3;
        stroke-width: 18px;
      }

      .cls-23, .cls-21, .cls-22, .cls-24 {
        stroke-miterlimit: 10;
      }

      .cls-14 {
        fill: #919e9e;
      }

      .cls-15 {
        fill: #295971;
      }

      .cls-16 {
        opacity: .63;
      }

      .cls-17 {
        fill: #587c85;
      }

      .cls-21 {
        stroke: #322c81;
        stroke-width: 9px;
      }

      .cls-18 {
        fill: #8897a1;
      }

      .cls-22 {
        stroke-width: 8px;
      }

      .cls-22, .cls-24 {
        stroke: #3d5f74;
      }

      .cls-19 {
        fill: #98a6af;
      }

      .cls-20 {
        fill: #7b8e95;
      }

      .cls-24 {
        fill: none;
        stroke-width: 3px;
      }
    </style>
  </defs>
  <g id="_Слой_9" data-name="Слой 9">
    <path class="cls-9" d="M-1634.52-351.38c-19.11-66.43,179.34,17.07,619.96,73.86,71.32,9.19,132.41,16.65,210.76,9.88,119.48-10.32,159.91-43.43,265.4-73.14,152.17-42.86,392.88-65.46,483.97-17.79C24.17-317.43,88.7-12.86-23.25-7.9-449.03,10.97-1257.79,5.13-1617.96-15.07c-81.29-4.56-6.98-302.99-16.56-336.32Z"/>
  </g>
  <g id="_Слой_21" data-name="Слой 21">
    <path class="cls-6" d="M1527.53,2184.51c-41.05-92.89-80.96-203.99-109.99-331.94-67.99-299.61-48.23-554.39-27.88-732.62h-163.03c.12,17.7,8.71,48.66,8.47,83.84-1.16,167.43,10.91,461.06-54.57,820.09-10.44,57.25-22.77,124.54-43.17,213.55l335.53,50.03,54.64-102.96Z"/>
    <path class="cls-18" d="M1634.93,2405.06H0V-1.51h1634.93v2406.57Z"/>
    <path class="cls-11" d="M1636.82,1624.41c-18.54-36.45-36.17-58.23-49.2-59.06-14.09-.89-36.24,18.08-80.53,56.02-54.17,46.4-53.24,61.07-83.89,77.94-53.67,29.54-90.66,3.37-184.56,19.48-32.35,5.55-39.62,10.66-214.76,90.11-125.53,56.95-138.24,61.78-164.42,63.32-34.27,2.02-87.72-10.83-194.62-36.53-74.5-17.91-103.53-27.8-144.29-19.48-42.91,8.75-53.46,28.42-80.53,24.35-39.61-5.95-30.98-50.15-83.89-75.5-43.64-20.91-66.82.87-117.45-19.48-56.01-22.52-51.86-58.91-100.67-70.63,0,0-37.2-8.93-90.6,9.74-14.74,5.15-29.15,17.08-42.72,34.35h3.38v651.37c18.13,20.91,39.85,40.8,64.68,59.6h1543.67c6.42-6.39,12.6-12.93,18.51-19.63.64-.72,1.26-1.47,1.89-2.2v-783.78Z"/>
    <polyline class="cls-19" points="570.2 1574.79 722.58 1548.94 878.6 1724.95 996.8 1716.42 1131.65 1827.38 588.73 2010.73 -7.02 1716.42 -2.02 1283.58"/>
    <rect class="cls-18" x="11.82" y="2159.3" width="1604.6" height="270.72"/>
    <circle class="cls-23" cx="805.69" cy="888.82" r="448.71"/>
    <path class="cls-2" d="M8.07,1735.5c61.06,16.77,84.02,42.82,93.58,63.91,19.99,44.1-6.9,92.48,22.82,118.68,14.77,13.02,24.01,3.37,41.08,15.98,38.39,28.34,5.64,87.4,41.08,125.53,29.06,31.26,67.13,8.87,93.58,43.37,22.49,29.33,2.4,55.22,25.11,77.6,26.66,26.28,67.28,3.3,91.3,29.67,14.34,15.74,12.17,37.44,11.41,59.34-1.32,38.25,1.11,93.05,18.26,164.33-148.95-1.68-297.9-3.36-446.85-5.03"/>
    <path class="cls-2" d="M420.39,2109.98c8.85-27.1,17.69-54.2,26.54-81.3l23.68-21.89,33.48,34.87c-2.48,14.92-3.24,35.62,8.37,52.45,12.88,18.67,28.58,14.59,41.85,34.2,13.63,20.16,2.66,32.77,18.41,56.65,9.88,14.98,24.99,26.39,30.13,23.33,5.16-3.07-4.88-17.64,1.67-31.66,8.49-18.14,40.7-26.63,51.89-16.66,8.48,7.55-.65,20.76,10.04,33.33,7.3,8.58,13.15,4.31,23.43,15l15.07,23.33-71.79,57.41-153.09-6.28"/>
    <g>
      <path class="cls-6" d="M1495.56,2189.19c-40.71-92.12-80.28-202.29-109.07-329.17-67.42-297.11-47.82-549.76-27.65-726.5h-161.67c.12,17.55,8.64,48.25,8.4,83.14-1.15,166.04,10.82,457.21-54.12,813.25-10.35,56.77-22.58,123.5-42.8,211.77l332.73,49.61,54.19-102.1Z"/>
      <path class="cls-15" d="M1258.01,1567.82h35.24l4.64-165.06c-1.07-2.56-2.85-6.1-5.75-9.78-3.31-4.19-9.69-12.26-17.34-12.14-7.51.12-15.15,8.14-17.92,19.65"/>
      <path class="cls-12" d="M1381.52,1123.97c-20.28-40.85-41.28-91.53-57.56-151.31-24.03-88.22-36.47-166.44-36.03-225.61l-7.07-7.42-11.26-.27c-.52,2.4-4.9,22.46-5.42,24.86-33.47,153.66-26.58,198.96-51.96,271.08-7.47,21.23-20.32,53.89-41.63,92.52"/>
      <path class="cls-6" d="M1281.27,1144.47c96.05-9.81,104.29-11.21,104.8-15.76,1.25-11.17-45.94-24.97-67.76-29.94-8.04-1.83-54.48-11.87-108.73,2.36-10.4,2.73-38.46,10.09-38.61,20.49-.06,4.38,4.29,9.45,8.67,10.24,37.03,6.71,91.47,13.65,101.64,12.61Z"/>
      <path class="cls-22" d="M1276.43,756.33c.76-18.19,3.08-73.88,3.48-83.53"/>
      <line class="cls-22" x1="1298.41" y1="700.64" x2="1256.64" y2="700.64"/>
    </g>
    <path class="cls-3" d="M265.89,2280.57l92.55-62.48c11.14,21.82,28.4,46.6,52.89,49.87,28.37,3.79,45.3-24.12,75.55-36.5,29.77-12.19,77.03-11.24,154.88,41.55l-203.99,157-171.88-149.44Z"/>
    <polygon class="cls-12" points="1211.59 2443.09 411.61 2443.09 795.96 2159.3 838.32 2159.3 1211.59 2443.09"/>
    <path class="cls-2" d="M1630.73,1728.13c-45.79,24.28-91.58,48.56-137.37,72.83,21.83,43.36,15.72,90.03-11.45,113.54-16.44,14.23-36.68,16.59-47.69,16.86l-17.77,51.82v48.29c-1.73,5.08-10.83,30.03-37.91,43.58-23.78,11.9-46.08,7.33-52.13,5.89l-7.11,37.69v28.27c-6.37,7.19-16.4,16.45-30.8,22.24-28.97,11.64-51.7-.39-65.16,13.09-4.85,4.86-9.49,14.01-7.11,32.98l42.65-22.38,114.92,108.36c5.83-17.37,15.17-36.8,29.62-38.87,15.01-2.14,28,15.5,35.54,10.6,8.25-5.36-3.06-29.15,7.11-36.51,5.83-4.22,11.74,2.02,17.77-1.18,12.73-6.74-2.63-40.35,5.92-80.09,3.7-17.21,15.02-50.15,33.17-51.82,15.53-1.43,31.67,20.44,37.91,38.87,8.1,23.92-3.88,32.05,0,61.24.9,6.77,6.88,51.8,41.47,68.31,21.71,10.36,44.39,4.57,54.5,1.18"/>
    <path class="cls-14" d="M1287.05,2148.98l-62.55,54.24-102.26,42.77-69.5,41.56-30.78,40.6,52.16,29.73,31.23-42.11,38.72-28.22c16.62,8.02,41.07,16.13,67.51,9.09,23.75-6.32,34.74-21.03,62.55-40.52,17.25-12.09,43.07-27.5,78.43-39.39"/>
    <path class="cls-17" d="M1416.31,2188.96c29.37-21.07-1.77-54.6,13.42-98.99,6.91-20.18,26.08-50.45,49.21-51.06,31.87-.84,58.51,54.93,62.63,63.56,15.64,32.75,17.9,65.64,17.9,65.64,1.81,26.49-2.92,50.73,11.93,55.22,6.95,2.1,11.94-2.01,22.37,0,15.8,3.04,23.49,16.16,26.84,21.88,7.54,12.88,35.48,76.52-5.96,126.08-64.64,77.29-278.46,96.93-347.47,35.43-58.24-51.91-10.34-158.94,40.26-166.71,25.75-3.95,54.21,17.49,70.09,8.34,14.1-8.13-1.6-28.94,19.39-47.93,7.63-6.91,11.65-5.91,19.39-11.46Z"/>
    <polygon class="cls-20" points="1388.4 2257.48 1345.81 2287.9 1298.64 2394.16 1452.88 2344.78 1486.66 2321.28 1579.71 2329.45 1600.11 2322.64 1600.11 2405.06 1533.19 2409.14 1484.11 2395.52 1425.47 2409.14 1375.76 2449.33 1177.55 2449.33 1066.01 2353.41 1057.72 2344.78 1101.7 2295.57 1125.92 2283.81 1184.56 2292.67 1252.12 2266.78 1264.22 2245.67 1347.08 2206.84 1388.4 2257.48"/>
    <path class="cls-13" d="M1184,1968.13c-11.27-6.61-22.53-13.22-33.8-19.84l-25.1,38.7,8.65,46.36-9.51,38.61-33.4,18.12,3.39,59.97-28.05,52.77-24.77,4.62-28.87,12.52,3.98,45.21-52.35,30.07,88.65,55.05,120.58-101.26"/>
    <g>
      <path class="cls-6" d="M503.47,2210.56c-29.1-65.85-57.39-144.61-77.97-235.31-48.2-212.4-34.19-393.01-19.77-519.36h-115.57c.09,12.55,6.18,34.5,6,59.44-.82,118.7,7.73,326.85-38.69,581.37-7.4,40.58-16.15,88.29-30.6,151.39l237.86,35.47,38.74-72.99Z"/>
      <path class="cls-15" d="M333.65,1766.36h25.19l3.31-117.99c-.77-1.83-2.03-4.36-4.11-6.99-2.37-2.99-6.93-8.77-12.4-8.68-5.37.09-10.83,5.82-12.81,14.05"/>
      <path class="cls-12" d="M421.94,1449.06c-14.5-29.2-29.51-65.43-41.15-108.17-17.18-63.07-26.07-118.98-25.76-161.28l-5.05-5.31-8.05-.19c-.38,1.72-3.5,16.05-3.87,17.77-23.93,109.84-19,142.23-37.15,193.79-5.34,15.17-14.52,38.53-29.76,66.14"/>
      <path class="cls-8" d="M350.28,1463.72c68.66-7.01,74.55-8.01,74.92-11.27.89-7.98-32.84-17.85-48.44-21.4-5.75-1.31-38.95-8.49-77.73,1.69-7.43,1.95-27.5,7.21-27.6,14.65-.04,3.13,3.07,6.76,6.2,7.32,26.47,4.79,65.39,9.75,72.66,9.01Z"/>
      <path class="cls-21" d="M346.82,1186.24c.54-13.01,2.2-52.81,2.49-59.71"/>
      <line class="cls-21" x1="360.92" y1="1146.43" x2="331.06" y2="1146.43"/>
    </g>
    <path class="cls-1" d="M6.74,491.81c87.87-15.17,125.8,1.05,143.75,20.59,31.03,33.77,5.59,80.96,39.21,107.06,33.48,25.99,69.43-12.51,121.97,8.24,64.98,25.65,77.97,111.37,126.33,123.54,38.93,9.8,61.24,2.02,61.24,2.02,3.02-1.05,5.05-2.03,8.46-2.02,16.64.02,21.64,23.29,43.56,45.3,21.81,21.89,33.53,15.59,43.56,32.94,10.23,17.68,10.22,45.26-4.36,57.65-17.02,14.47-49.04,4.1-87.12-8.24-58.08-18.81-67.81-36.96-95.84-32.94-29,4.16-33.88,25.78-64.71,42.88-42.49,23.56-90.25,13.48-131.31,6.54-61.21-10.34-68.02-37.43-109.1-38.83-42.05-1.43-79.37,22.34-109.4,50.73L6.74,491.81Z"/>
    <path class="cls-4" d="M506.22,686.99c1.67-17.48,7.44-54.99,31.99-88.07,28.31-38.13,82.87-72.11,132.22-47.81,44.95,22.13,58.56,79.3,61.85,93.1,2.13,8.94,18.18,80.58-19.19,130.84-17.84,23.99-40.22,32.85-46.92,35.23-47.64,16.92-77.67-18.3-93.84,0-15.51,17.55-3.72,67.84,17.06,98.13,4.28,6.24,18.34,26.18,42.65,35.23,51.89,19.3,116.95-23.52,123.69-67.94,3.98-26.19-12.94-48.88,0-70.45,1.52-2.53,7.66-8.95,19.94-21.79,20.58-21.52,20.43-19.85,22.72-23.5,16.44-26.26-6.06-64.3,4.27-72.97,8.26-6.94,33.28,8.52,44.79,32.71,13.93,29.27,4.23,63.24-2.13,85.55-2.1,7.37-8.84,29.36-25.59,55.36-31.83,49.39-59.52,50.73-59.71,70.45-.34,34.86,86.11,41.01,95.97,95.61,6.13,33.94-21.9,61.28-10.66,78,12.82,19.06,54.75-8.3,61.85,5.03,8.06,15.12-28.91,82.28-85.31,100.65-52.5,17.1-96.14-16.45-110.9,7.55-11.86,19.29,9.92,51.39,0,60.39-11.86,10.76-57.7-21.77-55.45-47.81,1.63-18.8,27.11-20.13,29.86-40.26,3.39-24.8-29.97-61.77-57.58-57.87-21.22,2.99-22.02,27.7-49.05,37.74-22.27,8.27-52.85,3.07-66.11-17.61-14.37-22.42,2.75-45.65-10.66-65.42-17.3-25.5-53.96,1.15-74.64-22.65-18.72-21.54-10.65-68.62-2.13-118.26,9.33-54.42,23.48-80.17,10.66-103.16-8.77-15.73-19.24-10.57-29.86-27.68-19.24-31-4.3-79.24,0-93.1,13.39-43.21,40.3-67.75,53.32-78"/>
    <path class="cls-4" d="M785.16,590.32c-5.02-7.01.8-14.3,7.05-44.54,7.5-36.29,2.32-41.27,9.1-50.07,17.88-23.21,80.17-22.74,104.24,7.14,24.84,30.83-3.79,77.16,16.61,91.02,21.81,14.82,59.65-34.63,95.83-21.12,32.18,12.01,18.5,57.19,57.67,90.5,42.95,36.52,95.91,13.27,109.57,43.69,9.07,20.18-4.89,51.27-20.46,55.3-14.29,3.7-23.49-17.07-49.77-18.42-16.33-.84-19.49,6.83-34.81,9.12-42.98,6.42-73.93-45.62-90.22-36.53-14.73,8.23,8.76,51.8-9.71,68.71-21.15,19.36-87.28-5.41-91.24-33.76-2.42-17.28,19.58-26.52,15.35-41.47-5.92-20.89-51.34-11.68-65.03-36.64-13.71-25,18.98-57.67,5.2-73.52-12.9-14.84-48.67,5.57-59.39-9.4Z"/>
    <path class="cls-4" d="M1170.93,834.72h0c28.2,3.78,46.37,26.56,44.22,47.17-2.33,22.3-28.16,39.43-44.22,35.38-20.81-5.25-31.83-47.76-29.48-106.13"/>
    <path class="cls-7" d="M795.22,1265.53c.08-14.78,77.35-4.89,123.08-53.65,46-49.05,43.64-139.91,15.78-154.65-19.31-10.22-44.68,19.43-56.81,9.47-15.42-12.67-.14-81.79,47.34-107.3,39.64-21.3,92.31-7.14,119.93,18.94,19.83,18.72,17.1,34.48,41.03,50.5,29.88,20.01,53.25,8.22,63.12,22.09,20.94,29.43-58.68,118.2-63.12,123.08-34.71,38.23-105.47,116.17-205.14,116.77-43.73.27-85.27-14.4-85.21-25.25Z"/>
    <path class="cls-7" d="M1027.97,875.98c-11.57,9.19-70.36-79.4-147.66-97.53-77.76-18.24-146.43,41.34-133.92,80.3,8.67,27.01,53.57,35.44,56.25,54.62,3.41,24.4-63.53,51.52-124.24,16.92-50.69-28.89-84.98-93.94-88.45-139.76-2.49-32.9,12.11-39.89,3.99-75.46-10.14-44.43-39.42-61.93-37.12-81.17,4.88-40.81,142.47-11.67,150.09-10,59.61,13,181.15,39.49,267.38,145.38,37.84,46.46,62.16,99.96,53.67,106.71Z"/>
    <path class="cls-16" d="M1632.05,129.96c-110.94-15.17-158.82,1.05-181.48,20.59-39.17,33.77-7.05,80.96-49.5,107.06-42.27,25.99-87.65-12.51-153.99,8.24-82.04,25.65-98.44,111.37-159.48,123.54-49.15,9.8-77.31,2.02-77.31,2.02-3.81-1.05-6.38-2.03-10.68-2.02-21,.02-27.32,23.29-54.99,45.3-27.53,21.89-42.32,15.59-54.99,32.94-12.91,17.68-12.91,45.26,5.5,57.65,21.49,14.47,61.91,4.1,109.99-8.24,73.32-18.81,85.61-36.96,120.99-32.94,36.61,4.16,42.77,25.78,81.7,42.88,53.64,23.56,113.93,13.48,165.78,6.54,77.28-10.34,85.88-37.43,137.73-38.83,53.09-1.43,100.2,22.34,138.12,50.73l-17.38-415.45Z"/>
    <polygon class="cls-10" points="1080.23 2434.39 520.23 2430.04 805.4 2159.32 831.31 2159.32 1080.23 2434.39"/>
    <path class="cls-10" d="M1298.11,1280.29c0-9.85-8.24-17.83-18.4-17.83s-18.4,7.98-18.4,17.83c0,1.12.12,2.22.33,3.29h-.09v68.7h36.34v-68.7h-.09c.21-1.07.33-2.16.33-3.29Z"/>
    <path class="cls-12" d="M1294.4,1282.31c0-9.11-7.62-16.5-17.03-16.5s-17.03,7.39-17.03,16.5c0,1.04.11,2.05.3,3.04h-.09v63.55h33.62v-63.55h-.09c.19-.99.3-2,.3-3.04Z"/>
    <path class="cls-7" d="M622.81,995.23c37.27-21.2,112.67-41.39,145.18,0,27.06,34.45,14.66,99.13-11.71,110.06-25.96,10.75-48.87-37.47-96.01-32.78-42.14,4.2-61.19,46.47-79.62,37.47-13.95-6.81-14.51-36.65-9.37-56.2,9.05-34.38,39.65-51.79,51.52-58.54Z"/>
    <rect class="cls-24" x="1208.81" y="1699.53" width="31.67" height="12.87"/>
    <rect class="cls-24" x="1234.57" y="1686.66" width="31.67" height="12.87"/>
    <rect class="cls-24" x="1188.84" y="1938.69" width="31.67" height="12.87"/>
    <rect class="cls-24" x="1202.9" y="1951.56" width="31.67" height="12.87"/>
    <rect class="cls-24" x="1302.1" y="1779.75" width="31.67" height="12.87"/>
    <path class="cls-5" d="M0,2288.97c45.5,31.71,106.16,64.35,134.29,29.52,18.24-22.57,6.68-53.52,25.18-97.41,26.37-62.58,90.62-96.33,142.69-88.56,48.06,7.17,50.55,44.47,121.7,61.99,31.88,7.85,41.89,2.95,67.15,14.76,38.38,17.94,68.86,70.42,85.65,97.59l-121.33,120.98H0v-138.86Z"/>
    <rect class="cls-24" x="304.12" y="1805.35" width="22.93" height="9.32"/>
    <rect class="cls-24" x="322.78" y="1796.03" width="22.93" height="9.32"/>
    <rect class="cls-24" x="415.41" y="2131.41" width="22.93" height="9.32"/>
    <rect class="cls-24" x="434.07" y="2122.09" width="22.93" height="9.32"/>
  </g>
</svg>