<?xml version="1.0" encoding="UTF-8"?>
<svg id="_Слой_26" data-name="Слой 26" xmlns="http://www.w3.org/2000/svg" viewBox="0 0 1618 2427">
  <defs>
    <style>
      .cls-1 {
        fill: #192c41;
      }

      .cls-1, .cls-2, .cls-3, .cls-4, .cls-5, .cls-6, .cls-7, .cls-8, .cls-9, .cls-10, .cls-11, .cls-12, .cls-13, .cls-14, .cls-15, .cls-16 {
        stroke-width: 0px;
      }

      .cls-2 {
        fill: #3d2a42;
      }

      .cls-3 {
        fill: #142335;
      }

      .cls-4 {
        fill: #8a91a8;
      }

      .cls-5 {
        fill: #594161;
      }

      .cls-6 {
        fill: #192f39;
      }

      .cls-7 {
        fill: #3a283f;
      }

      .cls-8 {
        fill: #fbf5eb;
        opacity: .63;
      }

      .cls-9 {
        fill: #41586e;
      }

      .cls-10 {
        fill: #1f3643;
      }

      .cls-17 {
        stroke: #291a2b;
        stroke-width: 17px;
      }

      .cls-17, .cls-18 {
        fill: none;
        stroke-miterlimit: 10;
      }

      .cls-11 {
        fill: #322236;
      }

      .cls-18 {
        stroke: #bbbbba;
        stroke-width: 10px;
      }

      .cls-12 {
        fill: #1e3147;
      }

      .cls-13 {
        fill: #8897a1;
      }

      .cls-14 {
        fill: #47334d;
      }

      .cls-15 {
        fill: #4a637d;
      }

      .cls-16 {
        fill: #677e88;
      }
    </style>
  </defs>
  <rect class="cls-13" x=".53" y="-.94" width="1617.47" height="2412.94"/>
  <path class="cls-8" d="M1371.87,1106c-15.95-2.6-43.48,16.48-46.06,36.19-.84,6.39,1.13,11.52-2.19,14.26-6.73,5.55-19.6-11.53-38.38-10.97-20.4.61-22.52,21.27-48.25,25.22-15.27,2.35-19.49-4.16-30.71,1.1-13.27,6.22-10.35,16.72-24.13,25.22-15.6,9.62-30.17,2.85-35.09,12.06-3.58,6.7,3.27,11.91,0,17.55-7.19,12.39-45.16-4.46-54.83,9.87-2.1,3.11-3.07,7.99-1.1,10.97,5.45,8.23,27.59-6.83,55.93-2.19,22.99,3.76,22.02,15.88,39.48,16.45,26.63.87,34.99-27.16,63.61-28.51,14.4-.68,21.05,5.99,37.29,13.16,32.66,14.41,88.59,23.98,112.96,2.19,36.48-32.6,4.24-137.23-28.51-142.56Z"/>
  <path class="cls-8" d="M1601.14,691.67c-26.98-12.45-62.67-23.12-92.53-8.53-35.51,17.34-32.27,55.51-66.57,66.57-37.28,12.02-62.35-26.22-97.29-8.53,0,0-2.56,1.3-39.26,32.43,5.82,13.55,3.95,20.32,1.71,23.9-8.82,14.03-38.05,1.85-59.74,18.78-1.96,1.53-17.37,12.31-15.36,22.19,2.08,10.24,21.8,14.56,37.55,17.07,54.76,8.72,126.63,20.17,209.95-20.48,15.95-7.78,38.59-20.53,63.15-40.97"/>
  <polyline class="cls-4" points="310.89 2018.64 444.36 1970.88 531.3 1970.88 623.13 1970.88 678.23 2006.39 786.67 2061.8 569.26 2081.09"/>
  <path class="cls-16" d="M68.44,2057.2c189.24-75.15,279.12-72.8,325.72-52.65,11.04,4.77,97.21,44.07,145.71,33.06,5.83-1.32,20.97-5.61,40.41-2.45,21.16,3.44,24.45,11.97,42.86,15.92,26.67,5.72,35.27-8.87,61.22-7.35,28.78,1.69,60.78,22.11,61.22,37.96.45,16.11-31.37,40.17-185.17,73"/>
  <path class="cls-15" d="M302.02,2195.16c77.18-36.86,154.37-73.73,231.55-110.59l95.04,31.1c68.44-46.93,128.04-65.51,169.34-73.87,104.18-21.08,198.32,1.37,276.48-57.46,8.64-6.5,16-13.19,31.1-22.46,60.31-37.06,116.42-37.12,141.7-41.47,44.46-7.65,103.09-47.41,162.43-191.81l-62.21,435.46-524.98,131.33-520.46-100.22Z"/>
  <path class="cls-9" d="M524.23,2141.57c6.17-9.95,61.55,36.11,124.89,16.45,42.89-13.31,48.32-44,96.63-53.33,6.7-1.29,25.67-4.38,80.9,7.67,83.72,18.27,87.5,35.71,119.99,37.42,87.83,4.62,112.84-120.02,204.19-121.68,50.88-.92,105.68,36.61,113.16,77.41,13.64,74.42-131.95,149.93-154.1,161.41-20.35,10.56-203.42,101.77-401.32,21.66-116.07-46.99-192.03-134.62-184.35-147.01Z"/>
  <path class="cls-6" d="M1064.29,2427c-58.17-21.7-272.21-219.73-376.62-241.78-55.19-11.66-153.93-68.25-189.84-71.49-172.06-15.52-242.3-106.19-347.6-61.24-35.9,15.32-89.5-14.68-150.23,21.11v357.22l982.06-3.82h82.23Z"/>
  <path class="cls-8" d="M384.78,153.46c35.59-23.47,84.3-48.97,131.69-47.75,56.37,1.45,62.48,39.44,115.32,35.38,57.43-4.41,82.95-51.81,138.6-49.79,0,0,4.08.15,66.08,14.32-4.59,15.49.02,21.18,4.29,23.65,16.76,9.69,55.68-14.5,91.9-7.54,3.27.63,28.65,4.38,28.54,14.71-.11,10.71-27.47,23.28-49.6,32.43-76.9,31.78-177.82,73.5-310.09,70.13-25.31-.64-61.74-3.19-103.13-12.28"/>
  <path class="cls-10" d="M1380.95,2087.41c-82.23-15.56-133.52.23-165.78,18.84-47.46,27.37-58.31,63.45-114.92,88.54-50.83,22.53-96.87,17.72-114.92,16.96-67.56-2.86-197.75,39.71-474.75,215.25h1107.42v-328.28l-237.05-11.3Z"/>
  <path class="cls-8" d="M1.17,1111.81c29.79-19.27,39.11-16.72,49.71-12.38,16.51,6.77,15.66,22.1,36.77,34,23.57,13.29,39.2,2.39,48.08,14.17,13.44,17.81-14.36,53.3-2.83,63.75,5.46,4.95,15.32.25,26.87-2.83,23.22-6.2,38.98-2.04,162.63,21.25,5.76,1.09,12.81,2.33,21.21,0,21.51-5.97,22.96-27.34,36.77-28.33,16.61-1.2,22.4,29.16,45.25,29.75,9.33.24,15.98-4.62,22.63,0,6.69,4.65,4.43,12.71,9.9,15.58,8.12,4.26,16.89-11.48,31.11-12.75,23.17-2.07,36.35,36.44,52.32,32.58,12.59-3.04,8.64-27.99,25.45-35.42,13.11-5.79,32.71,1.77,42.43,14.17,11.73,14.97,2.2,28.28,12.73,41.08,15.36,18.69,52.1,10.36,52.32,12.75.21,2.21-30.99,12.71-83.44,14.17-110.5,3.07-154.84-38.46-219.2-9.92-16.88,7.49-18.91,12.6-33.94,15.58-43.94,8.72-67.9-26.76-110.31-15.58-4.91,1.29-14.11,5.58-32.53,14.17-39.07,18.21-35.28,20.78-45.25,22.67-36.55,6.91-58.97-33.02-89.09-21.25-4.58,1.79-2.66,2.16-18.38,12.75-17.9,12.05-33.42,20.34-43.84,25.5"/>
  <path class="cls-8" d="M-1.79,655.01c21.22.07,42.52.07,63.92,0,113.44-.38,122.53-3.64,190.5-2.51,50.7.84,86.43,3.23,86.72.21.31-3.12-37.33-10.91-59.93-14.82-19.08-3.3-38.76-5.79-38.67-8.38.11-3.2,30.31,1.77,38.67-12.24,6.9-11.56-1.86-34.73-14.82-38.67-15.35-4.67-30.82,19.39-43.18,12.89-7.33-3.85-6.33-14.64-16.11-18.04-5.94-2.07-8.38,1.19-12.89-.64-11.59-4.7-4.18-29.74-13.53-35.45-15.04-9.18-77.98-4.51-79.91,32.22-.43,8.17-22.28-1.2-27.07.64-4.89,1.88-16.35.84-18.04,16.76-1.53,14.37,20.91,18.43,18.04,21.27-6.41,6.35-18.33-1.58-34.16-.64-9.39.56-22.47,4.37-37.74,19.33"/>
  <path class="cls-17" d="M658.83,653.95c-5.82,14.85-1.65,30.71,9.23,38.73,6.67,4.91,16.2,7.14,24.39,4.24,13.82-4.9,22.98-24.09,17.27-45.33"/>
  <polygon class="cls-7" points="574.43 565.17 532.41 484.79 477.25 441.42 393.49 441.42 292.93 394.1 257.64 368.47 176.95 300.45 102.39 275.81 50.3 255.11 17.61 232.44 37.02 223.57 111.58 263 169.8 268.91 122.82 216.67 103.41 172.31 51.32 139.78 -2.48 68.5 -2.96 63.05 0 14.57 6.37 54.02 69.7 125.98 182.06 228.49 269.9 331.01 376.13 379.31 398.6 386.21 509.94 387.2 726.21 595.99 574.43 565.17"/>
  <path class="cls-14" d="M1626.59,2427l-9.07-972.17.87-173.31,1.32-101.09,4.04-350.88-62.29,118.83-65.56,59.41-50.19-80.93-5.12-35.85-13.32-115.76,55.32-62.49,34.83-94.24,18.44-147.51,58.39-55.32,29.51-32.78v-59.41l-25.41,27.66,13.32-45.07-18.44-35.85,30.54-72.73V45.89l-66.53,176.16-11.58-26.16h-11.21l18.69,39.24-9.34,53.25,13.45,16.89v17.95l-14.48,55.6-61.97,25.48-34.17,27.8-15.06-48.65-26.06-21.43-5.79-39.96-35.91-20.27-19.69-28.38-10.42-60.81,23.17-18.53,6.95-27.8,28.96-7.53v-7.53l-30.69,9.85,9.85-35.91-9.85.58-8.11,56.18-32.43,24.33-7.53-43.44-5.79-.58,6.95,34.17,9.27,83.98,29.54,30.12,35.91,37.65,6.95,45.75,26.06,33.01,21.69,48.73,4.74,144.95-76.74,78.63-26.79,66.65c-49.92-89.06-75.92-117.4-90.38-123.25-1.82-.74-8.83-3.29-14.61-10.04-9.72-11.36-9.76-27.37-8.22-39.26l36.75-45.79,11.31-68.41,18.66-13,11.87-.57v-9.04h-14.13l-15.26,6.78-13-4.52,4.52,17.53-16.4,58.8-34.49,41.27-19.22-70.67-3.96-55.97-12.44-57.1-15.83-71.8v-26.01l-8.48-66.14,19.79-59.36,3.12-20.34,2.88-25.93,38.42-46.1,31.05-38.9,22.92-35.37-1.59-2.66-26.05-.83-37.37,41.75-29.29,24.49,4.8-7.2L1197.83.09l-14.08-.09h-56.6l28.89,27.89-33.6,70.17-32.65-74.91-14.41-50.42-18.73-65.08h-21.61c-.44,26.46,3.3,47.03,6.72,60.75,5.9,23.68,13.12,36.12,36.5,90.76,7.13,16.67,12.79,30.29,16.33,38.9l11.52,45.14-1.92,111.89h-7.68l-35.54-81.64-27.85-16.33c-3.42-57.96-15.86-73.29-22.09-78.27-1.52-1.21-11.28-8.7-22.09-16.81-6.38-4.78-11.6-8.63-14.89-11.04l-12.97-44.66-26.41-31.21v-29.77h-26.41v7.68l11.53,21.61c5.73,4.48,13.63,11.52,21.13,21.61,15.13,20.35,25.81,49.32,18.73,54.74-2.19,1.68-7.01,1.8-18.73-5.76l-6.24,6.72c6.64,1.39,53.89,12,70.11,51.86,3.69,9.05,5.09,17.94,5.28,25.93l-6.72-6.72-8.16,8.16,38.9,56.18,37.94,64.83,22.72,50.79-4.25,18.42-14.88-11.33h-41.79l-38.96,17.71,5.67,19.83,8.5-11.33c3.81-2.81,9.5-6.44,17-9.21,6.2-2.29,22.18-8.2,34-2.83,13.55,6.15,21.08,26.88,17,50.29l31.88,28.33-14.17,66.59-59.5-58.09-43.21-34-26.37-64.18-16.9,7.8-19.5-4.55-9.1-17.55-23.4-18.85-40.31-53.96-73.46-11.05-40.31-11.7-33.81-29.26-16.25-48.11-21.45-41.61-9.75,15.6c2.79,5.28,7.05,13.6,11.7,24.05,16.06,36.05,15.41,49.07,27.3,66.96,12.2,18.35,28.13,27.6,37.71,33.16,33.85,19.64,67.45,18.28,81.26,16.9l53.31,57.86h-19.5l-13.65-11.05-29.26-9.75-44.21-3.9-27.3-26.66,22.1,39.66h56.56l26,14.3-11.05,16.25,61.11-4.55,21.94,27.85,65.15,73.99,54.11,39.75,56.32,55.21-4.85,96.83c-59.91-20.2-110.61-35.25-148.1-45.81-114.75-32.29-149.77-34.78-174.06-35.12-9.84-.14-53.32-.41-109.24,10.97-40.28,8.2-73.75,19.75-99.17,30.22l-212.99,3.15-142.24-47.41-33.27-2.5L-12.64,588.64v54.58l31.29,3.63c55.48-18.01,92.93-33.27,117.72-44.4,6.52-2.93,11.74-5.38,19.62-6.2,33.06-3.43,47.05,28.7,95,50.6,32.55,14.86,49.62,10.79,51.55,19.55,2.28,10.31-18.4,29.55-115.51,68.55l-75.71,6.79-29.12-12.62-21.35-4.85-20.38-23.3-53.1-.72v8.16l42.42-.64,27.18,28.15,60.18,18.44,63.09-.97-35.92,40.77-56.3,24.27-33,29.12-30.09-10.68,6.8,20.38.97,11.65,39.8-18.44,18.44-15.53,40.77-14.56-25.24,41.74-19.41,40.77-22.33,35.92-38.83,66.01-38.54.88v23.84l39.51,14.11-12.62,28.15-26.89,8.35v2.91l4.56,9.13,28.15-5.82,45.22-83.82c-.45-4.05-.98-11.22,0-19.99,3.99-35.7,26.87-42.3,49.2-89.93,3.74-7.99,8.35-19,19.22-30.75,7.68-8.3,15.45-13.68,20.75-16.91l8.46-23.06,31.52-46.89,87.63-46.89,43.05-28.44,18.65-18.74c20.85,3.46,51.86,7.01,89.25,5.05,12.45-.65,35.76-5.15,82.52-12.63,9.28-1.48,13.72-2.21,15.32-2.47,63.6-10.13,153.62,2.39,160.67,3.31,72.16,9.37,125.02,27.73,141.46,33.68,42.41,15.34,70.95,30.78,113.67,53.89,80.13,43.34,60.24,44.4,120.74,77.52,11.51,6.3,28.73,15.29,39.91,34.62,9.52,16.45,4.32,22.5,14.22,43.38,11.13,23.48,21.85,24.58,34.14,47.65,7.92,14.86,9.96,26.59,13.51,44.81,0,0,5.93,30.41,25.6,116.64,9.79,42.92,15.14,59.6,18.49,93.88,1.43,14.62,1.93,26.73,2.13,34.85-28.9-3.14-71.32-11.56-116.64-35.56-23.63-12.51-42.73-26.45-57.61-39.12l-56.9-31.29-27.74-59.03,7.11-32.72h-12.8l-15.01,17.21-48.83-9.05-123.29-11.14-99.82-75.16-5.97,4.37,41.76,39.37,37.38,30.62-1.59,9.94-22.27.8v5.17h23.46l14.32-9.94,10.82,8.36h56.32l39.52,18.8,38.76,3.69,25.47,2.58,25.47,37.65,19.93,38.39c10.03,5.16,24.56,12.73,42.08,22.15,16.58,8.91,24.87,13.37,26.94,14.76,26.12,17.56,40.12,38.47,53.89,39.13,1.49.07,6.73.09,11.81,3.32,3.15,2.01,5.13,4.54,6.27,6.27l-67.55,43.92c-9.14,47.87-30.27,76.57-42.45,90.43-17.4,19.81-37.63,33.37-57.21,46.51-19.5,13.08-36.92,22.44-49.83,28.79l-25.47-11.44-1.11,6.64,21.78,9.23-63.49,42.08-31.01,5.54-1.85,10.33,36.17-10.7v8.12l4.06.37,3.32-14.03,55.37-37.28,63.49-30.27,40.97-35.06-2.58,29.9,10.7-1.48,7.06-36.19,27.14-35.82,28.22-56.44,66.21-34.74,99.51,35.61c-9.88,104.63,8.13,174.21,27.62,219.41,8,18.55,17.23,35.28,23.02,64.44,11.5,57.99-1.51,110.32-12.28,151.9-12.23,47.25-16.35,39.24-23.02,70.58-16.56,77.83,12.62,109.25,9.21,202.54-2.08,56.86-12.92,45.14-13.81,95.13-1.62,91.58,34.94,120.26,41.43,207.14,4.28,57.31-10.99,53.46-15.61,107.14h360.3Z"/>
  <g>
    <path class="cls-3" d="M447.69,1167.47c-96.5,70.54-149.85,111.63-136.19,120.4,18.54,11.9,74.48-63.8,221.16-80.45,84.5-9.59,162.8,21.7,269.5-13.39,103.15-33.93,313.28,64.84,318.04,47.2,5.82-21.56-125.77-71.95-227.69-96.4-58.93-14.14-169.69-38.23-266.18-1.83-19.3,7.28-69.5,28.88-137.83,27.79-17.3-.28-31.5-1.94-40.81-3.31Z"/>
    <path class="cls-12" d="M429.94,1745.69c8.54-2.18,36.04-8.13,64.93,3.59,9.61,3.9,31.81,12.9,40.53,34.95,9.41,23.79-3.96,44.85-6.25,48.32l23.39.27,14.31,3.29,13.33-15.03c1.71-.65,3.89-1.73,5.82-3.55,2.65-2.51,3.55-5.22,3.76-5.79,1.36-3.7,9.28-13.83,31.63-37.41l4.54-6.6,11.01-38.48,8.02-36.13-7.9-16.55-20.73-49.38-7.4-28.22-3.83-29.93-11.83-36.57-9.65-26.89-22.47-61.33-19.51-62.86c-1.22-5.71-4.1-14.15-11.95-20.69-8.48-7.06-18.78-8.56-21.64-9.05-19.08-3.24-86.76-25.37-198.79-64.58l4.77-13.02c7.11-3.16,14.22-6.32,21.32-9.47,9.9-4.4,19.8-8.8,29.7-13.19,17.42-9.13,34.83-18.27,52.25-27.4l66.5-25.8,57.03-10.56,35.5-5.49,41.25-1.08c20.11,3.14,50.81,6.4,88.05,3.89,28.38-1.92,34.87-5.45,81.76-11.08,48.17-5.78,72.72-8.6,95.5-4.81,28.83,4.8,24.23,11.16,70.99,23.29,25.88,6.71,53.66,11.6,75.17,15.39,25.79,4.54,40.57,6.41,60.04,15.07,14.07,6.26,24.48,13.34,31.14,18.42l-146.54,69.72-42.34,18.17-18.81,9.28c.08,4.38-.45,11.93-4.62,20.38-5.12,10.36-13.02,16.58-17.14,19.41l-1.53,57.2-5.49,17.67,1.57,29.06-25.54,28.36c-.58,6.01-1.58,14.98-3.34,25.8-7.76,47.62-22.03,80.37-31.8,105.63-9.61,24.86-21.97,60.84-32.51,106.97l-26.41,26.88-76.13,81.4-9.92,10.72-81.75,25.85-57.43-5.42-49.89-26.62-7.57-44.54-24.03-40.97-1.96-13.71-27.08-16.76Z"/>
  </g>
  <polygon class="cls-2" points="1469.59 687.92 1371.38 834.76 1426.47 990.57 1476.3 1047.22 1618 1130.76 1619.28 984.98 1619.28 866.09 1619.28 838.06 1563.91 921.93 1536.78 939.79 1516.73 955.25 1463.16 876.07 1439.17 798.23 1449.99 746.13 1482.57 712.77 1517.4 618.52 1469.59 687.92"/>
  <polygon class="cls-7" points="45.34 613.33 191.39 555.12 343.76 680.92 321.14 702.28 194.43 774.99 162.91 821.88 154.46 844.94 129.81 866.35 113.07 895.56 92.12 929.94 69.39 965.1 65.29 982.53 65.29 1002.52 20.08 1086.34 0 1090.49 .31 1077.79 .29 1075.02 11.66 1069.97 19.87 1041.34 .53 1034.22 .53 1005.38 21.1 1004.68 77.32 913.81 87.05 902.88 98.44 878.96 131.7 820.38 90.93 834.94 72.49 850.47 32.69 868.91 31.72 857.26 24.93 836.88 55.02 847.55 88.02 818.43 144.32 794.17 180.24 753.4 117.14 754.37 56.96 735.93 29.78 707.78 0 708.23 0 700.43 40.46 700.98 60.84 724.28 82.2 729.13 111.32 741.75 187.03 734.96 257.92 705.13 299.5 675.48 302.54 666.4 245.55 644.25 213.82 624.31 173.67 595.99 147.27 598.03 18.65 646.85 .53 644.75 0 623.98 45.34 613.33"/>
  <polygon class="cls-7" points="295.17 640.8 205.3 573.45 565.48 632.39 819.54 640.8 975.95 709.27 1154.32 839.72 1154.32 884.89 1198.23 952 1253.29 1306.55 1272.27 1445.69 1401.99 1625.88 1321.6 1874.8 1341.13 2314.25 1317.19 2430.82 1265.57 2421.66 1282.64 2315.85 1234.42 2117.9 1254.28 1998.71 1233.22 1836.76 1292.06 1630.35 1245.71 1485.21 1229.73 1299.56 1194.77 1119.71 1155.66 960.48 1121.52 913.48 1107.29 870.7 946.64 760.1 785.02 692.1 586.22 667.84 481.76 681.52 417.95 685.85 317.51 681.52 295.17 640.8"/>
  <polygon class="cls-7" points="1240.76 632.56 1122.33 619.97 1165.48 485.3 1157.16 360.59 1133.7 342.86 1133.7 270.69 1129.68 234.17 1167.44 102.14 1186.31 65.4 1252.97 -.83 1279.02 0 1188.23 123.03 1182.23 169.3 1162.44 228.66 1170.92 294.81 1173.03 330.35 1178.34 354.44 1199.19 449.71 1200.75 515.12 1222.37 576.35 1256.85 535.08 1232.54 593.31 1240.76 632.56"/>
  <polygon class="cls-7" points="1303.22 1983.32 1532.06 1765.57 1618 2427 1295.66 2427 1295.66 2124.17 1303.22 1983.32"/>
  <polyline class="cls-7" points="1449.28 620.57 1468.43 468.99 1434.53 437.66 1405.18 397.16 1436.8 474.27 1446.7 609.86"/>
  <polyline class="cls-7" points="1617.04 333.7 1581 381.51 1588.58 309.79 1566.06 292.56 1591.55 230.23 1599.79 254.56 1597.11 276.67 1611.65 306.09 1607.95 327.04 1601.71 340.46"/>
  <polygon class="cls-5" points="455.48 594.19 612.17 584.87 698.28 548.57 817.61 548.57 1045.74 605.92 827.54 533.45 750.61 528.65 686.26 531.41 555.6 567.09 392.13 569.51 455.48 594.19"/>
  <polygon class="cls-5" points="1335.99 776.14 1231.92 645.96 1169.79 632.56 1240.76 632.56 1273.76 656.97 1335.99 776.14"/>
  <polygon class="cls-5" points="1446.6 432.11 1480.77 404.31 1542.74 378.82 1549.73 351.96 1545.18 384.79 1528.9 400.96 1495.21 408.76 1446.6 432.11"/>
  <polygon class="cls-5" points="992.03 377.37 962.2 328.05 944.96 336.91 926.16 323.81 909.63 292.83 920.15 298.89 929.25 316.44 948.75 321 965.66 313.19 992.03 377.37"/>
  <polygon class="cls-11" points="237.01 292.63 289.75 367.03 381.13 402.7 481.1 402.7 510.01 392.87 499.6 384.72 392.13 387.9 269.9 331.01 237.01 292.63"/>
  <polygon class="cls-1" points="912.63 1336.17 746.96 1352.86 517.55 1354.54 624.09 1408.77 738.14 1380.93 859.8 1364.42 831.2 1430.62 866.9 1415.12 858.28 1489.91 890.63 1408.05 896.34 1387.16 894.22 1375.66 910.44 1353.69 912.63 1336.17"/>
  <polyline class="cls-1" points="585.95 1465.2 597.57 1473.77 674.53 1530.52 787.71 1477.39 703.13 1626.43 691.98 1662.99 651.12 1662.99 631.34 1662.99 607.22 1585.76 605.08 1569.05 566.79 1459.71"/>
  <polyline class="cls-1" points="792.12 1748.87 677.25 1821.09 606.71 1844.57 637.18 1881.3 679.65 1867.86"/>
  <polygon class="cls-1" points="1108.55 1245.09 999.06 1226.8 847.98 1239.81 810.96 1213.5 728.44 1299.05 803.1 1303.14 913.86 1293.06 871.41 1328.3 921.99 1324.59 946.03 1321.86 1108.55 1245.09"/>
  <polyline class="cls-18" points="1116.5 1241.5 689.81 689.05 311.5 1287.87"/>
  <path class="cls-10" d="M564.12,2392.72c3.25-21.23,6.49-42.47,9.74-63.7l40.19,40.76,32.38-86.78,34.71,29.59,18.28-49.56,46.17,35.26,29.76-67.42,23.87,52.14,31.54-68.74,41.12,46.21,22.42-82.86,22.01,50.84,31.66-41.06,30.24,54.27,12.47-64.05,47.47,45.46v-67l57.28,59.8,11.41-97.36,49.39,67.09,21.38-107.41,38.51,73.51-461.23,187.47-190.77,53.55Z"/>
</svg>