<?xml version="1.0" encoding="UTF-8"?>
<svg xmlns="http://www.w3.org/2000/svg" viewBox="0 0 1618 2427">
  <defs>
    <style>
      .cls-1 {
        fill: #acb846;
      }

      .cls-1, .cls-2, .cls-3, .cls-4, .cls-5, .cls-6, .cls-7, .cls-8, .cls-9, .cls-10, .cls-11, .cls-12, .cls-13, .cls-14, .cls-15, .cls-16, .cls-17, .cls-18, .cls-19, .cls-20, .cls-21 {
        stroke-width: 0px;
      }

      .cls-22 {
        stroke-width: 4px;
      }

      .cls-22, .cls-4 {
        fill: #2a6135;
      }

      .cls-22, .cls-23 {
        stroke: #2a6135;
      }

      .cls-22, .cls-23, .cls-24, .cls-25 {
        stroke-miterlimit: 10;
      }

      .cls-2 {
        fill: #fabb29;
      }

      .cls-3 {
        fill: #85a63c;
      }

      .cls-5 {
        fill: #b0d7d8;
      }

      .cls-6 {
        fill: #fad8da;
      }

      .cls-7 {
        fill: #2c6257;
      }

      .cls-8 {
        fill: #fdf0e6;
      }

      .cls-9 {
        fill: #37864d;
      }

      .cls-23, .cls-24, .cls-25 {
        fill: none;
      }

      .cls-23, .cls-25 {
        stroke-width: 8px;
      }

      .cls-10 {
        fill: #ee7a7f;
      }

      .cls-11 {
        fill: #ed741f;
      }

      .cls-12 {
        fill: #e7dbce;
      }

      .cls-13 {
        fill: #c8dad9;
      }

      .cls-14 {
        fill: #fadadb;
      }

      .cls-15 {
        fill: #b3d9d7;
      }

      .cls-16 {
        fill: #fab800;
      }

      .cls-24 {
        stroke-width: 7px;
      }

      .cls-24, .cls-25 {
        stroke: #37864d;
      }

      .cls-17 {
        fill: #ed7085;
      }

      .cls-18 {
        fill: #faeddb;
      }

      .cls-19 {
        fill: #fff;
      }

      .cls-20 {
        fill: #f8cccb;
      }

      .cls-21 {
        fill: #f9b74d;
      }
    </style>
  </defs>
  <g id="_Слой_9" data-name="Слой 9">
    <rect class="cls-20" x=".03" y=".42" width="1622.95" height="2434.27"/>
    <path class="cls-12" d="M8.62,1616.71c3.9-53.38,80.84-90.12,98.15-98.39,87.56-41.81,188.72-14.02,214.56,8.94,2.33,2.07,11.76,10.95,26.74,14.97,4.88,1.31,26.59,6.45,39.47-3.74,14.6-11.55,3.31-31.26,11.46-53.64,12.56-34.47,66.82-62.96,105.69-52.39,42.38,11.52,57.76,67.1,94.23,67.36,5.34.04,13.94-1.09,29.29,0,18.35,1.3,23.94,4.18,31.83,1.25,12.38-4.6,15.98-18.11,20.37-26.2,16.86-31.05,78.73-43.57,119.7-33.68,65.97,15.92,76.67,89.66,114.6,84.82,33.99-4.33,36.23-64.93,71.31-68.61,39.96-4.19,70.91,70.89,104.42,61.12,15.92-4.64,15.14-23.39,31.83-26.2,27.03-4.55,49.19,41.19,64.94,34.93,10.81-4.3,1.72-26.36,16.55-46.15,14.89-19.88,45.94-26.84,68.76-22.45,32.58,6.26,47.27,35.45,66.21,58.63,68.6,83.93,172.3,63.8,180.82,98.54,12.89,52.58-205.41,177.22-467.32,239.5-348.08,82.77-604.08,15.18-665.97-2.49C248.56,1813.5,1.41,1715.49,8.62,1616.71Z"/>
    <path class="cls-15" d="M-11.23,1701.61c98.71-48.71,173.1-48.39,219.21-41.58,205.6,30.36,293.15,255.34,528.11,300.09,35.9,6.84,75.71,9.55,119.57,0,103.65-22.58,168.49-100.31,189.32-122.93,67.44-73.23,209.35-150.56,539.73-159.08l21.59,335.1-1184.51,172.88L3.09,1921.43l-14.32-219.82Z"/>
    <path class="cls-13" d="M384.11,1711.77c9.43-22.65,102.8-30.19,163.57,7.75,33.91,21.17,47.93,50.42,70.94,46.49,28.8-4.92,21.77-53.27,53.21-75.54,66.06-46.79,203.02,91.56,275.9,46.49,25.86-16,14.44-37.02,39.41-81.35,80.29-142.52,321.18-143.18,376.4-143.34,61.35-.17,92.03-.26,102.48,15.5,48.15,72.6-173.86,435.62-514.35,470.69-320.08,32.97-586.93-240.16-567.56-286.67Z"/>
    <g>
      <path class="cls-2" d="M824.53,1334.35c133.68,0,242.05-110.92,242.05-247.75s-108.37-247.74-242.05-247.74-242.05,110.92-242.05,247.74,108.37,247.75,242.05,247.75Z"/>
      <path class="cls-2" d="M588.61,948.35c20.35-2.86,20.42-33.8,52.22-63.85,29.03-27.45,51.39-22.86,54.26-38.88,4.02-22.58-35.59-59.06-79.33-65.93-45.53-7.16-61.45,23.12-96.28,11.1-30.38-10.48-22.31-34.91-67.81-71.49-9.56-7.7-46.06-35.69-96.96-40.27-17.71-1.6-43.19-.9-44.75,6.25-2.09,9.45,41.1,14.62,67.13,48.58,27.24,35.56,12.22,54.45,23.74,97.86,19.67,74.28,62.38,82.59,149.87,93.02,17.35,2.06,23.84,25.59,37.98,23.61h-.05Z"/>
      <path class="cls-2" d="M1082.55,1011.48c-17.92-3.17-9.66-40.55-37.63-73.71-25.53-30.28-52.65-44.39-42.28-58.75,18.91-26.26,34.03-31.2,48.77-68.35,20.25-51.08,45.5-71.6,76.16-84.85,26.71-11.56,40.6,1.54,90.41-3.45,11.75-1.18,42.2,13.13,73.12-20.36,13.91-15.06,28.65-39.75,30.03-31.87,1.84,10.43,4.43,82.08-34.78,110.63-36.4,26.49-106.55,39.7-113.01,112.84-7.08,80.04-5.19,55.3-46.51,97.14-10.96,11.1-31.84,22.94-44.26,20.72v.02Z"/>
      <path class="cls-2" d="M669.45,787.99c12.88,12.1,22.54,12.13,35.69,29.99,5.41,7.36.78,12.41,5.1,16.3,8.6,7.78,27.32-1.72,37.08-15.24,17.86-24.72-2.06-78.47-38.36-111.32-35.89-32.49-82.47-41.24-86.02-34.58-2.69,5.05,21.16,15.24,37.61,48.92,5.99,12.28,16.7,34.19,10.84,55.46-1.28,4.66-4.65,7.88-1.91,10.43l-.02.05Z"/>
      <path class="cls-2" d="M775.63,818.11c12.63,4.51,34.23-3.61,72.36-.88,45,3.22,58.96,18,79.26,17.63,20.3-.36,14.34-46.08,13.78-52.03-2.77-29.71-19.37-51.7-48.24-89.05-24.02-31.07-31.04-33.42-33.6-48.5-4.07-24.13,11.49-32.39,17.23-67.02,5.78-34.88-3.9-63.56-8.6-77.6-14.77-43.79-45.63-78.26-51.69-74.94-3.42,1.85,4,14.01,5.16,37.92.23,4.81,1.61,41.94-18.94,75.82-14.61,24.1-22.96,17.89-43.06,44.08-9.69,12.61-33.58,43.71-31.01,80.25.58,8.24,10.16,28.42,29.28,68.77,14.39,30.33,22.84,45.29,19.82,66.14-1.48,10.17-6.94,17.53-1.71,19.39l-.02.02Z"/>
      <path class="cls-2" d="M945,843.93c3.29,12.23,20.47,20.9,34.08,19.34,4.37-.52,12.88-2.6,33.05-28.45,15.37-19.7,23.67-30.33,28.85-44.56,19.92-54.61-21.03-120.39-27.27-118.66-1.96.54.68,7.49-1.59,23.63-1.38,9.89-4.68,33.62-20.45,51.54-15.7,17.82-31.49,22.68-34.06,38.21-.86,5.15-2.01,2.47-1.46,10.43,1.79,25.59-15.09,33.96-11.14,48.55l-.02-.02Z"/>
      <path class="cls-2" d="M568.61,1189.95c10.21-18.26-13.68-37.18-17.53-81.3-3.5-40.29,13.71-55.61,3.05-67.71-15.02-17.07-67.44-7.21-99.46,24.04-33.33,32.54-19.62,63.93-50.2,84.83-26.66,18.23-40.62-3.22-96.71,11.33-11.8,3.06-55.74,15.55-90.35,54.02-12.05,13.36-27.06,34.45-22.49,40.08,6.03,7.47,36.42-24.38,78.58-24.77,44.14-.39,49.6,23.32,90.22,40.52,69.47,29.4,102-.15,163.47-64.7,12.2-12.82,34.36-3.71,41.45-16.38l-.02.03Z"/>
      <path class="cls-2" d="M737.22,1351.22c-7.37-19.65-36.8-12.67-72.64-37.51-32.72-22.68-33.43-46.03-49.33-45.24-22.41,1.13-48.09,48.92-44.67,94.08,3.55,47.01,35.99,55.97,32.47,93.45-3.07,32.67-28.12,30.17-52.57,83.85-5.13,11.28-23.47,54.04-16.22,105.82,2.52,17.99,8.98,43.25,16.12,43.18,9.48-.08,4.55-44.31,30.94-77.96,27.62-35.24,49.02-24.59,87.71-45.93,66.18-36.5,64.39-80.97,54.38-170.54-1.99-17.76,18.91-29.58,13.81-43.23v.03Z"/>
      <path class="cls-2" d="M1046.93,1249.83c-8.33-16.53,20.27-31.77,29.27-74.58,8.23-39.08,8.4-70.31,25.83-70.51,31.87-.36,48.75,18.66,82.68-1.37,42.29-24.97,83.25-5.97,112.06,11.05,25.13,14.85,23.27,34.09,57.17,71.75,8,8.88,13.41,27.57,58.15,32.64,20.12,2.29,44.35.77,39.04,6.67-7.02,7.77-75.11,44.18-121.24,38.75-46.14-5.43-81.5-69.44-147.85-20.57-66.36,48.87-34.74,38.39-92.29,29.84-15.27-2.27-37.08-12.2-42.83-23.66Z"/>
      <path class="cls-2" d="M839.97,1360.95c7.09-16.63,40.17.1,77.67-19.28,34.21-17.69,53.7-40.71,64.74-27.3,20.17,24.48,21.3,40.32,52.64,63.28,43.09,31.59,56.44,60.89,61.78,93.71,4.63,28.63-10.82,39.03-17.68,88.53-1.61,11.69-22.07,37.87,2.13,75.72,10.87,16.99,30.56,37.1,22.87,36.59-10.19-.67-77.8-14.88-95.43-59.6-16.38-41.51-12.5-112.66-79.44-136.01-73.25-25.57-50.53-17.95-80.11-67.84-7.85-13.23-14.08-36.25-9.15-47.78l-.02-.03Z"/>
      <path class="cls-2" d="M1083.42,1034.32c5.71-13.29,39.01-5.23,46.44-21.5,1.26-2.75,1.91-6.51,5.38-8.5,5.36-3.09,12.67.8,15.15,2.01,22.5,10.89,60.54-.26,63.03-1.01,28.67-8.68,39.07-32.31,44.95-28.5,5.56,3.58-.04,26.75-10.26,45.52-25.16,46.21-75.01,59.65-84.54,62.02-31.59,7.83-70.78,5.77-75.74-8.01-1.03-2.83.31-3.66.1-12.54-.48-19.67-7.19-23.2-4.48-29.48l-.03-.02Z"/>
      <path class="cls-2" d="M811.34,1359.97c12.02,7.69-.55,40.27,14.11,50.12,2.49,1.67,6.01,2.86,7.45,6.67,2.21,5.87-2.62,12.72-4.1,15.06-13.76,21.25-17.05,61.97-16.68,64.6,4.25,30.3,18.91,43.27,14.41,48.7-4.25,5.1-17.05-3.7-33.7-16.76-41.08-32.1-40.42-84.42-41.35-94.4-3.04-33.11,4.58-72.52,18.64-75.59,2.89-.62,3.5.82,12.1,1.91,19.09,2.34,23.47-3.96,29.15-.31h-.02Z"/>
      <path class="cls-2" d="M1019.41,1268.7c12.5-3.32,28.98,27.17,44.55,23.41,2.64-.65,5.53-2.33,9.13-.8,5.53,2.37,7.77,10.3,8.6,12.89,7.55,23.8,39.76,46.74,41.91,48.22,24.47,17.15,46.83,11.38,48.19,18.17,1.28,6.38-17.69,15.58-36.7,18.62-46.91,7.49-88.39-23.27-96.19-29.27-25.83-19.88-50.11-51.42-44.27-63.31,1.21-2.45,2.62-1.91,8.33-7.23,12.65-11.85,10.59-19.11,16.5-20.68l-.05-.03Z"/>
      <path class="cls-2" d="M497.5,1018.66c17.38-1.83,23.82-9.22,45.63-7.41,8.98.75,9.58,7.65,15.29,6.92,11.4-1.42,16.88-22.06,13.48-38.49-6.21-30.07-58.71-50.51-106.8-44.54-47.56,5.92-84.89,35.78-82.38,42.92,1.91,5.41,25.2-6.08,60.72,3.68,12.95,3.55,36.07,9.91,47.72,28.5,2.57,4.09,2.66,8.78,6.36,8.39l-.02.02Z"/>
      <path class="cls-2" d="M569.52,1299.55c9.1-15.26,7.24-24.97,21.83-41.66,6.01-6.88,11.75-3.19,14.64-8.29,5.79-10.17-6.94-27.08-21.78-34.27-27.14-13.13-74.8,17.3-99.25,60.11-24.17,42.35-23.52,90.83-16.45,93.1,5.36,1.72,10.52-24.2,39.59-47.25,10.61-8.39,29.53-23.39,51.04-21.62,4.73.39,8.45,3.14,10.36-.1l.02-.03Z"/>
    </g>
    <path class="cls-15" d="M1618,1574.64c-75.16-74.13-105.17-76.94-135.72-71.37-77.8,14.19-67.35,114.85-188.96,188.97-66.83,40.73-120.23,40.96-141.72,91.98-16.89,40.09,5.32,65.53-17.5,93.65-27.34,33.7-75.42,17.1-132.97,38.46-69.85,25.92-129.54,92.63-120.73,118.73,11.83,35.05,171.62,40.51,737.61-71.94v-388.49Z"/>
    <path class="cls-5" d="M8.46,1673.85c18.18-32.4,75.35-32.41,131.63-31.77,27.46.31,247.05,5.26,386.33,127.1,7.03,6.15,40.64,36.02,88.89,76.93,47.11,39.93,65.23,53.98,87.18,68.57,19.36,12.87,50.32,33.45,83.76,46.83,92.13,36.86,172.14,6.69,174.36,15.05,3.75,14.1-208.96,155.01-471.81,113.72-243.36-38.23-373.3-208.06-429.07-280.95-70.27-91.84-56.92-125.41-51.28-135.46Z"/>
    <path class="cls-1" d="M0,1876.98c186.77-16.57,311.63,36.7,401.89,53.45,203.67,37.79,282.1,98.19,418.74,167.32,33.31,16.85,33.73-18.2,110.7-62.74,205.57-118.96,401.68-152.04,519.81-171.96,40.62-6.85,92.25-14.98,166.85-20.27l8.83,591.93H0v-557.72Z"/>
    <path class="cls-3" d="M3.48,2095.62c-19.11-66.43,179.34,17.07,619.96,73.86,71.32,9.19,132.41,16.65,210.76,9.88,119.48-10.32,159.91-43.43,265.4-73.14,152.17-42.86,392.88-65.46,483.97-17.79,78.6,41.14,143.14,345.71,31.18,350.67-425.78,18.87-1234.54,13.03-1594.71-7.17-81.29-4.56-6.98-302.99-16.56-336.32Z"/>
    <path class="cls-11" d="M238,1799.41l7.26,23.18,28.85-6.59c21.32-4.87,35.41,21.54,19.49,36.54l-18.4,17.32,18.4,17.32c15.92,14.99,1.83,41.41-19.49,36.54l-28.85-6.59-7.26,23.18c-6.96,22.22-38.4,22.22-45.36,0l-7.26-23.18-28.85,6.59c-21.32,4.87-35.41-21.54-19.49-36.54l18.4-17.32-18.4-17.32c-15.92-14.99-1.83-41.41,19.49-36.54l28.85,6.59,7.26-23.18c6.96-22.22,38.4-22.22,45.36,0Z"/>
    <path class="cls-16" d="M452.76,1734.25l6.3,28.19,25.79-18.69c6.58-4.77,14.97,2.9,10.82,9.88l-15.05,25.29,31.99.77c7.95.19,9.73,11.24,2.25,13.93l-29.36,10.55,23.63,19.07c6.21,5.01.96,14.92-6.67,12.59l-31.02-9.45,4.66,28.46c1.34,8.22-9.44,12.49-14.09,5.58l-17-25.27-17,25.27c-4.65,6.91-15.44,2.64-14.09-5.58l4.66-28.46-31.02,9.45c-7.63,2.33-12.88-7.58-6.67-12.59l23.63-19.07-29.36-10.55c-7.48-2.69-5.69-13.74,2.25-13.93l31.99-.77-15.05-25.29c-4.16-6.98,4.24-14.65,10.82-9.88l25.79,18.69,6.3-28.19c1.85-8.29,13.67-8.29,15.53,0Z"/>
    <path class="cls-19" d="M581.16,1952.73l6.3,28.19,25.79-18.69c6.58-4.77,14.97,2.9,10.82,9.88l-15.05,25.29,31.99.77c7.95.19,9.73,11.24,2.25,13.93l-29.36,10.55,23.63,19.07c6.21,5.01.96,14.92-6.67,12.59l-31.02-9.45,4.66,28.46c1.34,8.22-9.44,12.49-14.09,5.58l-17-25.27-17,25.27c-4.65,6.91-15.44,2.64-14.09-5.58l4.66-28.46-31.02,9.45c-7.63,2.33-12.88-7.58-6.67-12.59l23.63-19.07-29.36-10.55c-7.48-2.69-5.69-13.74,2.25-13.93l31.99-.77-15.05-25.29c-4.16-6.98,4.24-14.65,10.82-9.88l25.79,18.69,6.3-28.19c1.85-8.29,13.67-8.29,15.53,0Z"/>
    <path class="cls-21" d="M417.52,2146.26l4.81,11.27,24.82-9.84c7.79-3.09,14.76,5.95,9.79,12.7l-16.01,21.77,21.03,16.97c6.52,5.26,2.08,15.77-6.23,14.77l-26.52-3.19-1.78,12.13c-1.83,12.41-18.8,14.61-23.73,3.07l-4.81-11.27-24.82,9.84c-7.79,3.09-14.76-5.95-9.79-12.7l16.01-21.77-21.03-16.97c-6.52-5.26-2.08-15.77,6.23-14.77l26.52,3.19,1.78-12.13c1.83-12.41,18.8-14.61,23.73-3.07Z"/>
    <path class="cls-19" d="M117.33,2332.09l6.3,28.19,25.79-18.69c6.58-4.77,14.97,2.9,10.82,9.88l-15.05,25.29,31.99.77c7.95.19,9.73,11.24,2.25,13.93l-29.36,10.55,23.63,19.07c6.21,5.01.96,14.92-6.67,12.59l-31.02-9.45,4.66,28.46c1.34,8.22-9.44,12.49-14.09,5.58l-17-25.27-17,25.27c-4.65,6.91-15.44,2.64-14.09-5.58l4.66-28.46-31.02,9.45c-7.63,2.33-12.88-7.58-6.67-12.59l23.63-19.07-29.36-10.55c-7.48-2.69-5.69-13.74,2.25-13.93l31.99-.77-15.05-25.29c-4.16-6.98,4.24-14.65,10.82-9.88l25.79,18.69,6.3-28.19c1.85-8.29,13.67-8.29,15.53,0Z"/>
    <path class="cls-17" d="M628.42,2223.33l14.21,45.39,52.69-12.04c16.46-3.76,27.33,16.63,15.04,28.2l-36.01,33.91,36.01,33.91c12.29,11.57,1.41,31.96-15.04,28.2l-52.69-12.04-14.21,45.39c-5.37,17.15-29.64,17.15-35.01,0l-14.21-45.39-52.69,12.04c-16.46,3.76-27.33-16.63-15.04-28.2l36.01-33.91-36.01-33.91c-12.29-11.57-1.41-31.96,15.04-28.2l52.69,12.04,14.21-45.39c5.37-17.15,29.64-17.15,35.01,0Z"/>
    <path class="cls-14" d="M707.88,2040.59l7.48,20.98h22.37c6.64,0,9.23,8.62,3.7,12.28l-17.55,11.62,7.04,19.75c2.16,6.06-4.64,11.39-10.01,7.83l-19.34-12.81-19.34,12.81c-5.37,3.55-12.17-1.77-10.01-7.83l7.04-19.75-17.55-11.62c-5.53-3.67-2.94-12.28,3.7-12.28h22.37s7.48-20.98,7.48-20.98c2.11-5.93,10.5-5.93,12.62,0Z"/>
    <path class="cls-14" d="M833.03,2196.03l-2.25,15.85,32.67,4c8.4,1.03,9.88,12.58,2.01,15.69l-30.42,12.04,12.16,28.22c3.31,7.67-5.38,14.95-12.36,10.36l-28.49-18.77-12.78,14.33c-8.5,9.53-24.21,2.24-22.41-10.4l2.25-15.85-32.67-4c-8.4-1.03-9.88-12.58-2.01-15.69l30.42-12.04-12.16-28.22c-3.31-7.67,5.38-14.95,12.36-10.36l28.49,18.77,12.78-14.33c8.5-9.53,24.21-2.24,22.41,10.4Z"/>
    <path class="cls-11" d="M61.13,2292.23c11.23,2.49,20.65-2.9,22.51-4.01,13.63-8.2,15.94-24.6,13.21-35.69-2.27-9.22-9.31-19.97-14.68-19.18-8.38,1.23-8.3,29.89-12.72,29.89-4.24,0-6.3-26.36-9.79-26.32-4.08.05-5.74,36.14-8.81,36.13-3.13-.01-2.75-37.62-7.34-37.92-3.09-.2-10.29,16.42-5.38,32.56.96,3.16,6.33,20.83,23,24.54Z"/>
    <path class="cls-6" d="M281.2,2062.67l7.3,20.66h21.98c6.63,0,9.23,8.59,3.72,12.27l-17.28,11.54,6.91,19.54c2.15,6.07-4.68,11.38-10.04,7.8l-18.91-12.63-18.91,12.63c-5.36,3.58-12.18-1.73-10.04-7.8l6.91-19.54-17.28-11.54c-5.51-3.68-2.91-12.27,3.72-12.27h21.98s7.3-20.66,7.3-20.66c2.11-5.95,10.53-5.95,12.63,0Z"/>
    <path class="cls-14" d="M1262.92,2320.78c14.56,8.35,30.63,4.79,33.83,4.01,23.47-5.71,35.22-27.86,37.1-44.67,1.57-13.98-2.81-32.17-10.79-33.37-12.45-1.87-27.17,38.6-33.41,36.7-5.98-1.83,4.75-39.9-.19-41.34-5.78-1.68-26.79,48.52-31.12,47.19-4.41-1.36,15.58-54.25,9.26-56.65-4.26-1.61-23,18.74-24.44,43.63-.28,4.87-1.85,32.11,19.76,44.5Z"/>
    <path class="cls-21" d="M1359.78,1890.24l30.6,10.07,23.27-26.91c6.87-7.95,18.99-1.33,15.94,8.71l-11.12,36.59,23.58,25.85c6.92,7.59-1.16,20.19-10.9,16.99l-30.6-10.07-23.27,26.91c-6.87,7.95-18.99,1.33-15.94-8.71l11.12-36.59-23.58-25.85c-6.92-7.59,1.16-20.19,10.9-16.99Z"/>
    <path class="cls-11" d="M1269.57,1987.23l9.65,34.48,48.48-12.23c8.12-2.05,13.86,7.82,8.06,13.86l-34.93,36.41,34.81,36.52c5.78,6.06.01,15.91-8.1,13.84l-48.45-12.37-9.78,34.45c-3.43,12.07-20.55,12.04-23.93-.04l-9.65-34.48-48.48,12.23c-8.12,2.05-13.86-7.82-8.06-13.86l34.93-36.41-34.81-36.52c-5.78-6.06-.01-15.91,8.1-13.84l48.45,12.37,9.78-34.45c3.43-12.07,20.55-12.04,23.93.04Z"/>
    <path class="cls-17" d="M1457.18,2143.54l6.3,28.19,25.79-18.69c6.58-4.77,14.97,2.9,10.82,9.88l-15.05,25.29,31.99.77c7.95.19,9.73,11.24,2.25,13.93l-29.36,10.55,23.63,19.07c6.21,5.01.96,14.92-6.67,12.59l-31.02-9.45,4.66,28.46c1.34,8.22-9.44,12.49-14.09,5.58l-17-25.27-17,25.27c-4.65,6.91-15.44,2.64-14.09-5.58l4.66-28.46-31.02,9.45c-7.63,2.33-12.88-7.58-6.67-12.59l23.63-19.07-29.36-10.55c-7.48-2.69-5.69-13.74,2.25-13.93l31.99-.77-15.05-25.29c-4.16-6.98,4.24-14.65,10.82-9.88l25.79,18.69,6.3-28.19c1.85-8.29,13.67-8.29,15.53,0Z"/>
    <path class="cls-21" d="M1413.02,2301.65l4.24,13.54,17.13-3.91c14.35-3.28,23.84,14.5,13.12,24.6l-10.74,10.12,10.74,10.12c10.72,10.09,1.23,27.88-13.12,24.6l-17.13-3.91-4.24,13.54c-4.68,14.96-25.85,14.96-30.54,0l-4.24-13.54-17.13,3.91c-14.35,3.28-23.84-14.5-13.12-24.6l10.74-10.12-10.74-10.12c-10.72-10.09-1.23-27.88,13.12-24.6l17.13,3.91,4.24-13.54c4.68-14.96,25.85-14.96,30.54,0Z"/>
    <g>
      <path class="cls-22" d="M183.93,1918c-17.02,90.55-30.5,184.3-39.67,281.16-.73,7.67-1.42,15.33-2.09,22.97"/>
      <path class="cls-4" d="M173.88,2019.09c13.99-32.73,29.9-45.9,34.73-49.67,13.02-10.16,31.27-19,34.73-15.28,2.93,3.14-5.44,14.52-10.82,21.83-24.58,33.41-48.52,41.76-61.5,71.5-2.81,6.44-4.15,11.69-3.42,12.01,1.38.61,7.18-17.56,23.35-30.57,14.03-11.28,35.39-18.29,43.27-11.46,2.13,1.84,3.7,5.06,2.85,7.64-2,6.03-16.11,4.99-26.19,7.1-32.27,6.73-43.36,49.76-49.54,47.49-5.19-1.91.69-32.89,12.53-60.59Z"/>
      <path class="cls-4" d="M157.67,2147.9c17.09-9.1,12.33-31.92,32.2-50.76,1.68-1.59,9.5-9.01,12.55-7.1.96.6,3.69,3.53-5.46,27.29-10.68,27.74-28.41,73.81-45.3,72.05-21.73-2.26-32.81-82.72-27.29-84.6,2.44-.83,12.93,12.04,16.37,27.29,1.78,7.91,1.36,15.08,6,17.47,3.91,2.01,8.99-.61,10.92-1.64Z"/>
    </g>
    <g>
      <path class="cls-9" d="M36.81,1726.98c.43,21.38,2.15,45,5.98,70.39,7.7,51.03,21.62,94.09,35.6,127.89"/>
      <path class="cls-9" d="M46.25,1821.46c-4.92-13.61-31.6-76.48-38.54-75.4-4.01.63-13.25,28.74-3.01,55.38,10.62,27.65,39.86,47.59,48.72,42.58,5.61-3.17,6.24-18.11-.77-21.77-2.5-1.31-6.11.03-6.41-.79Z"/>
      <path class="cls-9" d="M59.18,1854.47c1.54-11.63,8.55-19.5,10.25-21.43,22.88-26.02,40.89-65.7,46.76-62.77,4.7,2.35-2.76,29.91-14.53,51.78-13.41,24.9-35.16,47.55-41.11,44.21-2.71-1.52-1.83-8.24-1.36-11.8Z"/>
      <path class="cls-9" d="M73.87,1907.37c2.02-5.7-37.62-36.3-40.6-32.55-3.24,4.08,41.5,42.81,42.41,41.92.25-.25-2.95-3.55-2.25-7.81.14-.84.38-1.41.44-1.57Z"/>
    </g>
    <g>
      <path class="cls-4" d="M434.43,1833.32c5.21,19.55,10.29,41.69,14.67,66.31,8.8,49.5,12.17,94.41,13.15,130.95"/>
      <path class="cls-4" d="M453.35,1922.94c-.78-14.42-2.23-82.66,1.83-84.62,2.35-1.13,14.56,20.44,15.76,48.91,1.25,29.55-9.64,59.98-15.76,59.18-3.87-.5-8.02-13.77-5.13-20.05,1.03-2.24,3.35-2.55,3.3-3.42Z"/>
      <path class="cls-4" d="M454.71,1958.32c-3.8-9.89-9.64-14.06-11.06-15.09-19.13-13.9-39.07-42.25-41.53-37.11-1.97,4.12,9.13,25.93,21.13,40.78,13.67,16.89,31.31,28.22,33.72,22.68,1.1-2.52-1.1-8.24-2.27-11.26Z"/>
      <path class="cls-4" d="M460.17,2012.47c-2.56-4.31,11.3-48.8,13.88-46.66,2.81,2.33-11.75,56.34-12.48,55.92-.2-.12.71-4.46-.76-8.02-.29-.71-.57-1.11-.64-1.24Z"/>
    </g>
    <path class="cls-14" d="M87.93,1893l4.82,21.58,20.07-14.54c7.06-5.12,16.06,3.11,11.6,10.6l-11.52,19.36,24.63.6c8.53.21,10.44,12.06,2.42,14.95l-22.48,8.08,18.09,14.6c6.66,5.38,1.03,16.01-7.16,13.51l-24.08-7.34,3.56,21.78c1.44,8.82-10.13,13.4-15.12,5.99l-13.17-19.57-13.17,19.57c-4.99,7.41-16.56,2.83-15.12-5.99l3.56-21.78-24.08,7.34c-8.19,2.5-13.82-8.13-7.16-13.51l18.09-14.6-22.48-8.08c-8.03-2.88-6.11-14.74,2.42-14.95l24.63-.6-11.52-19.36c-4.46-7.49,4.55-15.72,11.6-10.6l20.07,14.54,4.82-21.58c1.99-8.9,14.67-8.9,16.66,0Z"/>
    <path class="cls-9" d="M78.37,1983.86c-3.77,65.43-.81,135.83,12.85,209.51,1.23,6.62,2.52,13.16,3.88,19.64"/>
    <path class="cls-9" d="M79.06,2114.52c7.32-9.75,15.89-19.65,25.96-29.33,1.45-1.4,2.91-2.77,4.37-4.1"/>
    <path class="cls-14" d="M111.46,2059.87l1.95,6.23,7.52-1.72c6.09-1.39,10.11,6.15,5.56,10.43l-4.74,4.46,4.74,4.46c4.54,4.28.52,11.82-5.56,10.43l-7.52-1.72-1.95,6.23c-1.96,6.26-10.82,6.26-12.79,0l-1.95-6.23-7.52,1.72c-6.09,1.39-10.11-6.15-5.56-10.43l4.74-4.46-4.74-4.46c-4.54-4.28-.52-11.82,5.56-10.43l7.52,1.72,1.95-6.23c1.96-6.26,10.82-6.26,12.79,0Z"/>
    <path class="cls-9" d="M84.15,2099.15c-10.45-10.29-21.18-22.45-31.83-36.86-1.54-2.08-3.05-4.17-4.52-6.26"/>
    <path class="cls-14" d="M58.46,2025.14l.43,14.79,11.24,8.32c5.21,3.86,2.59,12.13-3.89,12.29l-15.18.37-10.69,11.99c-4.1,4.6-11.72,1.83-11.9-4.34l-.43-14.79-11.24-8.32c-5.21-3.86-2.59-12.13,3.89-12.29l15.18-.37,10.69-11.99c4.1-4.6,11.72-1.83,11.9,4.34Z"/>
    <path class="cls-9" d="M90.27,2164.61c-9.15-8.79-18.55-19.19-27.87-31.51-1.35-1.78-2.67-3.57-3.96-5.35"/>
    <path class="cls-14" d="M32.81,2102.67l10.13,2.58,5.32-7.91c3.71-5.51,12.3-2.85,12.26,3.79l-.06,8.59,8.87,2.26c6.24,1.59,6.86,10.21.91,12.68l-9.92,4.12-.08,10.74c-.05,6.44-8.26,9.11-12.09,3.93l-5.44-7.36-7.93,3.29c-6.13,2.55-11.83-4.42-8.13-9.93l5.32-7.91-6.21-8.41c-3.74-5.07.94-12.03,7.04-10.47Z"/>
    <g>
      <path class="cls-9" d="M1269.79,2320c-5.88,12.25-11.61,26.13-16.55,41.55-9.93,31.01-13.74,59.16-14.84,82.05"/>
      <path class="cls-9" d="M1248.43,2376.15c.88-9.03,2.52-51.8-2.07-53.02-2.65-.71-16.43,12.81-17.78,30.65-1.41,18.52,10.87,37.58,17.78,37.09,4.37-.32,9.05-8.63,5.79-12.57-1.16-1.4-3.78-1.6-3.72-2.15Z"/>
      <path class="cls-9" d="M1246.91,2398.32c4.29-6.2,10.88-8.81,12.48-9.45,21.58-8.71,44.09-26.47,46.86-23.25,2.22,2.58-10.3,16.25-23.85,25.55-15.42,10.59-35.34,17.68-38.05,14.21-1.24-1.58,1.25-5.16,2.56-7.06Z"/>
      <path class="cls-9" d="M1240.75,2432.25c2.89-2.7-12.75-30.58-15.66-29.24-3.17,1.46,13.27,35.3,14.08,35.04.23-.07-.8-2.79.86-5.03.33-.44.64-.7.72-.77Z"/>
    </g>
    <g>
      <path class="cls-22" d="M1595.49,2105.83c-18.45,98.14-33.06,199.75-42.99,304.73-.79,8.31-1.54,16.61-2.26,24.89"/>
      <path class="cls-4" d="M1584.59,2215.4c15.16-35.47,32.41-49.74,37.65-53.83,14.11-11.01,33.89-20.59,37.65-16.56,3.18,3.41-5.89,15.73-11.73,23.66-26.64,36.21-52.59,45.26-66.65,77.5-3.04,6.97-4.5,12.67-3.7,13.01,1.49.66,7.78-19.04,25.3-33.13,15.21-12.23,38.36-19.82,46.9-12.42,2.31,2,4.01,5.49,3.09,8.28-2.17,6.53-17.46,5.41-28.39,7.69-34.98,7.29-46.99,53.93-53.69,51.47-5.62-2.07.75-35.64,13.58-65.66Z"/>
    </g>
    <path class="cls-4" d="M1567.03,2355.01c18.52-9.87,13.37-34.59,34.9-55.02,1.82-1.72,10.3-9.76,13.61-7.69,1.04.65,4,3.83-5.92,29.58-11.57,30.06-30.8,79.99-49.1,78.09-23.55-2.45-35.56-89.65-29.58-91.69,2.64-.9,14.02,13.05,17.75,29.58,1.93,8.57,1.47,16.34,6.51,18.93,4.24,2.18,9.74-.66,11.83-1.77Z"/>
    <path class="cls-11" d="M1646.66,2288.87l-17.41,55.61,46.73,39.11c13.81,11.56,2.34,33.81-15.08,29.28l-63.5-16.52-44.82,44.5c-13.16,13.07-35.03-.22-29.49-17.93l17.41-55.61-46.73-39.11c-13.81-11.56-2.34-33.81,15.08-29.28l63.5,16.52,44.82-44.5c13.16-13.07,35.03.22,29.49,17.93Z"/>
    <path class="cls-4" d="M40.22,2316.82c.26-3.12.52-7.47.47-12.67-.08-9.15-.61-34.48-15.02-61.96-14.78-28.19-39.68-50.06-43.19-47.41-4.92,3.71,39.37,50.36,49.29,125.34,2.85,21.56,2.81,45.11,0,45.53-2.55.38-5.68-18.49-15.49-43.19-13.75-34.62-32.22-59.52-33.8-58.68-2.15,1.15,30.13,48.4,48.35,122.99,3.56,14.59,8.9,44.36,10.33,44.13.68-.11.06-7.11-.07-8.72-3.25-39.02,5.77-201.02,4.3-201.11-1.52-.1-19.18,171.33-5.16,173.69,4.59.77,11.97-16.66,15.02-27.23,6.85-23.77-.11-42.05.94-42.25,1.51-.28,19.12,36.74,3.2,66.13-5.32,9.83-12.82,15.91-17.46,19.13"/>
    <g>
      <g>
        <path class="cls-9" d="M372.76,2339.37c3.79-3.27,28.52-125.44,25.49-125.81-1.74-.22-13.74,39.44-20.38,77.33-3.97,22.64-6.99,50.11-5.11,48.48Z"/>
        <path class="cls-9" d="M388.17,2261.68c-2.05-1.35,14.32-12.72,15.91-13.82,8.35-5.8,24.1-15.65,26.35-14.52,2,1-6.47,10.71-18.68,18.37-9.7,6.08-22.01,11.01-23.58,9.98Z"/>
        <path class="cls-9" d="M430.59,2274.58c-1.43-3.35-29.13,6.17-31.02,6.82-6.71,2.32-18.31,6.34-17.87,8.61.41,2.1,11.07,2.49,20.5.55,15.96-3.29,29.46-13.47,28.39-15.98Z"/>
      </g>
      <path class="cls-9" d="M380.55,2276.4c4.92,2.64-7.34-43.27-11.69-46.01-.8-.5-1.12.7-1.75,3.13-1.12,4.38-4.04,17.34,10.52,39.22,1.82,2.73,2.45,3.41,2.91,3.66Z"/>
    </g>
    <path class="cls-3" d="M701.57,2100.24c3.22.15,5.1,81.86,1.94,82.25-1.6.2-4.87-20.37-5.59-37.5-.08-1.88.3-6.11,3.15-9.7,0,0,.61-.77,1.37-1.48,17.01-15.85,35.34-15.65,35.34-15.65,15.52.17,31.89,9.17,31.12,14.34-.9,6.07-24.36-.59-55.25,13.29-5.16,2.32-8.88,4.47-12.24,2.8-11.52-5.74-2.83-48.48.16-48.34Z"/>
    <g>
      <path class="cls-4" d="M802.42,2271.04c4.13,14.22,7.83,30.16,10.44,47.65,5.23,35.17,4.49,66.22,1.79,91.16"/>
      <path class="cls-4" d="M818.35,2332.07c4.49-8.86,28.1-49.31,33.14-47.69,2.91.94,7.91,21.67-1.31,38.94-9.57,17.93-32.34,28.16-38.54,23.56-3.92-2.91-3.44-13.39,1.95-15.07,1.92-.6,4.49.79,4.76.25Z"/>
      <path class="cls-4" d="M813.31,2359.49c-3.48-7.41-9.98-11.31-11.56-12.28-21.28-12.97-42.01-35.88-45.47-32.85-2.78,2.43,8.11,19.27,20.82,31.55,14.47,13.98,34.26,24.93,37.71,21.63,1.57-1.51-.44-5.79-1.5-8.05Z"/>
      <path class="cls-4" d="M814.08,2397.19c-2.59-3.4,18.6-30.97,21.44-29.04,3.09,2.1-19.94,35.99-20.76,35.57-.23-.12,1.31-2.89-.06-5.58-.27-.53-.55-.86-.63-.96Z"/>
    </g>
    <path class="cls-17" d="M538.42,2146.23c-8.03,2.46-14.64-1.82-15.94-2.71-9.56-6.53-10.94-20.37-8.82-29.86,1.76-7.89,6.94-17.22,10.75-16.72,5.94.78,5.42,25.09,8.56,24.95,3.01-.13,4.9-22.55,7.38-22.63,2.9-.09,3.5,30.48,5.68,30.37,2.23-.11,2.56-31.99,5.83-32.39,2.2-.27,7.05,13.61,3.3,27.45-.73,2.71-4.83,17.87-16.75,21.52Z"/>
    <g>
      <path class="cls-9" d="M531.56,2145.9c.37,8.14.36,17.22-.29,27.12-1.31,19.9-4.84,37.22-8.62,51.03"/>
      <path class="cls-9" d="M530.71,2182.4c1.29-5.51,8.53-31.24,10.83-31.33,1.33-.05,5.02,9.96,2.3,20.79-2.82,11.24-11.92,20.88-14.95,19.6-1.91-.81-2.47-6.42-.27-8.31.79-.67,2-.42,2.08-.75Z"/>
      <path class="cls-9" d="M527.26,2195.84c-.78-4.3-3.27-6.79-3.87-7.4-8.12-8.25-14.96-22.02-16.81-20.49-1.48,1.23,1.61,11.15,5.99,18.61,4.98,8.49,12.65,15.54,14.52,13.85.85-.77.4-3.26.16-4.57Z"/>
      <path class="cls-9" d="M523.71,2216.94c-.8-2.02,11.46-16.43,12.53-15.22,1.16,1.32-12.58,19.18-12.9,18.91-.09-.08.88-1.55.55-3.12-.07-.31-.16-.51-.18-.56Z"/>
    </g>
    <g>
      <g>
        <path class="cls-9" d="M1233.18,2092.76c-11.31,48.86-20.15,108.51-19.73,176.5.17,27.31,1.81,52.96,4.38,76.74"/>
        <path class="cls-9" d="M1220.63,2197.68c3.63-30.99,30.92-51.09,48.51-64.05,10.31-7.6,16.31-11.93,19.31-9.89,6.17,4.21-4.1,33-19.31,54.63-14.43,20.54-38.01,41.32-46.15,36.26-4.05-2.52-3.09-10.68-2.35-16.95Z"/>
        <path class="cls-9" d="M935.67,2327.56c3.63-30.99,30.92-51.09,48.51-64.05,10.31-7.6,16.31-11.93,19.31-9.89,6.17,4.21-4.1,33-19.31,54.63-14.43,20.54-38.01,41.32-46.15,36.26-4.05-2.52-3.09-10.68-2.35-16.95Z"/>
        <path class="cls-9" d="M1217.74,2316.52c-5.87-35.12-25.99-75.8-35.95-73.02-7.18,2-8.27,26.37-2.92,44.71,7.93,27.22,32.03,48.11,38.33,44.52,1.21-.69,2.77-2.86.54-16.21Z"/>
        <path class="cls-9" d="M1432.95,2010.26c3.63-30.99,30.92-51.09,48.51-64.05,10.31-7.6,16.31-11.93,19.31-9.89,6.17,4.21-4.1,33-19.31,54.63-14.43,20.54-38.01,41.32-46.15,36.26-4.05-2.52-3.09-10.68-2.35-16.95Z"/>
      </g>
      <path class="cls-24" d="M1400.09,1954.33c9.34,11.82,21.14,29.99,27.56,53.8,10.91,40.49.02,74.01-6.48,89.67"/>
      <path class="cls-24" d="M643.17,2347.99c9.34,7.88,21.14,19.98,27.56,35.86,10.91,26.98.02,49.32-6.48,59.76"/>
    </g>
    <path class="cls-19" d="M1605.92,1960.65l9.93,44.41,37.95-27.5c8.62-6.25,19.62,3.8,14.17,12.95l-22.26,37.39,45.12,1.09c10.85.26,13.29,15.35,3.08,19.02l-41.42,14.89,33.78,27.26c8.38,6.77,1.3,20.14-9.01,17l-44.26-13.49,7.15,43.73c1.7,10.38-11.93,15.78-17.8,7.05l-25.98-38.63-25.98,38.63c-5.87,8.73-19.5,3.33-17.8-7.05l7.15-43.73-44.26,13.49c-10.31,3.14-17.4-10.23-9.01-17l33.78-27.26-41.42-14.89c-10.21-3.67-7.77-18.76,3.08-19.02l45.12-1.09-22.26-37.39c-5.44-9.15,5.55-19.19,14.17-12.95l37.95,27.5,9.93-44.41c2.28-10.22,16.84-10.22,19.13,0Z"/>
    <path class="cls-25" d="M1449.4,2245.9c6.29,14.71,12.61,33.5,16.3,55.93,9.32,56.69-3.59,103.63-11.91,127.24"/>
    <path class="cls-9" d="M948.16,2203.2c-24.24,61.34-35.31,131.17-24.27,210.02.99,7.08,2.15,14.13,3.46,21.15"/>
    <path class="cls-21" d="M990.66,2094.39l8.08,36.15,32.35-23.44c8.25-5.98,18.78,3.64,13.57,12.39l-18.88,31.72,40.13.97c9.97.24,12.21,14.1,2.83,17.47l-36.83,13.24,29.65,23.92c7.79,6.29,1.2,18.71-8.37,15.79l-38.92-11.86,5.84,35.7c1.69,10.31-11.85,15.67-17.68,7l-21.32-31.7-21.32,31.7c-5.83,8.67-19.36,3.31-17.68-7l5.84-35.7-38.92,11.86c-9.58,2.92-16.16-9.51-8.37-15.79l29.65-23.92-36.83-13.24c-9.38-3.37-7.14-17.23,2.83-17.47l40.13-.97-18.88-31.72c-5.21-8.76,5.31-18.38,13.57-12.39l32.35,23.44,8.08-36.15c2.28-10.22,16.84-10.22,19.13,0Z"/>
    <g>
      <path class="cls-9" d="M275.63,2120.42c.62,13.68.61,28.94-.48,45.58-2.2,33.44-8.14,62.55-14.49,85.76"/>
      <path class="cls-9" d="M274.21,2181.77c2.17-9.26,14.34-52.51,18.21-52.65,2.23-.08,8.44,16.74,3.87,34.94-4.74,18.89-20.04,35.09-25.13,32.95-3.21-1.35-4.16-10.8-.45-13.97,1.32-1.13,3.37-.71,3.5-1.27Z"/>
      <path class="cls-9" d="M268.41,2204.35c-1.31-7.23-5.49-11.41-6.5-12.44-13.64-13.86-25.14-37-28.25-34.43-2.5,2.06,2.71,18.73,10.07,31.27,8.38,14.27,21.26,26.11,24.4,23.28,1.43-1.29.68-5.47.28-7.68Z"/>
      <path class="cls-9" d="M262.44,2239.83c-1.34-3.39,19.27-27.62,21.05-25.59,1.94,2.21-21.14,32.23-21.68,31.78-.15-.13,1.48-2.61.92-5.24-.11-.52-.26-.85-.3-.95Z"/>
    </g>
    <g>
      <path class="cls-22" d="M575.72,2056.87c-2.2,44.49-.31,88.89,6.44,132.87.53,3.48,1.1,6.95,1.69,10.39"/>
      <path class="cls-4" d="M582.27,2102.96c8.69-19.21,22.55-31.05,26.8-34.55,11.44-9.43,28.37-20.4,32.47-20.24,3.47.14-3.08,8.21-7.3,13.41-19.25,23.73-41.99,36.77-50.16,54.33-1.77,3.8-2.25,6.52-1.46,6.36,1.49-.3,4.33-10.18,18.48-22.05,12.27-10.3,32.64-21.75,41.71-22.06,2.45-.08,4.57.63,4.13,2.04-1.02,3.31-15.4,8.51-25.22,13.42-31.4,15.69-35.47,38.03-42.07,39.56-5.54,1.28-4.73-13.96,2.62-30.22Z"/>
    </g>
    <path class="cls-22" d="M273.27,2309.05c-20.61,40.06-36.94,81.54-48.05,124.39-.88,3.39-1.72,6.78-2.53,10.16"/>
    <path class="cls-4" d="M285.78,2380.7c16.94-39.64,36.21-55.59,42.07-60.16,15.76-12.3,37.87-23.01,42.07-18.51,3.55,3.81-6.58,17.58-13.1,26.44-29.77,40.47-58.77,50.58-74.48,86.6-3.4,7.79-5.02,14.16-4.14,14.54,1.67.73,8.69-21.27,28.28-37.02,16.99-13.67,42.86-22.15,52.42-13.88,2.58,2.23,4.48,6.13,3.45,9.26-2.42,7.3-19.51,6.05-31.72,8.59-39.09,8.15-52.51,60.27-60,57.52-6.28-2.31.83-39.83,15.17-73.38Z"/>
    <path class="cls-14" d="M361.64,2280.74l-38.77,31.29,33.05,36.34c11.38,12.52-.99,32.06-17.17,27.13l-51.73-15.76-18.18,44.7c-6.74,16.58-30.83,14.57-34.73-2.89l-10.34-46.26-53.29,8.27c-16.66,2.59-26.01-18.54-12.89-29.13l38.77-31.29-33.05-36.34c-11.38-12.52.99-32.06,17.17-27.13l51.73,15.76,18.18-44.7c6.74-16.58,30.83-14.57,34.73,2.89l10.34,46.26,53.29-8.27c16.66-2.59,26.01,18.54,12.89,29.13Z"/>
    <g>
      <path class="cls-4" d="M1122.07,2110.37c-16.95-30.95-33.41-42.27-38.38-45.48-13.39-8.65-31.53-15.4-34.34-11.33-2.38,3.45,6.8,13.81,12.7,20.48,26.96,30.46,50.37,36.1,66.02,64.2,3.39,6.08,5.26,11.15,4.61,11.55-1.22.75-8.79-16.65-25.46-27.77-14.47-9.65-35.31-14.24-41.9-6.59-1.78,2.07-2.88,5.44-1.77,7.9,2.58,5.77,15.68,3.17,25.38,4.14,31.03,3.11,46.47,44.61,52,41.67,4.64-2.47-4.51-32.58-18.85-58.78Z"/>
      <path class="cls-4" d="M1152.37,2236.5c-17.08-7.15-15.3-30.33-36.14-46.84-1.76-1.39-9.96-7.89-12.6-5.66-.83.71-3.04,3.92,8.32,26.5,13.26,26.36,35.29,70.15,50.91,66.53,20.09-4.65,21.03-85.78,15.64-87.04-2.38-.56-10.71,13.39-12.14,28.92-.74,8.05.5,15.12-3.58,18.01-3.43,2.43-8.5.39-10.42-.42Z"/>
    </g>
    <path class="cls-23" d="M1077.09,2003.09c17.94,22.86,52.71,73.78,64.08,149.4,5.68,37.76,3.84,70.5.65,94.32"/>
    <path class="cls-17" d="M1070.24,1872.4l13.85,44.24,51.36-11.74c16.04-3.67,26.64,16.21,14.66,27.49l-35.11,33.06,35.11,33.06c11.98,11.28,1.38,31.15-14.66,27.49l-51.36-11.74-13.85,44.24c-5.23,16.72-28.89,16.72-34.13,0l-13.85-44.24-51.36,11.74c-16.04,3.67-26.64-16.21-14.66-27.49l35.11-33.06-35.11-33.06c-11.98-11.28-1.38-31.15,14.66-27.49l51.36,11.74,13.85-44.24c5.23-16.72,28.89-16.72,34.13,0Z"/>
    <path class="cls-9" d="M1068.7,2309.15c6.83,12.49,18.34,38.04,16.04,71.22-2.04,29.39-13.99,51.45-21.66,63.23"/>
    <path class="cls-10" d="M1083.11,2205.34l7.36,32.92,30.11-21.82c7.68-5.57,17.48,3.38,12.63,11.54l-17.57,29.53,37.35.9c9.28.22,11.36,13.12,2.63,16.26l-34.28,12.32,27.59,22.27c7.25,5.85,1.12,17.42-7.79,14.7l-36.22-11.04,5.44,33.22c1.57,9.6-11.03,14.59-16.45,6.52l-19.85-29.5-19.85,29.5c-5.43,8.07-18.02,3.08-16.45-6.52l5.44-33.22-36.22,11.04c-8.91,2.72-15.04-8.85-7.79-14.7l27.59-22.27-34.28-12.32c-8.73-3.14-6.64-16.04,2.63-16.26l37.35-.9-17.57-29.53c-4.85-8.15,4.95-17.1,12.63-11.54l30.11,21.82,7.36-32.92c2.16-9.68,15.96-9.68,18.13,0Z"/>
  </g>
  <g id="_Слой_10" data-name="Слой 10">
    <path class="cls-8" d="M367.75,287.7c-19.61-3.19-71.9,18.89-354.04-4.25-2.44-1.18-5.2-2.99-7.54-5.85-10.07-12.28-7.3-37.5,4.53-46.79,11.76-9.23,24.53,3.56,38.72-6.91,8.63-6.37,7.22-13.54,16.6-20.73,11.22-8.6,24.57-.03,28.66-6.91,2.24-3.76-.05-8.23-1.01-12.76-4.78-22.69,23.73-47.79,25.65-49.44,25.1-21.62,68.28-24.49,91.53-4.25,24.11,20.99,17.39,58.67,42.24,67.52,10.21,3.63,11.74-2.58,23.13,1.06,26.14,8.35,21.3,42.09,49.28,55.82,12.3,6.03,21.78,3.71,32.19,14.89,5.4,5.8,13.69,19.2,10.06,18.61Z"/>
    <path class="cls-18" d="M606.21,461.08c-26.54-4.08-97.29,24.18-479.06-5.44-3.31-1.51-7.03-3.82-10.21-7.49-13.62-15.72-9.88-48,6.12-59.88,15.92-11.82,33.19,4.56,52.4-8.85,11.68-8.15,9.77-17.33,22.46-26.54,15.18-11.01,33.25-.04,38.79-8.85,3.03-4.82-.07-10.54-1.36-16.33-6.47-29.04,32.11-61.17,34.7-63.28,33.96-27.67,92.39-31.35,123.85-5.44,32.63,26.87,23.53,75.09,57.16,86.42,13.81,4.65,15.89-3.3,31.3,1.36,35.37,10.69,28.82,53.87,66.69,71.45,16.64,7.72,29.47,4.75,43.55,19.05,7.31,7.43,18.53,24.57,13.61,23.82Z"/>
    <path class="cls-18" d="M914.13,538.41c33.57-5.01,123.06,29.68,605.91-6.68,4.18-1.85,8.9-4.69,12.91-9.19,17.23-19.3,12.49-58.93-7.75-73.52-20.13-14.51-41.98,5.6-66.27-10.86-14.78-10.01-12.35-21.28-28.4-32.58-19.2-13.52-42.06-.05-49.06-10.86-3.83-5.91.09-12.93,1.72-20.05,8.18-35.65-40.61-75.1-43.89-77.69-42.96-33.97-116.85-38.49-156.64-6.68-41.27,32.99-29.76,92.19-72.3,106.1-17.47,5.71-20.1-4.05-39.59,1.67-44.74,13.12-36.45,66.14-84.35,87.72-21.05,9.48-37.28,5.84-55.08,23.39-9.25,9.12-23.44,30.17-17.21,29.24Z"/>
    <path class="cls-8" d="M1624.78,1095.98c-20.06-3.66-73.54,21.7-362.1-4.89-2.5-1.35-5.32-3.43-7.72-6.72-10.3-14.11-7.46-43.09,4.63-53.75,12.03-10.61,25.08,4.09,39.6-7.94,8.83-7.32,7.38-15.56,16.97-23.82,11.47-9.88,25.13-.04,29.32-7.94,2.29-4.32-.05-9.46-1.03-14.66-4.89-26.06,24.27-54.9,26.23-56.8,25.67-24.84,69.83-28.14,93.61-4.89,24.66,24.12,17.78,67.4,43.2,77.57,10.44,4.18,12.01-2.96,23.66,1.22,26.73,9.59,21.78,48.35,50.41,64.13,12.58,6.93,22.28,4.27,32.92,17.1,5.53,6.66,14,22.06,10.29,21.38Z"/>
    <path class="cls-8" d="M371.93,1043.33c-20.06-3.66-73.54,21.7-362.1-4.89-2.5-1.35-5.32-3.43-7.72-6.72-10.3-14.11-7.46-43.09,4.63-53.75,12.03-10.61,25.08,4.09,39.6-7.94,8.83-7.32,7.38-15.56,16.97-23.82,11.47-9.88,25.13-.04,29.32-7.94,2.29-4.32-.05-9.46-1.03-14.66-4.89-26.06,24.27-54.9,26.23-56.8,25.67-24.84,69.83-28.14,93.61-4.89,24.66,24.12,17.78,67.4,43.2,77.57,10.44,4.18,12.01-2.96,23.66,1.22,26.73,9.59,21.78,48.35,50.41,64.13,12.58,6.93,22.28,4.27,32.92,17.1,5.53,6.66,14,22.06,10.29,21.38Z"/>
  </g>
  <g id="_Слой_12" data-name="Слой 12">
    <path class="cls-7" d="M1617.17,2446.47l1655.77-2.87v-176.81c-11.99-9.31-30.21-23.95-51.55-43.25-64.93-58.73-80.58-89.88-109.1-115.76-50.36-45.68-112.29-44.22-234.1-39.43-94.56,3.71-162.13,17.9-195.97,24.17-67.54,12.52-93.94,50.05-543.41-6.36-83-10.42-182.16-27.61-301.89,19.08-99.21,38.68-171.19,105.1-217.15,156.46"/>
  </g>
</svg>