<svg width="660" height="990" viewBox="0 0 660 990" fill="none" xmlns="http://www.w3.org/2000/svg">
<g clip-path="url(#clip0_212_2)">
<path d="M437.158 394.78C434.878 384.77 391.738 387.25 341.675 399.068C291.436 410.93 248.969 432.912 251.249 442.922C253.529 452.932 297.465 451.456 349.38 439.622C401.295 427.789 439.439 404.791 437.158 394.78Z" fill="#D16567"/>
<path d="M660 -0.138672H0V878.135H660V-0.138672Z" fill="#F7C1C4"/>
<path d="M382.486 361.434L385.37 373.699L382.486 402.563L389.262 483.786L431.219 680.187L218.62 672.759L276.091 470.036L270.094 387.891L342.372 368.853L382.486 361.434Z" fill="#254248"/>
<path d="M347.703 489.889L350.477 482.445L352.81 486.165L356.608 481.861L360.112 487.189L362.881 481.861L365.949 485.875L368.723 481.861L371.786 485.875L373.977 481.861L376.167 485.875L378.358 481.861L380.548 490.472L408.633 674.436H372.99L363.938 660.861L361.393 647.563L347.703 489.889Z" fill="#254248"/>
<path d="M328.662 487.788L331.57 483.974L334.479 487.788L336.339 483.485L340.471 674.436L243.029 673.547L280.202 488.025L281.589 491.121L283.616 487.597L285.966 491.227L328.662 487.788Z" fill="#254248"/>
<path d="M282.002 494.266C282.671 491.125 283.344 487.98 284.013 484.839L329.389 480.805V670.239L260.203 675.492L257.123 671.483" fill="#254248"/>
<path d="M258.714 608.04L276.348 597.259L278.554 607.436L289.417 604.687V590.953H305.105L306.011 602.664L315.515 596.284L322.401 602.664L321.548 611.675L328.789 607.6L336.531 617.43L327.879 624.414L328.707 634.061L336.531 636.092L335.462 642.696L331.077 645.613L330.722 658.054L333.565 660.595L333.19 676.761L286.745 675.627L270.8 675.99L255.055 674.032L255.948 652.217L252.036 647.163L252.803 640.065L258.673 641.55L259.264 636.728L254.879 634.089L255.202 625.291L264.086 623.908" fill="#254248"/>
<path d="M264.987 675.864C265.297 673.751 265.763 669.774 266.285 665.862C268.483 649.455 268.357 646.221 270.062 638.805C272.167 629.66 273.219 625.087 277.017 621.069C282.874 614.869 290.816 613.494 293.757 612.984C297.971 612.254 305.126 611.014 312.215 614.963C319.488 619.013 322.686 626.559 323.376 630.471C325.815 644.291 305.787 663.435 273.635 675.86H264.983L264.987 675.864Z" fill="#254248"/>
<path d="M265.008 675.945C264.702 656.839 267.618 642.566 270.155 633.494C271.811 627.579 273.835 622.011 279.293 617.5C287.178 610.985 296.816 611.153 298.065 611.193C307.23 611.487 315.201 616.178 319.496 622.268C322.539 626.584 323.184 630.822 323.649 637.34C324.269 645.992 325.064 662.525 323.518 677.222L265.008 675.945Z" fill="#254248"/>
<path d="M266.758 676.227C265.261 676.104 263.76 675.986 262.263 675.864Z" fill="#254248"/>
<path d="M382.486 361.434L385.37 373.699L382.486 402.563L389.262 483.786L431.219 680.187L218.62 672.759L276.091 470.036L270.094 387.891L342.372 368.853L382.486 361.434Z" fill="#7CA59C"/>
<path d="M347.703 489.889L350.477 482.445L352.81 486.165L356.608 481.861L360.112 487.189L362.881 481.861L365.949 485.875L368.723 481.861L371.786 485.875L373.977 481.861L376.167 485.875L378.358 481.861L380.548 490.472L408.633 674.436H372.99L363.938 660.861L361.393 647.563L347.703 489.889Z" fill="#589487"/>
<path d="M328.662 487.788L331.57 483.974L334.479 487.788L336.339 483.485L340.471 674.436L243.029 673.547L280.202 488.025L281.589 491.121L283.616 487.597L285.966 491.227L328.662 487.788Z" fill="#1F5047"/>
<path d="M282.002 494.266C282.671 491.125 283.344 487.98 284.013 484.839L329.389 480.805V670.239L260.203 675.492L257.123 671.483" fill="#3C6E64"/>
<path d="M258.714 608.04L276.348 597.259L278.554 607.436L289.417 604.687V590.953H305.105L306.011 602.664L315.515 596.284L322.401 602.664L321.548 611.675L328.789 607.6L336.531 617.43L327.879 624.414L328.707 634.061L336.531 636.092L335.462 642.696L331.077 645.613L330.722 658.054L333.565 660.595L333.19 676.761L286.745 675.627L270.8 675.99L255.055 674.032L255.948 652.217L252.036 647.163L252.803 640.065L258.673 641.55L259.264 636.728L254.879 634.089L255.202 625.291L264.086 623.908" fill="#589487"/>
<path d="M264.987 675.864C265.297 673.751 265.763 669.774 266.285 665.862C268.483 649.455 268.357 646.221 270.062 638.805C272.167 629.66 273.219 625.087 277.017 621.069C282.874 614.869 290.816 613.494 293.757 612.984C297.971 612.254 305.126 611.014 312.215 614.963C319.488 619.013 322.686 626.559 323.376 630.471C325.815 644.291 305.787 663.435 273.635 675.86H264.983L264.987 675.864Z" fill="#40463A"/>
<path d="M265.008 675.945C264.702 656.839 267.618 642.566 270.155 633.494C271.811 627.579 273.835 622.011 279.293 617.5C287.178 610.985 296.816 611.153 298.065 611.193C307.23 611.487 315.201 616.178 319.496 622.268C322.539 626.584 323.184 630.822 323.649 637.34C324.269 645.992 325.064 662.525 323.518 677.222L265.008 675.945Z" fill="#254248"/>
<path d="M266.758 676.227C265.261 676.104 263.76 675.986 262.263 675.864Z" fill="#7CA59C"/>
<path d="M282.544 426.965C282.601 424.929 283.025 418.912 287.48 413.336C288.646 411.876 293.101 406.471 300.635 405.349C308.047 404.248 316.392 407.332 320.488 413.924C322.462 417.097 322.943 420.267 323.074 422.147L326.48 473.833L286.187 472.659L282.544 426.965Z" fill="#1F5047"/>
<path d="M376.958 464.076V434.315C377.162 432.525 377.126 424.011 377.583 413.94C377.652 412.394 371.003 401.103 360.569 400.149C351.362 399.304 342.763 406.361 342.466 409.841C340.699 430.322 341.54 451.68 343.616 467.699C345.366 481.205 373.32 467.022 376.963 465.345" fill="#1F5047"/>
<path d="M346.459 429.184C346.247 428.152 345.431 421.666 347.605 416.62C348.164 415.319 349.649 412.068 354.083 410.281C354.793 409.996 358.778 409.102 363.134 411.656C366.85 413.834 368.988 418.264 368.633 422.967L368.67 466.916L348.751 471.268L346.459 429.18V429.184Z" fill="#254248"/>
<path d="M316.217 471.003C314.295 447.503 314.593 431.917 313.696 425.872C313.606 425.272 313.883 423.045 312.815 420.695C311.452 417.701 308.169 414.63 304.118 414.589C299.431 414.544 293.994 418.57 293.153 424.273V431.313L295.295 471.268L316.213 471.003H316.217Z" fill="#254248"/>
<path opacity="0.49" d="M271.803 411.285L376.567 381.136L384.313 384.277L385.317 372.97L381.589 359.492L270.151 386.753L271.803 411.285Z" fill="#254248"/>
<path d="M283.323 395.731C289.333 395.731 294.206 390.858 294.206 384.848C294.206 378.837 289.333 373.965 283.323 373.965C277.312 373.965 272.439 378.837 272.439 384.848C272.439 390.858 277.312 395.731 283.323 395.731Z" fill="#254248"/>
<path d="M312.048 385.945C318.059 385.945 322.931 381.073 322.931 375.062C322.931 369.052 318.059 364.179 312.048 364.179C306.038 364.179 301.165 369.052 301.165 375.062C301.165 381.073 306.038 385.945 312.048 385.945Z" fill="#254248"/>
<path d="M343.204 376.739C349.215 376.739 354.087 371.866 354.087 365.856C354.087 359.845 349.215 354.973 343.204 354.973C337.194 354.973 332.321 359.845 332.321 365.856C332.321 371.866 337.194 376.739 343.204 376.739Z" fill="#254248"/>
<path d="M370.428 373.965C376.439 373.965 381.311 369.092 381.311 363.082C381.311 357.071 376.439 352.199 370.428 352.199C364.417 352.199 359.545 357.071 359.545 363.082C359.545 369.092 364.417 373.965 370.428 373.965Z" fill="#254248"/>
<path d="M310.114 203.963C311.019 207.19 300.185 222.47 298.125 238.15C295.702 256.588 291.036 276.592 287.866 294.903C282.657 324.974 279.19 345.003 268.735 364.786C248.948 402.225 214.528 419.128 215.789 421.017C216.706 422.388 233.035 410.958 248.711 402.041C251.991 400.177 324.24 360.157 408.465 363.799C419.952 364.297 436.167 365.798 436.428 364.003C436.566 363.036 419.287 363.004 400.646 353.63C391.745 349.155 385.81 344.207 382.265 341.226C339.125 304.905 329.669 252.958 329.669 252.958C325.798 231.697 318.329 218.787 315.788 204.551C315.613 203.564 309.384 201.357 310.118 203.968L310.114 203.963Z" fill="#EE7B80"/>
<path d="M401.634 820.403L404.073 785.71L393.268 770.34L394.732 768.072L404.073 764.042V755.435L377.857 740.999L372.945 711.225L349.76 670.634L344.539 650.818L333.19 671.895L369.393 779.428L401.634 820.403Z" fill="#382940"/>
<path d="M581.176 779.146L260.101 862.536L306.545 887.365L539.724 866.085L597.312 793.811L581.176 779.146Z" fill="#A2A43C"/>
<path d="M385.888 428.147C385.733 428.478 385.505 428.959 385.219 429.53C383.518 432.953 376.751 445.891 363.208 456.093C359.113 459.181 343.339 470.713 320.679 470.672C312.011 470.66 287.81 463.281 279.468 450.799C271.906 439.483 278.901 434.747 275.817 433.568C272.366 432.247 266.819 439.014 265.195 446.373C263.311 454.91 265.497 461.931 266.358 463.538C267.182 465.076 271.571 470.338 285.444 477.358C292.595 480.976 300.773 485.116 311.975 486.674C330.555 489.256 344.824 482.975 358.958 476.75C377.856 468.429 396.225 454.833 397.995 441.327C399.304 431.329 389.926 428.943 385.888 424.705" fill="#F9B74D"/>
<path d="M272.443 469.065C268.474 487.466 271.358 502.024 273.871 510.847C282.543 541.314 299.569 559.193 317.216 574.698C338.468 593.372 351.211 595.734 355.694 596.366C359.785 596.941 372.398 598.242 385.749 592.042C388.519 590.757 406.051 581.322 405.818 570.186C405.716 565.312 403.008 564.818 400.674 554.681C399.924 551.422 398.231 544.076 400.389 543.015C402.775 541.844 410.183 548.228 413.589 555.934C420.405 571.345 409.612 588.379 407.992 590.933C399.389 604.508 386.357 609.798 382.738 611.21C366.116 617.691 351.056 614.13 343.277 612.181C321.144 606.633 307.801 592.915 296.951 581.763C290.383 575.012 278.02 562.052 269.584 541.2C266.206 532.854 256.841 508.8 262.955 479.528C264.244 473.36 265.929 468.359 267.243 464.904L272.443 469.065Z" fill="#EAAA47"/>
<path d="M251.143 576.17C266.786 558.096 290.694 532.793 323.486 506.344C350.481 484.574 376.037 468.041 374.409 465.271C373.606 463.905 366.153 465.785 337.477 479.671L287.736 518.912L253.602 555.42L251.139 576.166L251.143 576.17Z" fill="#EE7B80"/>
<path d="M392.896 423.53C393.789 424.517 396.265 428.221 397.823 430.065C403.13 436.346 410.097 444.035 413.923 452.479C415.8 456.624 420.262 466.471 418.055 477.443C414.458 495.314 396.428 503.799 393.83 504.904C393.785 505.846 394.176 506.576 394.274 507.266C394.654 509.938 408.062 500.327 415.351 491.688C420.895 485.12 425.875 479.222 427.535 469.591C429.73 456.897 424.549 447.017 423.248 444.684C416.187 432.006 404.264 427.042 401.482 426.132" fill="#EE7B80"/>
<path d="M400.634 433.373L382.71 426.226L382.881 421.127L394.821 424.02L400.634 433.373Z" fill="#E96F71"/>
<path d="M285.216 310.604C292.754 315.56 302.446 320.843 314.259 324.922C340.977 334.153 364.677 332.452 378.407 330.265C385.717 335.531 382.702 338.909 386.39 340.524C394.519 344.077 343.086 349.874 307.855 337.285C296.339 333.17 287.288 328.307 281.141 324.599" fill="#A2A43C"/>
<path d="M313.268 204.262L317.995 149.349" stroke="#599386" stroke-width="5" stroke-miterlimit="10"/>
<path d="M371.88 148.961C373.64 148.961 375.066 147.535 375.066 145.775C375.066 144.016 373.64 142.589 371.88 142.589C370.121 142.589 368.694 144.016 368.694 145.775C368.694 147.535 370.121 148.961 371.88 148.961Z" fill="#2D361A"/>
<path d="M314.81 192.734C321.866 188.695 331.579 183.723 341.507 180.655C344.554 179.713 348.487 178.685 351.171 180.655C353.667 182.491 352.908 185.326 355.495 188.41C358.742 192.289 364.085 192.766 365.158 192.86C373.01 193.558 375.087 187.231 383.212 185.869C393.773 184.098 401.793 192.856 402.792 191.461C403.885 189.935 395.58 177.543 385.121 177.347C375.662 177.172 369.551 187.068 363.637 184.212C361.67 183.262 361.173 181.602 359.696 178.873C353.883 168.12 343.082 159.615 333.125 156.625C329.988 155.683 324.962 154.696 318.248 155.61L314.814 192.734H314.81Z" fill="#F9B74D"/>
<path d="M285.771 315.319C293.076 318.55 301.793 326.88 313.386 329.963Z" fill="#C8CB72"/>
<path d="M296.919 296.47C293.578 295.67 291.281 292.648 291.42 289.364C291.567 285.856 294.455 282.837 297.681 282.764C301.997 282.666 305.387 287.871 304.281 290.547C303.254 293.031 298.008 294.169 296.58 292.325C295.646 291.114 296.295 288.54 298.187 286.15" stroke="#F9B74D" stroke-miterlimit="10"/>
<path d="M350.494 360.467C347.153 359.667 344.857 356.645 344.995 353.361C345.142 349.853 348.03 346.835 351.257 346.761C355.572 346.663 358.962 351.868 357.857 354.544C356.829 357.028 351.583 358.166 350.155 356.323C349.221 355.111 349.87 352.537 351.762 350.147" stroke="#F9B74D" stroke-miterlimit="10"/>
<path d="M205.351 448.494L219.105 436.571L207.182 450.326C204.735 453.148 204.735 457.342 207.182 460.168L219.105 473.923L205.351 462C202.528 459.552 198.335 459.552 195.508 462L181.753 473.923L193.676 460.168C196.124 457.346 196.124 453.152 193.676 450.326L181.753 436.571L195.508 448.494C198.33 450.941 202.524 450.941 205.351 448.494Z" fill="#F9B74D"/>
<path d="M214.153 619.307L217.139 616.717L214.549 619.703C206.746 628.705 206.746 642.077 214.549 651.079L217.139 654.065L214.153 651.475C205.151 643.672 191.78 643.672 182.777 651.475L179.791 654.065L182.381 651.079C190.185 642.077 190.185 628.705 182.381 619.703L179.791 616.717L182.777 619.307C191.78 627.11 205.151 627.11 214.153 619.307Z" fill="#F9B74D"/>
<path d="M456.604 623.549L457.444 623.374C458.794 623.088 459.953 622.231 460.617 621.02L461.029 620.269C461.413 619.568 462.465 619.723 462.628 620.506L462.804 621.346C463.089 622.696 463.946 623.855 465.158 624.52L465.908 624.932C466.61 625.315 466.455 626.368 465.671 626.531L464.831 626.706C463.481 626.992 462.323 627.848 461.658 629.06L461.246 629.81C460.862 630.512 459.81 630.357 459.647 629.574L459.471 628.734C459.186 627.383 458.329 626.225 457.118 625.56L456.367 625.148C455.665 624.765 455.82 623.712 456.604 623.549Z" fill="#F9B74D"/>
<path d="M550.847 352.097L553.555 359.419C554.163 361.063 555.456 362.356 557.1 362.963L564.422 365.672C565.377 366.023 565.377 367.373 564.422 367.724L557.1 370.432C555.456 371.04 554.163 372.333 553.555 373.977L550.847 381.299C550.496 382.254 549.146 382.254 548.795 381.299L546.087 373.977C545.479 372.333 544.186 371.04 542.542 370.432L535.22 367.724C534.265 367.373 534.265 366.023 535.22 365.672L542.542 362.963C544.186 362.356 545.479 361.063 546.087 359.419L548.795 352.097C549.146 351.142 550.496 351.142 550.847 352.097Z" fill="#F9B74D"/>
<path d="M178.909 316.303L178.281 315.409L179.268 315.874C182.483 317.384 186.256 317.057 189.164 315.022L190.058 314.394L189.593 315.381C188.083 318.595 188.41 322.368 190.445 325.277L191.073 326.17L190.086 325.705C186.872 324.196 183.099 324.522 180.19 326.557L179.297 327.186L179.762 326.199C181.271 322.984 180.945 319.211 178.909 316.303Z" fill="#F9B74D"/>
<path d="M285.913 864.486L0.595703 878.424V989.784L663.578 997.942L660.229 829.055" fill="#A2A43C"/>
<path d="M100.403 805.228L134.892 751.747L149.887 745.249L184.376 692.017L200.872 663.528L227.859 662.027L243.605 650.279L251.102 657.03L260.598 672.523L265.314 673.461L287.944 670.524L312.081 666.025L334.573 667.277L336.959 670.418L346.023 650.279H364.652L384.456 676.292L391.672 677.805H409.465L468.543 683.846L483.313 695.594L501.604 698.449L502.95 710.365L532.822 766.42L558.165 771.959L568.404 792.436L609.692 833.219L517.655 854.475L350.477 892.501L229.613 935.801L104.988 871.041L100.403 805.228Z" fill="#5D465E"/>
<path d="M204.698 750.952L176.834 780.578L169.781 790.984L159.787 801.386V828.724L204.698 750.952Z" fill="#362541"/>
<path d="M165.221 886.741C167.909 880.317 170.601 873.892 173.289 867.467L200.856 880.916L245.457 815.026L275.936 797.099L277.058 793.064L329.499 767.962L356.392 750.479L360.398 742.439L350.669 719.979L336.613 663.944L349.156 680.595L363.213 719.979V746.762L367.104 775.341V814.011L359.97 830.662L362.996 858.987L362.564 835.202L374.675 819.199L387.218 827.268L406.247 837.364L412.517 842.389L403.653 819.848L403.437 786.978L393.492 773.354L393.276 768.814L401.707 765.787L403.836 758.31L378.415 744.311L371.175 710.524L384.367 727.256L421.05 723.556L438.803 745.192L443.216 755.626L453.451 757.433L462.682 770.274L471.309 773.884L476.122 756.43L486.153 775.337C486.422 787.162 490.444 795.296 494.78 795.753C496.799 795.965 499.593 794.594 501.401 792.542C503.587 790.062 503.783 787.203 503.807 786.322L461.874 737.164L435.592 736.964L429.775 721.517L457.464 722.32L502.808 700.248L511.435 717.903L536.917 765.453L548.571 815.112L516.746 846.13L420.577 871.098L270.233 915.515L246.175 922.128L188.574 911.534L165.225 886.729L165.221 886.741Z" fill="#47334D"/>
<path d="M291.032 665.29L288.442 690.732C288.43 690.854 288.393 690.973 288.332 691.079L272.684 719.306C272.599 719.457 272.476 719.583 272.321 719.665L204.939 756.055C204.78 756.14 204.649 756.275 204.563 756.434L202.609 760.195C202.23 760.921 202.936 761.737 203.711 761.472L240.753 748.708C240.863 748.672 240.982 748.655 241.1 748.659L246.807 748.99C247.353 749.022 247.745 749.524 247.647 750.063L246.386 756.871C246.35 757.062 246.256 757.234 246.117 757.368L231.347 771.258L198.755 801.333C198.131 801.908 198.567 802.948 199.415 802.907L207.105 802.508C207.133 802.508 207.162 802.508 207.19 802.508L219.513 803.038H223.478C223.817 803.038 224.131 802.846 224.286 802.544L237.649 776.467C237.702 776.365 237.771 776.271 237.861 776.197L249.372 766.151C249.372 766.151 249.397 766.13 249.413 766.118L269.845 750.193C269.919 750.136 269.984 750.067 270.037 749.989L277.714 738.698C277.771 738.613 277.84 738.539 277.922 738.482L304.995 718.335C305.097 718.258 305.183 718.16 305.248 718.05L325.158 682.211C325.248 682.052 325.285 681.868 325.268 681.689L323.469 661.693C323.425 661.183 322.968 660.812 322.458 660.873L291.824 664.487C291.403 664.536 291.069 664.874 291.028 665.295L291.032 665.29Z" fill="#362541"/>
<path d="M153.048 738.319L166.66 734.403L194.557 702.933L217.833 683.716L248.414 644.206L267.9 672.351L258.428 676.41L241.651 704.013L228.39 725.665L201.867 753.542L160.648 800.093V825.803L148.978 851.783L138.266 879.66L110.932 875.573L102.814 805.233L101.46 798.469L137.454 745.151L153.048 738.319Z" fill="#4C3751"/>
<path d="M218.115 741.239L220.044 756.858L195.941 794.26L186.881 807.782L218.115 741.239Z" fill="#362541"/>
<path d="M258.236 680.188L227.818 726.889L250.67 700.326L258.236 680.188Z" fill="#362541"/>
<path d="M233.162 822.907C233.888 826.073 217.649 836.425 222.866 847.023C225.085 851.53 218.807 855.234 216.988 857.396L208.862 891.11L232.896 865.175L260.386 824.2L262.286 813.827L233.162 822.907Z" fill="#382940"/>
<path d="M352.565 677.65L378.349 692.976L392.79 707.558L424.758 729.953L381.739 731.947L365.973 705.645L352.565 677.65Z" fill="#543E59"/>
<path d="M307.01 234.687L307.94 237.551H310.95C312.382 237.551 312.978 239.382 311.819 240.223L309.384 241.993L310.314 244.857C310.755 246.219 309.196 247.349 308.042 246.509L305.607 244.738L303.172 246.509C302.013 247.349 300.455 246.219 300.9 244.857L301.83 241.993L299.394 240.223C298.236 239.382 298.831 237.551 300.263 237.551H303.274L304.204 234.687C304.644 233.325 306.574 233.325 307.014 234.687H307.01Z" fill="#F9B74D"/>
<path d="M339.969 306.3L340.899 309.164H343.909C345.341 309.164 345.937 310.995 344.778 311.835L342.343 313.606L343.273 316.469C343.714 317.832 342.155 318.962 341.001 318.121L338.566 316.351L336.131 318.121C334.972 318.962 333.414 317.832 333.859 316.469L334.789 313.606L332.353 311.835C331.195 310.995 331.79 309.164 333.222 309.164H336.233L337.163 306.3C337.603 304.938 339.533 304.938 339.973 306.3H339.969Z" fill="#F9B74D"/>
<path d="M289.368 354.838L290.298 357.701H293.309C294.741 357.701 295.336 359.533 294.178 360.373L291.743 362.143L292.673 365.007C293.113 366.369 291.555 367.499 290.4 366.659L287.965 364.889L285.53 366.659C284.372 367.499 282.813 366.369 283.258 365.007L284.188 362.143L281.753 360.373C280.594 359.533 281.19 357.701 282.622 357.701H285.632L286.562 354.838C287.003 353.475 288.932 353.475 289.373 354.838H289.368Z" fill="#F9B74D"/>
<path d="M316.095 219.142C316.669 219.142 317.135 218.676 317.135 218.102C317.135 217.527 316.669 217.062 316.095 217.062C315.52 217.062 315.055 217.527 315.055 218.102C315.055 218.676 315.52 219.142 316.095 219.142Z" fill="#F9B74D"/>
<path d="M297.106 276.155C297.937 276.155 298.611 275.482 298.611 274.65C298.611 273.819 297.937 273.145 297.106 273.145C296.274 273.145 295.601 273.819 295.601 274.65C295.601 275.482 296.274 276.155 297.106 276.155Z" fill="#F9B74D"/>
<path d="M344.991 322.813C345.822 322.813 346.496 322.139 346.496 321.307C346.496 320.476 345.822 319.802 344.991 319.802C344.159 319.802 343.485 320.476 343.485 321.307C343.485 322.139 344.159 322.813 344.991 322.813Z" fill="#F9B74D"/>
<path d="M372.937 351.917C373.768 351.917 374.442 351.243 374.442 350.412C374.442 349.581 373.768 348.907 372.937 348.907C372.106 348.907 371.432 349.581 371.432 350.412C371.432 351.243 372.106 351.917 372.937 351.917Z" fill="#F9B74D"/>
<path d="M477.411 855.544C474.042 851.122 467.997 851.485 465.602 851.632C448.413 852.672 436.473 877.49 439.426 885.162C439.635 885.701 440.344 887.267 440.034 887.537C439.398 888.095 435.303 882.332 432.851 880.272C424.562 873.304 413.948 893.565 398.399 890.89C394.267 890.18 392.133 888.389 387.871 889.45C382.086 890.89 375.976 896.678 376.498 900.227C378.179 911.673 452.161 923.004 472.871 887.745C477.644 879.619 483.11 863.025 477.411 855.54V855.544Z" fill="#FAEDDB"/>
<path d="M162.569 148.753L165.277 156.075C165.885 157.719 167.178 159.012 168.822 159.62L176.144 162.328C177.098 162.679 177.098 164.029 176.144 164.38L168.822 167.089C167.178 167.696 165.885 168.989 165.277 170.633L162.569 177.955C162.218 178.91 160.868 178.91 160.517 177.955L157.808 170.633C157.2 168.989 155.907 167.696 154.263 167.089L146.941 164.38C145.987 164.029 145.987 162.679 146.941 162.328L154.263 159.62C155.907 159.012 157.2 157.719 157.808 156.075L160.517 148.753C160.868 147.798 162.218 147.798 162.569 148.753Z" fill="#F9B74D"/>
<path d="M-0.000240934 0.25288C0.326088 0.25288 0.330167 -0.25293 -0.000240934 -0.25293C-0.330649 -0.25293 -0.330649 0.25288 -0.000240934 0.25288Z" fill="#2C6257"/>
<path d="M95.264 768.059C101.35 754.831 126.233 752.693 132.816 752.13C135.847 751.869 167.476 750.185 177.65 765.102C209.23 811.396 171.927 811.783 174.917 823.136C175.141 823.992 175.688 825.95 177.193 826.55C179.991 827.667 183.43 823.038 187.207 820.631C194.949 815.699 215.271 820.982 221.639 824.575C236.246 832.828 230.234 847.431 235.455 851.126C238.526 853.301 239.436 847.994 246.607 845.664C247.451 845.391 260.374 841.381 269.593 847.712C277.837 853.374 275.777 862.271 282.793 864.555C288.336 866.358 291.298 861.353 297.588 862.507C305.828 864.016 313.602 874.969 311.926 880.712C308.312 893.084 256.903 894.863 215.263 882.85C142.255 861.785 83.4508 793.742 95.264 768.059Z" fill="#FBF5EB"/>
<path d="M104.287 774.158C108.113 768.83 114.672 767.635 121.309 766.42C127.766 765.241 143.646 762.337 156.903 772.302C170.311 782.381 177.621 803.058 170.523 813.778C160.913 828.292 124.458 825.208 109.602 806.379C103.002 798.012 97.9029 783.046 104.287 774.162V774.158Z" fill="#ECDDCC"/>
<path d="M195.545 828.655C198.869 824.294 204.841 824.653 207.203 824.796C224.172 825.824 235.965 850.29 233.044 857.857C232.84 858.387 232.139 859.933 232.444 860.198C233.073 860.753 237.115 855.067 239.538 853.035C247.721 846.166 258.2 866.142 273.554 863.502C277.637 862.801 279.742 861.039 283.951 862.083C289.662 863.502 295.695 869.209 295.181 872.709C293.521 883.992 220.476 895.169 200.028 860.398C195.316 852.387 189.92 836.025 195.545 828.646V828.655Z" fill="#FAEDDB"/>
<path d="M18.8785 669.517C18.7888 664.316 34.5097 667.873 44.8869 670.785C51.1525 672.543 69.4228 677.675 75.3334 691.719C82.8308 709.533 85.6046 725.772 74.383 738.976C71.7479 742.08 78.3846 741.546 83.2632 743.418C114.734 755.496 100.534 796.548 106.098 803.993C108.88 807.713 112.184 800.86 122.272 797.968C135.288 794.235 156.145 795.198 166.041 806.53C178.727 821.064 189.389 835.806 181.9 855.055C181.235 856.768 182.663 858.029 187.293 857.592C196.924 856.683 216.393 866.962 214.37 874.561C211.372 885.824 25.2052 974.026 17.614 878.208C10.9528 794.162 19.2008 688.232 18.8826 669.521L18.8785 669.517Z" fill="#FBF5EB"/>
<path d="M10.0062 693.224C21.289 688.382 35.3089 697.189 37.3974 698.544C52.0496 708.072 59.8856 728.676 55.1334 744.062C50.6749 758.494 35.3415 767.697 37.9889 771.649C38.6783 772.681 40.6566 772.767 41.7335 772.832C45.6739 773.077 48.6598 770.63 49.8142 769.875C55.6841 766.049 67.7623 771.18 73.265 775.194C89.9812 787.399 82.4226 815.957 93.3628 818.939C96.4956 819.791 97.5561 817.572 104.597 815.194C113.195 812.29 130.389 809.259 139.869 816.181C153.256 825.951 143.825 850.119 157.013 856.772C160.627 858.596 162.508 857.372 169.23 857.56C188.153 858.09 209.605 868.797 209.23 875.296C208.508 887.818 125.649 903.254 108.141 876.283C105.119 871.628 106.644 869.719 102.427 862.687C89.7895 841.622 63.055 836.997 58.4864 836.283C36.2145 832.812 30.7689 842.879 19.4697 839.04C-16.0308 826.978 -22.435 707.142 10.0103 693.224H10.0062Z" fill="#FAEDDB"/>
<path d="M578.982 794.084C572.818 780.668 547.613 778.502 540.948 777.927C537.881 777.662 505.843 775.957 495.539 791.082C463.555 838.033 501.336 838.428 498.305 849.944C498.077 850.812 497.526 852.795 496 853.407C493.165 854.541 489.686 849.846 485.86 847.406C478.02 842.405 457.436 847.761 450.987 851.408C436.192 859.774 442.282 874.59 436.992 878.338C433.88 880.541 432.958 875.161 425.697 872.799C424.84 872.521 411.75 868.455 402.417 874.875C394.067 880.618 396.152 889.637 389.05 891.954C383.437 893.786 380.435 888.707 374.068 889.878C365.722 891.408 357.845 902.515 359.546 908.344C363.205 920.892 415.275 922.699 457.449 910.514C531.395 889.148 590.954 820.138 578.986 794.088L578.982 794.084Z" fill="#FBF5EB"/>
<path d="M656.345 694.138C656.435 688.859 640.514 692.469 630.007 695.423C623.659 697.205 605.153 702.41 599.169 716.655C591.573 734.721 588.767 751.192 600.131 764.584C602.803 767.729 596.077 767.191 591.137 769.087C559.263 781.337 573.646 822.972 568.008 830.527C565.194 834.3 561.845 827.349 551.626 824.416C538.443 820.631 517.317 821.606 507.299 833.101C494.45 847.843 483.652 862.793 491.239 882.315C491.912 884.053 490.468 885.33 485.777 884.889C476.024 883.967 456.302 894.394 458.354 902.099C461.393 913.525 649.945 1002.98 657.634 905.799C664.381 820.558 656.027 713.122 656.35 694.142L656.345 694.138Z" fill="#FBF5EB"/>
<path d="M-3.80908 212.599C-3.22984 198.779 -2.61798 187.223 3.73728 180.859C17.8469 166.738 46.984 191.53 49.6803 183.58C51.2793 178.865 40.6206 171.363 35.1383 153.391C29.8109 135.92 30.3208 111.653 39.5886 99.11C50.8265 83.8949 68.9459 94.0478 71.9645 81.4841C74.2977 71.7758 63.9164 63.8828 62.8721 48.6024C61.3262 26.0205 80.9997 -0.840467 101.901 0.199706C127.665 1.48463 150.226 15.941 162.484 36.1815C167.603 44.6375 167.811 25.1353 174.073 23.6954C191.148 19.7754 211.201 51.9514 222.443 69.2019C226.367 75.2227 222.325 52.914 228.827 42.3451C237.621 28.0559 260.024 31.9719 275.504 43.3648C282.557 48.5576 295.634 58.1802 297.062 70.5358C302.663 118.992 126.017 182.34 93.3839 178.261C90.1206 177.853 75.6397 175.185 70.447 186.17C68.7542 189.752 69.5129 191.681 68.4931 195.087C63.3086 212.371 34.1063 194.712 21.359 212.717C13.5353 223.768 13.2049 246.419 19.5397 258.713C21.7547 263.013 23.3007 263.168 25.226 267.569C31.7281 282.437 25.8093 307.504 19.3888 307.451C10.2761 307.377 -5.66507 256.621 -3.81724 212.591L-3.80908 212.599Z" fill="#F7EEE2"/>
<path d="M237.299 104.327C244.776 118.184 228.32 151.4 226.273 155.528C221.141 165.885 212.763 182.801 197.833 186.949C172.787 193.908 155.627 157.612 137.858 167.402C125.278 174.329 120.151 200.072 122.296 219.558C124.789 242.209 136.414 250.053 135.488 264.334C134.403 281.054 112.747 271.986 93.6282 297.236C89.0963 303.22 81.7376 313.247 82.8267 326.961C83.6507 337.334 88.5049 339.72 88.7659 348.482C89.288 365.871 70.4793 367.058 69.7042 383.962C69.0026 399.206 83.4672 416.375 92.7879 423.982C100.122 429.966 101.974 428.155 119.551 436.444C137.466 444.888 146.498 449.277 150.014 457.5C155.468 470.243 152.021 489.958 144.038 498.936C136.944 506.915 127.856 504.622 126.877 511.916C126.016 518.312 132.563 523.386 133.236 528.66C135.692 547.914 81.6356 592.405 42.1335 570.565C-10.332 541.554 -46.3709 390.46 -16.4098 289.543C1.9747 227.618 118.69 116.589 87.8033 97.2864C10.4796 48.9693 225.665 82.7688 237.303 104.327H237.299Z" fill="#FBF5EB"/>
<path d="M357.298 145.049C344.905 144.816 329.882 144.678 327.063 151.694C324.942 156.972 329.882 165.922 337.028 169.968C352.933 178.963 373.406 160.089 382.213 168.308C386.9 172.685 381.703 178.604 385.868 190.568C390.306 203.327 403.081 216.323 414.772 215.487C425.537 214.716 428.825 202.687 438.027 204.192C444.019 205.171 443.738 210.449 452.647 216.152C464.537 223.768 474.837 220.639 476.236 225.122C477.949 230.616 462.237 234.512 460.952 244.061C459.059 258.167 491.627 262.425 512.781 294.561C522.298 309.017 520.511 315.454 530.056 321.47C547.975 332.765 569.648 319.774 574.575 327.785C579.279 335.429 558.928 346.263 556.966 369.979C555.591 386.634 563.758 403.901 568.926 414.833C574.938 427.552 581.053 435.131 578.561 445.398C577.015 451.765 574.082 451.247 570.978 460.376C566.788 472.683 570.533 478.284 565.214 484.431C562.097 488.033 557.039 490.476 552.185 490.443C544.419 490.395 542.591 484.056 536.15 484.178C529.118 484.317 514.861 493.939 520.617 501.718C569.118 567.253 419.904 701.183 568.285 617.071C574.367 613.624 773.061 610.19 562.216 499.968C545.985 491.484 582.244 494.417 586.764 485.434C589.86 479.279 582.289 474.91 584.504 465.357C587.327 453.185 601.485 452.161 602.505 442.738C603.341 435.004 594.131 432.655 586.764 420.789C578.006 406.687 574.747 383.803 584.006 369.424C592.915 355.596 611.251 352.982 610.565 342.865C610.423 340.748 609.419 337.934 608.044 335.649C604.765 330.208 600.935 330.387 597.537 326.076C592.797 320.059 596.566 315.013 593.025 311.542C587.612 306.235 577.259 316.539 565.964 313.798C552.438 310.518 554.804 292.713 536.497 274.259C521.274 258.909 513.413 264.946 504.831 252.415C490.786 231.905 506.299 207.651 494.058 198.795C486.116 193.052 478.806 202.691 463.489 199.799C441.829 195.707 442.902 173.864 416.383 157.458C397.562 145.812 378.668 145.453 357.285 145.049H357.298Z" fill="#FAEDDB"/>
<path d="M342.996 133.872C346.015 119.179 367.283 102.622 384.885 103.491C398.843 104.18 407.63 115.683 415.727 111.315C423.522 107.113 418.717 94.6433 425.855 86.4565C436.877 73.8154 473.01 75.239 493.063 93.8234C523.95 122.451 508.204 183.943 529.428 191.873C530.954 192.444 537.317 194.818 541.396 191.873C546.103 188.471 543.395 181.125 545.997 176.221C551.476 165.914 579.94 167.382 598.014 173.921C647.967 191.991 666.376 406.442 658.087 435.037C575.143 721.268 607.898 292.99 538.17 264.143C492.475 245.24 333.614 179.517 342.996 133.872Z" fill="#FDF0E6"/>
<path d="M294.7 132.379C294.047 138.114 327.031 145.24 360.186 152.403C389.596 158.759 399.957 144.253 412.806 153.325C424.791 161.785 419.015 172.171 430.808 183.327C450.591 202.042 480.565 185.791 491.737 201.789C500.12 213.798 485.105 225.632 493.585 241.483C503.461 259.945 530.114 255.646 536.51 274.255C540.009 284.44 533.03 288.642 537.431 295.947C544.86 308.278 566.002 298.391 589.126 312.566C593.711 315.376 607.621 323.897 608.049 335.645C608.543 349.098 579.222 285.085 573.43 301.054C563.721 327.821 613.996 420.009 602.51 442.73C597.354 452.928 586.679 453.225 584.509 465.349C582.375 477.26 591.239 484.998 587.278 490.272C582.706 496.366 570.052 487.16 557.737 493.042C544.056 499.576 536.538 521.987 543.428 533.201C549.816 543.598 567.65 542.835 567.429 546.123C567.164 550.031 542.294 546.71 535.58 558.585C530.636 567.334 539.651 577.075 534.658 582.586C528.502 589.382 512.7 576.904 501.425 583.508C491.264 589.46 486.753 609.757 494.042 620.897C506.553 640.016 551.647 628.823 585.434 620.436C629.852 609.41 635.742 596.814 637.353 591.797C640.278 582.688 637.871 571.197 632.874 569.403C626.817 567.233 620.78 580.673 601.029 593.788C590.174 600.991 573.397 609.284 570.427 605.731C567.862 602.668 574.702 589.753 585.606 583.088C594.776 577.483 600.185 580.363 610.488 575.374C610.488 575.374 642.469 567.799 629.897 556.961C577.166 511.524 695.672 313.067 636.297 288.213C627.07 284.35 608.012 281.866 599.05 266.121C594.38 257.914 595.077 250.714 586.74 240.239C579.279 230.869 570.354 226.113 570.619 225.738C570.872 225.375 578.296 260.377 588.294 267.646C614.323 286.578 624.606 272.664 629.391 270.106C632.177 268.617 632.532 261.046 629.391 256.168C623.321 246.733 607.033 251.758 603.374 243.857C601.323 239.427 605.895 236.682 606.625 228.524C607.617 217.461 600.788 204.726 589.901 197.861C576.746 189.568 560.14 191.404 552.267 197.396C544.835 203.054 540.886 206.688 540.886 206.688C536.106 211.085 535.155 212.66 533.454 212.497C528.396 212.011 525.859 197.061 524.627 189.499C521.103 167.871 524.9 165.257 521.841 155.12C516.808 138.441 499.447 122.059 486.3 124.225C477.224 125.718 475.249 135.218 458.423 140.484C453.438 142.046 449.78 142.414 446.112 141.647C438.113 139.974 433.545 133.631 431.477 131.298C419.896 118.212 390.6 108.292 355.311 126.831C346.407 131.51 322.956 122.789 300.366 129.067C297.947 129.74 294.908 130.69 294.716 132.379H294.7Z" fill="#F7EEE2"/>
<path d="M480.756 258.432C482.282 266.794 500.866 263.27 513.952 279.064C522.437 289.303 517.509 294.263 526.467 303.661C534.401 311.987 545.243 315.417 560.246 320.169C574.511 324.685 577.154 323.502 579.373 326.871C586.209 337.257 563.195 351.791 562.502 376.677C561.812 401.34 583.811 408.878 585.785 436.563C586.316 443.999 581.694 455.371 573.47 478.076C562.718 507.755 556.534 516.35 560.846 522.448C566.181 529.999 584.961 530.003 597.839 522.049C614.208 511.941 617.109 480.988 622.236 419.487C627.494 356.416 629.933 324.603 620.686 310.857C604.137 286.26 574.772 304.236 545.496 275.058C527.36 256.984 525.374 238.84 510.061 237.143C495.404 235.52 479.251 250.155 480.76 258.428L480.756 258.432Z" fill="#FBF5EB"/>
<path d="M608.563 529.02C604.912 528.135 599.47 534.4 588.73 546.964C580.18 556.966 565.006 534.657 558.369 542.314C545.585 557.056 529.473 598.866 530.994 603.562C532.01 606.694 519.797 625.882 523.815 625.397C532.646 624.328 583.811 595.864 595.249 586.605C607.388 576.778 607.033 567.139 613.278 558.292C620.09 548.64 615.065 530.594 608.555 529.016L608.563 529.02Z" fill="#FBF5EB"/>
<path d="M286.366 71.9185C295.784 68.7449 315.735 62.4549 321.087 72.6609C323.457 77.1805 322.853 84.735 320.373 89.5525C311.179 107.415 280.394 79.5913 263.922 98.0615C254.451 108.679 261.834 121.011 252.113 132.016C240.875 144.743 228.092 131.555 195.846 139.146C177.111 143.556 172.913 150.013 171.294 153.007C163.699 167.068 172.391 179.897 165.959 192.97C156.022 213.158 126.428 200.594 122.3 219.554C121.582 222.858 121.639 227.108 121.647 227.728C121.855 239.713 126.938 247.753 128.986 253.643C134.452 269.372 126.265 292.725 116.65 303.11C98.1148 323.135 65.9878 303.893 64.1807 314.801C63.1732 320.895 73.3873 325.782 74.6069 337.391C76.6383 356.746 50.4627 364.525 52.6246 381.519C53.522 388.563 58.3109 389.542 68.2231 401.682C90.4787 428.943 87.6845 450.174 104.503 461.698C116.789 470.117 126.522 464.435 128.782 471.333C131.078 478.341 122.683 489.236 115.724 494.837C107.721 501.273 100.697 501.445 89.0551 503.117C61.4028 507.086 60.5911 511.92 53.6852 510.545C25.8126 505.006 -6.42868 417.203 -8.75785 339.5C-9.1984 324.823 -11.4093 250.975 25.3843 197.722C54.6927 155.3 52.5308 148.288 139.599 96.8418C139.599 96.8418 216.499 95.4509 286.362 71.9225L286.366 71.9185Z" fill="#FAEDDB"/>
<path d="M15.5989 503.26C22.3866 489.285 60.9546 486.217 75.3538 505.357C81.5785 513.633 84.3115 527.433 77.9726 536.28C69.2759 548.424 47.1998 546.074 33.9427 537.851C21.3056 530.015 10.7734 513.184 15.5989 503.256V503.26Z" fill="#FAEDDB"/>
<path d="M660.857 711.678C658.177 707.795 655.028 704.927 651.402 703.369C639.977 698.462 625.773 707.391 623.66 708.766C608.82 718.429 600.882 739.326 605.7 754.933C610.215 769.569 625.744 778.902 623.065 782.912C622.367 783.956 620.36 784.041 619.271 784.111C615.282 784.36 612.259 781.875 611.088 781.113C605.141 777.233 592.908 782.434 587.34 786.509C570.407 798.889 578.064 827.851 566.981 830.878C563.807 831.743 562.734 829.491 555.604 827.08C546.895 824.135 529.482 821.063 519.879 828.08C506.32 837.988 515.874 862.503 502.515 869.25C498.856 871.098 496.951 869.858 490.143 870.049C470.975 870.588 449.25 881.447 449.629 888.034C450.359 900.733 534.283 916.388 552.015 889.034C555.074 884.314 553.528 882.377 557.803 875.242C570.599 853.88 597.68 849.185 602.31 848.463C624.867 844.938 630.382 855.153 641.828 851.261C649.575 848.626 655.95 840.916 660.862 830.303V711.682L660.857 711.678Z" fill="#FAEDDB"/>
</g>
<defs>
<clipPath id="clip0_212_2">
<rect width="660" height="990" fill="white"/>
</clipPath>
</defs>
</svg>
