<?xml version="1.0" encoding="UTF-8"?>
<svg xmlns="http://www.w3.org/2000/svg" viewBox="0 0 1618 2427">
  <defs>
    <style>
      .cls-1 {
        fill: #6e6183;
      }

      .cls-1, .cls-2, .cls-3, .cls-4, .cls-5, .cls-6, .cls-7, .cls-8, .cls-9, .cls-10, .cls-11, .cls-12, .cls-13, .cls-14, .cls-15, .cls-16, .cls-17, .cls-18, .cls-19, .cls-20, .cls-21, .cls-22, .cls-23, .cls-24, .cls-25, .cls-26, .cls-27, .cls-28, .cls-29, .cls-30, .cls-31, .cls-32, .cls-33, .cls-34, .cls-35, .cls-36, .cls-37, .cls-38, .cls-39, .cls-40 {
        stroke-width: 0px;
      }

      .cls-2 {
        fill: #a7919a;
      }

      .cls-3 {
        fill: #85a63c;
      }

      .cls-4 {
        fill: #6b565f;
      }

      .cls-5 {
        fill: #2a6135;
      }

      .cls-6 {
        fill: #eb9bab;
      }

      .cls-7 {
        fill: #fbc665;
      }

      .cls-8 {
        fill: #f7c1c4;
      }

      .cls-9 {
        fill: #806872;
      }

      .cls-10 {
        fill: #83728c;
      }

      .cls-11 {
        fill: #d8c0c5;
      }

      .cls-12 {
        fill: #f6ac65;
      }

      .cls-13, .cls-41 {
        fill: #ffd87a;
      }

      .cls-42 {
        stroke: #f6f5d3;
        stroke-width: 18px;
      }

      .cls-42, .cls-43, .cls-41, .cls-44 {
        stroke-miterlimit: 10;
      }

      .cls-42, .cls-43, .cls-44 {
        fill: none;
      }

      .cls-14 {
        fill: #f0856f;
      }

      .cls-15 {
        fill: #fde5d0;
      }

      .cls-16 {
        fill: #fdf0e6;
      }

      .cls-17 {
        fill: #755c71;
      }

      .cls-18 {
        fill: #857691;
      }

      .cls-19 {
        fill: #827089;
      }

      .cls-20 {
        fill: #fbe8ef;
      }

      .cls-21 {
        fill: #765e72;
      }

      .cls-22 {
        fill: #fddcab;
      }

      .cls-23 {
        fill: #937e8b;
      }

      .cls-43 {
        stroke-width: 3px;
      }

      .cls-43, .cls-41, .cls-44 {
        stroke: #ffd87a;
      }

      .cls-24 {
        fill: #ffe588;
      }

      .cls-25 {
        fill: #967d90;
      }

      .cls-26 {
        fill: #61495d;
      }

      .cls-27 {
        fill: #fbc471;
      }

      .cls-28 {
        fill: #86768d;
      }

      .cls-41 {
        stroke-width: 4px;
      }

      .cls-29 {
        fill: #ffdf8b;
      }

      .cls-44 {
        stroke-width: 5px;
      }

      .cls-30 {
        fill: #614758;
      }

      .cls-31 {
        fill: #5d465e;
      }

      .cls-32 {
        fill: #f0898f;
      }

      .cls-33 {
        fill: #faeddb;
      }

      .cls-34 {
        fill: #6c4f63;
      }

      .cls-35 {
        fill: #fff;
      }

      .cls-36 {
        fill: #fcd38d;
      }

      .cls-37 {
        fill: #f9b74d;
      }

      .cls-38 {
        fill: #47334d;
      }

      .cls-39 {
        fill: #988497;
      }

      .cls-40 {
        fill: #b6d2cc;
      }
    </style>
  </defs>
  <g id="_Слой_9" data-name="Слой 9">
    <path class="cls-3" d="M3.48-351.38c-19.11-66.43,179.34,17.07,619.96,73.86,71.32,9.19,132.41,16.65,210.76,9.88,119.48-10.32,159.91-43.43,265.4-73.14,152.17-42.86,392.88-65.46,483.97-17.79,78.6,41.14,143.14,345.71,31.18,350.67C1188.97,10.97,380.21,5.13,20.04-15.07-61.25-19.62,13.06-318.06,3.48-351.38Z"/>
    <path class="cls-35" d="M117.33-114.91l6.3,28.19,25.79-18.69c6.58-4.77,14.97,2.9,10.82,9.88l-15.05,25.29,31.99.77c7.95.19,9.73,11.24,2.25,13.93l-29.36,10.55,23.63,19.07c6.21,5.01.96,14.92-6.67,12.59l-31.02-9.45,4.66,28.46c1.34,8.22-9.44,12.49-14.09,5.58l-17-25.27-17,25.27c-4.65,6.91-15.44,2.64-14.09-5.58l4.66-28.46-31.02,9.45c-7.63,2.33-12.88-7.58-6.67-12.59l23.63-19.07-29.36-10.55c-7.48-2.69-5.69-13.74,2.25-13.93l31.99-.77-15.05-25.29c-4.16-6.98,4.24-14.65,10.82-9.88l25.79,18.69,6.3-28.19c1.85-8.29,13.67-8.29,15.53,0Z"/>
    <path class="cls-5" d="M285.78-66.3c16.94-39.64,36.21-55.59,42.07-60.16,15.76-12.3,37.87-23.01,42.07-18.51,3.55,3.81-6.58,17.58-13.1,26.44-29.77,40.47-58.77,50.58-74.48,86.6-3.4,7.79-5.02,14.16-4.14,14.54,1.67.73,8.69-21.27,28.28-37.02,16.99-13.67,42.86-22.15,52.42-13.88,2.58,2.23,4.48,6.13,3.45,9.26-2.42,7.3-19.51,6.05-31.72,8.59-39.09,8.15-52.51,60.27-60,57.52-6.28-2.31.83-39.83,15.17-73.38Z"/>
  </g>
  <g id="_Слой_12" data-name="Слой 12">
    <g id="_Слой_16" data-name="Слой 16">
      <path class="cls-16" d="M77.45,1229.04c-39.63-4.49-145.29,26.56-715.38-5.98-4.94-1.66-10.5-4.2-15.24-8.22-20.34-17.27-14.75-52.73,9.15-65.78,23.77-12.98,49.56,5.01,78.25-9.72,17.45-8.96,14.58-19.04,33.53-29.15,22.67-12.1,49.66-.04,57.92-9.72,4.52-5.29-.1-11.57-2.03-17.94-9.66-31.9,47.95-67.2,51.82-69.52,50.72-30.4,137.97-34.44,184.94-5.98,48.72,29.52,35.13,82.49,85.36,94.94,20.62,5.11,23.73-3.62,46.74,1.5,52.82,11.74,43.03,59.18,99.58,78.49,24.85,8.48,44.01,5.22,65.03,20.93,10.92,8.16,27.67,26.99,20.32,26.16Z"/>
    </g>
  </g>
  <g id="_Слой_18" data-name="Слой 18">
    <rect class="cls-40" x="-12.98" y="-3.4" width="1643.95" height="2431.23"/>
    <path class="cls-16" d="M1622.79,1024.24c-4.69-.42-9.41-.63-14.15-.63-157.47,0-285.12,232.48-285.12,519.26,0,12.25.25,24.4.71,36.45-40.63-40.58-87.27-63.67-136.88-63.67-157.47,0-285.12,232.48-285.12,519.26,0,156.17,37.86,296.22,97.77,391.41h622.79v-1402.07Z"/>
    <path class="cls-16" d="M833.85,1523.08c-48.49,0-94.09,23.09-133.81,63.67.45-12.04.69-24.19.69-36.45,0-286.78-124.78-519.26-278.71-519.26-18.54,0-36.64,3.4-54.17,9.83-54.52-200.08-166.01-337.2-294.7-337.2-25.21,0-49.75,5.29-73.35,15.26v1643.48h-12.45v71.33H1016.98c58.56-95.19,95.58-235.24,95.58-391.41,0-286.78-124.78-519.26-278.71-519.26Z"/>
    <path class="cls-33" d="M900.21,2416.1c10.44-72.73,12.71-205.77,2.6-328.29-5.3-64.21-27.54-333.82-108.65-440.76-112.44-148.24-216.86,175.84-335.2,57.72-118.77-118.55-84.56-515.81-214.99-687.37-82.96-109.13-184.74-64.06-256.6-10.5l23.88,1409.2h888.97Z"/>
    <path class="cls-33" d="M1086.56,2408.23c-6.27-61.1-7.63-172.86-1.56-275.78,3.18-53.94,16.53-280.43,65.23-370.26,67.51-124.53,130.2,147.71,201.25,48.49,71.31-99.59,50.76-433.31,129.08-577.43,49.81-91.67,110.91-53.81,154.06-8.82l-14.34,1183.81h-533.71Z"/>
    <polygon class="cls-42" points="1177.5 105.77 1195.47 154.34 1244.04 172.31 1195.47 190.29 1177.5 238.85 1159.53 190.29 1110.96 172.31 1159.53 154.34 1177.5 105.77"/>
    <polygon class="cls-42" points="221.53 409.86 238.29 458.43 283.61 476.4 238.29 494.37 221.53 542.94 204.76 494.37 159.45 476.4 204.76 458.43 221.53 409.86"/>
    <polygon class="cls-42" points="1404.41 781.86 1419.2 830.43 1459.17 848.41 1419.2 866.38 1404.41 914.95 1389.62 866.38 1349.65 848.41 1389.62 830.43 1404.41 781.86"/>
  </g>
  <g id="_Слой_20" data-name="Слой 20">
    <polyline class="cls-18" points="447.43 2078.97 389.59 2256.69 268.36 2376.13 268.36 2413.68 301.84 2446.63 1341.51 2431.21 1211.18 2085.72 1187.34 2035.67 1062.89 1938.63 1037.68 1971.38 520.94 2000.32"/>
    <polyline class="cls-31" points="1373.06 2442.94 1373.06 2395.15 1341.46 2332.56 1332.35 2295.49 1298.93 2258.42 1215.07 2089.49 1140.93 2023.26 1097.18 1994.99 1060.29 1984.98 1034.59 1998.35 1016.36 1994.99 865.67 2031.77 804.9 2043.92 767.83 2064.58 767.83 2087.67 725.9 2104.08 710.1 2118.66 706.08 2177.48 527.41 2283.02 403.36 2318.19 368.18 2375.59 279.31 2415.4 291.34 2442.94"/>
    <path class="cls-38" d="M642.18,2443.22c34.46-17.56,81.56-47.57,120.35-98.64,26-34.23,20.6-41.5,56.23-100.62,25.73-42.69,81.11-132.72,145.01-147.97,13.25-3.16,32.51-7.76,54.25-.99,19.28,6,21.99,15.17,36.5,15.78,16.18.68,25.6-10.18,53.27-31.57,11.6-8.97,29.22-21.96,52.28-36.5l94.7,61.16,30.58,149.94,32.4,43.37,7.6,52.31,39.63,89.31"/>
    <polygon class="cls-38" points="1088.72 2100.75 1118.34 2175.3 1118.34 2269.91 1103.53 2375.04 1251.19 2313.87 1251.19 2378.86 1306.62 2438.11 1369.69 2438.11 1335.29 2356.88 1323.82 2289.02 1281.77 2248.89 1254.05 2104.58 1170.91 2042.73 1088.72 2100.75"/>
    <polygon class="cls-39" points="515.43 2003.99 546.05 1973.82 607.71 1961.84 681.83 2001.07 515.43 2019.51 515.43 2003.99"/>
  </g>
  <g id="_рыцарь" data-name="рыцарь">
    <ellipse class="cls-17" cx="835.61" cy="1953.1" rx="230.45" ry="57.63"/>
    <ellipse class="cls-11" cx="834.72" cy="1945.85" rx="228.17" ry="44.32"/>
    <ellipse class="cls-4" cx="831.94" cy="1921.81" rx="189.76" ry="33.75"/>
    <ellipse class="cls-20" cx="833.36" cy="1917.68" rx="178.63" ry="29.63"/>
    <ellipse class="cls-2" cx="833.36" cy="1917.05" rx="178.63" ry="21.58"/>
    <ellipse class="cls-20" cx="833.59" cy="1909.63" rx="178.63" ry="21.58"/>
    <path class="cls-25" d="M1021.71,1766.26c.08,3.16-2.63,5.77-4.46,7.23l-48.65,5.2-276.92-1.6-38.29-2.41c-2.49-.6-5.96-1.88-8.4-4.89,0,0-5.58-6.9-.99-20.78,11.05-33.41,376.82-19.02,377.71,17.25Z"/>
    <path class="cls-34" d="M606.55,1737.34c0,1.54,10.24,9.04,14.08,10.18,11.94,3.54,20.17-.59,23.85,3.91,2.59,3.17.66,7.89.78,9.38,1.87,23.22,229.05,7.34,371.1,1.54,1.37-.06,2.95-.12,4.09-.17.8-2.93,1.6-5.85,2.4-8.78,2.78-.29,5.12-.68,6.89-1.03,17.23-3.4,35.16-13.18,34.93-16.92-1.14-18.52-458.09-10.42-458.12,1.88Z"/>
    <g>
      <path class="cls-27" d="M533.91,1694.73h603.41v43.38h-603.41v-43.38Z"/>
      <polygon class="cls-24" points="542.26 1702.49 1036.05 1702.49 1046.92 1738.11 1137.32 1738.11 1137.32 1694.73 533.91 1694.73 533.91 1703.86 542.26 1702.49"/>
    </g>
    <polygon class="cls-26" points="706.37 1776.63 962.92 1776.63 940.61 1805.35 727.39 1805.35 706.37 1776.63"/>
    <path class="cls-9" d="M729.76,1827.38c2.77,2.98,8.67,10.19,9.64,20.56,0,0,.87,9.22-3.62,18.28-13.83,27.9-67.17,29.55-66.71,40.36.13,3.08,4.57,5.26,7.23,6.47,36.46,16.52,98.13,11.67,149.29,10.75,7.42-.13.84.06,40.61,0,17.66-.03,14.64,2.03,110.06-5.26,5.79-.44,20.36-3.61,21.31-8.32.39-1.9-1.51-3.85-2.99-5.09-14.13-2.12-24.83-6.31-31.83-9.68-11.58-5.56-35.5-17.05-38.48-37.39-1.16-7.9,1.96-16.07,1.96-16.07,1.81-5.38,4.43-9.39,6.39-11.94l-202.86-2.67Z"/>
    <path class="cls-25" d="M708.68,1820.01c9.19,2.43,22.44,5.61,38.58,8.34,11.76,1.99,40.16,6.32,93.85,5.91,27.38-.21,74.58-3.75,116.93-8.69l-4.7-15.58-235.27,1.73-9.38,8.29Z"/>
    <polygon class="cls-21" points="958.04 1815.5 935.36 1822.67 892.1 1825.57 826.76 1825.57 763.45 1821.51 712.46 1813.35 727.51 1797.87 942.99 1797.87 958.04 1815.5"/>
    <path class="cls-23" d="M721.59,1919.25c-.36-4.42,15.96-4.29,31.85-19.37,14.85-14.09,20.58-33.16,22.81-49.5h109.76c-.3,3.51-.27,6.81,0,9.9,2.9,32.95,34.11,54.1,44.76,60.69-8.85,1.33-21.71,5.11-37.45,4.73-89.53-2.15-170.92,3.52-171.74-6.46Z"/>
    <path class="cls-30" d="M743.88,1865.71c11.02,1.79,22.43,3.32,34.21,4.53,55.36,5.71,105.74,3.03,149.2-3.3-1.15-2.75-1.67-5.25-1.88-7.35-1.42-14.63,10.85-29.98,13.02-31.87l-98.89,6.56-117.95-11.08c2.45,2.68,11.91,10.47,14.23,15.13,5.67,11.38.54,22.51-.03,27.89l8.08-.51Z"/>
    <polygon class="cls-1" points="681.83 2071.98 681.83 2094.11 706.01 2131.41 723.23 2107.64 766.27 2086.32 769.55 2058.04 681.83 2071.98"/>
    <path class="cls-28" d="M521.58,2010.8c7.23,24.79,5.75,43.94,1.62,58.35-4.2,14.66-10.2,21.13-18.64,39.71-8.81,19.4-13.99,38.14-17.02,55.11l-48.62,61.59,5.67,16.38,82.06-2.55,25.72-68.12,143.44-160.45-169.37-9.72-4.86,9.72Z"/>
    <polygon class="cls-19" points="437.94 2115.67 443.63 2201.39 390.28 2233.86 437.94 2115.67"/>
    <polygon class="cls-10" points="600.82 2224.87 630.2 2147.75 702.08 2114.17 713.09 2140.4 704.7 2194.44 606.55 2235.36 600.82 2224.87"/>
    <polyline class="cls-7" points="803.63 1515.92 871.4 1515.92 854.24 950.12 819.36 950.12"/>
    <rect class="cls-37" x="809.15" y="941.95" width="53.82" height="8.17"/>
    <polygon class="cls-29" points="864.43 941.95 810.61 941.95 801.82 933.78 871.4 933.78 864.43 941.95"/>
    <rect class="cls-13" x="798.44" y="924.48" width="75.24" height="9.3"/>
    <rect class="cls-7" x="803.63" y="901.59" width="63.84" height="22.89"/>
    <polygon class="cls-37" points="877.08 903.87 797.7 903.87 780.52 873.78 893.16 873.78 877.08 903.87"/>
    <rect class="cls-37" x="796.47" y="853.05" width="78.97" height="22.89"/>
    <rect class="cls-13" x="785.03" y="843.76" width="101.53" height="9.3"/>
    <path class="cls-13" d="M884.01,763.67c-10.82-37.65-33.95-61.65-53.72-59.99-12.68,1.07-23.46,12.64-30.44,20.14-13.16,14.14-18.65,29.37-21.04,38.05-7.2-7.12-22.75-20.47-46.56-26.41-7.83-1.95-34.35-8.17-61.33,4.48-12.26,5.75-19.98,13.76-34.92,29.55-28.12,29.72-24.27,36.87-42.08,51.93-7.84,6.63-36.54,28.88-70.73,25.96-17.94-1.53-39.89-10.2-53.72-15.67-17.25-6.81-25.08-11.72-35.36-8.51-11.22,3.51-23.4,16.06-20.59,28.65,1.7,7.63,9.07,16.02,19.25,16.12,9.92.09,18.23-7.75,19.25-14.77.76-5.22-2.54-9.91-.45-11.64,1.55-1.29,4.76.16,6.27.9,15.9,7.72,27.02,24.8,46.56,35.36.67.36,3.68,1.98,7.61,3.58,33.91,13.83,68.91-.83,76.55-4.03,20.6-8.63,33.39-20.71,47-33.57,23.84-22.52,20.44-29.12,38.5-42.08,6.58-4.73,34.05-24.44,64.91-17.46,13.12,2.97,21.66,9.58,33.57,18.8,19.9,15.41,29.79,28.35,36.89,39.57h50.35l10.04-22.21"/>
    <path class="cls-13" d="M787.92,763.67c10.49-37.65,32.91-61.65,52.07-59.99,12.29,1.07,22.74,12.64,29.51,20.14,12.76,14.14,18.07,29.37,20.4,38.05,6.98-7.12,22.05-20.47,45.13-26.41,7.59-1.95,33.3-8.17,59.45,4.48,11.88,5.75,19.37,13.76,33.85,29.55,27.26,29.72,23.52,36.87,40.79,51.93,7.6,6.63,35.42,28.88,68.56,25.96,17.39-1.53,38.66-10.2,52.07-15.67,16.72-6.81,24.31-11.72,34.28-8.51,10.87,3.51,22.68,16.06,19.96,28.65-1.65,7.63-8.79,16.02-18.66,16.12-9.62.09-17.68-7.75-18.66-14.77-.73-5.22,2.46-9.91.43-11.64-1.51-1.29-4.61.16-6.08.9-15.41,7.72-26.19,24.8-45.13,35.36-.65.36-3.57,1.98-7.38,3.58-32.87,13.83-66.8-.83-74.2-4.03-19.97-8.63-32.37-20.71-45.56-33.57-23.1-22.52-19.82-29.12-37.32-42.08-6.38-4.73-33-24.44-62.92-17.46-12.71,2.97-21,9.58-32.55,18.8-19.29,15.41-28.88,28.35-35.76,39.57h-48.8l-9.73-22.21"/>
    <circle class="cls-13" cx="1227.97" cy="929.13" r="19.14"/>
    <path class="cls-13" d="M1021.71,1564.13h410.14c-2.58,4.42-6.44,10.67-11.63,17.77-36.21,49.58-104.78,96.76-190.29,98.52-118.79,2.43-189.11-84.46-196.64-94.09l-11.58-22.2Z"/>
    <line class="cls-41" x1="1227.97" y1="858.66" x2="1227.97" y2="963.75"/>
    <circle class="cls-43" cx="1227.97" cy="971.24" r="7.48"/>
    <polyline class="cls-44" points="1420.22 1581.9 1227.97 978.72 1226.78 1588.43"/>
    <line class="cls-44" x1="1229.08" y1="982.2" x2="1044.11" y2="1568.49"/>
    <circle class="cls-13" cx="437.74" cy="925.96" r="19.14"/>
    <path class="cls-13" d="M231.48,1560.96h410.14c-2.58,4.42-6.44,10.67-11.63,17.77-36.21,49.58-104.78,96.76-190.29,98.52-118.79,2.43-189.11-84.46-196.64-94.09l-11.58-22.2Z"/>
    <line class="cls-41" x1="437.74" y1="855.49" x2="437.74" y2="960.58"/>
    <circle class="cls-43" cx="437.74" cy="968.07" r="7.48"/>
    <polyline class="cls-44" points="629.99 1578.73 437.74 975.55 436.55 1585.26"/>
    <line class="cls-44" x1="438.84" y1="979.02" x2="253.88" y2="1565.32"/>
    <path class="cls-37" d="M316.53,1562.08c5.45,17.02,20.72,57.26,57.73,86.37,11.93,9.38,36.7,28.86,71.7,28.79,46.8-.1,77.95-35.08,87.53-45.85,23.1-25.95,33-54.74,37.25-70.38"/>
    <path class="cls-22" d="M469.75,1672.41c20.48-2.66,55.53-9.7,92.12-30.8,46.06-26.57,72.19-65.74,82.26-82.9l-73.39,2.3c-3.84,13.22-9.46,29.63-19.87,48.17-22.39,39.88-62.9,55.53-81.12,63.23Z"/>
    <path class="cls-22" d="M1090.41,1564.13c3.72,13.85,16.62,54.92,55.98,85.39,32.82,25.4,72.86,28.64,72.52,30.22-.45,2.09-36.99.32-73.79-13.14-29.78-10.89-77.5-35.93-123.42-101.15l68.71-1.31Z"/>
    <path class="cls-37" d="M1095.21,1565.25c5.45,17.02,20.72,57.26,57.73,86.37,11.93,9.38,36.7,28.86,71.7,28.79,46.8-.1,77.95-35.08,87.53-45.85,23.1-25.95,33-54.74,37.25-70.38"/>
  </g>
  <g id="_Слой_21" data-name="Слой 21">
    <polyline class="cls-37" points="772.57 1600.01 900 1598.89 906.95 1623.88 763.92 1625.95"/>
    <polygon class="cls-29" points="920.01 1639.14 832.62 1642.69 750.87 1639.26 752.55 1622.8 916.25 1623.18 920.01 1639.14"/>
    <path class="cls-37" d="M718.33,1667.24c16.9,6.83,36.78,13.1,59.38,17.13,74.79,13.33,137.56-5.31,171.87-18.84v26.04h-231.25"/>
    <path class="cls-37" d="M750.12,1634.71c19.16,3.61,40.97,6.47,65.04,7.54,41.22,1.82,77.17-2.14,105.88-7.54v17.91l-134.79,19.79-36.13-11.62"/>
    <polygon class="cls-29" points="925.74 1639.38 889.12 1648.25 833.95 1651.1 781.77 1646.23 748.49 1643.12 718.33 1667.24 751.05 1683.55 806.56 1689.81 886.56 1685.26 949.58 1665.52 925.74 1639.38"/>
    <ellipse class="cls-12" cx="836.45" cy="1595.65" rx="65.78" ry="15.1"/>
    <path class="cls-29" d="M874.36,1594.76v-34.93h-80.81v32.94c6.61,3.78,19.91,10.2,37.92,11.11,19.56.98,34.44-5.07,41.36-8.43"/>
    <path class="cls-12" d="M874.36,1564.41v-15.47h-80.81v14.59c6.61,1.67,19.91,4.52,37.92,4.92,19.56.44,34.44-2.25,41.36-3.73"/>
    <polyline class="cls-37" points="814.33 1524.03 860.28 1522.9 862.78 1555.24 812.25 1556.58"/>
    <ellipse class="cls-22" cx="836.45" cy="1515.92" rx="35.48" ry="10.95"/>
    <polygon class="cls-37" points="832.28 517.06 855.53 579.91 918.37 603.16 855.53 626.42 832.28 689.26 809.02 626.42 746.18 603.16 809.02 579.91 832.28 517.06"/>
    <polygon class="cls-8" points="851.89 735.19 819.22 735.19 802.89 778.49 819.22 821.79 851.89 821.79 868.22 778.49 851.89 735.19"/>
    <polygon class="cls-6" points="836.24 735.19 811.42 801.1 860.17 799.84 836.24 735.19"/>
    <polygon class="cls-32" points="869.3 781.46 860.17 799.84 836.24 735.19 852.27 736.28 869.3 781.46"/>
    <polygon class="cls-14" points="802.89 778.49 811.42 801.1 836.24 735.19 819.22 735.19 802.89 778.49"/>
    <path class="cls-36" d="M774.04,781.47c1.79-4.03-32.65-36.46-69.16-33.5-20.45,1.66-40.93,20.58-81.04,58.35-31.7,29.85-41.32,43.64-64.83,50.79-26.55,8.06-49.61-3.03-50.79,1.08-1.2,4.2,20.52,21.18,45.38,20.53,19.65-.51,29.1-11.73,89.69-62.67,34.4-28.92,45.6-37.29,62.67-38.9,20.58-1.94,44.3,1.08,44.3,1.08,16.38,2.09,23.05,4.86,23.77,3.24Z"/>
    <path class="cls-36" d="M892.38,774.56c-1.66-4.03,30.41-36.46,64.41-33.5,19.05,1.66,38.12,20.58,75.48,58.35,29.53,29.85,38.49,43.64,60.38,50.79,24.72,8.06,46.21-3.03,47.3,1.08,1.12,4.2-19.11,21.18-42.27,20.53-18.3-.51-27.1-11.73-83.53-62.67-32.04-28.92-42.47-37.29-58.37-38.9-19.17-1.94-41.26,1.08-41.26,1.08-15.25,2.09-21.47,4.86-22.14,3.24Z"/>
    <circle class="cls-15" cx="1235.45" cy="926.79" r="7.62"/>
  </g>
  <g id="_Слой_22" data-name="Слой 22">
    <circle class="cls-15" cx="445.22" cy="918.85" r="7.62"/>
  </g>
  <g id="_Слой_26" data-name="Слой 26">
    <path class="cls-38" d="M1626.59,4874l-9.07-972.17.87-173.31,1.32-101.09,4.04-350.88-62.29,118.83-65.56,59.41-50.19-80.93-5.12-35.85-13.32-115.76,55.32-62.49,34.83-94.24,18.44-147.51,58.39-55.32,29.51-32.78v-59.41l-25.41,27.66,13.32-45.07-18.44-35.85,30.54-72.73v-151.61l-66.53,176.16-11.58-26.16h-11.21l18.69,39.24-9.34,53.25,13.45,16.89v17.95l-14.48,55.6-61.97,25.48-34.17,27.8-15.06-48.65-26.06-21.43-5.79-39.96-35.91-20.27-19.69-28.38-10.42-60.81,23.17-18.53,6.95-27.8,28.96-7.53v-7.53l-30.69,9.85,9.85-35.91-9.85.58-8.11,56.18-32.43,24.33-7.53-43.44-5.79-.58,6.95,34.17,9.27,83.98,29.54,30.12,35.91,37.65,6.95,45.75,26.06,33.01,21.69,48.73,4.74,144.95-76.74,78.63-26.79,66.65c-49.92-89.06-75.92-117.4-90.38-123.25-1.82-.74-8.83-3.29-14.61-10.04-9.72-11.36-9.76-27.37-8.22-39.26l36.75-45.79,11.31-68.41,18.66-13,11.87-.57v-9.04h-14.13l-15.26,6.78-13-4.52,4.52,17.53-16.4,58.8-34.49,41.27-19.22-70.67-3.96-55.97-12.44-57.1-15.83-71.8v-26.01l-8.48-66.14,19.79-59.36,3.12-20.34,2.88-25.93,38.42-46.1,31.05-38.9,22.92-35.37-1.59-2.66-26.05-.83-37.37,41.75-29.29,24.49,4.8-7.2,6.72-58.11-14.08-.09h-56.6l28.89,27.89-33.6,70.17-32.65-74.91-14.41-50.42-18.73-65.08h-21.61c-.44,26.46,3.3,47.03,6.72,60.75,5.9,23.68,13.12,36.12,36.5,90.76,7.13,16.67,12.79,30.29,16.33,38.9l11.52,45.14-1.92,111.89h-7.68l-35.54-81.64-27.85-16.33c-3.42-57.96-15.86-73.29-22.09-78.27-1.52-1.21-11.28-8.7-22.09-16.81-6.38-4.78-11.6-8.63-14.89-11.04l-12.97-44.66-26.41-31.21v-29.77h-26.41v7.68l11.53,21.61c5.73,4.48,13.63,11.52,21.13,21.61,15.13,20.35,25.81,49.32,18.73,54.74-2.19,1.68-7.01,1.8-18.73-5.76l-6.24,6.72c6.64,1.39,53.89,12,70.11,51.86,3.69,9.05,5.09,17.94,5.28,25.93l-6.72-6.72-8.16,8.16,38.9,56.18,37.94,64.83,22.72,50.79-4.25,18.42-14.88-11.33h-41.79l-38.96,17.71,5.67,19.83,8.5-11.33c3.81-2.81,9.5-6.44,17-9.21,6.2-2.29,22.18-8.2,34-2.83,13.55,6.15,21.08,26.88,17,50.29l31.88,28.33-14.17,66.59-59.5-58.09-43.21-34-26.37-64.18-16.9,7.8-19.5-4.55-9.1-17.55-23.4-18.85-40.31-53.96-73.46-11.05-40.31-11.7-33.81-29.26-16.25-48.11-21.45-41.61-9.75,15.6c2.79,5.28,7.05,13.6,11.7,24.05,16.06,36.05,15.41,49.07,27.3,66.96,12.2,18.35,28.13,27.6,37.71,33.16,33.85,19.64,67.45,18.28,81.26,16.9l53.31,57.86h-19.5l-13.65-11.05-29.26-9.75-44.21-3.9-27.3-26.66,22.1,39.66h56.56l26,14.3-11.05,16.25,61.11-4.55,21.94,27.85,65.15,73.99,54.11,39.75,56.32,55.21-4.85,96.83c-59.91-20.2-110.61-35.25-148.1-45.81-114.75-32.29-149.77-34.78-174.06-35.12-9.84-.14-53.32-.41-109.24,10.97-40.28,8.2-73.75,19.75-99.17,30.22l-212.99,3.15-142.24-47.41-33.27-2.5-179.74,68.31v54.58l31.29,3.63c55.48-18.01,92.93-33.27,117.72-44.4,6.52-2.93,11.74-5.38,19.62-6.2,33.06-3.43,47.05,28.7,95,50.6,32.55,14.86,49.62,10.79,51.55,19.55,2.28,10.31-18.4,29.55-115.51,68.55l-75.71,6.79-29.12-12.62-21.35-4.85-20.38-23.3-53.1-.72v8.16l42.42-.64,27.18,28.15,60.18,18.44,63.09-.97-35.92,40.77-56.3,24.27-33,29.12-30.09-10.68,6.8,20.38.97,11.65,39.8-18.44,18.44-15.53,40.77-14.56-25.24,41.74-19.41,40.77-22.33,35.92-38.83,66.01-38.54.88v23.84l39.51,14.11-12.62,28.15-26.89,8.35v2.91l4.56,9.13,28.15-5.82,45.22-83.82c-.45-4.05-.98-11.22,0-19.99,3.99-35.7,26.87-42.3,49.2-89.93,3.74-7.99,8.35-19,19.22-30.75,7.68-8.3,15.45-13.68,20.75-16.91l8.46-23.06,31.52-46.89,87.63-46.89,43.05-28.44,18.65-18.74c20.85,3.46,51.86,7.01,89.25,5.05,12.45-.65,35.76-5.15,82.52-12.63,9.28-1.48,13.72-2.21,15.32-2.47,63.6-10.13,153.62,2.39,160.67,3.31,72.16,9.37,125.02,27.73,141.46,33.68,42.41,15.34,70.95,30.78,113.67,53.89,80.13,43.34,60.24,44.4,120.74,77.52,11.51,6.3,28.73,15.29,39.91,34.62,9.52,16.45,4.32,22.5,14.22,43.38,11.13,23.48,21.85,24.58,34.14,47.65,7.92,14.86,9.96,26.59,13.51,44.81,0,0,5.93,30.41,25.6,116.64,9.79,42.92,15.14,59.6,18.49,93.88,1.43,14.62,1.93,26.73,2.13,34.85-28.9-3.14-71.32-11.56-116.64-35.56-23.63-12.51-42.73-26.45-57.61-39.12l-56.9-31.29-27.74-59.03,7.11-32.72h-12.8l-15.01,17.21-48.83-9.05-123.29-11.14-99.82-75.16-5.97,4.37,41.76,39.37,37.38,30.62-1.59,9.94-22.27.8v5.17h23.46l14.32-9.94,10.82,8.36h56.32l39.52,18.8,38.76,3.69,25.47,2.58,25.47,37.65,19.93,38.39c10.03,5.16,24.56,12.73,42.08,22.15,16.58,8.91,24.87,13.37,26.94,14.76,26.12,17.56,40.12,38.47,53.89,39.13,1.49.07,6.73.09,11.81,3.32,3.15,2.01,5.13,4.54,6.27,6.27l-67.55,43.92c-9.14,47.87-30.27,76.57-42.45,90.43-17.4,19.81-37.63,33.37-57.21,46.51-19.5,13.08-36.92,22.44-49.83,28.79l-25.47-11.44-1.11,6.64,21.78,9.23-63.49,42.08-31.01,5.54-1.85,10.33,36.17-10.7v8.12l4.06.37,3.32-14.03,55.37-37.28,63.49-30.27,40.97-35.06-2.58,29.9,10.7-1.48,7.06-36.19,27.14-35.82,28.22-56.44,66.21-34.74,99.51,35.61c-9.88,104.63,8.13,174.21,27.62,219.41,8,18.55,17.23,35.28,23.02,64.44,11.5,57.99-1.51,110.32-12.28,151.9-12.23,47.25-16.35,39.24-23.02,70.58-16.56,77.83,12.62,109.25,9.21,202.54-2.08,56.86-12.92,45.14-13.81,95.13-1.62,91.58,34.94,120.26,41.43,207.14,4.28,57.31-10.99,53.46-15.61,107.14h360.3Z"/>
  </g>
</svg>