<svg width="294" height="241" viewBox="0 0 294 241" fill="none" xmlns="http://www.w3.org/2000/svg">
<path d="M123.007 65.2299C150.222 73.8879 175.743 83.9415 198.05 100.6C238.383 87.2269 240.728 92.7108 242.78 96.3254C246.339 102.669 231.231 109.946 215.718 144.214C210.22 156.374 207.997 160.288 202.482 171.121C200.232 175.554 193.678 194.564 174.757 198.89C158.073 202.728 137.913 190.711 110.81 178.546C79.8466 164.667 70.8977 155.531 63.4451 138.027C62.9164 127.649 65.9855 127.728 75.1749 106.401C81.1576 92.5165 81.3485 88.9774 86.425 70.478C88.9054 61.491 90.9652 47.3138 98.6707 32.9403C99.5194 31.3859 101.755 31.3175 102.728 32.8297L122.999 65.1411L123.007 65.2299Z" fill="#1D1D1B"/>
<path d="M174.131 149.746C182.151 153.315 191.224 150.429 194.396 143.301C197.569 136.172 193.639 127.5 185.62 123.931C177.6 120.362 168.527 123.247 165.354 130.376C162.182 137.505 166.111 146.177 174.131 149.746Z" fill="white"/>
<path d="M172.761 144.186C177.66 146.366 183.202 144.603 185.14 140.249C187.077 135.895 184.677 130.598 179.779 128.418C174.88 126.238 169.338 128 167.401 132.355C165.463 136.709 167.863 142.006 172.761 144.186Z" fill="#1D1D1B" stroke="#1D1D1B" stroke-miterlimit="10"/>
<path d="M108.161 124.252C116.181 127.821 125.254 124.936 128.426 117.807C131.599 110.678 127.669 102.006 119.65 98.4372C111.63 94.8682 102.557 97.7538 99.3847 104.882C96.2123 112.011 100.142 120.683 108.161 124.252Z" fill="white"/>
<path d="M110.892 121.376C116.335 123.799 122.515 121.791 124.695 116.893C126.875 111.994 124.23 106.059 118.787 103.637C113.344 101.215 107.164 103.222 104.984 108.121C102.804 113.019 105.449 118.954 110.892 121.376Z" fill="#1D1D1B" stroke="#1D1D1B" stroke-miterlimit="10"/>
<path d="M137.552 145.068L148.492 142.205L132.357 135.024L137.552 145.068Z" stroke="white" stroke-miterlimit="10"/>
<path d="M153.022 149.409C176.595 157.123 204.28 170.305 230.62 193.582C236.333 198.614 241.57 203.786 246.367 208.953" stroke="white" stroke-miterlimit="10"/>
<path d="M153.868 156.192C175.286 167.348 200.064 184.188 222.697 210.019" stroke="white" stroke-miterlimit="10"/>
<path d="M209.297 105.247C211.081 106.725 213.639 109.264 215.58 113.418C216.843 116.066 217.515 118.613 217.896 120.672" stroke="white" stroke-miterlimit="10"/>
<path d="M214.012 103.347C220.264 100.682 226.242 100.314 227.995 102.197C229.856 104.223 227.628 109.618 221.253 114.436" stroke="white" stroke-miterlimit="10"/>
<path d="M110.044 61.0763C108.128 61.0659 105.128 61.3316 101.583 62.9836C99.3185 64.0257 97.4434 65.3255 96.0551 66.4487" stroke="white" stroke-miterlimit="10"/>
<path d="M108.048 56.8806C105.606 49.5038 101.699 44.5463 99.1676 45.0736C96.4576 45.6395 94.1708 52.595 95.1708 62.1945" stroke="white" stroke-miterlimit="10"/>
<path d="M123.025 138.62C99.4763 127.803 69.2057 117.449 33.4596 113.542C25.7141 112.693 18.2751 112.214 11.1581 112.008" stroke="white" stroke-miterlimit="10"/>
<path d="M116.932 143.619C92.4475 136.023 61.4637 129.693 26.2084 130.305" stroke="white" stroke-miterlimit="10"/>
</svg>
