<svg width="363" height="958" viewBox="0 0 363 958" fill="none" xmlns="http://www.w3.org/2000/svg">
<path d="M290.45 -105C342.783 -64.3333 413.35 22.6 276.95 45C106.45 73 156.95 136.5 46.9502 171C-41.0498 198.6 -49.0498 182.5 -42.0498 171" stroke="#6B6B6B" stroke-width="13"/>
<path d="M123.783 -14C167.783 122 175.283 191.5 89.7832 267.5C4.2832 343.5 -59.7168 419.5 -15.7168 543C19.4832 641.8 101.283 772.833 137.783 826" stroke="#898888" stroke-width="13"/>
<path d="M118 836.5L148.5 815.5L221 864L133 926.5L118 836.5Z" fill="#959595"/>
<path d="M135 825.5L148.5 815.5M148.5 815.5L118 836.5L133 926.5L221 864L148.5 815.5Z" stroke="#959595" stroke-width="14"/>
<path d="M206 882L227 916" stroke="#D1D1D1" stroke-width="13"/>
<path d="M152 920.432L173.695 953.993" stroke="#D1D1D1" stroke-width="13"/>
<path d="M214.5 850.5L121.5 913.5" stroke="#8F8F8F" stroke-width="13"/>
</svg>
