<svg width="58" height="49" viewBox="0 0 58 49" fill="none" xmlns="http://www.w3.org/2000/svg">
<path d="M58 15C58 23.2843 45.0163 30 29 30C12.9837 30 0 23.2843 0 15C0 6.71573 12.9837 0 29 0C45.0163 0 58 6.71573 58 15Z" fill="#F4C7C7"/>
<path d="M6.264 42.84C6.264 42 6.36 41.28 6.552 40.728C7.104 39.216 7.992 38.448 9.168 38.448C9.672 38.448 10.2 38.544 10.752 38.736C11.88 39.144 12.456 39.672 12.456 40.368C12.456 41.16 12.048 41.568 11.256 41.568C11.04 41.568 10.872 41.52 10.704 41.448C9.96 41.088 9.528 40.896 9.408 40.896H9.192C8.88 41.064 8.712 41.424 8.712 41.976V44.136C8.712 45.144 9.504 45.648 11.088 45.648C11.568 45.648 11.856 45.6 11.952 45.528C12.48 45.12 12.84 44.904 13.032 44.904C13.848 44.904 14.256 45.312 14.256 46.152C14.256 47.424 13.2 48.048 11.088 48.048C7.872 48.048 6.264 46.32 6.264 42.84Z" fill="white"/>
<path d="M14.0608 43.608C14.0608 40.296 15.6208 38.64 18.7168 38.64C21.5488 38.64 22.9648 39.864 22.9648 42.288C22.9648 43.296 22.6768 44.304 22.1248 45.312C21.3088 46.752 20.2768 47.472 19.0048 47.472C18.1648 47.472 17.2528 47.184 16.2448 46.632C14.7808 45.816 14.0608 44.808 14.0608 43.608ZM16.5328 43.416C16.5328 44.448 17.3248 44.952 18.9328 44.952C19.3648 44.952 19.7968 44.52 20.2048 43.632C20.4688 43.032 20.6128 42.528 20.6128 42.144C20.6128 41.52 20.1088 41.208 19.0768 41.208C17.3728 41.208 16.5328 41.952 16.5328 43.416Z" fill="white"/>
<path d="M25.3609 48.216C24.4489 48.216 23.9929 47.784 23.9929 46.896V38.136C23.9929 37.464 24.4009 37.128 25.2169 37.128C26.0569 37.128 26.4649 37.488 26.4649 38.208V44.736L26.5129 45.408H26.5849C28.1209 45.144 29.3209 45.024 30.2089 45.024C31.2409 45.024 31.7449 45.432 31.7449 46.272C31.7449 46.92 31.4089 47.328 30.7129 47.496C29.1529 47.52 27.8569 47.664 26.8249 47.928C26.0329 48.12 25.5529 48.216 25.3609 48.216Z" fill="white"/>
<path d="M32.1077 43.608C32.1077 40.296 33.6677 38.64 36.7637 38.64C39.5957 38.64 41.0117 39.864 41.0117 42.288C41.0117 43.296 40.7237 44.304 40.1717 45.312C39.3557 46.752 38.3237 47.472 37.0517 47.472C36.2117 47.472 35.2997 47.184 34.2917 46.632C32.8277 45.816 32.1077 44.808 32.1077 43.608ZM34.5797 43.416C34.5797 44.448 35.3717 44.952 36.9797 44.952C37.4117 44.952 37.8437 44.52 38.2517 43.632C38.5157 43.032 38.6597 42.528 38.6597 42.144C38.6597 41.52 38.1557 41.208 37.1237 41.208C35.4197 41.208 34.5797 41.952 34.5797 43.416Z" fill="white"/>
<path d="M41.9917 39.528V38.448C41.9917 37.512 42.7598 37.056 44.2718 37.056C45.0878 37.056 45.8797 37.224 46.6717 37.536C48.2317 38.184 48.9997 39.192 48.9997 40.512C48.9997 41.904 48.3997 42.96 47.1997 43.656L47.3198 43.776L50.8717 46.368C51.1358 46.56 51.2798 46.872 51.2798 47.28C51.2798 48.072 50.8717 48.456 50.0798 48.456C49.8157 48.456 49.5998 48.408 49.4318 48.288L44.9437 45.168V47.136C44.9437 47.736 44.5358 48.048 43.7438 48.048C43.1438 48.048 42.7598 47.76 42.5918 47.208C42.5918 45.168 42.3997 42.6 41.9917 39.528ZM44.4398 39.456V39.696L44.7518 42.096H44.7998C45.9998 42.096 46.5998 41.64 46.5998 40.704C46.5998 40.008 45.8798 39.576 44.4398 39.456Z" fill="white"/>
</svg>
