<svg width="143" height="143" viewBox="0 0 143 143" fill="none" xmlns="http://www.w3.org/2000/svg">
<path d="M0.989368 50.0472C-1.27685 44.4106 1.45539 38.004 7.09201 35.7378L92.9355 1.22418C98.5721 -1.04204 104.979 1.69021 107.245 7.32683L141.758 93.1703C144.025 98.8069 141.292 105.213 135.656 107.48L49.8124 141.993C44.1757 144.259 37.7692 141.527 35.503 135.891L0.989368 50.0472Z" fill="#84A59D"/>
<path d="M64.9803 69.0754C68.0738 67.7641 69.6255 64.2912 69.496 58.8198C69.4884 57.5719 68.9937 55.1749 68.012 51.6288C67.988 51.3262 67.964 51.0235 67.9025 50.6325C67.697 48.4257 68.6991 46.854 70.9088 45.9174C73.9139 44.6436 75.941 45.2441 77.1159 47.7699L89.0596 74.7176C90.0337 77.0157 91.5381 79.089 93.4844 80.9749C94.7026 82.1269 95.3799 82.9868 95.6421 83.6055C96.9159 86.6107 96.0502 88.7502 93.045 90.024C90.4818 91.1104 88.0022 90.1804 85.6572 87.1079C84.4285 85.4391 82.999 83.5426 81.4571 81.3809C80.3408 79.9772 78.7404 76.6934 76.4416 71.516C72.4929 75.4837 69.8114 77.7672 68.3972 78.3666C61.2378 81.4013 55.9655 79.0483 52.706 71.3586L48.3226 61.0172C47.2361 58.454 48.2142 56.5796 51.2194 55.3058C53.871 54.1819 55.8981 54.7824 57.3382 57.1958C59.9847 63.6856 61.9598 67.8532 63.3653 69.4471C63.8821 69.4366 64.4499 69.3002 64.9803 69.0754Z" fill="#FBF6ED"/>
</svg>
