<svg width="166" height="166" viewBox="0 0 166 166" fill="none" xmlns="http://www.w3.org/2000/svg">
<rect x="80.488" y="2.14264" width="114.522" height="114.522" rx="11" transform="rotate(43.4548 80.488 2.14264)" fill="#F4C7C7"/>
<path d="M59.5901 113.102C56.089 109.731 53.3995 105.517 51.459 100.526C47.9791 91.5531 48.4251 84.8612 52.7946 80.3229C58.2254 74.6823 63.5677 74.4537 68.949 79.6348C71.283 81.882 71.3888 84.1078 69.2041 86.377C67.1441 88.5165 64.5293 88.2478 61.3573 85.4436C60.8459 85.326 60.0271 85.7871 58.8411 87.0189C57.7799 88.1211 57.8233 90.4117 58.9738 94.018C59.9273 97.3098 60.7918 99.2666 61.4402 99.8908L61.6347 100.078C62.3765 98.9183 63.745 97.2374 65.7425 95.1627C68.0521 92.7639 70.4338 90.8092 72.8875 89.2987C77.7351 86.4699 82.2659 87.0842 86.6098 91.2664C89.7867 94.3251 91.0212 99.0119 90.251 105.392C89.5864 110.624 88.0068 114.6 85.5099 117.193C82.9506 119.851 77.8676 120.33 70.2609 118.628C66.0421 117.69 62.5076 115.911 59.5901 113.102ZM79.2065 110.375C79.8932 109.662 80.4333 107.933 80.8244 105.061C81.3283 101.423 81.0928 99.0728 80.1203 98.1364C79.2775 97.325 78.5067 96.9577 77.8104 97.1618C75.4839 98.6699 73.7288 100.103 72.4804 101.4C71.2944 102.632 70.4229 103.667 69.9907 104.375C68.6295 106.438 68.207 107.655 68.7905 108.217L69.1147 108.529C69.3092 108.716 70.4617 109.077 72.5075 109.547C76.5366 110.553 78.7696 110.829 79.2065 110.375Z" fill="#84A59D"/>
<path d="M89.612 73.4852C91.7968 71.216 91.8565 67.6504 89.7312 62.9805C89.2653 61.9073 87.9565 60.0226 85.8049 57.3264C85.6729 57.0742 85.5408 56.8222 85.3439 56.5076C84.3545 54.6805 84.64 52.9565 86.2006 51.3357C88.323 49.1313 90.2918 48.903 92.2344 50.6484L112.451 69.4879C114.136 71.1109 116.197 72.3448 118.569 73.2546C120.043 73.7996 120.944 74.2917 121.397 74.7287C123.602 76.851 123.643 79.0144 121.52 81.2187C119.71 83.0989 117.23 83.2096 114.077 81.4235C112.404 80.4368 110.473 79.3276 108.348 78.0312C106.869 77.2318 104.28 74.9894 100.393 71.3714C98.4482 76.2457 96.9766 79.2015 95.9778 80.2389C90.9216 85.4904 85.5096 85.4021 79.869 79.9713L72.2834 72.6679C70.4032 70.8577 70.5567 68.8816 72.6791 66.6772C74.5518 64.7322 76.5206 64.5039 78.6505 66.0548C83.321 70.6765 86.5578 73.5431 88.3563 74.4001C88.7981 74.2008 89.2375 73.8742 89.612 73.4852Z" fill="#84A59D"/>
</svg>
