<svg width="139" height="138" viewBox="0 0 139 138" fill="none" xmlns="http://www.w3.org/2000/svg">
<path d="M28.2655 7.86575C30.0453 2.05715 36.1968 -1.20891 42.0054 0.570808L130.468 27.6752C136.277 29.4549 139.543 35.6065 137.763 41.4151L110.659 129.878C108.879 135.686 102.727 138.952 96.9187 137.173L8.45607 110.068C2.64748 108.289 -0.618587 102.137 1.16113 96.3284L28.2655 7.86575Z" fill="#F6BE61"/>
<path d="M40.1203 57.1088C40.4195 56.1651 41.8527 54.92 44.4745 53.202C45.5458 52.503 46.5313 51.7769 47.5168 51.0507C48.0231 50.6448 49.7012 48.6275 52.4923 44.8861C53.777 43.2162 55.4488 42.7076 57.5936 43.3876C60.2532 44.2307 61.2807 46.3503 60.649 49.8322L54.658 79.7505L54.6434 80.69L56.3592 81.2339C58.2738 81.7465 59.7595 82.123 60.7032 82.4222L61.7327 82.7485C64.7355 83.7004 65.8174 85.6484 64.8927 88.5654C64.1312 90.9676 62.3819 92.0181 59.645 91.7169C55.6169 90.7233 51.6161 89.6438 47.6697 88.3927C43.7818 87.2547 39.9483 85.945 36.1421 84.5496C33.3381 83.5663 32.342 81.6455 33.2395 78.8143C34.1914 75.8116 35.769 74.7067 38.0854 75.441L45.4636 77.7799L48.5574 61.7662C46.3562 63.0511 44.54 63.4194 43.1673 62.9843C40.1645 62.0324 39.1684 60.1116 40.1203 57.1088Z" fill="#F28482"/>
<path d="M66.9195 72.0246C68.3882 67.3918 70.9721 63.1126 74.5855 59.1597C81.0843 52.0617 87.2799 49.4939 93.2854 51.3977C100.749 53.7638 103.323 58.4507 101.066 65.5715C100.087 68.66 98.1389 69.7419 95.1361 68.7901C92.305 67.8926 91.3863 65.4298 92.4929 61.3432C92.3715 60.8326 91.5952 60.3033 89.9652 59.7865C88.5067 59.3242 86.4729 60.3789 83.7507 63.0093C81.2232 65.3237 79.8527 66.9663 79.5808 67.8243L79.4992 68.0816C80.8676 68.2322 82.981 68.7134 85.7264 69.5837C88.9007 70.5899 91.7089 71.8578 94.1509 73.3872C98.8361 76.4775 100.295 80.8109 98.4726 86.559C97.1399 90.7628 93.4867 93.9478 87.4271 96.0866C82.4429 97.8111 78.1785 98.1587 74.7468 97.0708C71.2293 95.9557 68.5465 91.612 66.6985 84.0395C65.6687 79.8421 65.6957 75.8852 66.9195 72.0246ZM78.0629 88.3974C79.0066 88.6966 80.7956 88.414 83.5429 87.491C87.0268 86.3295 89.0292 85.076 89.4372 83.7891C89.7907 82.6738 89.7781 81.8201 89.2864 81.2866C86.903 79.8701 84.8398 78.9328 83.1239 78.3889C81.4939 77.8721 80.1798 77.55 79.3532 77.4768C76.9009 77.1714 75.6224 77.3326 75.3776 78.1048L75.2416 78.5337C75.16 78.7911 75.3484 79.9838 75.834 82.026C76.7194 86.0832 77.4623 88.207 78.0629 88.3974Z" fill="#F28482"/>
</svg>
