<svg width="149" height="154" viewBox="0 0 149 154" fill="none" xmlns="http://www.w3.org/2000/svg">
<rect x="-2.01782" y="108.983" width="114.522" height="114.522" rx="11" transform="rotate(-68.2401 -2.01782 108.983)" fill="#A3A54F"/>
<path d="M31.1181 54.5059C31.5231 53.6025 33.0891 52.5291 35.8898 51.1215C37.0338 50.5494 38.0958 49.9405 39.1577 49.3315C39.7071 48.986 41.6044 47.1735 44.8042 43.775C46.2711 42.2626 47.9901 41.9482 50.0433 42.8685C52.5892 44.0096 53.3681 46.2326 52.3432 49.6197L42.9768 78.6587L42.855 79.5904L44.4976 80.3267C46.3412 81.0544 47.7742 81.598 48.6776 82.0029L49.6632 82.4447C52.5376 83.733 53.3902 85.7918 52.1386 88.5841C51.1079 90.8837 49.2502 91.7277 46.5655 91.1162C42.6772 89.6693 38.8257 88.1403 35.0478 86.447C31.3152 84.8726 27.6563 83.134 24.0342 81.3133C21.3608 80.0164 20.5904 77.9945 21.8051 75.2843C23.0935 72.4098 24.7869 71.4921 27.0044 72.486L34.0674 75.6517L38.9686 60.0957C36.6351 61.121 34.7887 61.2797 33.4747 60.6907C30.6002 59.4023 29.8298 57.3804 31.1181 54.5059Z" fill="#F8C4BB"/>
<path d="M63.9375 60.0436C66.9192 53.3912 71.6314 51.4596 77.9552 54.294C88.6319 59.0793 91.872 66.1533 87.7124 75.4338C84.9884 81.5112 79.5883 87.1782 71.6308 92.3894L71.5204 92.6358L72.1774 92.9303C76.55 94.397 78.8779 95.1445 79.0422 95.2181C81.7524 96.4328 82.5596 98.3726 81.3448 101.083C80.2405 103.547 78.1364 104.28 75.1147 103.32C69.8472 101.65 65.7579 100.211 62.7191 98.8495C61.2408 98.1869 59.7625 97.5243 58.321 96.7796C56.2791 95.174 55.7551 93.2625 56.6754 91.2093C57.1539 90.1417 57.842 89.2665 58.8218 88.6208C69.4073 84.5876 76.2971 78.8978 79.4996 71.7527C79.6837 71.3421 79.9045 70.8493 80.0433 70.3197C80.5925 67.114 78.7912 64.5313 74.4385 62.5804L73.7814 62.2859L73.5067 62.4587C70.8647 65.7127 68.4577 66.9022 66.4045 65.982C63.53 64.6936 62.7228 62.7538 63.9375 60.0436Z" fill="#F8C4BB"/>
<path d="M94.0184 77.9643C97.9939 69.0945 103.924 66.4264 111.89 69.9971C120.267 73.7517 123.094 78.6678 120.37 84.7453C118.677 88.5231 114.454 91.562 107.785 93.8987C107.831 94.0177 107.913 94.0545 107.958 94.1734C109.493 97.1299 110.391 99.3076 110.688 100.624C111.221 102.737 110.958 105.085 109.89 107.466L109.08 109.273C105.631 113.448 100.95 114.21 95.0369 111.559C87.4811 108.173 85.6542 102.127 89.5561 93.4212C90.3659 91.6143 91.7875 89.9831 93.7018 88.5727L93.8858 88.162C92.8576 83.8547 92.8772 80.5102 94.0184 77.9643ZM102.452 81.1525C101.421 83.4521 101.563 84.8964 102.959 85.5222L103.123 85.5958C105.848 85.2388 108.776 83.9869 111.953 81.9591L112.027 81.7949C112.432 80.8914 111.959 80.1863 110.563 79.5605L106.21 77.6096C104.978 77.0574 103.74 78.2781 102.452 81.1525ZM97.044 98.0594C95.8292 100.77 96.4722 102.636 98.936 103.74C99.1824 103.851 100.151 103.89 101.714 103.703L101.751 103.621C103.113 100.582 102.006 98.2121 98.474 96.6292L98.2276 96.5188C97.9812 96.4084 97.5593 96.9096 97.044 98.0594Z" fill="#F8C4BB"/>
</svg>
