<svg width="688" height="1011" viewBox="0 0 688 1011" fill="none" xmlns="http://www.w3.org/2000/svg">
<path d="M341.5 3.17822C334.824 34.6011 312.998 79.6407 298.028 132.784C269.416 234.55 243.084 328.268 186.729 422.04C186.729 422.04 153.513 480.751 76.6323 559.75C68.8779 567.688 54.7788 581.415 34.0035 587.314C19.9045 591.283 7.75446 590.236 0 588.857V3.17822H329.959H341.5Z" fill="#FDCF72"/>
<path d="M3.34245 469.62C34.4136 445.639 68.989 442.974 100.06 418.993C134.48 392.458 188.601 314.575 215 273.33C184.357 375.86 93.6746 483.11 16.7755 503.427C13.9721 504.149 11.0518 504.815 8.28736 503.649C3.88756 501.762 1.04521 495.322 0.266484 488.827C-0.473305 482.332 0.461165 475.726 1.43457 469.343" fill="#F4B06C"/>
<path d="M1.14391 50.9754C8.04785 101.194 40.6428 167.1 65.9572 205.674C75.4553 220.133 86.6272 234.315 100.812 238.399C119.641 243.807 139.139 229.349 150.855 209.206C162.529 189.008 168.01 163.899 173.24 139.452C180.981 103.195 188.722 66.8837 196.504 30.6271C198.555 21.0249 201.107 10.5397 207.551 5.29712C197.843 80.1833 181.943 153.745 160.269 224.106C154.453 242.924 148.177 261.742 139.055 278.132C129.934 294.522 117.716 308.539 103.071 314.885C133.155 317.314 161.692 293.474 180.27 262.184C198.847 230.839 209.182 192.595 219.225 155.125C230.857 111.749 242.489 68.3737 254.121 24.9982C255.753 18.8727 257.635 12.3056 261.778 8.7186C265.878 5.13157 272.824 6.84229 273.87 13.1886C274.289 15.8375 273.619 18.5967 272.95 21.1904C254.497 91.8273 236.003 162.63 212.613 230.673C204.998 252.802 196.588 275.152 183.115 291.708C173.198 303.904 161.022 312.402 148.972 320.459C133.909 330.558 117.548 340.546 100.853 337.346C79.3466 333.207 63.9069 308.815 50.643 286.079C38.5507 265.44 26.5002 244.8 14.4078 224.161C9.26127 215.387 4.1147 206.502 1.14391 196.293C-1.42997 178.08 1.1439 159.213 1.14381 136.87C-0.111452 118.236 1.18575 102.839 1.14391 82.2551" fill="#F8B766"/>
<path d="M177 27.5691C167.51 69.8493 151.892 110.368 130.936 147.143C127.032 154.024 122.979 160.741 118.876 167.457C116.85 170.815 114.774 174.229 112.155 177.091C108.102 181.495 102.962 184.468 97.6238 186.67C86.0089 191.46 73.2573 192.891 61 190.854C82.5492 184.358 99.3536 165.64 113.044 145.987C135.631 113.616 152.98 76.7308 163.902 37.6437C164.743 34.6158 165.583 31.4778 167.263 28.8353C168.944 26.1928 171.613 24.2109 174.479 24.3761" fill="#F0C478"/>
<path d="M301.5 3.17798C297.251 76.4402 285.468 155.786 258.294 222.589C244.56 256.321 232.208 290.937 214.521 322.296C200.193 347.637 182.506 370.438 164.966 393.129C137.348 428.794 109.681 464.514 79 496.866C104.493 483.892 122.873 477.212 143.178 455.625C166.498 430.781 192.634 400.913 210.025 370.604C271.634 263.222 298.5 130.838 344 3.17835C334.5 3.17824 334.023 3.17818 323.5 3.17818" fill="#F6AD63"/>
<path d="M12.2291 389.323C33.0792 397.773 56.3502 396.328 77.5955 389.323C98.8408 382.262 118.406 369.919 137.181 356.632C155.956 343.4 174.237 329.167 194 317.825C158.426 365.749 108.327 399.775 54.0775 412.896C44.937 415.119 35.2531 416.732 26.3597 413.34C17.4664 410.005 9.85757 400.22 11.1422 389.823" fill="#F4B06C"/>
<path d="M111 514C117.5 555.417 120.734 585.4 124.471 617.931C130.784 672.423 144.218 708.934 168.914 793.898C186.742 855.322 195.883 889.088 207.297 913.589C237.044 977.62 247.498 986.885 253.356 1001.5C258.508 1014.41 237.801 1015.57 2 996.151V569.007L93.5147 534.896C93.7755 534.798 94.0517 534.749 94.33 534.749V534.749C95.0664 534.749 95.7595 534.401 96.2002 533.811L111 514Z" fill="#F5B167"/>
<path d="M86.1579 572C80.6879 629.566 89.5202 687.199 93.2338 745.03C97.1983 806.769 118.878 857.115 132.628 911.568C138.299 934.024 146.629 965.689 153.655 987.285C158.523 1002.19 159.526 1008.55 170.667 1010.21C182.611 1011.99 191.793 1010.21 205.101 1010.21C265.429 1014.1 193.501 992.12 185.371 977.878C177.241 963.569 172.875 945.418 168.66 927.797C152.35 858.97 127.158 794.249 110.798 725.421C103.17 693.359 98.1016 657.985 91.0257 625.194C87.4125 608.501 92.1799 587.766 84 575.113" fill="#F5D580"/>
<path d="M191.409 871C189.286 884.983 195.921 918.039 200.069 930.957C204.217 943.808 210.247 954.995 216.324 965.915C219.266 971.176 222.402 976.636 226.646 979.167C232.241 982.563 234.164 980.639 240 978.242C224.392 945.323 210.808 926.974 198.957 892.875" fill="#F5D27E"/>
<path d="M349 1.05933C355.717 32.6524 366.105 77.9358 381.165 131.367C409.952 233.684 436.443 327.909 493.139 422.19C493.139 422.19 526.556 481.219 603.903 560.645C611.705 568.626 625.889 582.427 646.79 588.358C660.975 592.349 673.199 591.296 681 589.91V1.05933H349.042H349Z" fill="#FDCF72"/>
<path d="M677.168 442.364C647.899 423.831 619.549 426.809 590.28 408.276C557.862 387.776 500.535 320.013 472 283.761C514.725 379.54 606.695 470.238 672.276 477.754C674.663 478.01 677.135 478.192 679.159 476.599C682.376 474.032 679.977 468.371 682 461.376C681.455 454.875 682.907 448.479 681 442.364" fill="#F4B06C"/>
<path d="M466.826 44.369C471.739 93.1481 494.932 157.165 512.945 194.634C519.704 208.678 527.653 222.454 537.746 226.42C551.144 231.674 565.019 217.63 573.355 198.064C581.662 178.446 585.562 154.056 589.284 130.31C594.792 95.0923 600.3 59.8213 605.838 24.6039C607.297 15.277 609.113 5.09232 613.698 0C606.791 72.7397 595.477 144.193 580.054 212.537C575.916 230.816 571.45 249.095 564.959 265.015C558.469 280.935 549.775 294.55 539.354 300.715C560.761 303.073 581.067 279.917 594.286 249.524C607.505 219.077 614.859 181.93 622.005 145.533C630.282 103.401 638.559 61.2686 646.836 19.1364C647.997 13.1864 649.337 6.80763 652.285 3.32341C655.202 -0.160803 660.145 1.50089 660.889 7.66527C661.187 10.2382 660.71 12.9184 660.234 15.4378C647.104 84.05 633.944 152.823 617.301 218.916C611.882 240.411 605.898 262.12 596.311 278.201C589.254 290.048 580.59 298.303 572.015 306.129C561.297 315.938 549.656 325.64 537.776 322.531C522.473 318.511 511.486 294.818 502.048 272.734C493.443 252.686 484.869 232.638 476.264 212.591C472.602 204.068 425.133 44.6829 423.019 34.7663C421.187 17.0758 487.509 211.894 487.509 190.192C486.615 172.092 466.856 94.7462 466.826 74.7521" fill="#F8B766"/>
<path d="M503 23.0883C506.927 62.1574 513.389 99.5985 522.061 133.58C523.677 139.939 525.354 146.146 527.051 152.352C527.89 155.455 528.749 158.609 529.833 161.254C531.51 165.324 533.637 168.071 535.845 170.106C540.651 174.532 545.928 175.854 551 173.972C542.083 167.969 535.13 150.673 529.464 132.512C520.118 102.6 512.939 68.5162 508.42 32.3977C508.072 29.5998 507.724 26.7002 507.029 24.2584C506.334 21.8165 505.229 19.9852 504.043 20.1378" fill="#F0C478"/>
<path d="M680 325.492C673.334 333.233 672.036 345.189 664.122 349.248C656.208 353.308 647.594 354.535 639.528 351.372C632.65 348.635 626.41 342.829 620.84 336.033C608.513 320.977 602.253 309.962 593 290.28C596.652 329.077 606.9 356.47 626.653 380.966C629.606 384.6 632.863 388.14 636.606 388.706C639.468 389.178 642.298 387.904 645.007 386.441C650.851 383.373 656.543 379.55 661.809 374.547C673.01 363.88 673.579 345.785 678.906 327.189" fill="#F0C776"/>
<path d="M378.877 0C383.175 73.8924 395.168 152.852 422.653 220.229C436.545 254.252 449.038 289.166 466.928 320.794C481.419 346.353 499.309 369.351 517.049 392.237C544.983 428.208 548.968 498.137 580 530.768C554.215 517.682 555.038 504.337 534.5 482.564C510.913 457.507 482.09 402.426 464.5 371.855C402.185 263.55 365.585 130.189 339 4.95585C347.645 -0.890944 346.096 1.11368 356.74 1.11368" fill="#F6AD63"/>
<path d="M559.043 494.34C565.685 552.36 562.795 595.999 559.043 627.719C552.705 680.854 539.218 716.456 514.423 799.304C496.525 859.199 487.347 892.124 475.888 916.014C446.024 978.452 435.528 987.486 429.646 1001.74C424.474 1014.32 445.263 1015.46 682 996.52V588.068H679.737C657.336 588.068 636.015 578.436 621.208 561.627L558.992 491L559.043 494.34Z" fill="#F5B167"/>
<path d="M603.588 678C600.656 721.914 592.527 764.894 586.251 808.342C579.563 854.721 567.473 891.171 557.852 931.287C553.891 947.813 548.18 971.135 543.807 986.928C540.772 997.79 539.897 1002.52 535.73 1002.99C531.305 1003.45 528.579 990.327 524 993.192C528.116 997.057 529.093 987.595 533.209 977.399C537.325 967.204 540.463 953.81 543.498 940.816C555.228 890.038 569.839 842.993 581.569 792.149C587.023 768.426 591.91 742.105 597.209 717.849C599.936 705.521 599.987 689.462 604 680.532" fill="#E0AB6D"/>
<path d="M598.812 573C604.358 630.435 595.404 687.936 591.639 745.636C587.62 807.235 565.641 857.465 551.701 911.794C545.952 934.2 537.507 965.792 530.384 987.339C525.449 1002.21 524.432 1008.55 513.137 1010.21C501.029 1011.99 491.721 1010.21 478.228 1010.21C417.068 1014.1 489.989 992.163 498.231 977.953C506.473 963.677 510.899 945.568 515.172 927.987C531.707 859.316 557.247 794.743 573.832 726.072C581.565 694.083 586.704 658.789 593.877 626.073C597.54 609.417 592.707 588.73 601 576.106" fill="#F5D580"/>
<path d="M563.667 498C581.145 531.641 577.279 579.453 574.482 615.583C570 673.736 562.145 731.443 551 788C561.98 757.04 571.727 725.378 580.116 693.014C586.82 667.289 592.701 640.925 594.592 613.86C596.484 586.794 611.984 641.117 608.489 613.86C606.926 601.731 608.489 577.375 566.422 500.873" fill="#F5B167"/>
<path d="M571 992.59C582.073 945.477 594.022 898.764 606.846 852.517C617.661 813.401 622.863 774.618 624.717 732.903C627.653 666.732 617.661 601.96 610.296 536.456C609.54 529.725 602.686 515.889 606.909 514.157C611.029 512.491 612.356 524.528 614.313 529.725C636.305 587.5 640.528 649.606 648.768 713.778C652.837 745.564 650.674 788.479 647.584 820.398C644.648 850.385 638.159 875.308 630.073 903.429C623.429 926.552 617.364 948.929 605.095 972.598C602.107 994.589 589.129 993.656 571 992.523" fill="#FCD172"/>
<path d="M84 980.589C74.4495 933.378 64.1439 886.567 53.0831 840.224C43.7548 801.026 39.2683 762.162 37.6691 720.36C35.1372 654.051 43.7548 589.144 50.107 523.503C50.7596 516.758 56.6709 502.893 53.0284 501.157C49.4747 499.488 48.3301 511.549 46.6421 516.758C27.6745 574.653 24.032 636.889 16.9247 701.195C13.4154 733.048 15.2811 776.052 17.9463 808.038C20.4783 838.087 26.0753 863.062 33.0494 891.242C38.7797 914.413 44.0114 936.837 54.5934 960.556C57.1698 982.592 68.3639 981.657 84 980.522" fill="#FCD172"/>
</svg>
