<svg width="1800" height="1570" viewBox="0 0 1800 1570" fill="none" xmlns="http://www.w3.org/2000/svg">
<path d="M1583.71 852.276C1595.38 929.763 1590.3 992.504 1583.71 1034.87C1572.56 1105.83 1548.85 1153.38 1505.26 1264.02C1473.79 1344.01 1457.65 1387.99 1437.5 1419.89C1385 1503.28 1366.54 1515.35 1356.2 1534.38C1347.11 1551.19 1383.66 1552.7 1799.89 1527.41V852.276L1582.01 835.473L1583.62 852.276H1583.71Z" fill="#F5B167"/>
<path d="M1116.78 1.78735C1130.59 53.714 1151.99 128.163 1182.92 216.108C1242.21 384.4 1296.67 539.287 1413.37 694.262C1413.37 694.262 1482.19 791.323 1641.32 921.989C1657.36 935.127 1686.52 957.828 1729.57 967.57C1758.81 974.184 1783.95 972.396 1800 970.072V1.78735H1116.78Z" fill="#FDCF72"/>
<path d="M1653.25 1028.17C1678.93 1183.59 1665.64 1346.7 1603.6 1491.84C1597.8 1505.52 1593.43 1522.59 1594.86 1537.33C1588.35 1546.81 1564.19 1542.78 1555.9 1534.74C1547.61 1526.7 1545.92 1513.83 1548.5 1502.74C1551.09 1491.66 1557.24 1481.65 1562.77 1471.55C1597 1410.24 1613.49 1341.24 1629.72 1273.14C1646.65 1201.64 1663.77 1128.53 1655.39 1055.6" fill="#D3875F"/>
<path d="M1644.25 978.562C1653.96 1056.23 1638.27 1133.99 1631.68 1212.01C1624.63 1295.31 1586.12 1363.23 1561.7 1436.7C1551.62 1466.99 1536.82 1509.72 1524.34 1538.85C1515.7 1558.96 1513.91 1567.54 1494.12 1569.78C1472.91 1572.19 1452.58 1550.29 1432.17 1557.08C1454.1 1562.36 1453.56 1545.38 1468 1526.16C1482.45 1506.86 1490.2 1482.37 1497.69 1458.59C1526.66 1365.73 1571.41 1278.41 1600.48 1185.55C1614.03 1142.3 1623.03 1094.57 1635.6 1050.33C1642.02 1027.81 1633.55 999.834 1648.08 982.763" fill="#F5D580"/>
<path d="M1586.07 875.404C1623.98 921.606 1615.95 991.366 1609.88 1040.99C1600.16 1120.85 1583.12 1200.11 1558.95 1277.78C1582.77 1235.26 1603.91 1191.78 1622.1 1147.33C1636.64 1112 1649.4 1075.79 1653.5 1038.62C1657.61 1001.45 1646.19 965.503 1638.61 928.068C1635.22 911.411 1608.67 894.346 1593.6 881.035" fill="#C0716F"/>
<path d="M1777.71 782.922C1725.29 752.802 1666.9 749.406 1614.48 719.287C1556.36 685.95 1465.07 588.085 1420.5 536.248C1472.21 665.126 1625.27 799.813 1754.98 825.375C1759.71 826.268 1764.7 827.162 1769.24 825.643C1776.64 823.23 1781.46 815.186 1782.79 807.053C1784.04 798.92 1782.44 790.608 1780.83 782.564" fill="#F4B06C"/>
<path d="M1613.95 764.779C1669.93 797.401 1720.84 817.51 1781.28 824.66C1753.91 835.474 1722.8 830.559 1696.14 818.046C1669.49 805.534 1635.61 788.642 1612.79 769.248" fill="#D28260"/>
<path d="M1756.94 110.199C1742.77 193.138 1702.2 269.107 1650.23 332.831C1630.71 356.694 1607.8 380.11 1578.65 386.813C1540.05 395.661 1499.93 371.888 1475.95 338.551C1451.97 305.214 1440.74 263.744 1430.04 223.436C1414.17 163.555 1398.21 103.585 1382.34 43.7041C1378.15 27.7954 1372.89 10.4567 1359.7 1.87671C1379.58 125.571 1412.21 247.031 1456.78 363.218C1468.73 394.321 1481.65 425.334 1500.29 452.414C1519.01 479.495 1544.06 502.643 1574.1 513.1C1512.32 517.121 1453.75 477.797 1415.69 426.049C1377.62 374.301 1356.31 311.202 1335.72 249.266C1311.83 177.587 1287.94 105.998 1264.14 34.3197C1260.75 24.2204 1256.91 13.4061 1248.45 7.50733C1239.98 1.6086 1225.8 4.3792 1223.66 14.836C1222.77 19.2154 1224.2 23.7735 1225.53 28.0635C1263.42 144.697 1301.4 261.599 1349.36 374.033C1364.96 410.587 1382.26 447.499 1409.89 474.847C1430.22 495.046 1455.18 508.988 1479.96 522.395C1510.81 539.018 1544.41 555.642 1578.74 550.279C1622.86 543.487 1654.51 503.09 1681.79 465.642C1706.57 431.59 1731.36 397.449 1756.14 363.397C1766.57 349.008 1777.18 334.44 1783.33 317.459C1794.83 285.731 1789.3 250.07 1780.83 217.27C1772.36 184.469 1760.95 151.847 1761.04 117.885" fill="#F8B766"/>
<path d="M1784.31 392.712C1756.41 447.678 1728.33 503.09 1711.57 562.881C1706.13 582.454 1701.85 603.368 1706.66 623.209C1711.48 642.961 1727.97 660.925 1747.14 660.121C1764.25 659.406 1778.43 644.302 1784.4 627.321C1790.37 610.339 1789.93 591.571 1789.39 573.428C1787.34 508.72 1785.38 444.013 1783.33 379.306" fill="#F6C36C"/>
<path d="M1178.47 0C1185.86 120.924 1206.46 250.16 1253.71 360.448C1277.6 416.128 1298.99 473.328 1329.84 524.987C1354.8 566.814 1385.47 604.441 1415.95 641.889C1463.91 700.697 1512.05 763.528 1565.36 816.974C1521.06 795.524 1489.14 780.687 1453.84 745.027C1413.37 704.093 1367.9 654.669 1337.68 604.709C1230.62 427.39 1155.73 212.98 1110 8.04372C1124.89 -1.51937 1122.21 1.78749 1140.49 1.78749" fill="#F6AD63"/>
<path d="M1594.77 1541.18C1613.94 1477.99 1634.62 1415.34 1656.82 1353.31C1675.54 1300.85 1684.54 1248.83 1687.75 1192.88C1692.83 1104.13 1675.54 1017.26 1662.79 929.407C1661.63 921.363 1650.58 907.51 1657.89 905.186C1665.02 902.952 1666.36 913.408 1669.74 920.38C1707.81 997.868 1715.12 1081.16 1729.38 1167.23C1736.43 1209.86 1732.68 1267.42 1727.33 1310.23C1722.25 1350.45 1711.02 1383.88 1697.02 1421.59C1685.52 1452.61 1659.49 1481.65 1653.79 1514.36C1648.62 1543.86 1626.15 1542.61 1594.77 1541.09" fill="#FCD172"/>
<path d="M1769.69 862.286C1733.5 876.139 1693.02 873.816 1656.12 862.286C1619.21 850.757 1585.24 830.469 1552.62 808.751C1519.99 787.033 1488.16 763.706 1453.93 745.116C1515.8 823.677 1602.81 879.446 1697.03 900.896C1712.9 904.561 1729.75 907.152 1745.17 901.701C1760.6 896.249 1773.79 880.251 1771.65 863.091" fill="#F4B06C"/>
<path d="M1586.81 876.945C1588.91 888.932 1590.03 900.966 1590.69 913.159C1591.46 927.147 1591.61 941.107 1591.23 955.045C1590.9 969.612 1590.05 984.157 1588.74 998.682C1587.47 1012.58 1585.83 1026.56 1583.57 1040.33C1581.66 1052.32 1579.21 1064.29 1576.06 1076.06C1575.74 1077.38 1575.33 1078.62 1575.01 1079.95C1574.18 1082.68 1578.5 1084.12 1579.24 1081.29C1582.65 1069.63 1585.1 1057.65 1587.2 1045.67C1589.53 1031.99 1591.34 1018.2 1592.71 1004.31C1594.1 989.696 1595.05 975.066 1595.56 960.418C1596.06 945.769 1595.99 932.08 1595.4 918.011C1594.85 905.375 1593.84 892.719 1591.85 880.201C1591.64 878.761 1591.43 877.41 1591.13 876.055C1590.62 873.261 1586.29 874.24 1586.8 877.035L1586.81 876.945Z" fill="#F5D580"/>
<path d="M216.243 852.071C204.567 929.54 209.647 992.266 216.243 1034.62C227.383 1105.57 251.091 1153.1 294.673 1263.72C326.135 1343.69 342.267 1387.65 362.409 1419.55C414.904 1502.92 433.353 1514.98 443.692 1534.01C452.783 1550.81 416.241 1552.33 0.112816 1527.04V852.071L217.936 835.272L216.332 852.071H216.243Z" fill="#F5B167"/>
<path d="M683.06 1.78687C669.245 53.7011 647.855 128.132 616.928 216.056C557.66 384.308 503.204 539.157 386.538 694.095C386.538 694.095 317.733 791.133 158.644 921.767C142.601 934.902 113.457 957.598 70.4092 967.337C41.176 973.949 16.0426 972.162 -8.11731e-05 969.839V1.78687H683.06Z" fill="#FDCF72"/>
<path d="M146.713 1027.92C121.045 1183.3 134.325 1346.37 196.357 1491.48C202.15 1505.15 206.517 1522.22 205.091 1536.96C211.597 1546.44 235.75 1542.41 244.039 1534.37C252.328 1526.33 254.021 1513.46 251.436 1502.38C248.852 1491.3 242.702 1481.3 237.176 1471.2C202.952 1409.9 186.464 1340.92 170.243 1272.84C153.309 1201.35 136.197 1128.26 144.575 1055.35" fill="#D3875F"/>
<path d="M155.715 978.328C146 1055.98 161.686 1133.71 168.282 1211.72C175.323 1295 213.825 1362.9 238.245 1436.35C248.317 1466.64 263.112 1509.35 275.589 1538.48C284.234 1558.59 286.017 1567.17 305.803 1569.4C327.015 1571.81 347.335 1549.92 367.745 1556.71C345.82 1561.98 346.355 1545.01 331.917 1525.8C317.478 1506.49 309.724 1482.01 302.238 1458.24C273.272 1365.41 228.531 1278.11 199.476 1185.27C185.929 1142.02 176.927 1094.31 164.36 1050.08C157.943 1027.56 166.41 999.594 151.883 982.528" fill="#F5D580"/>
<path d="M213.879 875.194C175.979 921.384 184.007 991.128 190.071 1040.74C199.791 1120.58 216.824 1199.82 240.991 1277.48C217.181 1234.97 196.046 1191.49 177.854 1147.05C163.318 1111.73 150.566 1075.53 146.464 1038.37C142.361 1001.21 153.776 965.271 161.356 927.845C164.745 911.192 191.287 894.131 206.348 880.824" fill="#C0716F"/>
<path d="M22.2817 782.733C74.6877 752.621 133.065 749.226 185.471 719.114C243.581 685.785 334.846 587.943 379.409 536.119C327.716 664.966 174.687 799.621 45.0088 825.176C40.2851 826.07 35.2941 826.963 30.7487 825.444C23.3512 823.032 18.5385 814.99 17.2016 806.859C15.9539 798.728 17.5581 790.418 19.1623 782.376" fill="#F4B06C"/>
<path d="M186.006 764.595C130.035 797.209 79.1446 817.314 18.7174 824.462C46.079 835.274 77.1839 830.359 103.832 817.85C130.481 805.34 164.349 788.453 187.165 769.063" fill="#D28260"/>
<path d="M43.0485 110.172C57.2194 193.092 97.7716 269.042 149.732 332.751C169.25 356.608 192.156 380.019 221.3 386.72C259.891 395.566 299.998 371.798 323.973 338.47C347.948 305.141 359.177 263.681 369.872 223.383C385.737 163.516 401.69 103.56 417.555 43.6935C421.744 27.7887 427.002 10.4541 440.193 1.87622C420.318 125.541 387.698 246.972 343.135 363.131C331.192 394.226 318.269 425.232 299.641 452.306C280.925 479.38 255.881 502.522 225.845 512.976C287.609 516.997 346.165 477.682 384.222 425.946C422.279 374.211 443.58 311.128 464.168 249.206C488.053 177.545 511.939 105.973 535.736 34.3114C539.122 24.2145 542.955 13.4028 551.422 7.50549C559.889 1.60818 574.06 4.37811 576.199 14.8324C577.09 19.2107 575.664 23.7678 574.327 28.0567C536.449 144.663 498.481 261.537 450.531 373.943C434.934 410.488 417.644 447.391 390.015 474.733C369.694 494.927 344.739 508.866 319.962 522.269C289.125 538.889 255.524 555.508 221.211 550.147C177.094 543.356 145.454 502.969 118.181 465.53C93.4045 431.486 68.6276 397.353 43.8506 363.31C33.4229 348.924 22.8169 334.359 16.6673 317.382C5.17004 285.662 10.6958 250.01 19.1627 217.217C27.6297 184.425 39.0378 151.811 38.9487 117.857" fill="#F8B766"/>
<path d="M15.687 392.618C43.5833 447.57 71.6579 502.969 88.4136 562.746C93.8502 582.314 98.1283 603.223 93.3155 623.059C88.5027 642.806 72.0144 660.766 52.8524 659.962C35.7402 659.247 21.5692 644.147 15.5978 627.17C9.62634 610.193 10.072 591.428 10.6067 573.29C12.6566 508.598 14.6175 443.906 16.6673 379.215" fill="#F6C36C"/>
<path d="M621.385 0C613.988 120.895 593.4 250.1 546.163 360.361C522.278 416.028 500.887 473.214 470.05 524.861C445.095 566.678 414.435 604.295 383.954 641.734C336.005 700.529 287.877 763.344 234.58 816.777C278.875 795.333 310.782 780.5 346.076 744.848C386.539 703.924 431.993 654.512 462.207 604.564C569.247 427.287 644.112 212.929 689.834 8.04179C674.95 -1.519 677.624 1.78706 659.353 1.78706" fill="#F6AD63"/>
<path d="M205.179 1540.81C186.017 1477.63 165.34 1415 143.148 1352.99C124.431 1300.54 115.43 1248.53 112.221 1192.6C107.141 1103.87 124.431 1017.02 137.176 929.184C138.335 921.142 149.386 907.292 142.078 904.969C134.948 902.735 133.611 913.19 130.224 920.159C92.1677 997.628 84.8594 1080.91 70.5993 1166.95C63.5584 1209.57 67.3016 1267.12 72.6491 1309.92C77.7293 1350.13 88.9592 1383.54 102.952 1421.25C114.449 1452.26 140.474 1481.3 146.178 1514C151.347 1543.49 173.807 1542.24 205.179 1540.72" fill="#FCD172"/>
<path d="M30.3043 862.079C66.4894 875.929 106.952 873.606 143.851 862.079C180.749 850.553 214.706 830.27 247.326 808.557C279.946 786.844 311.764 763.523 345.988 744.938C284.135 823.479 197.148 879.235 102.942 900.68C87.0774 904.344 70.2327 906.935 54.8139 901.484C39.3952 896.034 26.2046 880.039 28.3436 862.884" fill="#F4B06C"/>
<path d="M213.142 876.735C211.041 888.718 209.923 900.749 209.257 912.94C208.486 926.924 208.338 940.881 208.725 954.816C209.048 969.379 209.905 983.92 211.207 998.442C212.484 1012.34 214.121 1026.31 216.374 1040.08C218.287 1052.07 220.735 1064.04 223.888 1075.8C224.209 1077.12 224.616 1078.36 224.937 1079.69C225.762 1082.42 221.449 1083.86 220.71 1081.03C217.294 1069.37 214.846 1057.4 212.755 1045.42C210.416 1031.74 208.609 1017.96 207.243 1004.07C205.848 989.458 204.898 974.832 204.393 960.187C203.889 945.542 203.958 931.856 204.548 917.791C205.106 905.157 206.11 892.505 208.1 879.99C208.309 878.55 208.522 877.199 208.824 875.845C209.335 873.051 213.656 874.03 213.145 876.824L213.142 876.735Z" fill="#F5D580"/>
</svg>
