<svg width="131" height="72" viewBox="0 0 131 72" fill="none" xmlns="http://www.w3.org/2000/svg">
<path d="M8.00121 38.8223C6.94644 37.7482 6.04905 36.7943 5.32151 36C6.04905 35.2057 6.94644 34.2518 8.00121 33.1777C11.2146 29.9057 15.8656 25.5424 21.6034 21.1857C33.1725 12.4014 48.6909 4 65.5 4C82.3091 4 97.8275 12.4014 109.397 21.1857C115.134 25.5424 119.785 29.9057 122.999 33.1777C124.054 34.2518 124.951 35.2057 125.678 36C124.951 36.7943 124.054 37.7482 122.999 38.8223C119.785 42.0943 115.134 46.4576 109.397 50.8143C97.8275 59.5986 82.3091 68 65.5 68C48.6909 68 33.1725 59.5986 21.6034 50.8143C15.8656 46.4576 11.2146 42.0943 8.00121 38.8223Z" fill="#F8C4BB" stroke="#F1A2A1" stroke-width="8"/>
</svg>
