<svg width="502" height="362" viewBox="0 0 502 362" fill="none" xmlns="http://www.w3.org/2000/svg">
<path d="M373.234 209.631L429.615 354.362C372.262 334.2 255.773 289.646 248.091 286.674C240.409 283.701 253.029 257.859 260.3 245.31C253.055 246.698 232.577 245.591 208.63 230.059C184.684 214.526 76.9011 48.0445 68.0481 2.52135C197.397 20.4223 323.673 156.271 329.521 167.872C335.37 179.474 342.125 200.689 347.622 224.354L368.619 208.335C370.206 207.125 372.51 207.772 373.234 209.631Z" fill="#DFDFDF"/>
<path d="M427.081 353.614L73.8587 1.49551" stroke="#B5B5B5"/>
<path d="M139.678 67.7409L139.723 20.9369" stroke="#B5B5B5"/>
<path d="M173.664 102.348L176.608 41.0408" stroke="#B5B5B5"/>
<path d="M204.658 135.021L218.483 66.4875" stroke="#B5B5B5"/>
<path d="M242.676 170.848L259.148 95.797" stroke="#B5B5B5"/>
<path d="M275.307 201.87L290.529 125.797" stroke="#B5B5B5"/>
<path d="M302.477 229.498L318.949 154.448" stroke="#B5B5B5"/>
<path d="M334.441 258.542L342.893 203.234" stroke="#B5B5B5"/>
<path d="M358.631 285.291L374.57 211.553" stroke="#B5B5B5"/>
<path d="M391.021 314.458L396.123 267.397" stroke="#B5B5B5"/>
<path d="M427.467 350.974L423.894 355.083L433.186 360.924L427.467 350.974Z" fill="black" stroke="black"/>
</svg>
