<svg width="193" height="600" viewBox="0 0 193 600" fill="none" xmlns="http://www.w3.org/2000/svg">
<rect x="120.808" y="10.2159" width="70.2098" height="515" transform="rotate(11.4016 120.808 10.2159)" fill="#A2A54E"/>
<path d="M39.8523 591.25L19.2348 513.815L88.2611 527.392L39.8523 591.25Z" fill="#E5DAC7"/>
<path d="M39.8958 591L36 576.216L49.5001 578.216L39.8958 591Z" fill="#898C44"/>
<path d="M120.5 10.2159L139.5 14.2153L38.1923 517.218L19.6922 513.218L120.5 10.2159Z" fill="#949746"/>
<path d="M171.081 19.9489L190.081 23.9489L88.5811 527.949L70.0812 523.949L171.081 19.9489Z" fill="#949746"/>
<path d="M19 513.716L37.5 517.216L40 576.716L36 576.716L19 513.716Z" fill="#E1D6C4"/>
<path d="M88.5 527.216L70 524.216L45 577.716L49 579.216L88.5 527.216Z" fill="#E1D6C4"/>
<ellipse cx="155.572" cy="16.0632" rx="35.5341" ry="9.5" transform="rotate(10.9264 155.572 16.0632)" fill="#E1D6C4"/>
<ellipse cx="155.521" cy="15.7659" rx="22.6926" ry="7.20056" transform="rotate(8.69943 155.521 15.7659)" fill="#949746"/>
</svg>
