<svg width="146" height="191" viewBox="0 0 146 191" fill="none" xmlns="http://www.w3.org/2000/svg">
<path d="M73.065 190.967L1.12865 13.2417L145.001 13.2418L73.065 190.967Z" fill="#A3A550"/>
<path d="M145.129 11.4321C145.129 17.7378 112.844 22.8496 73.0183 22.8496C33.1927 22.8496 0.907715 17.7378 0.907715 11.4321C0.907715 5.12638 33.1927 0.0145874 73.0183 0.0145874C112.844 0.0145874 145.129 5.12638 145.129 11.4321Z" fill="#8B8D46"/>
<path d="M91.2312 146.612C87.5597 145.08 83.4301 145.069 79.7508 146.582C76.0715 148.095 73.1438 151.008 71.612 154.679C70.0801 158.351 70.0695 162.481 71.5824 166.16C73.0954 169.839 76.0079 172.767 79.6794 174.299L91.2312 146.612Z" fill="#FAC2C2"/>
<path d="M132.424 44.4411C130.476 43.517 128.299 43 126 43C117.716 43 111 49.7157 111 58C111 64.6428 115.318 70.277 121.3 72.249L132.424 44.4411Z" fill="#FAC2C2"/>
<path d="M21.3075 63.034L10.3527 35.0994C12.0958 34.3905 14.0023 34 16 34C24.2843 34 31 40.7157 31 49C31 55.4156 26.9723 60.8906 21.3075 63.034Z" fill="#FAC2C2"/>
<path d="M76 109C76 117.284 69.2843 124 61 124C52.7158 124 46 117.284 46 109C46 100.716 52.7158 94 61 94C69.2843 94 76 100.716 76 109Z" fill="#FAC2C2"/>
<path d="M97 49C97 57.2843 90.2843 64 82 64C73.7158 64 67 57.2843 67 49C67 40.7157 73.7158 34 82 34C90.2843 34 97 40.7157 97 49Z" fill="#FAC2C2"/>
</svg>
