<svg width="261" height="341" viewBox="0 0 261 341" fill="none" xmlns="http://www.w3.org/2000/svg">
<path d="M250.856 152.914C238.833 147.105 221.657 154.892 209.504 173.719C201.521 186.079 199.17 203.68 188.689 205.515C184.684 206.218 182.508 203.556 181.376 199.724C180.184 193.258 180.445 183.265 182.656 169.288L206.509 52.1916C208.407 43.2441 203.959 34.582 193.251 31.758C182.543 28.934 174.49 34.6676 172.584 43.615L151.29 149.786C146.998 173.234 139.041 168.974 140.965 142.417L147.067 17.9233C147.564 8.30074 140.791 0.437287 130.779 0.0189167C120.768 -0.399453 113.551 6.16135 113.037 15.7744L107.222 143.273C105.977 169.012 97.541 159.313 95.7128 140.667L82.1843 37.5201C80.8001 27.793 72.4514 21.0705 62.4399 22.8201C52.4284 24.5791 46.378 33.6216 47.7622 43.3487L60.7771 137.615C65.9396 173.604 59.1927 183.569 48.0843 144.49L34.2076 87.2015C31.9441 78.0069 23.6476 72.3018 13.227 75.4967C2.80637 78.6915 -1.68574 87.8481 0.569021 97.0427L14.1324 150.889C19.7998 189.655 19.7998 204.954 19.7998 231.644C19.7998 258.334 31.0387 341 117.007 341C202.975 341 220.656 245.621 221.474 239.583C221.474 239.583 222.545 225.511 231.538 212.342C244.327 193.62 253.302 182.333 258.743 175.582C261.503 172.169 264.184 159.351 250.856 152.914Z" fill="#F8C4BB"/>
<path d="M54 235V235C85.9712 188.236 155.356 188.014 187 235V235" stroke="#F1A2A1" stroke-width="3"/>
<path d="M54 255V255C87.7151 298.276 153.601 298.52 187 255V255" stroke="#F1A2A1" stroke-width="3"/>
<path d="M60.5 135L94.6275 130L97.432 148.792L62.5 154L60.5 135Z" fill="#A3A54F"/>
<path d="M137.217 21.2466C133.194 25.0773 125.007 30.8582 124.439 23.3361C123.73 13.9334 113.792 10.7992 122.665 7.66497C131.538 4.53076 141.831 2.78952 138.281 10.4509C135.442 16.5801 130.473 17.8802 128.343 17.7641C126.569 16.0229 123.659 12.3315 126.214 11.4957C128.769 10.6599 130.828 11.1474 131.538 11.4957" stroke="#ECA99D"/>
<path d="M69.0848 33.6823C72.9934 37.6291 78.9334 45.7012 71.4239 46.4162C62.0369 47.3099 59.0978 57.3072 55.7905 48.4971C52.4833 39.6871 50.5409 29.4304 58.2703 32.829C64.4539 35.5479 65.851 40.4905 65.7766 42.6218C64.0704 44.4302 60.4367 47.4122 59.551 44.8736C58.6654 42.335 59.1126 40.2673 59.4469 39.5508" stroke="#ECA99D"/>
<path d="M11.4776 84.0235C16.4479 81.5435 25.9718 78.4228 24.3048 85.7799C22.2211 94.9761 30.7996 100.892 21.3973 101.281C11.995 101.67 1.64494 100.311 7.2883 94.0299C11.803 89.0054 16.9346 89.2224 18.9361 89.959C20.1208 92.1447 21.8183 96.5282 19.1301 96.5764C16.4419 96.6246 14.6174 95.5538 14.0412 95.0124" stroke="#ECA99D"/>
<path d="M183.478 42.0235C188.448 39.5435 197.972 36.4228 196.305 43.7799C194.221 52.9761 202.8 58.8916 193.397 59.2808C183.995 59.67 173.645 58.3106 179.288 52.0299C183.803 47.0054 188.935 47.2224 190.936 47.959C192.121 50.1447 193.818 54.5282 191.13 54.5764C188.442 54.6246 186.617 53.5538 186.041 53.0124" stroke="#ECA99D"/>
<path d="M251.845 160.263C255.292 164.619 260.299 173.3 252.757 173.177C243.329 173.024 239.298 182.633 236.989 173.511C234.68 164.388 233.888 153.979 241.193 158.214C247.036 161.603 247.876 166.67 247.566 168.78C245.669 170.388 241.727 172.948 241.129 170.327C240.53 167.706 241.204 165.7 241.616 165.025" stroke="#ECA99D"/>
<path d="M78.5 136L79.9593 140.491H84.6819L80.8613 143.267L82.3206 147.759L78.5 144.983L74.6794 147.759L76.1387 143.267L72.3181 140.491H77.0407L78.5 136Z" fill="#F8C4BB"/>
</svg>
