<svg width="358" height="982" viewBox="0 0 358 982" fill="none" xmlns="http://www.w3.org/2000/svg">
<path d="M192.366 101.886L214.296 116.503C218.932 119.594 224.929 119.755 229.725 116.917C232.784 114.886 233.934 110.945 232.448 107.587L212.243 61.9369C210.188 57.2952 204.696 55.2795 200.127 57.49C199.269 57.9048 198.351 58.1805 197.407 58.3066L196.486 58.4297C188.456 59.5031 182.787 66.8435 183.779 74.8846L185.798 91.2418C186.333 95.577 188.731 99.4637 192.366 101.886Z" fill="#C4C4C4" stroke="#C5C5C5" stroke-width="13"/>
<path d="M107.015 44.4097C121.766 59.1603 118.268 86.5736 99.2025 105.639C80.1371 124.704 52.7238 128.202 37.9732 113.452C23.2226 98.701 20.543 65.1103 39.6084 46.0449C61.5929 20.7901 92.2645 29.6591 107.015 44.4097Z" fill="#CFCECE"/>
<ellipse cx="92.4796" cy="43.3195" rx="45.4797" ry="42.6533" transform="rotate(-45 92.4796 43.3195)" fill="#D9D9D9"/>
<ellipse cx="111.739" cy="23.697" rx="11.8196" ry="16.7016" transform="rotate(-45 111.739 23.697)" fill="#B5B5B5"/>
<path d="M73.9853 121.045L88.1199 114.542L100.149 105.057L169.736 172.1L165.92 187.544L156.291 197.173L73.9853 121.045Z" fill="#C0BCBC"/>
<path d="M204.395 104.586C218.976 119.166 246.073 115.709 264.918 96.8633C283.763 78.0179 287.221 50.9209 272.64 36.3405C258.06 21.7601 224.857 19.1114 206.011 37.9568C181.048 59.6876 189.815 90.0054 204.395 104.586Z" fill="#CFCECE"/>
<path d="M171.515 111.816C184.778 131.257 221.796 131.667 230.928 122.536C240.059 113.404 201.131 117.085 192.409 90.9219C186.777 74.0248 192.274 47.4513 183.143 56.5827C174.012 65.714 158.252 92.3753 171.515 111.816Z" fill="#D9D9D9"/>
<path d="M280.147 71.9368L273.718 85.9083L264.342 97.7982L330.612 166.582L345.878 162.811L355.396 153.292L280.147 71.9368Z" fill="#C0BCBC"/>
<path d="M161.17 183.009C177.271 204.006 224.913 256.226 286.674 297.13C348.434 338.035 428.176 391.266 460.326 412.768" stroke="#AEA9A9" stroke-width="13"/>
<path d="M339.705 157.21C347.18 167.585 346.582 145.887 376.52 203.088C406.458 260.289 426.481 350.21 432.75 388.02" stroke="#AEA9A9" stroke-width="13"/>
<path d="M365 559C404.834 566 442.373 656.011 259.641 716.5C95.0006 771 155.334 825 172.5 847.5" stroke="#AEA9A9" stroke-width="13"/>
<path d="M308.231 969.18C311.356 972.284 311.373 977.334 308.268 980.46V980.46C305.164 983.585 300.114 983.602 296.988 980.497L247.676 931.512L258.919 920.194L308.231 969.18Z" fill="#F6BD60"/>
<rect x="223.309" y="872.774" width="33.0445" height="55.8338" transform="rotate(134.81 223.309 872.774)" fill="#C3BBBB"/>
<path d="M267.351 911.706L239.244 940L205.291 906.272C197.478 898.51 197.436 885.885 205.198 878.072V878.072C212.959 870.259 225.585 870.217 233.398 877.978L267.351 911.706Z" fill="#D9D9D9"/>
<path d="M302.773 963.759L291.732 974.874" stroke="#F5D49F" stroke-width="2"/>
<path d="M293.68 954.725L282.638 965.84" stroke="#F5D49F" stroke-width="2"/>
<path d="M283.979 945.088L272.937 956.204" stroke="#F5D49F" stroke-width="2"/>
<path d="M274.278 935.452L263.236 946.567" stroke="#F5D49F" stroke-width="2"/>
<path d="M265.386 926.618L254.344 937.734" stroke="#F5D49F" stroke-width="2"/>
</svg>
