<svg width="58" height="49" viewBox="0 0 58 49" fill="none" xmlns="http://www.w3.org/2000/svg">
<path d="M58 15C58 23.2843 45.0163 30 29 30C12.9837 30 0 23.2843 0 15C0 6.71573 12.9837 0 29 0C45.0163 0 58 6.71573 58 15Z" fill="#F4C7C7"/>
<path d="M17.6139 39.624C17.6139 38.52 18.0219 37.968 18.8619 37.968C19.4379 37.968 19.8219 38.256 20.0139 38.808C19.9899 39.528 19.9899 40.08 20.0619 40.488L21.0219 46.56C21.0459 46.584 21.0459 46.656 21.0459 46.752C21.0459 47.544 20.6379 47.952 19.7979 47.952C19.1259 47.952 18.7179 47.496 18.5739 46.608C18.4539 45.936 18.3579 45.264 18.2619 44.568L18.2139 44.448H16.0539C15.3579 44.472 14.9499 44.496 14.8539 44.52L14.6379 44.568V46.56C14.6379 47.16 14.2299 47.472 13.4379 47.472C12.8379 47.472 12.4299 47.16 12.2619 46.56C12.2379 44.52 12.2139 43.464 12.2139 43.416C12.2139 43.344 12.2379 42.048 12.2619 39.528C12.3819 38.928 12.7659 38.64 13.4379 38.64C14.2299 38.64 14.6379 38.928 14.6379 39.528V42.048C15.5979 42.048 16.6539 42.024 17.7819 42V41.688C17.7099 40.848 17.6379 40.2 17.6139 39.768V39.624Z" fill="white"/>
<path d="M22.7051 38.688C23.7371 38.544 24.7451 38.376 25.7531 38.208C26.2331 38.088 26.5931 37.992 26.8331 37.968C26.8571 37.944 26.9051 37.944 27.0011 37.944C27.8171 37.944 28.2251 38.352 28.2251 39.192C28.2251 39.912 27.6731 40.392 26.5451 40.608L24.3131 40.968L24.1931 41.016V41.856C24.1931 41.928 24.2411 41.976 24.3611 41.976H24.5051C24.9611 41.904 25.2971 41.88 25.5131 41.856H25.7291C26.5451 41.856 26.9531 42.264 26.9531 43.104C26.9531 43.848 26.1611 44.304 24.5531 44.496C24.5291 44.52 24.5051 44.568 24.5051 44.664C24.5051 45.096 24.5291 45.312 24.5531 45.336L24.7451 45.408H27.7451C28.3451 45.408 28.6331 45.816 28.6331 46.608C28.6331 47.448 28.2011 47.856 27.3131 47.856H24.1931C22.8731 47.856 22.1771 47.328 22.1051 46.248L21.6251 40.608C21.6011 40.536 21.6011 40.392 21.6011 40.176C21.6011 39.288 21.9611 38.784 22.7051 38.688Z" fill="white"/>
<path d="M30.9831 48.216C30.0711 48.216 29.6151 47.784 29.6151 46.896V38.136C29.6151 37.464 30.0231 37.128 30.8391 37.128C31.6791 37.128 32.0871 37.488 32.0871 38.208V44.736L32.1351 45.408H32.2071C33.7431 45.144 34.9431 45.024 35.8311 45.024C36.8631 45.024 37.3671 45.432 37.3671 46.272C37.3671 46.92 37.0311 47.328 36.3351 47.496C34.7751 47.52 33.4791 47.664 32.4471 47.928C31.6551 48.12 31.1751 48.216 30.9831 48.216Z" fill="white"/>
<path d="M37.7779 39.072C37.7779 38.424 38.0899 38.04 38.6899 37.872H39.2659C40.1539 37.872 41.0179 37.992 41.8819 38.232C44.1139 38.88 45.2419 39.96 45.2419 41.52C45.2419 42.936 44.4499 44.016 42.8419 44.76C42.4339 44.952 41.7619 45.144 40.8019 45.312C40.7779 45.408 40.7779 45.504 40.7779 45.576C40.7779 45.744 40.7779 45.816 40.8019 45.84C40.8259 46.176 40.8259 46.416 40.8499 46.56V46.8C40.8499 47.616 40.4419 48.024 39.6499 48.024C38.9059 48.024 38.5219 47.664 38.4499 46.92L37.8019 39.312C37.7779 39.288 37.7779 39.192 37.7779 39.072ZM40.5619 42.84L40.6099 42.912C40.7299 43.032 41.1859 42.912 42.0019 42.6C42.5539 42.384 42.8419 42.024 42.8419 41.52C42.8419 41.112 42.4339 40.8 41.6419 40.56C41.2819 40.464 40.8739 40.392 40.3699 40.32V40.656C40.3699 42 40.4419 42.72 40.5619 42.84Z" fill="white"/>
</svg>
