<svg width="152" height="154" viewBox="0 0 152 154" fill="none" xmlns="http://www.w3.org/2000/svg">
<ellipse cx="76" cy="26" rx="25" ry="26" fill="#F5CAC3"/>
<circle cx="25.5" cy="77.5" r="25.5" fill="#F5CAC3"/>
<ellipse cx="76" cy="128.5" rx="25" ry="25.5" fill="#F5CAC3"/>
<circle cx="126.5" cy="77.5" r="25.5" fill="#F5CAC3"/>
<path d="M70.4261 17.2415L76.7415 23.5485L79.8722 17.1422C80.25 16.3973 81.0597 16 82.1932 16C84.0824 16 85 16.8442 85 18.4831C85 18.8307 84.892 19.228 84.7301 19.6253L78.1449 33.0339C78.0909 33.1332 77.821 34.1264 77.3352 36.0135C77.2812 36.1129 77.2273 36.2122 77.1733 36.3612C76.6875 37.4537 75.8239 38 74.5824 38C72.6932 38 71.7756 37.1558 71.7756 35.5169C71.7756 33.9774 72.5312 31.693 74.0966 28.6637V28.4153C72.4233 26.9752 69.8864 24.4921 66.5398 20.8668C66.1619 20.3702 66 19.8239 66 19.2777C66 17.5892 66.9176 16.7449 68.7528 16.7449C69.5625 16.7449 70.1023 16.8939 70.4261 17.2415Z" fill="#E47775"/>
<path d="M125.053 89C121.668 89 120 87.6004 120 84.8531V73.9676C120 73.5011 120.098 71.8423 120.343 68.8877C120.589 66.2959 121.913 65 124.317 65C129.958 65 132.755 67.6955 132.755 73.0346C132.755 74.7451 131.872 76.1447 130.155 77.1814C132.068 79.3067 133 81.3283 133 83.2981C133 85.6307 131.725 87.2376 129.174 88.2225C127.8 88.7408 126.426 89 125.053 89ZM125.004 73.1901V73.8121C126.819 73.3974 127.702 72.9309 127.702 72.3607C127.702 71.0648 126.917 70.4428 125.396 70.4428C125.151 70.4428 125.004 71.3758 125.004 73.1901ZM124.906 80.1361V83.8164H125.298C127.064 83.8164 127.947 83.5054 127.947 82.8834C127.947 81.0691 126.917 80.1361 124.906 80.1361Z" fill="#E47775"/>
<path d="M68 136.967C68 135.703 68.1522 134.44 68.5075 133.176L72.4657 118.921C72.8209 117.657 73.6328 117 74.9015 117C76.6269 117 77.6925 117.607 78.0478 118.769L79.3164 122.965L84.7463 136.209C84.8985 136.664 85 137.068 85 137.473C85 139.141 84.1373 140 82.4627 140C81.397 140 80.5851 139.393 80.0776 138.231C79.2149 136.158 78.7075 135.147 78.6567 135.097C75.7642 134.996 74.0896 134.945 73.6836 134.945C73.4299 134.945 73.2776 135.248 73.2269 135.855L72.9731 137.978C72.6179 139.09 71.806 139.646 70.5373 139.646C68.8627 139.646 68 138.736 68 136.967ZM74.8507 129.789H76.5254C76.1194 128.727 75.7642 127.969 75.5104 127.514C75.409 127.767 75.206 128.525 74.8507 129.789Z" fill="#E47775"/>
<path d="M13 67.7433C13 65.9317 13.9341 65 15.7473 65C16.5714 65 17.1758 65.207 17.6703 65.6729L24.0989 71.7288C24.4835 72.0911 24.7582 72.2981 24.8681 72.2981C24.9231 72.2981 24.9231 72.2981 24.9231 72.2464C25.9121 71.3665 27.5055 69.6066 29.7582 66.9669C30.4176 66.1905 31.2418 65.7764 32.1758 65.7764C34.044 65.7764 34.978 66.6563 34.978 68.4679C34.978 69.4513 33.989 71.0041 31.956 73.1781C30.9121 74.2133 30.0879 74.9896 29.5934 75.5072C29.4286 75.7143 29.3187 75.8696 29.3187 75.9731V76.0248C31.022 77.6294 33 79.9068 35.2527 82.7536C37.0659 85.0828 38 86.6356 38 87.3602C38 89.1201 37.011 90 35.0879 90C34.0989 90 33.1648 89.3789 32.2308 88.1884C31.2967 86.8944 30.6374 85.911 30.1429 85.3416C28.1648 82.8054 26.6813 81.0973 25.6374 80.2692L20.1429 88.1884C19.6484 88.8613 18.8791 89.2236 17.8352 89.2236C15.967 89.2236 15.033 88.3437 15.033 86.6356C15.033 86.0663 15.1978 85.4969 15.5824 84.9275L21.2418 76.8012V76.646C18.989 74.5756 16.7363 72.4534 14.4835 70.3313C13.4945 69.3478 13 68.5197 13 67.7433Z" fill="#E47775"/>
</svg>
