<svg width="397" height="420" viewBox="0 0 397 420" fill="none" xmlns="http://www.w3.org/2000/svg">
<path d="M-180.296 252.625L122.932 0.177377L396.126 328.09L92.8986 580.537L-180.296 252.625Z" fill="#FAC2C2"/>
<path d="M-166.177 249.285C-163.891 252.029 -164.317 256.151 -167.129 258.492C-169.94 260.833 -174.073 260.506 -176.359 257.762C-178.645 255.018 -178.219 250.896 -175.407 248.555C-172.596 246.214 -168.463 246.541 -166.177 249.285Z" fill="#F28482"/>
<path d="M-139.685 281.083C-137.399 283.826 -137.825 287.949 -140.637 290.289C-143.449 292.63 -147.581 292.304 -149.867 289.56C-152.154 286.816 -151.727 282.694 -148.916 280.353C-146.104 278.012 -141.971 278.339 -139.685 281.083Z" fill="#F28482"/>
<path d="M-113.194 312.88C-110.908 315.624 -111.334 319.746 -114.145 322.087C-116.957 324.428 -121.09 324.101 -123.376 321.357C-125.662 318.613 -125.236 314.491 -122.424 312.15C-119.612 309.809 -115.48 310.136 -113.194 312.88Z" fill="#F28482"/>
<path d="M-86.7021 344.678C-84.416 347.422 -84.8421 351.544 -87.6539 353.885C-90.4656 356.225 -94.5982 355.899 -96.8843 353.155C-99.1704 350.411 -98.7442 346.289 -95.9325 343.948C-93.1207 341.607 -88.9881 341.934 -86.7021 344.678Z" fill="#F28482"/>
<path d="M-60.2106 376.475C-57.9246 379.219 -58.3507 383.341 -61.1625 385.682C-63.9742 388.023 -68.1068 387.696 -70.3929 384.952C-72.6789 382.208 -72.2528 378.086 -69.4411 375.745C-66.6293 373.404 -62.4967 373.731 -60.2106 376.475Z" fill="#F28482"/>
<path d="M-33.7189 408.273C-31.4328 411.017 -31.8589 415.139 -34.6707 417.48C-37.4824 419.821 -41.615 419.494 -43.9011 416.75C-46.1872 414.006 -45.761 409.884 -42.9493 407.543C-40.1375 405.202 -36.0049 405.529 -33.7189 408.273Z" fill="#F28482"/>
<path d="M-7.22745 440.07C-4.94137 442.814 -5.3675 446.936 -8.17924 449.277C-10.991 451.618 -15.1236 451.291 -17.4097 448.547C-19.6958 445.803 -19.2696 441.681 -16.4579 439.34C-13.6461 437 -9.51352 437.326 -7.22745 440.07Z" fill="#F28482"/>
<path d="M19.2642 471.868C21.5502 474.612 21.1241 478.734 18.3123 481.075C15.5006 483.416 11.368 483.089 9.08194 480.345C6.79587 477.601 7.22199 473.479 10.0337 471.138C12.8455 468.797 16.9781 469.124 19.2642 471.868Z" fill="#F28482"/>
<path d="M45.7556 503.665C48.0417 506.409 47.6155 510.531 44.8038 512.872C41.992 515.213 37.8594 514.886 35.5733 512.142C33.2873 509.398 33.7134 505.276 36.5252 502.935C39.3369 500.594 43.4695 500.921 45.7556 503.665Z" fill="#F28482"/>
<path d="M72.2472 535.463C74.5333 538.207 74.1071 542.329 71.2954 544.67C68.4836 547.011 64.351 546.684 62.0649 543.94C59.7789 541.196 60.205 537.074 63.0168 534.733C65.8285 532.392 69.9611 532.719 72.2472 535.463Z" fill="#F28482"/>
<path d="M98.7388 567.26C101.025 570.004 100.599 574.126 97.787 576.467C94.9752 578.808 90.8426 578.481 88.5566 575.737C86.2705 572.993 86.6966 568.871 89.5083 566.531C92.3201 564.19 96.4527 564.516 98.7388 567.26Z" fill="#F28482"/>
<path d="M-133.594 222.158C-131.308 224.902 -131.734 229.024 -134.546 231.365C-137.357 233.706 -141.49 233.379 -143.776 230.636C-146.062 227.892 -145.636 223.769 -142.824 221.429C-140.013 219.088 -135.88 219.414 -133.594 222.158Z" fill="#F28482"/>
<path d="M-107.102 253.956C-104.816 256.7 -105.242 260.822 -108.054 263.163C-110.866 265.504 -114.998 265.177 -117.285 262.433C-119.571 259.689 -119.144 255.567 -116.333 253.226C-113.521 250.885 -109.388 251.212 -107.102 253.956Z" fill="#F28482"/>
<path d="M-80.6107 285.754C-78.3246 288.498 -78.7507 292.62 -81.5625 294.961C-84.3742 297.301 -88.5068 296.975 -90.7929 294.231C-93.079 291.487 -92.6528 287.365 -89.8411 285.024C-87.0294 282.683 -82.8968 283.01 -80.6107 285.754Z" fill="#F28482"/>
<path d="M-54.1191 317.551C-51.833 320.295 -52.2591 324.417 -55.0709 326.758C-57.8826 329.099 -62.0152 328.772 -64.3013 326.028C-66.5874 323.284 -66.1612 319.162 -63.3495 316.821C-60.5377 314.48 -56.4051 314.807 -54.1191 317.551Z" fill="#F28482"/>
<path d="M-27.6277 349.349C-25.3416 352.092 -25.7677 356.215 -28.5795 358.555C-31.3912 360.896 -35.5238 360.57 -37.8099 357.826C-40.096 355.082 -39.6698 350.96 -36.8581 348.619C-34.0463 346.278 -29.9137 346.605 -27.6277 349.349Z" fill="#F28482"/>
<path d="M-1.13586 381.146C1.15021 383.89 0.724075 388.012 -2.08767 390.353C-4.89941 392.694 -9.03202 392.367 -11.3181 389.623C-13.6042 386.879 -13.178 382.757 -10.3663 380.417C-7.55455 378.076 -3.42194 378.402 -1.13586 381.146Z" fill="#F28482"/>
<path d="M25.3555 412.944C27.6416 415.688 27.2155 419.81 24.4037 422.151C21.592 424.491 17.4594 424.165 15.1733 421.421C12.8872 418.677 13.3134 414.555 16.1251 412.214C18.9369 409.873 23.0695 410.2 25.3555 412.944Z" fill="#F28482"/>
<path d="M51.8471 444.741C54.1332 447.485 53.7071 451.607 50.8953 453.948C48.0836 456.289 43.951 455.962 41.6649 453.218C39.3789 450.474 39.805 446.352 42.6167 444.011C45.4285 441.671 49.5611 441.997 51.8471 444.741Z" fill="#F28482"/>
<path d="M78.3386 476.539C80.6246 479.283 80.1985 483.405 77.3867 485.746C74.575 488.086 70.4424 487.76 68.1563 485.016C65.8703 482.272 66.2964 478.15 69.1081 475.809C71.9199 473.468 76.0525 473.795 78.3386 476.539Z" fill="#F28482"/>
<path d="M104.83 508.336C107.116 511.08 106.69 515.202 103.878 517.543C101.067 519.884 96.934 519.557 94.6479 516.813C92.3619 514.069 92.788 509.947 95.5997 507.606C98.4115 505.266 102.544 505.592 104.83 508.336Z" fill="#F28482"/>
<path d="M131.322 540.134C133.608 542.878 133.182 547 130.37 549.341C127.558 551.682 123.426 551.355 121.14 548.611C118.853 545.867 119.28 541.745 122.091 539.404C124.903 537.063 129.036 537.39 131.322 540.134Z" fill="#F28482"/>
<path d="M-101.011 195.032C-98.7248 197.776 -99.151 201.898 -101.963 204.239C-104.774 206.58 -108.907 206.253 -111.193 203.509C-113.479 200.765 -113.053 196.643 -110.241 194.302C-107.43 191.961 -103.297 192.288 -101.011 195.032Z" fill="#F28482"/>
<path d="M-74.5193 226.829C-72.2332 229.573 -72.6594 233.696 -75.4711 236.036C-78.2828 238.377 -82.4154 238.051 -84.7015 235.307C-86.9876 232.563 -86.5615 228.441 -83.7497 226.1C-80.938 223.759 -76.8054 224.086 -74.5193 226.829Z" fill="#F28482"/>
<path d="M-48.0277 258.627C-45.7416 261.371 -46.1678 265.493 -48.9795 267.834C-51.7912 270.175 -55.9239 269.848 -58.2099 267.104C-60.496 264.36 -60.0699 260.238 -57.2581 257.897C-54.4464 255.556 -50.3138 255.883 -48.0277 258.627Z" fill="#F28482"/>
<path d="M-21.5361 290.425C-19.25 293.169 -19.6761 297.291 -22.4879 299.632C-25.2996 301.972 -29.4322 301.646 -31.7183 298.902C-34.0044 296.158 -33.5783 292.036 -30.7665 289.695C-27.9548 287.354 -23.8222 287.681 -21.5361 290.425Z" fill="#F28482"/>
<path d="M4.95533 322.222C7.24141 324.966 6.81525 329.088 4.00351 331.429C1.19176 333.77 -2.94083 333.443 -5.2269 330.699C-7.51298 327.955 -7.08685 323.833 -4.2751 321.492C-1.46336 319.151 2.66926 319.478 4.95533 322.222Z" fill="#F28482"/>
<path d="M31.4471 354.02C33.7332 356.764 33.3071 360.886 30.4953 363.227C27.6836 365.568 23.551 365.241 21.2649 362.497C18.9788 359.753 19.4049 355.631 22.2167 353.29C25.0284 350.949 29.1611 351.276 31.4471 354.02Z" fill="#F28482"/>
<path d="M57.9385 385.817C60.2246 388.561 59.7985 392.683 56.9867 395.024C54.175 397.365 50.0424 397.038 47.7563 394.294C45.4702 391.55 45.8964 387.428 48.7081 385.087C51.5199 382.746 55.6524 383.073 57.9385 385.817Z" fill="#F28482"/>
<path d="M84.4301 417.615C86.7162 420.359 86.2901 424.481 83.4783 426.822C80.6666 429.163 76.534 428.836 74.2479 426.092C71.9618 423.348 72.388 419.226 75.1997 416.885C78.0115 414.544 82.1441 414.871 84.4301 417.615Z" fill="#F28482"/>
<path d="M110.922 449.412C113.208 452.156 112.781 456.278 109.97 458.619C107.158 460.96 103.025 460.633 100.739 457.889C98.4532 455.145 98.8794 451.023 101.691 448.682C104.503 446.341 108.635 446.668 110.922 449.412Z" fill="#F28482"/>
<path d="M137.413 481.21C139.699 483.954 139.273 488.076 136.461 490.417C133.65 492.757 129.517 492.431 127.231 489.687C124.945 486.943 125.371 482.821 128.183 480.48C130.994 478.139 135.127 478.466 137.413 481.21Z" fill="#F28482"/>
<path d="M163.905 513.007C166.191 515.751 165.765 519.873 162.953 522.214C160.141 524.555 156.009 524.228 153.723 521.484C151.436 518.74 151.863 514.618 154.674 512.277C157.486 509.937 161.619 510.263 163.905 513.007Z" fill="#F28482"/>
<path d="M-68.427 167.905C-66.1409 170.649 -66.567 174.771 -69.3788 177.112C-72.1905 179.452 -76.3231 179.126 -78.6092 176.382C-80.8953 173.638 -80.4691 169.516 -77.6574 167.175C-74.8456 164.834 -70.713 165.161 -68.427 167.905Z" fill="#F28482"/>
<path d="M-41.9354 199.702C-39.6493 202.446 -40.0754 206.568 -42.8872 208.909C-45.6989 211.25 -49.8315 210.923 -52.1176 208.179C-54.4037 205.435 -53.9775 201.313 -51.1658 198.972C-48.354 196.631 -44.2214 196.958 -41.9354 199.702Z" fill="#F28482"/>
<path d="M-15.4438 231.5C-13.1577 234.244 -13.5838 238.366 -16.3956 240.707C-19.2073 243.048 -23.3399 242.721 -25.626 239.977C-27.9121 237.233 -27.4859 233.111 -24.6742 230.77C-21.8624 228.429 -17.7298 228.756 -15.4438 231.5Z" fill="#F28482"/>
<path d="M11.0478 263.297C13.3339 266.041 12.9078 270.163 10.096 272.504C7.28429 274.845 3.15169 274.518 0.865609 271.774C-1.42047 269.03 -0.994331 264.908 1.81741 262.568C4.62916 260.227 8.76177 260.553 11.0478 263.297Z" fill="#F28482"/>
<path d="M37.5392 295.095C39.8253 297.839 39.3992 301.961 36.5875 304.302C33.7757 306.642 29.6431 306.316 27.357 303.572C25.071 300.828 25.4971 296.706 28.3088 294.365C31.1206 292.024 35.2532 292.351 37.5392 295.095Z" fill="#F28482"/>
<path d="M64.031 326.893C66.3171 329.636 65.891 333.759 63.0792 336.099C60.2675 338.44 56.1349 338.114 53.8488 335.37C51.5627 332.626 51.9889 328.504 54.8006 326.163C57.6124 323.822 61.745 324.149 64.031 326.893Z" fill="#F28482"/>
<path d="M90.5225 358.69C92.8085 361.434 92.3824 365.556 89.5706 367.897C86.7589 370.238 82.6263 369.911 80.3402 367.167C78.0542 364.423 78.4803 360.301 81.292 357.96C84.1038 355.619 88.2364 355.946 90.5225 358.69Z" fill="#F28482"/>
<path d="M117.014 390.487C119.3 393.231 118.874 397.353 116.062 399.694C113.251 402.035 109.118 401.708 106.832 398.965C104.546 396.221 104.972 392.099 107.784 389.758C110.595 387.417 114.728 387.744 117.014 390.487Z" fill="#F28482"/>
<path d="M143.505 422.285C145.792 425.029 145.365 429.151 142.554 431.492C139.742 433.833 135.609 433.506 133.323 430.762C131.037 428.018 131.463 423.896 134.275 421.555C137.087 419.214 141.219 419.541 143.505 422.285Z" fill="#F28482"/>
<path d="M169.997 454.082C172.283 456.826 171.857 460.948 169.045 463.289C166.234 465.63 162.101 465.303 159.815 462.559C157.529 459.816 157.955 455.693 160.767 453.353C163.578 451.012 167.711 451.338 169.997 454.082Z" fill="#F28482"/>
<path d="M196.489 485.88C198.775 488.624 198.349 492.746 195.537 495.087C192.725 497.428 188.593 497.101 186.306 494.357C184.02 491.613 184.447 487.491 187.258 485.15C190.07 482.809 194.203 483.136 196.489 485.88Z" fill="#F28482"/>
<path d="M-35.844 140.778C-33.5579 143.522 -33.9841 147.644 -36.7958 149.985C-39.6075 152.326 -43.7401 151.999 -46.0262 149.255C-48.3123 146.511 -47.8862 142.389 -45.0744 140.048C-42.2627 137.707 -38.1301 138.034 -35.844 140.778Z" fill="#F28482"/>
<path d="M-9.35238 172.576C-7.0663 175.32 -7.49244 179.442 -10.3042 181.783C-13.1159 184.123 -17.2485 183.797 -19.5346 181.053C-21.8207 178.309 -21.3945 174.187 -18.5828 171.846C-15.7711 169.505 -11.6385 169.832 -9.35238 172.576Z" fill="#F28482"/>
<path d="M17.1392 204.373C19.4253 207.117 18.9992 211.239 16.1874 213.58C13.3757 215.921 9.24307 215.594 6.95699 212.85C4.67092 210.106 5.09706 205.984 7.9088 203.643C10.7205 201.303 14.8531 201.629 17.1392 204.373Z" fill="#F28482"/>
<path d="M43.6308 236.171C45.9169 238.915 45.4908 243.037 42.679 245.378C39.8673 247.719 35.7347 247.392 33.4486 244.648C31.1625 241.904 31.5887 237.782 34.4004 235.441C37.2121 233.1 41.3448 233.427 43.6308 236.171Z" fill="#F28482"/>
<path d="M70.1222 267.968C72.4083 270.712 71.9822 274.834 69.1704 277.175C66.3587 279.516 62.2261 279.189 59.94 276.445C57.6539 273.701 58.0801 269.579 60.8918 267.238C63.7036 264.898 67.8362 265.224 70.1222 267.968Z" fill="#F28482"/>
<path d="M96.614 299.766C98.9001 302.51 98.474 306.632 95.6622 308.973C92.8505 311.314 88.7179 310.987 86.4318 308.243C84.1457 305.499 84.5719 301.377 87.3836 299.036C90.1953 296.695 94.328 297.022 96.614 299.766Z" fill="#F28482"/>
<path d="M123.105 331.563C125.392 334.307 124.965 338.429 122.154 340.77C119.342 343.111 115.209 342.784 112.923 340.04C110.637 337.296 111.063 333.174 113.875 330.834C116.687 328.493 120.819 328.819 123.105 331.563Z" fill="#F28482"/>
<path d="M149.597 363.361C151.883 366.105 151.457 370.227 148.645 372.568C145.833 374.909 141.701 374.582 139.415 371.838C137.129 369.094 137.555 364.972 140.367 362.631C143.178 360.29 147.311 360.617 149.597 363.361Z" fill="#F28482"/>
<path d="M176.088 395.158C178.375 397.902 177.948 402.024 175.137 404.365C172.325 406.706 168.192 406.379 165.906 403.635C163.62 400.891 164.046 396.769 166.858 394.428C169.67 392.088 173.802 392.414 176.088 395.158Z" fill="#F28482"/>
<path d="M202.58 426.956C204.866 429.7 204.44 433.822 201.628 436.163C198.817 438.504 194.684 438.177 192.398 435.433C190.112 432.689 190.538 428.567 193.35 426.226C196.161 423.885 200.294 424.212 202.58 426.956Z" fill="#F28482"/>
<path d="M229.072 458.753C231.358 461.497 230.932 465.619 228.12 467.96C225.308 470.301 221.176 469.974 218.889 467.231C216.603 464.487 217.029 460.365 219.841 458.024C222.653 455.683 226.786 456.01 229.072 458.753Z" fill="#F28482"/>
<path d="M-3.26099 113.652C-0.974918 116.396 -1.40105 120.518 -4.21279 122.858C-7.02454 125.199 -11.1571 124.873 -13.4432 122.129C-15.7293 119.385 -15.3031 115.263 -12.4914 112.922C-9.67966 110.581 -5.54707 110.908 -3.26099 113.652Z" fill="#F28482"/>
<path d="M23.2306 145.449C25.5167 148.193 25.0906 152.315 22.2788 154.656C19.4671 156.997 15.3345 156.67 13.0484 153.926C10.7623 151.182 11.1884 147.06 14.0002 144.719C16.8119 142.378 20.9445 142.705 23.2306 145.449Z" fill="#F28482"/>
<path d="M49.7222 177.247C52.0083 179.991 51.5822 184.113 48.7704 186.454C45.9587 188.795 41.8261 188.468 39.54 185.724C37.2539 182.98 37.6801 178.858 40.4918 176.517C43.3035 174.176 47.4361 174.503 49.7222 177.247Z" fill="#F28482"/>
<path d="M76.2138 209.044C78.4999 211.788 78.0738 215.91 75.262 218.251C72.4503 220.592 68.3177 220.265 66.0316 217.521C63.7455 214.777 64.1717 210.655 66.9834 208.314C69.7951 205.974 73.9277 206.3 76.2138 209.044Z" fill="#F28482"/>
<path d="M102.705 240.842C104.991 243.586 104.565 247.708 101.753 250.049C98.9417 252.389 94.8091 252.063 92.523 249.319C90.2369 246.575 90.6631 242.453 93.4748 240.112C96.2866 237.771 100.419 238.098 102.705 240.842Z" fill="#F28482"/>
<path d="M129.197 272.639C131.483 275.383 131.057 279.505 128.245 281.846C125.433 284.187 121.301 283.861 119.015 281.117C116.729 278.373 117.155 274.251 119.967 271.91C122.778 269.569 126.911 269.896 129.197 272.639Z" fill="#F28482"/>
<path d="M155.688 304.437C157.975 307.181 157.548 311.303 154.737 313.644C151.925 315.985 147.792 315.658 145.506 312.914C143.22 310.17 143.646 306.048 146.458 303.707C149.27 301.366 153.402 301.693 155.688 304.437Z" fill="#F28482"/>
<path d="M182.18 336.234C184.466 338.978 184.04 343.1 181.228 345.441C178.416 347.782 174.284 347.455 171.998 344.712C169.712 341.968 170.138 337.845 172.95 335.505C175.761 333.164 179.894 333.49 182.18 336.234Z" fill="#F28482"/>
<path d="M208.671 368.032C210.958 370.776 210.531 374.898 207.72 377.239C204.908 379.58 200.775 379.253 198.489 376.509C196.203 373.765 196.629 369.643 199.441 367.302C202.253 364.961 206.385 365.288 208.671 368.032Z" fill="#F28482"/>
<path d="M235.163 399.829C237.449 402.573 237.023 406.695 234.211 409.036C231.4 411.377 227.267 411.05 224.981 408.306C222.695 405.562 223.121 401.44 225.933 399.1C228.744 396.759 232.877 397.085 235.163 399.829Z" fill="#F28482"/>
<path d="M261.655 431.627C263.941 434.371 263.515 438.493 260.703 440.834C257.891 443.175 253.759 442.848 251.472 440.104C249.186 437.36 249.612 433.238 252.424 430.897C255.236 428.556 259.369 428.883 261.655 431.627Z" fill="#F28482"/>
<path d="M29.3225 86.5247C31.6085 89.2686 31.1824 93.3907 28.3706 95.7316C25.5589 98.0724 21.4263 97.7457 19.1402 95.0017C16.8542 92.2578 17.2803 88.1357 20.092 85.7948C22.9038 83.4539 27.0364 83.7807 29.3225 86.5247Z" fill="#F28482"/>
<path d="M55.8141 118.322C58.1001 121.066 57.674 125.188 54.8623 127.529C52.0505 129.87 47.9179 129.543 45.6318 126.799C43.3458 124.055 43.7719 119.933 46.5836 117.592C49.3954 115.252 53.528 115.578 55.8141 118.322Z" fill="#F28482"/>
<path d="M82.3057 150.12C84.5917 152.864 84.1656 156.986 81.3539 159.327C78.5421 161.668 74.4095 161.341 72.1234 158.597C69.8374 155.853 70.2635 151.731 73.0752 149.39C75.887 147.049 80.0196 147.376 82.3057 150.12Z" fill="#F28482"/>
<path d="M108.797 181.917C111.083 184.661 110.657 188.783 107.845 191.124C105.034 193.465 100.901 193.138 98.615 190.394C96.329 187.651 96.7551 183.528 99.5669 181.188C102.379 178.847 106.511 179.173 108.797 181.917Z" fill="#F28482"/>
<path d="M135.289 213.715C137.575 216.459 137.149 220.581 134.337 222.922C131.525 225.263 127.393 224.936 125.106 222.192C122.82 219.448 123.247 215.326 126.058 212.985C128.87 210.644 133.003 210.971 135.289 213.715Z" fill="#F28482"/>
<path d="M161.78 245.513C164.067 248.257 163.64 252.379 160.829 254.72C158.017 257.06 153.884 256.734 151.598 253.99C149.312 251.246 149.738 247.124 152.55 244.783C155.362 242.442 159.494 242.769 161.78 245.513Z" fill="#F28482"/>
<path d="M188.272 277.31C190.558 280.054 190.132 284.176 187.32 286.517C184.508 288.858 180.376 288.531 178.09 285.787C175.804 283.043 176.23 278.921 179.041 276.58C181.853 274.239 185.986 274.566 188.272 277.31Z" fill="#F28482"/>
<path d="M214.763 309.108C217.05 311.851 216.623 315.974 213.812 318.314C211 320.655 206.867 320.329 204.581 317.585C202.295 314.841 202.721 310.719 205.533 308.378C208.345 306.037 212.477 306.364 214.763 309.108Z" fill="#F28482"/>
<path d="M241.255 340.905C243.541 343.649 243.115 347.771 240.303 350.112C237.491 352.453 233.359 352.126 231.073 349.382C228.787 346.638 229.213 342.516 232.024 340.175C234.836 337.834 238.969 338.161 241.255 340.905Z" fill="#F28482"/>
<path d="M267.746 372.702C270.033 375.446 269.606 379.568 266.795 381.909C263.983 384.25 259.85 383.923 257.564 381.18C255.278 378.436 255.704 374.314 258.516 371.973C261.328 369.632 265.46 369.959 267.746 372.702Z" fill="#F28482"/>
<path d="M294.238 404.5C296.524 407.244 296.098 411.366 293.286 413.707C290.475 416.048 286.342 415.721 284.056 412.977C281.77 410.233 282.196 406.111 285.008 403.77C287.819 401.429 291.952 401.756 294.238 404.5Z" fill="#F28482"/>
<path d="M61.9055 59.3981C64.1915 62.1421 63.7654 66.2642 60.9536 68.605C58.1419 70.9459 54.0093 70.6191 51.7232 67.8752C49.4371 65.1312 49.8633 61.0092 52.675 58.6683C55.4868 56.3274 59.6194 56.6542 61.9055 59.3981Z" fill="#F28482"/>
<path d="M88.397 91.1957C90.6831 93.9397 90.257 98.0617 87.4453 100.403C84.6335 102.743 80.5009 102.417 78.2148 99.6728C75.9288 96.9288 76.3549 92.8067 79.1667 90.4659C81.9784 88.125 86.111 88.4518 88.397 91.1957Z" fill="#F28482"/>
<path d="M114.889 122.993C117.175 125.737 116.749 129.859 113.937 132.2C111.125 134.541 106.993 134.214 104.706 131.47C102.42 128.726 102.846 124.604 105.658 122.263C108.47 119.923 112.603 120.249 114.889 122.993Z" fill="#F28482"/>
<path d="M141.38 154.791C143.666 157.535 143.24 161.657 140.428 163.998C137.617 166.339 133.484 166.012 131.198 163.268C128.912 160.524 129.338 156.402 132.15 154.061C134.962 151.72 139.094 152.047 141.38 154.791Z" fill="#F28482"/>
<path d="M167.872 186.588C170.158 189.332 169.732 193.454 166.92 195.795C164.108 198.136 159.976 197.809 157.689 195.065C155.403 192.321 155.83 188.199 158.641 185.858C161.453 183.518 165.586 183.844 167.872 186.588Z" fill="#F28482"/>
<path d="M194.363 218.386C196.65 221.13 196.223 225.252 193.412 227.593C190.6 229.934 186.467 229.607 184.181 226.863C181.895 224.119 182.321 219.997 185.133 217.656C187.945 215.315 192.077 215.642 194.363 218.386Z" fill="#F28482"/>
<path d="M220.855 250.183C223.141 252.927 222.715 257.049 219.903 259.39C217.091 261.731 212.959 261.404 210.673 258.66C208.387 255.917 208.813 251.794 211.624 249.454C214.436 247.113 218.569 247.439 220.855 250.183Z" fill="#F28482"/>
<path d="M247.346 281.981C249.633 284.725 249.206 288.847 246.395 291.188C243.583 293.529 239.45 293.202 237.164 290.458C234.878 287.714 235.304 283.592 238.116 281.251C240.928 278.91 245.06 279.237 247.346 281.981Z" fill="#F28482"/>
<path d="M273.838 313.778C276.124 316.522 275.698 320.644 272.886 322.985C270.074 325.326 265.942 324.999 263.656 322.255C261.37 319.511 261.796 315.389 264.607 313.049C267.419 310.708 271.552 311.034 273.838 313.778Z" fill="#F28482"/>
<path d="M300.33 345.576C302.616 348.32 302.189 352.442 299.378 354.783C296.566 357.124 292.433 356.797 290.147 354.053C287.861 351.309 288.287 347.187 291.099 344.846C293.911 342.505 298.043 342.832 300.33 345.576Z" fill="#F28482"/>
<path d="M326.821 377.374C329.107 380.117 328.681 384.24 325.869 386.58C323.058 388.921 318.925 388.595 316.639 385.851C314.353 383.107 314.779 378.985 317.591 376.644C320.402 374.303 324.535 374.63 326.821 377.374Z" fill="#F28482"/>
<path d="M94.488 32.272C96.7741 35.0159 96.3479 39.138 93.5362 41.4789C90.7244 43.8198 86.5918 43.493 84.3057 40.7491C82.0197 38.0051 82.4458 33.883 85.2575 31.5422C88.0693 29.2013 92.2019 29.528 94.488 32.272Z" fill="#F28482"/>
<path d="M120.98 64.0696C123.266 66.8135 122.84 70.9356 120.028 73.2765C117.216 75.6174 113.083 75.2906 110.797 72.5467C108.511 69.8027 108.937 65.6806 111.749 63.3398C114.561 60.9989 118.693 61.3256 120.98 64.0696Z" fill="#F28482"/>
<path d="M147.471 95.8672C149.757 98.6111 149.331 102.733 146.519 105.074C143.708 107.415 139.575 107.088 137.289 104.344C135.003 101.6 135.429 97.4782 138.241 95.1374C141.052 92.7965 145.185 93.1232 147.471 95.8672Z" fill="#F28482"/>
<path d="M173.963 127.665C176.249 130.409 175.823 134.531 173.011 136.872C170.199 139.213 166.067 138.886 163.781 136.142C161.494 133.398 161.921 129.276 164.732 126.935C167.544 124.594 171.677 124.921 173.963 127.665Z" fill="#F28482"/>
<path d="M200.454 159.462C202.74 162.206 202.314 166.328 199.502 168.669C196.691 171.01 192.558 170.683 190.272 167.939C187.986 165.195 188.412 161.073 191.224 158.732C194.036 156.391 198.168 156.718 200.454 159.462Z" fill="#F28482"/>
<path d="M226.946 191.26C229.232 194.004 228.806 198.126 225.994 200.467C223.182 202.808 219.05 202.481 216.764 199.737C214.478 196.993 214.904 192.871 217.716 190.53C220.527 188.189 224.66 188.516 226.946 191.26Z" fill="#F28482"/>
<path d="M253.437 223.057C255.723 225.801 255.297 229.923 252.486 232.264C249.674 234.605 245.541 234.278 243.255 231.534C240.969 228.79 241.395 224.668 244.207 222.327C247.019 219.987 251.151 220.313 253.437 223.057Z" fill="#F28482"/>
<path d="M279.929 254.855C282.215 257.599 281.789 261.721 278.977 264.062C276.165 266.403 272.033 266.076 269.747 263.332C267.461 260.588 267.887 256.466 270.699 254.125C273.51 251.784 277.643 252.111 279.929 254.855Z" fill="#F28482"/>
<path d="M306.42 286.652C308.706 289.396 308.28 293.518 305.469 295.859C302.657 298.2 298.524 297.873 296.238 295.129C293.952 292.385 294.378 288.263 297.19 285.922C300.002 283.581 304.134 283.908 306.42 286.652Z" fill="#F28482"/>
<path d="M332.912 318.45C335.198 321.194 334.772 325.316 331.96 327.657C329.148 329.998 325.016 329.671 322.73 326.927C320.444 324.183 320.87 320.061 323.682 317.72C326.493 315.379 330.626 315.706 332.912 318.45Z" fill="#F28482"/>
<path d="M359.404 350.247C361.69 352.991 361.264 357.113 358.452 359.454C355.64 361.795 351.507 361.468 349.221 358.724C346.935 355.98 347.361 351.858 350.173 349.518C352.985 347.177 357.118 347.503 359.404 350.247Z" fill="#F28482"/>
<path d="M127.071 5.14545C129.357 7.8894 128.931 12.0115 126.119 14.3523C123.307 16.6932 119.175 16.3665 116.889 13.6225C114.603 10.8786 115.029 6.75652 117.841 4.41564C120.652 2.07476 124.785 2.4015 127.071 5.14545Z" fill="#F28482"/>
<path d="M153.563 36.943C155.849 39.687 155.422 43.8091 152.611 46.1499C149.799 48.4908 145.666 48.1641 143.38 45.4201C141.094 42.6762 141.52 38.5541 144.332 36.2132C147.144 33.8724 151.276 34.1991 153.563 36.943Z" fill="#F28482"/>
<path d="M180.054 68.7406C182.34 71.4846 181.914 75.6067 179.102 77.9475C176.291 80.2884 172.158 79.9617 169.872 77.2177C167.586 74.4738 168.012 70.3517 170.824 68.0108C173.635 65.6699 177.768 65.9967 180.054 68.7406Z" fill="#F28482"/>
<path d="M206.546 100.538C208.832 103.282 208.406 107.404 205.594 109.745C202.782 112.086 198.65 111.759 196.364 109.015C194.077 106.271 194.504 102.149 197.315 99.8084C200.127 97.4675 204.26 97.7943 206.546 100.538Z" fill="#F28482"/>
<path d="M233.037 132.336C235.323 135.08 234.897 139.202 232.085 141.542C229.274 143.883 225.141 143.557 222.855 140.813C220.569 138.069 220.995 133.947 223.807 131.606C226.618 129.265 230.751 129.592 233.037 132.336Z" fill="#F28482"/>
<path d="M259.529 164.133C261.815 166.877 261.389 170.999 258.577 173.34C255.765 175.681 251.633 175.354 249.347 172.61C247.061 169.867 247.487 165.744 250.299 163.404C253.11 161.063 257.243 161.389 259.529 164.133Z" fill="#F28482"/>
<path d="M286.02 195.931C288.306 198.675 287.88 202.797 285.069 205.138C282.257 207.479 278.124 207.152 275.838 204.408C273.552 201.664 273.978 197.542 276.79 195.201C279.602 192.86 283.734 193.187 286.02 195.931Z" fill="#F28482"/>
<path d="M312.512 227.728C314.798 230.472 314.372 234.594 311.56 236.935C308.748 239.276 304.616 238.949 302.33 236.205C300.044 233.461 300.47 229.339 303.282 226.998C306.093 224.658 310.226 224.984 312.512 227.728Z" fill="#F28482"/>
<path d="M339.003 259.526C341.289 262.27 340.863 266.392 338.052 268.733C335.24 271.073 331.107 270.747 328.821 268.003C326.535 265.259 326.961 261.137 329.773 258.796C332.585 256.455 336.717 256.782 339.003 259.526Z" fill="#F28482"/>
<path d="M365.495 291.323C367.781 294.067 367.355 298.189 364.543 300.53C361.731 302.871 357.599 302.544 355.313 299.8C353.027 297.056 353.453 292.934 356.265 290.593C359.076 288.253 363.209 288.579 365.495 291.323Z" fill="#F28482"/>
<path d="M391.987 323.121C394.273 325.865 393.847 329.987 391.035 332.328C388.223 334.669 384.09 334.342 381.804 331.598C379.518 328.854 379.944 324.732 382.756 322.391C385.568 320.05 389.701 320.377 391.987 323.121Z" fill="#F28482"/>
</svg>
