<svg width="28" height="36" viewBox="0 0 28 36" fill="none" xmlns="http://www.w3.org/2000/svg">
<path d="M26.7774 4.46068L26.7776 4.46088C26.9333 4.6041 27.1663 4.85327 27.3751 5.09343C27.4794 5.21326 27.577 5.33017 27.6554 5.42971C27.7348 5.53046 27.7918 5.60998 27.8172 5.65632L27.8176 5.65695C28.0338 6.04142 27.9377 6.47999 27.6113 6.68282L27.6106 6.68323C27.4837 6.76417 27.3879 6.79199 27.2634 6.76981C27.1309 6.74619 26.9613 6.66525 26.6913 6.50665C23.6233 4.68727 20.1492 4.33922 16.8709 5.52681C16.3984 5.69687 15.4395 6.14293 14.9963 6.39279L14.996 6.39296C13.2446 7.39245 11.4937 9.18089 10.3524 11.1309C9.57164 12.4611 8.94102 14.1817 8.64789 15.7924C8.01807 19.2044 8.57838 22.8137 10.1902 25.7271C10.7606 26.7594 11.1119 27.2496 11.9901 28.2341L11.9902 28.2343C12.9148 29.2629 13.3426 29.646 14.3741 30.3375C17.256 32.2846 20.819 32.8045 24.1396 31.7691C24.3456 31.707 24.5941 31.6502 24.6986 31.6393C24.8752 31.6234 25.0581 31.7278 25.1876 31.8992C25.3167 32.07 25.3818 32.2937 25.3347 32.4944C25.2953 32.6611 25.2411 32.7763 25.1095 32.9085C24.9738 33.0449 24.756 33.1992 24.3845 33.4383L24.3843 33.4384C22.0443 34.9549 19.6659 35.7504 16.9871 35.9081L16.987 35.9081C12.4634 36.1798 7.96347 34.2496 4.7599 30.6579C3.60808 29.3665 2.88649 28.2798 2.00217 26.5164C1.03083 24.5771 0.377122 22.2703 0.161314 19.993C-0.287519 15.2512 0.865242 10.7397 3.50701 6.91203L3.50706 6.91196C3.7756 6.52184 4.30329 5.89243 4.85451 5.2846C5.40579 4.6767 5.97611 4.09533 6.32895 3.8002L6.32898 3.80017C7.78582 2.57997 9.56219 1.53572 11.189 0.946341C14.9319 -0.408568 19.0138 -0.192116 22.6246 1.55278L22.6247 1.55281C24.0407 2.23531 25.4178 3.1989 26.7774 4.46068Z" fill="#EE9F9C" stroke="#F3817F" stroke-width="0.133333"/>
</svg>
