<svg width="50" height="53" viewBox="0 0 50 53" fill="none" xmlns="http://www.w3.org/2000/svg">
<path d="M17.2938 7.20103L46 4L45.6244 14.5L17.7683 17L17.2938 7.20103Z" fill="#F28482"/>
<path d="M18.2428 42.6495C18.2428 46.3053 14.6311 50 10.4929 50C6.35467 50 3 47.0364 3 43.3806C3 39.7248 6.35467 36.7612 10.4929 36.7612C14.6311 36.7612 18.2428 38.9937 18.2428 42.6495Z" fill="#F28482"/>
<path d="M46 40.1993C46 43.8551 42.3883 47.5498 38.2501 47.5498C34.1119 47.5498 30.7572 44.5862 30.7572 40.9304C30.7572 37.2746 34.1119 34.311 38.2501 34.311C42.3883 34.311 46 36.5435 46 40.1993Z" fill="#F28482"/>
<path d="M18.2428 42.6495C18.2428 46.3053 14.6311 50 10.4929 50C6.35467 50 3 47.0364 3 43.3806C3 39.7248 6.35467 36.7612 10.4929 36.7612C14.6311 36.7612 18.2428 38.9937 18.2428 42.6495ZM18.2428 42.6495L17.7683 15.5M45.6244 11.9038V38.7174M17.2938 7.20103L46 4L45.6244 14.5L17.7683 17L17.2938 7.20103ZM46 40.1993C46 43.8551 42.3883 47.5498 38.2501 47.5498C34.1119 47.5498 30.7572 44.5862 30.7572 40.9304C30.7572 37.2746 34.1119 34.311 38.2501 34.311C42.3883 34.311 46 36.5435 46 40.1993Z" stroke="#F28482" stroke-width="6"/>
</svg>
