<svg width="42" height="98" viewBox="0 0 42 98" fill="none" xmlns="http://www.w3.org/2000/svg">
<path d="M6.47295 92.2362C6.47287 92.2361 6.4728 92.236 6.47273 92.2359L6.52932 92.1798C6.52052 92.1702 6.51175 92.1606 6.50299 92.151C5.93228 91.5218 5.46351 90.836 5.09968 90.1079L6.47295 92.2362ZM6.47295 92.2362C8.6435 94.4261 11.6345 95.6834 14.95 95.7131C15.9333 95.7219 16.9452 95.6227 17.9727 95.4078L17.973 95.4077C17.9735 95.4076 17.974 95.4075 17.9745 95.4074C17.9746 95.4074 17.9746 95.4074 17.9747 95.4074C19.7655 95.032 21.1697 94.3407 22.268 93.4868L6.47295 92.2362ZM21.5473 92.6921L21.5474 92.6923L21.5754 92.7231L21.5431 92.6973C21.5448 92.6952 21.5462 92.6934 21.5473 92.6921ZM21.5473 92.6921L21.5485 92.6906C21.5507 92.6881 21.5499 92.6889 21.5473 92.6921ZM27.8773 25.0767C32.4083 20.8665 34.9393 16.7107 35.501 12.8081L27.8773 25.0767ZM27.8773 25.0767C27.9839 19.7812 29.3221 16.4817 29.7157 15.6183C31.6231 12.1987 33.9579 10.0284 35.394 8.90912C35.624 10.0267 35.7106 11.3342 35.5012 12.8067L27.8773 25.0767ZM27.8485 68.698C29.8073 67.9366 31.4793 66.8733 32.6027 65.5404C33.9292 63.9666 34.5387 61.9685 33.8893 59.4335L27.8485 68.698ZM27.8485 68.698C27.8403 63.9887 27.8337 58.6861 27.8306 53.4282C30.4838 54.0289 32.9898 55.927 33.8893 59.4332L27.8485 68.698ZM34.593 3L35.2777 2.27115L34.7994 1.82185L34.1968 2.08181L33.9008 2.20952C33.9002 2.20978 33.8996 2.21005 33.899 2.21032C33.5384 2.36487 30.7702 3.66184 28.2532 7.55382C25.7278 11.4586 23.5122 17.888 24.1377 28.2089C24.1379 28.2124 24.1381 28.2159 24.1383 28.2194C22.2069 29.6958 20.0388 31.166 17.6431 32.6166L17.6429 32.6167C5.31057 40.0863 -1.01128 50.2996 1.56527 60.0358L1.56529 60.0359C3.52953 67.4552 10.4894 72.513 18.7214 72.7532C19.1243 72.8025 21.4492 73.0589 24.446 72.8282C24.3143 79.3559 24.1691 84.018 24.1411 84.9167C24.1383 85.0052 24.1367 85.0572 24.1363 85.0709L24.1356 85.0973L24.1363 85.1237L24.1364 85.1241L24.1364 85.1263L24.1366 85.1383C24.1367 85.1496 24.1369 85.1678 24.1368 85.1924C24.1365 85.2415 24.1354 85.3162 24.1314 85.4131C24.1233 85.6073 24.104 85.8894 24.0588 86.2334C23.9679 86.9247 23.7748 87.8486 23.3704 88.808C22.5747 90.6956 20.9641 92.7377 17.563 93.4502C13.6871 94.2607 10.1969 93.1524 7.89325 90.8281L7.89303 90.8278C7.47755 90.4089 7.17009 89.8978 6.94792 89.3425C8.18089 90.4988 9.83942 91.207 11.664 91.207C15.4705 91.207 18.557 88.1201 18.557 84.312C18.557 80.924 16.1138 78.118 12.8983 77.5336C9.36986 76.7456 5.11709 78.2299 3.68656 82.8045L3.68645 82.8049C2.55428 86.4305 3.29386 90.1015 5.76231 92.8229L5.76295 92.8236C8.04044 95.3296 11.3536 96.647 14.95 96.647C16.0036 96.647 17.0789 96.5321 18.1615 96.3071L18.1633 96.3067C20.1316 95.8937 21.6652 95.1185 22.8779 94.1593L22.8812 94.1629C25.5271 92.2879 26.7811 89.9213 27.3673 88.026C27.6595 87.0814 27.7867 86.2525 27.8408 85.6544C27.8679 85.3548 27.8769 85.1115 27.8788 84.9385C27.8797 84.8519 27.8789 84.7828 27.8778 84.7328C27.8772 84.7087 27.8765 84.6891 27.8759 84.674C27.8759 84.6735 27.8759 84.673 27.8759 84.6724L27.8759 84.6312L27.8755 84.4437L27.8739 83.7162L27.8686 80.9881C27.8646 78.8262 27.8593 75.8409 27.8542 72.3633C33.3726 71.2489 37.3564 68.476 39.1511 64.1687C41.312 58.9829 39.6781 52.9085 35.2127 49.3822C33.0097 47.6409 30.4671 46.7915 27.8257 46.8335C27.8243 41.5655 27.8264 36.6406 27.8356 32.7595C30.1646 31.2791 32.2524 29.9097 34.1121 28.1044C36.1136 26.1616 37.8238 23.7438 39.3731 20.1786L39.3732 20.1784C41.5528 15.1606 40.502 10.6502 38.9451 7.45003C38.168 5.85272 37.2595 4.5675 36.546 3.68129C36.1885 3.23724 35.8777 2.89073 35.6536 2.65257C35.5414 2.53342 35.4508 2.44118 35.3865 2.37721C35.3544 2.34522 35.3288 2.32027 35.3105 2.30254L35.2885 2.28138L35.2816 2.27489L35.2793 2.27268L35.2784 2.27183C35.278 2.27148 35.2777 2.27115 34.593 3ZM20.4464 56.6392C20.8191 54.9203 22.4503 53.6644 24.6729 53.3149C24.6632 59.0905 24.5924 64.7487 24.5055 69.656C23.7033 69.8127 22.8919 69.9229 22.0868 69.9883C20.3353 69.9982 19.1199 69.8609 18.9857 69.8457C18.9828 69.8454 18.9804 69.8451 18.9785 69.8449C15.2053 69.4329 12.0318 68.9296 9.6769 66.2437L9.67668 66.2435C7.8889 64.2059 6.71619 61.1058 6.41653 58.2636L6.45597 58.2524C5.95781 53.7337 7.57541 49.9753 10.405 46.5487C13.2597 43.0916 17.2908 40.0414 21.5119 36.9709C22.537 36.2259 23.51 35.5594 24.4397 34.9441C24.5671 38.8219 24.6353 43.0201 24.6625 47.2881C22.946 47.7653 21.2447 48.6039 19.6165 49.7866C19.5141 49.8601 17.6726 51.1959 16.4377 53.4722C15.156 55.835 14.5509 59.1927 17.0625 63.026L17.0889 63.0662L17.1189 63.1037L17.899 62.478C17.1189 63.1037 17.1192 63.1041 17.1195 63.1045L17.1202 63.1053L17.1216 63.107L17.125 63.1112L17.1336 63.1217C17.1403 63.1297 17.1487 63.1397 17.1588 63.1516C17.179 63.1753 17.2063 63.2063 17.2405 63.2437C17.309 63.3183 17.4056 63.4184 17.5303 63.5348C17.7792 63.7671 18.1434 64.0677 18.6215 64.3604C19.5823 64.9488 21.0055 65.5058 22.8521 65.4076L23.2181 63.5048C23.2196 63.5018 23.2197 63.5018 23.2198 63.5018L23.2206 63.5022L23.2221 63.5029L23.2019 63.4928C23.1933 63.4884 23.1824 63.4828 23.1694 63.4759C23.1497 63.4654 23.125 63.452 23.0959 63.4356C22.9988 63.3807 22.8534 63.2928 22.6788 63.1693C22.328 62.9211 21.8702 62.5367 21.4477 61.9979C20.6259 60.9496 19.8832 59.254 20.4464 56.6392ZM2.53192 59.78L2.53195 59.78L2.53192 59.78Z" fill="#F28482" stroke="#F28482" stroke-width="2"/>
</svg>
