<svg width="308" height="353" viewBox="0 0 308 353" fill="none" xmlns="http://www.w3.org/2000/svg">
<g clip-path="url(#clip0_512_165)">
<path d="M279.631 161.905C275.964 153.888 265.965 147.289 256.113 145.613C249.387 144.469 243.214 145.7 237.842 140.937C236.115 139.405 235.033 137.756 234.384 136.573C233.74 135.005 231.608 132.187 232.866 129.265C239.052 114.899 249.534 109.428 250.775 95.3348C251.211 90.3587 249.501 86.761 246.596 80.6737C239.428 65.6493 226.478 58.1657 221.166 55.1792C197.656 41.9917 171.66 46.2527 159.052 48.3152C119.784 54.7509 94.1808 76.7524 84.9713 84.8767C73.7277 94.7924 49.4249 116.806 39.0379 154.556C35.1715 168.587 26.4558 200.274 42.5534 234.295C45.2485 239.99 60.6274 271.088 97.1158 285.362C128.217 297.529 155.589 290.005 170.133 286.009C198.635 278.173 216.234 263.275 231.858 250.037C231.858 250.037 267.953 219.465 279.535 180.56C281.2 174.961 282.544 168.273 279.631 161.905ZM227.499 203.516C217.341 205.626 207.409 199.141 205.309 189.028C203.208 178.915 209.737 169.012 219.895 166.902C230.052 164.792 239.984 171.277 242.085 181.39C244.185 191.504 237.657 201.407 227.499 203.516Z" fill="#745747"/>
<path d="M277.406 158.827C273.738 150.81 263.74 144.211 253.887 142.535C247.161 141.391 240.989 142.622 235.617 137.859C233.89 136.327 232.808 134.678 232.158 133.495C231.515 131.927 229.383 129.109 230.641 126.187C236.826 111.821 247.309 106.35 248.55 92.2568C248.986 87.2807 247.276 83.683 244.371 77.5957C237.203 62.5713 224.253 55.0877 218.941 52.1012C195.431 38.9137 169.435 43.1747 156.827 45.2371C117.558 51.6729 91.9554 73.6744 82.746 81.7987C71.5023 91.7144 47.1996 113.728 36.8126 151.478C32.9461 165.509 24.2305 197.196 40.328 231.217C43.0232 236.912 58.4021 268.01 94.8904 282.284C125.991 294.451 153.363 286.927 167.908 282.931C196.409 275.095 214.009 260.197 229.633 246.959C229.633 246.959 265.728 216.387 277.31 177.482C278.974 171.883 280.318 165.195 277.406 158.827ZM225.274 200.438C215.116 202.548 205.184 196.063 203.083 185.95C200.983 175.837 207.511 165.934 217.669 163.824C227.827 161.714 237.759 168.199 239.859 178.312C241.96 188.426 235.431 198.329 225.274 200.438Z" fill="#855F4A"/>
<path d="M217.906 319.183L220.464 318.718L225.369 306.843L234.709 93.551L230.194 61.4207L216.174 59.5674L210.042 93.863L212.841 300.546L213.688 310.66L217.906 319.183Z" fill="#F28482"/>
<path d="M213.152 198.279L210.5 197.5L207.744 265.088L231.806 244.809L233.389 197.24C226.956 199.871 219.82 200.237 213.152 198.279Z" fill="#855F4A"/>
<path d="M230.292 61.1134C236.062 56.7267 236.865 49.8543 236.954 48.9782C237.727 41.3279 232.669 39.0033 230.642 30.8148C227.241 17.0436 230.891 6.92044 228.594 5.48182C226.336 4.07016 222.009 13.1499 215.964 26.1435C209.633 39.7682 211.581 49.7336 212.121 52.1388C212.935 55.7712 214.433 62.4126 219.416 64.1378C224.16 65.7701 229.179 61.9543 230.292 61.1134Z" fill="#F8C4BB"/>
<path d="M120.251 132.25C131.098 129.997 138.073 119.416 135.83 108.617C133.587 97.8176 122.976 90.8892 112.129 93.1419C101.282 95.3947 94.3069 105.976 96.5497 116.775C98.7926 127.574 109.404 134.503 120.251 132.25Z" fill="#F6BE61"/>
<path d="M179.176 103.114C190.023 100.861 196.998 90.2803 194.756 79.4809C192.513 68.6816 181.901 61.7532 171.054 64.0059C160.207 66.2587 153.232 76.8395 155.475 87.6389C157.718 98.4383 168.33 105.367 179.176 103.114Z" fill="#727CBE"/>
<path d="M76.4636 182.139C87.3105 179.886 94.2855 169.305 92.0426 158.506C89.7998 147.706 79.1884 140.778 68.3414 143.031C57.4945 145.284 50.5195 155.864 52.7624 166.664C55.0053 177.463 65.6166 184.392 76.4636 182.139Z" fill="#84A59D"/>
<path d="M79.2711 242.166C90.118 239.913 97.093 229.333 94.8501 218.533C92.6073 207.734 81.9959 200.805 71.1489 203.058C60.302 205.311 53.327 215.892 55.5699 226.691C57.8127 237.491 68.4241 244.419 79.2711 242.166Z" fill="#F28482"/>
<path d="M125.273 273.407C136.12 271.154 143.095 260.573 140.852 249.774C138.609 238.975 127.998 232.046 117.151 234.299C106.304 236.552 99.329 247.133 101.572 257.932C103.815 268.731 114.426 275.66 125.273 273.407Z" fill="#F8C4BB"/>
<path d="M183.624 259.834C194.471 257.581 201.446 247 199.203 236.201C196.96 225.402 186.349 218.473 175.502 220.726C164.655 222.979 157.68 233.56 159.923 244.359C162.165 255.158 172.777 262.087 183.624 259.834Z" fill="#FBF6ED"/>
<path d="M233.958 248.533L213.813 264.67L209.093 266.726L207.199 265.538L231.806 244.809L233.958 248.533Z" fill="#745747"/>
</g>
<defs>
<clipPath id="clip0_512_165">
<rect width="250.017" height="306.983" fill="white" transform="translate(0.297607 51.7958) rotate(-11.7327)"/>
</clipPath>
</defs>
</svg>
