<svg width="372" height="494" viewBox="0 0 372 494" fill="none" xmlns="http://www.w3.org/2000/svg">
<rect x="371.048" y="22.8344" width="525.735" height="353.511" transform="rotate(116.518 371.048 22.8344)" fill="#F7EDE2"/>
<path d="M211.489 -11.7314L210.214 -18.0779L217.83 -19.3537L223.423 -11.4873L232.561 -14.5417L237.647 -4.38967L243.231 -6.67941L246.284 -0.0804005L255.422 -3.13478L259.235 3.2097L266.09 2.18843L275.492 11.3213L279.299 8.77908L285.909 19.6916L291.491 14.8628L300.134 26.7892L309.529 28.3049L299.634 36.6919L308.27 41.0012L297.104 48.1197L301.68 54.2096L291.528 59.2961L295.852 68.4331L285.955 75.5506L293.067 79.0994L282.408 85.2019L285.97 93.3239L275.562 96.3794L281.153 102.976L270.746 106.032L273.292 114.916L264.662 118.224L268.476 124.569L259.09 134.479L262.138 136L255.794 141.083L258.082 144.128L247.679 152.261L249.968 157.845L240.323 161.916L242.871 172.07L236.272 175.122L238.561 180.706L228.663 185.285L232.478 192.899L221.312 200.017L223.348 206.109L215.735 211.194L221.077 223.377L210.665 221.354L212.195 228.462L203.555 220.344L200.26 226.949L192.885 212.482L186.035 219.851L182.218 209.698L171.811 212.753L169.01 203.107L161.907 210.984L154.281 199.565L148.191 204.14L144.12 194.495L136.506 198.31L134.468 189.679L124.061 194.004L123.549 188.672L115.929 184.87L119.224 178.266L113.636 175.477L121.248 169.123L117.683 157.193L126.312 152.615L123.514 145.508L133.412 140.93L128.583 135.348L136.45 129.756L134.92 122.647L144.315 122.894L142.276 112.993L149.887 105.37L145.567 101.311L152.673 97.2423L153.683 90.1321L159.01 84.5418L154.946 82.5139L165.098 77.4275L165.601 71.3334L169.914 67.7751L168.892 59.651L178.536 54.3111L177.515 47.4565L183.099 45.1667L182.584 37.2961L189.943 31.4502L187.907 26.6277L194.759 21.7979L194.498 13.4192L200.589 10.1134L199.568 3.25884L206.926 -2.58703L206.159 -9.94964L211.489 -11.7314Z" fill="#84A59D"/>
<path d="M123.549 442.233L125.637 448.361L118.251 450.614L111.685 443.54L103.021 447.755L96.6594 438.349L91.4199 441.344L87.5368 435.197L78.8725 439.412L74.2675 433.616L67.6034 435.519L57.0955 427.684L53.6512 430.698L45.6801 420.736L40.7722 426.249L30.6546 415.545L21.1416 415.262L29.8645 405.661L20.7419 402.51L30.8894 394.002L25.5622 388.557L34.9681 382.196L29.4947 373.698L38.3835 365.356L30.8707 362.76L40.6474 355.326L36.0619 347.735L45.9848 343.354L39.5844 337.539L49.5073 333.158L45.8292 324.68L53.9568 320.279L49.3517 314.484L57.3723 303.439L54.1525 302.327L59.7824 296.463L57.1189 293.741L66.3784 284.326L63.3832 279.086L72.4183 273.798L68.5743 264.06L74.7213 260.177L71.7261 254.938L80.9465 249.113L76.1756 242.059L86.323 233.551L83.5132 227.775L90.4018 221.745L83.5235 210.359L94.1097 211.013L91.6707 204.163L101.291 211.091L103.701 204.115L112.892 217.502L118.726 209.306L123.829 218.878L133.752 214.497L137.781 223.698L143.802 214.966L152.846 225.299L158.29 219.972L163.578 229.007L170.633 224.236L173.774 232.529L183.531 226.89L184.731 232.11L192.781 234.891L190.371 241.867L196.273 243.906L189.551 251.195L194.634 262.562L186.672 268.22L190.37 274.904L181.149 280.729L186.662 285.636L179.588 292.203L182.027 299.052L172.68 300.027L175.987 309.58L169.43 318.126L174.24 321.59L167.722 326.547L167.644 333.728L163.087 339.962L167.38 341.445L157.975 347.807L158.267 353.915L154.452 358.003L156.52 365.925L147.651 372.472L149.553 379.136L144.314 382.131L145.845 389.868L139.308 396.62L141.952 401.138L135.786 406.816L137.132 415.09L131.521 419.158L133.424 425.822L126.887 432.574L128.604 439.775L123.549 442.233Z" fill="#FAC2C2"/>
<path d="M243.004 25.5668L213.051 34.732" stroke="#929292" stroke-width="3"/>
<path d="M169.306 253.38L139.352 262.545" stroke="#929292" stroke-width="3"/>
<path d="M80.8451 152.454L81.4727 158.897L73.7667 159.397L68.9969 151.006L59.5972 153.123L55.5614 142.509L49.7748 144.224L47.4041 137.35L38.0044 139.467L34.8505 132.77L27.9278 133.094L19.4956 123.059L15.452 125.204L9.97668 113.68L3.93587 117.921L-3.45881 105.183L-12.6536 102.726L-1.9622 95.381L-10.1195 90.222L1.70797 84.2669L-2.22929 77.7462L8.38427 73.7104L5.00467 64.1836L15.569 58.1014L8.85121 53.8528L20.0717 48.8573L17.3483 40.4173L28.0112 38.428L23.1142 31.3004L33.777 29.311L32.1404 20.2148L41.0603 17.7949L37.9063 11.0979L48.245 2.18584L45.3659 0.365032L52.1901 -4.05207L50.2214 -7.3124L61.3927 -14.3543L59.6782 -20.141L69.6848 -23.2171L68.1753 -33.5764L75.0487 -35.9471L73.3343 -41.7337L83.6444 -45.2897L80.6175 -53.2499L92.445 -59.205L91.034 -65.4715L99.1213 -69.7615L95.0362 -82.4215L105.191 -79.3583L104.387 -86.5844L112.163 -77.636L116.108 -83.8739L121.985 -68.7369L129.543 -75.3768L132.316 -64.8903L142.979 -66.8797L144.792 -57.0002L152.653 -64.1199L159.088 -51.989L165.609 -55.9263L168.685 -45.9197L176.645 -48.9465L177.802 -40.1538L188.592 -43.4063L188.563 -38.0502L195.761 -33.4982L191.816 -27.2603L197.094 -23.9221L188.88 -18.369L191.222 -6.13954L182.175 -2.45648L184.242 4.89676L173.932 8.45273L178.173 14.4935L169.782 19.2634L170.586 26.4895L161.264 25.2964L162.294 35.3523L153.952 42.1686L157.84 46.6428L150.36 49.9731L148.638 56.945L142.773 61.9691L146.612 64.3968L135.998 68.4326L134.883 74.4449L130.233 77.5496L130.43 85.7354L120.296 90.0747L120.62 96.9973L114.833 98.7118L114.551 106.594L106.64 111.667L108.178 116.671L100.874 120.784L100.288 129.147L93.8942 131.821L94.2184 138.743L86.3075 143.817L86.3282 151.219L80.8451 152.454Z" fill="#F28482"/>
<path d="M89.6851 125.564L58.4285 127.619" stroke="#929292" stroke-width="3"/>
<path d="M18.3175 377.949L21.2196 383.735L14.2089 386.973L6.74123 380.858L-1.26896 386.213L-8.85086 377.76L-13.6341 381.44L-18.3175 375.879L-26.3277 381.233L-31.6786 376.118L-38.0218 378.909L-49.4981 372.577L-52.5001 376.032L-61.7526 367.247L-65.8648 373.376L-77.3447 364.149L-86.8078 365.163L-79.4723 354.465L-88.9389 352.584L-80.0434 342.774L-86.0618 338.105L-77.609 330.523L-84.1879 322.849L-76.5168 313.375L-84.3128 311.826L-75.6387 303.13L-81.2145 296.234L-71.9799 290.544L-79.112 285.653L-69.8774 279.963L-74.675 272.064L-67.2217 266.599L-72.5726 261.483L-66.1295 249.45L-69.4706 248.786L-64.6909 242.211L-67.7001 239.876L-59.8077 229.289L-63.488 224.506L-55.2565 218.037L-60.3897 208.914L-54.8282 204.23L-58.5085 199.447L-50.1664 192.422L-55.8528 186.082L-46.9573 176.273L-50.527 170.933L-44.5229 164.022L-52.8866 153.677L-42.3098 152.885L-45.6581 146.431L-35.1848 151.985L-33.7463 144.746L-22.8197 156.758L-18.1542 147.844L-11.7967 156.633L-2.56212 150.943L2.68168 159.51L7.45779 150.04L17.824 159.046L22.493 153.027L28.9612 161.259L35.3008 155.572L39.5416 163.361L48.4406 156.447L50.3396 161.455L58.6926 163.115L57.254 170.354L63.3795 171.571L57.711 179.706L64.2934 190.276L57.1756 196.966L61.7483 203.084L53.4061 210.109L59.5352 214.221L53.4205 221.689L56.7688 228.143L47.6413 230.381L52.2176 239.394L46.8846 248.754L52.1212 251.531L46.3385 257.328L47.2381 264.453L43.5721 271.249L48.027 272.135L39.5742 279.716L40.695 285.728L37.4717 290.297L40.5987 297.864L32.7028 305.557L35.4942 311.9L30.7109 315.58L33.2811 323.037L27.7232 330.616L30.9573 334.731L25.6208 341.196L28.0803 349.21L23.0757 354.004L25.8672 360.347L20.3093 367.925L22.9901 374.825L18.3175 377.949Z" fill="#F6BD60"/>
</svg>
