<svg width="552" height="629" viewBox="0 0 552 629" fill="none" xmlns="http://www.w3.org/2000/svg">
<rect x="551.048" y="157.834" width="525.735" height="353.511" transform="rotate(116.518 551.048 157.834)" fill="#F7EDE2"/>
<path d="M391.489 123.269L390.214 116.922L397.83 115.646L403.423 123.513L412.561 120.458L417.647 130.61L423.231 128.321L426.284 134.92L435.422 131.865L439.235 138.21L446.09 137.188L455.492 146.321L459.299 143.779L465.909 154.692L471.491 149.863L480.134 161.789L489.529 163.305L479.634 171.692L488.27 176.001L477.104 183.12L481.68 189.21L471.528 194.296L475.852 203.433L465.955 210.551L473.067 214.099L462.408 220.202L465.97 228.324L455.562 231.379L461.153 237.976L450.746 241.032L453.292 249.916L444.662 253.224L448.476 259.569L439.09 269.479L442.138 271L435.794 276.083L438.082 279.128L427.679 287.261L429.968 292.845L420.323 296.916L422.871 307.07L416.272 310.122L418.561 315.706L408.663 320.285L412.478 327.899L401.312 335.017L403.348 341.109L395.735 346.194L401.077 358.377L390.665 356.354L392.195 363.462L383.555 355.344L380.26 361.949L372.885 347.482L366.035 354.851L362.218 344.698L351.811 347.753L349.01 338.107L341.907 345.984L334.281 334.565L328.191 339.14L324.12 329.495L316.506 333.31L314.468 324.679L304.061 329.004L303.549 323.672L295.929 319.87L299.224 313.266L293.636 310.477L301.248 304.123L297.683 292.193L306.312 287.615L303.514 280.508L313.412 275.93L308.583 270.348L316.45 264.756L314.92 257.647L324.315 257.894L322.276 247.993L329.887 240.37L325.567 236.311L332.673 232.242L333.683 225.132L339.01 219.542L334.946 217.514L345.098 212.427L345.601 206.333L349.914 202.775L348.892 194.651L358.536 189.311L357.515 182.456L363.099 180.167L362.584 172.296L369.943 166.45L367.907 161.628L374.759 156.798L374.498 148.419L380.589 145.113L379.568 138.259L386.926 132.413L386.159 125.05L391.489 123.269Z" fill="#84A59D"/>
<path d="M303.549 577.233L305.637 583.361L298.251 585.614L291.685 578.54L283.021 582.755L276.659 573.349L271.42 576.344L267.537 570.197L258.873 574.412L254.267 568.616L247.603 570.519L237.095 562.684L233.651 565.698L225.68 555.736L220.772 561.249L210.655 550.545L201.142 550.262L209.865 540.661L200.742 537.51L210.889 529.002L205.562 523.557L214.968 517.196L209.495 508.698L218.383 500.356L210.871 497.76L220.647 490.326L216.062 482.735L225.985 478.354L219.584 472.539L229.507 468.158L225.829 459.68L233.957 455.279L229.352 449.484L237.372 438.439L234.153 437.327L239.782 431.463L237.119 428.741L246.378 419.326L243.383 414.086L252.418 408.798L248.574 399.06L254.721 395.177L251.726 389.938L260.947 384.113L256.176 377.059L266.323 368.551L263.513 362.775L270.402 356.745L263.523 345.359L274.11 346.013L271.671 339.163L281.291 346.091L283.701 339.115L292.892 352.502L298.726 344.306L303.829 353.878L313.752 349.497L317.781 358.698L323.802 349.966L332.846 360.299L338.29 354.972L343.578 364.007L350.633 359.236L353.774 367.529L363.531 361.89L364.731 367.11L372.781 369.891L370.371 376.867L376.273 378.906L369.551 386.195L374.634 397.562L366.672 403.22L370.37 409.904L361.149 415.729L366.662 420.636L359.588 427.203L362.027 434.052L352.68 435.027L355.987 444.58L349.43 453.126L354.24 456.59L347.722 461.547L347.644 468.728L343.087 474.962L347.38 476.445L337.975 482.807L338.267 488.915L334.452 493.003L336.52 500.925L327.651 507.472L329.553 514.136L324.314 517.131L325.845 524.868L319.308 531.62L321.952 536.138L315.786 541.816L317.132 550.09L311.521 554.158L313.424 560.822L306.887 567.574L308.604 574.775L303.549 577.233Z" fill="#FAC2C2"/>
<path d="M423.004 160.567L393.051 169.732" stroke="#929292" stroke-width="3"/>
<path d="M349.306 388.38L319.352 397.545" stroke="#929292" stroke-width="3"/>
<path d="M260.845 287.454L261.473 293.897L253.767 294.397L248.997 286.006L239.597 288.123L235.561 277.509L229.775 279.224L227.404 272.35L218.004 274.467L214.85 267.77L207.928 268.094L199.496 258.059L195.452 260.204L189.977 248.68L183.936 252.921L176.541 240.183L167.346 237.726L178.038 230.381L169.881 225.222L181.708 219.267L177.771 212.746L188.384 208.71L185.005 199.184L195.569 193.101L188.851 188.853L200.072 183.857L197.348 175.417L208.011 173.428L203.114 166.3L213.777 164.311L212.14 155.215L221.06 152.795L217.906 146.098L228.245 137.186L225.366 135.365L232.19 130.948L230.221 127.688L241.393 120.646L239.678 114.859L249.685 111.783L248.175 101.424L255.049 99.0529L253.334 93.2663L263.644 89.7103L260.618 81.7501L272.445 75.795L271.034 69.5285L279.121 65.2385L275.036 52.5785L285.191 55.6417L284.387 48.4156L292.163 57.364L296.108 51.1261L301.985 66.2631L309.543 59.6232L312.316 70.1097L322.979 68.1203L324.792 77.9998L332.653 70.8801L339.088 83.011L345.609 79.0737L348.685 89.0803L356.645 86.0535L357.802 94.8462L368.592 91.5937L368.563 96.9498L375.761 101.502L371.816 107.74L377.094 111.078L368.88 116.631L371.222 128.86L362.175 132.544L364.242 139.897L353.932 143.453L358.173 149.494L349.782 154.263L350.586 161.49L341.264 160.296L342.294 170.352L333.952 177.169L337.84 181.643L330.36 184.973L328.638 191.945L322.773 196.969L326.612 199.397L315.998 203.433L314.883 209.445L310.233 212.55L310.43 220.735L300.296 225.075L300.62 231.997L294.833 233.712L294.551 241.594L286.64 246.667L288.178 251.671L280.874 255.784L280.288 264.147L273.894 266.821L274.218 273.743L266.307 278.817L266.328 286.219L260.845 287.454Z" fill="#F28482"/>
<path d="M269.685 260.564L238.428 262.619" stroke="#929292" stroke-width="3"/>
<path d="M198.317 512.949L201.22 518.735L194.209 521.973L186.741 515.858L178.731 521.212L171.149 512.76L166.366 516.44L161.683 510.879L153.672 516.233L148.321 511.118L141.978 513.909L130.502 507.577L127.5 511.032L118.247 502.247L114.135 508.376L102.655 499.149L93.1922 500.163L100.528 489.465L91.0611 487.583L99.9566 477.774L93.9382 473.105L102.391 465.523L95.8121 457.849L103.483 448.375L95.6872 446.826L104.361 438.13L98.7855 431.233L108.02 425.543L100.888 420.653L110.123 414.963L105.325 407.064L112.778 401.598L107.427 396.483L113.871 384.45L110.529 383.786L115.309 377.211L112.3 374.876L120.192 364.289L116.512 359.506L124.743 353.037L119.61 343.913L125.172 339.23L121.491 334.447L129.834 327.422L124.147 321.082L133.043 311.273L129.473 305.933L135.477 299.022L127.113 288.677L137.69 287.885L134.342 281.431L144.815 286.985L146.254 279.746L157.18 291.758L161.846 282.844L168.203 291.633L177.438 285.943L182.682 294.51L187.458 285.039L197.824 294.046L202.493 288.027L208.961 296.259L215.301 290.572L219.542 298.361L228.441 291.447L230.34 296.455L238.693 298.115L237.254 305.354L243.379 306.571L237.711 314.706L244.293 325.276L237.176 331.965L241.748 338.084L233.406 345.109L239.535 349.221L233.42 356.689L236.769 363.142L227.641 365.381L232.218 374.394L226.885 383.753L232.121 386.531L226.338 392.328L227.238 399.453L223.572 406.249L228.027 407.134L219.574 414.716L220.695 420.728L217.472 425.297L220.599 432.864L212.703 440.557L215.494 446.9L210.711 450.58L213.281 458.037L207.723 465.616L210.957 469.731L205.621 476.196L208.08 484.21L203.076 489.004L205.867 495.347L200.309 502.925L202.99 509.825L198.317 512.949Z" fill="#F6BD60"/>
<path d="M162.417 476.596L133.99 489.751" stroke="#929292" stroke-width="3"/>
</svg>
