<svg width="145" height="190" viewBox="0 0 145 190" fill="none" xmlns="http://www.w3.org/2000/svg">
<path d="M72.4363 189.157L0.5 11.4321L144.373 11.4321L72.4363 189.157Z" fill="#FAC2C2"/>
<path d="M143.129 11.4321C143.129 17.7378 110.843 22.8496 71.0179 22.8496C31.1923 22.8496 0.5 17.7378 0.5 11.4321C0.5 5.12639 31.1923 0.0145874 71.0179 0.0145874C110.843 0.0145874 143.129 5.12638 143.129 11.4321Z" fill="#DDA5A5"/>
<path d="M89.2308 146.612C85.5593 145.08 81.4296 145.069 77.7503 146.582C74.071 148.095 71.1434 151.008 69.6115 154.679C68.0796 158.351 68.069 162.481 69.5819 166.16C71.0949 169.839 74.0075 172.767 77.679 174.299L89.2308 146.612Z" fill="#FAC2C2"/>
<path d="M80.0336 63.627L76.6607 91.1338L54.5256 74.4593L80.0336 63.627Z" fill="#E47775"/>
<path d="M96.0297 42.0598L120.004 28.1585L120.056 55.8713L96.0297 42.0598Z" fill="#E47775"/>
<path d="M18.0744 54.2257L26.3984 27.7926L8.58301 31.7488L17.1207 53.1857L18.0744 54.2257Z" fill="#E47775"/>
<path d="M49.5065 132.905L67.0865 120.957L42.1357 108.896L42.6036 115.265L49.5065 132.905Z" fill="#E47775"/>
<path d="M81.5117 138.036L81.9936 165.745L82.2391 165.597L91.3087 143.467L81.5117 138.036Z" fill="#E47775"/>
</svg>
