<svg width="438" height="915" viewBox="0 0 438 915" fill="none" xmlns="http://www.w3.org/2000/svg">
<rect x="476.065" width="349.353" height="1023" transform="rotate(27.7337 476.065 0)" fill="#F28482"/>
<path d="M25.0005 910L491 24" stroke="#F4C7C7" stroke-width="13" stroke-dasharray="26 26"/>
<path d="M291 1040L757 154" stroke="#F4C7C7" stroke-width="13" stroke-dasharray="26 26"/>
<rect x="146.513" y="754" width="208" height="176.357" transform="rotate(26.0732 146.513 754)" fill="#84A59D"/>
<path d="M336 849.999C328.005 866.07 257.486 885.379 211.501 862.5C165.516 839.621 135.006 776.57 143.001 760.5C150.997 744.43 197.516 778.621 243.501 801.5C289.487 824.379 343.996 833.929 336 849.999Z" fill="#94B7AF"/>
<circle cx="215.001" cy="845" r="13" fill="#F5D9D9"/>
<rect x="290.473" y="603" width="91" height="86" fill="#A3A54F"/>
<path d="M226.001 853L231.001 856.5" stroke="#84A59D" stroke-width="3"/>
<path d="M211.001 838L214.751 845.25M218.501 852.5L214.751 845.25M214.751 845.25L207.001 850L221.501 841" stroke="#F28482" stroke-width="3"/>
<path d="M262.883 589.112L334.254 692.5L334.254 797.631L193 724.976L262.883 589.112Z" fill="#FAC2C2"/>
<path d="M218.473 726L209.473 745" stroke="#84A59D" stroke-width="3"/>
<path d="M225.973 730L216.973 749" stroke="#84A59D" stroke-width="3"/>
<path d="M261.973 749L252.973 768" stroke="#84A59D" stroke-width="3"/>
<path d="M269.473 753L260.473 772" stroke="#84A59D" stroke-width="3"/>
<path d="M275.473 589L266.473 608" stroke="#84A59D" stroke-width="3"/>
<path d="M282.973 593L273.973 612" stroke="#84A59D" stroke-width="3"/>
<path d="M308.973 772L299.973 791" stroke="#84A59D" stroke-width="3"/>
<path d="M316.473 776L307.473 795" stroke="#84A59D" stroke-width="3"/>
<path d="M299.119 625.781C300.018 623.017 303.928 623.017 304.826 625.781L317.576 665.023C317.978 666.259 319.13 667.096 320.43 667.096H361.691C364.597 667.096 365.806 670.815 363.455 672.523L330.073 696.776C329.022 697.54 328.582 698.894 328.983 700.13L341.734 739.373C342.632 742.137 339.469 744.435 337.117 742.727L303.736 718.474C302.685 717.71 301.261 717.71 300.209 718.474L266.828 742.727C264.477 744.435 261.313 742.137 262.211 739.373L274.962 700.13C275.364 698.894 274.924 697.54 273.872 696.776L240.491 672.523C238.14 670.815 239.348 667.096 242.254 667.096H283.516C284.815 667.096 285.967 666.259 286.369 665.023L299.119 625.781Z" fill="#F6BE61"/>
<path d="M512.091 173.51C512.855 170.49 517.145 170.49 517.909 173.51L534.505 239.192C534.964 241.004 536.95 241.961 538.653 241.189L600.353 213.213C603.19 211.927 605.865 215.282 603.979 217.761L562.976 271.689C561.844 273.177 562.335 275.327 564 276.177L624.341 306.973C627.116 308.389 626.161 312.572 623.047 312.644L555.319 314.21C553.45 314.253 552.076 315.977 552.449 317.809L565.994 384.187C566.617 387.239 562.751 389.1 560.753 386.711L517.302 334.735C516.102 333.301 513.898 333.301 512.698 334.735L469.247 386.711C467.249 389.1 463.383 387.239 464.006 384.187L477.551 317.809C477.924 315.977 476.55 314.253 474.681 314.21L406.953 312.644C403.839 312.572 402.884 308.389 405.659 306.973L466 276.177C467.665 275.327 468.156 273.177 467.024 271.689L426.021 217.761C424.135 215.282 426.81 211.927 429.647 213.213L491.347 241.189C493.05 241.961 495.036 241.004 495.495 239.192L512.091 173.51Z" fill="#F6BE61"/>
<path d="M478.939 241.574L490.975 247.031L490.768 247.487L496.787 250.215C498.773 251.116 501.091 250 501.625 247.885L503.244 241.479L502.759 241.356L505.997 228.543L506.482 228.666L509.72 215.853L509.235 215.73L512.473 202.917L512.957 203.04L514.576 196.633C515.212 194.116 518.788 194.116 519.424 196.633L521.043 203.04L521.527 202.917L524.765 215.73L524.28 215.853L527.518 228.666L528.003 228.543L531.241 241.356L530.756 241.479L532.375 247.885C532.909 250 535.227 251.116 537.213 250.215L543.232 247.487L543.025 247.031L555.061 241.574L555.268 242.029L567.304 236.572L567.098 236.116L579.134 230.659L579.341 231.114L585.359 228.386C587.723 227.314 589.952 230.109 588.381 232.176L584.382 237.436L584.78 237.738L576.781 248.258L576.383 247.956L568.384 258.476L568.782 258.779L560.783 269.299L560.385 268.996L556.385 274.256C555.065 275.993 555.637 278.501 557.58 279.492L563.466 282.496L563.693 282.051L575.465 288.058L575.237 288.504L587.009 294.511L587.236 294.066L599.007 300.074L598.78 300.519L604.666 303.523C606.978 304.703 606.182 308.189 603.587 308.249L596.981 308.402L596.992 308.902L583.78 309.207L583.769 308.707L570.556 309.013L570.568 309.512L557.356 309.818L557.344 309.318L550.738 309.471C548.557 309.521 546.953 311.532 547.39 313.669L548.711 320.144L549.201 320.044L551.843 332.993L551.353 333.093L553.995 346.042L554.485 345.942L557.127 358.891L556.638 358.991L557.959 365.465C558.478 368.009 555.256 369.56 553.591 367.569L549.353 362.499L548.969 362.82L540.493 352.68L540.876 352.359L532.4 342.22L532.016 342.541L523.54 332.401L523.923 332.081L519.685 327.011C518.286 325.338 515.714 325.338 514.315 327.011L510.077 332.081L510.46 332.401L501.984 342.541L501.6 342.22L493.124 352.359L493.507 352.68L485.031 362.82L484.647 362.499L480.409 367.569C478.744 369.56 475.522 368.009 476.041 365.465L477.362 358.991L476.873 358.891L479.515 345.942L480.005 346.042L482.647 333.093L482.157 332.993L484.799 320.044L485.289 320.144L486.61 313.669C487.047 311.532 485.443 309.521 483.262 309.471L476.656 309.318L476.644 309.818L463.432 309.512L463.444 309.013L450.231 308.707L450.22 309.207L437.008 308.902L437.019 308.402L430.413 308.249C427.818 308.189 427.022 304.703 429.334 303.523L435.22 300.519L434.993 300.074L446.764 294.066L446.991 294.511L458.763 288.504L458.535 288.058L470.307 282.051L470.534 282.496L476.42 279.492C478.363 278.501 478.935 275.993 477.615 274.256L473.615 268.996L473.217 269.299L465.218 258.779L465.616 258.476L457.617 247.956L457.219 248.258L449.22 237.738L449.618 237.436L445.619 232.176C444.048 230.109 446.277 227.314 448.641 228.386L454.659 231.114L454.866 230.659L466.902 236.116L466.696 236.572L478.732 242.029L478.939 241.574Z" stroke="#C5974B" stroke-dasharray="15 15"/>
<path d="M295.18 647.906L297.806 639.823L298.282 639.977L299.595 635.936C300.343 633.632 303.602 633.632 304.35 635.936L305.663 639.977L306.139 639.823L308.765 647.906L308.29 648.06L310.916 656.143L311.392 655.989L314.018 664.072L313.543 664.226L314.856 668.268C315.324 669.71 316.668 670.686 318.184 670.686H322.434V670.186H330.933V670.686H339.432V670.186H347.931V670.686H352.181C354.602 670.686 355.609 673.785 353.65 675.209L350.212 677.707L350.506 678.111L343.63 683.107L343.336 682.702L336.46 687.698L336.754 688.103L329.878 693.098L329.585 692.694L326.147 695.191C324.92 696.083 324.407 697.663 324.875 699.105L326.188 703.146L326.664 702.992L329.29 711.075L328.815 711.229L331.441 719.312L331.917 719.158L334.543 727.241L334.067 727.395L335.381 731.437C336.129 733.74 333.493 735.656 331.533 734.232L328.095 731.734L327.802 732.139L320.926 727.143L321.22 726.739L314.344 721.743L314.05 722.147L307.174 717.152L307.468 716.747L304.03 714.25C302.803 713.358 301.142 713.358 299.915 714.25L296.477 716.747L296.771 717.152L289.895 722.147L289.602 721.743L282.726 726.739L283.02 727.143L276.144 732.139L275.85 731.734L272.412 734.232C270.453 735.656 267.816 733.74 268.565 731.437L269.878 727.395L269.402 727.241L272.029 719.158L272.504 719.312L275.131 711.229L274.655 711.075L277.281 702.992L277.757 703.146L279.07 699.105C279.539 697.662 279.025 696.083 277.799 695.191L274.361 692.694L274.067 693.098L267.191 688.103L267.485 687.698L260.609 682.702L260.315 683.107L253.439 678.111L253.733 677.707L250.295 675.209C248.336 673.785 249.343 670.686 251.765 670.686H256.014V670.186H264.513V670.686H273.012V670.186H281.511V670.686H285.761C287.277 670.686 288.621 669.71 289.09 668.268L290.403 664.226L289.927 664.072L292.554 655.989L293.029 656.143L295.655 648.06L295.18 647.906Z" stroke="#C5974B" stroke-dasharray="8 8"/>
<path d="M331.473 599V612" stroke="#F8C4BB" stroke-width="4"/>
<path d="M340.473 599V612" stroke="#F8C4BB" stroke-width="4"/>
<path d="M372.798 650.438L385.767 649.541" stroke="#F8C4BB" stroke-width="4"/>
<path d="M372.177 641.459L385.146 640.562" stroke="#F8C4BB" stroke-width="4"/>
<circle cx="306.227" cy="484.084" r="16.3929" transform="rotate(129.42 306.227 484.084)" fill="#F5D9D9"/>
<path d="M317.326 460.803L514.389 411.565L458.499 606.846L317.326 460.803Z" fill="#A3A54F"/>
<path d="M537.264 454.568C466.492 506.058 459.099 529.804 416.306 528.634C382.072 527.699 329.873 500.664 308.052 487.263" stroke="#FAC2C2" stroke-width="4"/>
<path d="M337.088 472.819L282.212 490.462" stroke="#84A59D" stroke-width="3"/>
<path d="M316.248 485.793L306.183 483.64M296.118 481.488L306.183 483.64M306.183 483.64L307.762 472.287L304.918 493.619" stroke="#F28482" stroke-width="3"/>
<circle cx="411.655" cy="504.754" r="45.3957" transform="rotate(-132.241 411.655 504.754)" fill="#F6BE61"/>
<path d="M392.388 524.804L396.685 500.462" stroke="#B08A4A" stroke-width="4"/>
<path d="M432.454 528.449L429.295 503.933" stroke="#B08A4A" stroke-width="4"/>
</svg>
