<svg width="1374" height="586" viewBox="0 0 1374 586" fill="none" xmlns="http://www.w3.org/2000/svg">
<path d="M413 294.708C413 449.623 328.047 585.208 214 585.208C99.9532 585.208 0 449.623 0 294.708C0 139.792 93.4532 10.2076 207.5 10.2076C308 -45.7925 413 139.792 413 294.708Z" fill="#E47775"/>
<path d="M975 295.603C975 450.464 1057.07 586 1167.25 586C1277.44 586 1374 450.464 1374 295.603C1374 140.742 1283.71 11.2039 1173.53 11.2039C1076.44 -44.7762 975 140.742 975 295.603Z" fill="#E47775"/>
<path d="M238 21.2076H1137.49V553L238 556.208L238 21.2076Z" fill="#FBF6ED"/>
<rect x="236" y="551" width="901" height="35" fill="#F28482"/>
<rect x="239" y="1" width="898" height="20" fill="#F28482"/>
<path d="M619.694 571.033L619.817 570.705L621.662 562.423C621.867 561.48 622.523 560.988 623.712 560.988C625.065 560.988 625.762 561.685 625.762 563.079V563.448L624.942 567.753L622.564 576.445C622.154 577.962 621.252 578.741 619.899 578.741C618.997 578.741 618.218 578.003 617.562 576.568C616.496 574.272 615.881 573.042 615.717 572.878L615.594 572.755L613.052 576.855C612.601 577.634 611.904 578.003 611.002 578.003C609.772 578.003 608.952 577.183 608.542 575.543L605.549 563.94V563.735C605.549 562.3 606.246 561.603 607.64 561.603C608.747 561.603 609.485 562.177 609.772 563.325L611.658 570.869L614.364 566.523C614.733 565.908 615.348 565.58 616.127 565.58C617.275 565.58 618.177 566.523 618.792 568.45C619.325 570.131 619.612 570.992 619.694 571.033ZM627.733 562.464C627.733 561.07 628.43 560.373 629.824 560.373C631.095 560.373 631.751 561.029 631.833 562.3L632.448 573.903V576.158C632.448 577.101 631.792 577.593 630.439 577.593C629.168 577.593 628.471 577.06 628.43 576.035L627.733 563.12V562.464ZM634.032 565.99C634.032 564.801 634.524 564.104 635.549 563.981L647.562 562.341H647.931C649.325 562.341 650.022 562.997 650.022 564.35C650.022 565.539 649.366 566.236 648.054 566.441L643.872 567.179L643.708 567.261V575.789C643.708 576.732 643.011 577.224 641.658 577.224C640.305 577.224 639.608 576.691 639.608 575.666V567.835C639.485 567.835 638.501 567.876 636.697 567.999H636.123C634.729 567.999 634.032 567.343 634.032 565.99ZM650.454 569.393C650.454 567.958 650.618 566.728 650.946 565.785C651.889 563.202 653.406 561.89 655.415 561.89C656.276 561.89 657.178 562.054 658.121 562.382C660.048 563.079 661.032 563.981 661.032 565.17C661.032 566.523 660.335 567.22 658.982 567.22C658.613 567.22 658.326 567.138 658.039 567.015C656.768 566.4 656.03 566.072 655.825 566.072H655.456C654.923 566.359 654.636 566.974 654.636 567.917V571.607C654.636 573.329 655.989 574.19 658.695 574.19C659.515 574.19 660.007 574.108 660.171 573.985C661.073 573.288 661.688 572.919 662.016 572.919C663.41 572.919 664.107 573.616 664.107 575.051C664.107 577.224 662.303 578.29 658.695 578.29C653.201 578.29 650.454 575.338 650.454 569.393ZM674.433 563.899C674.433 562.013 675.13 561.07 676.565 561.07C677.549 561.07 678.205 561.562 678.533 562.505C678.492 563.735 678.492 564.678 678.615 565.375L680.255 575.748C680.296 575.789 680.296 575.912 680.296 576.076C680.296 577.429 679.599 578.126 678.164 578.126C677.016 578.126 676.319 577.347 676.073 575.83C675.868 574.682 675.704 573.534 675.54 572.345L675.458 572.14H674.023H671.768C670.579 572.181 669.882 572.222 669.718 572.263L669.349 572.345V575.748C669.349 576.773 668.652 577.306 667.299 577.306C666.274 577.306 665.577 576.773 665.29 575.748C665.249 572.263 665.208 570.459 665.208 570.377C665.208 570.254 665.249 568.04 665.29 563.735C665.495 562.71 666.151 562.218 667.299 562.218C668.652 562.218 669.349 562.71 669.349 563.735V568.04C670.989 568.04 672.793 567.999 674.72 567.958V567.712V567.425C674.597 565.99 674.474 564.883 674.433 564.145V563.899ZM693.586 563.899C693.586 561.029 695.595 559.594 699.654 559.594C703.467 559.594 705.353 560.701 705.353 562.956C705.353 565.17 704.451 566.277 702.688 566.277C701.54 566.277 700.843 565.785 700.638 564.76C700.515 564.227 700.474 563.94 700.433 563.94H697.891C697.809 563.94 697.768 563.981 697.768 564.063C697.768 565.293 698.506 566.195 699.941 566.81C701.868 567.589 703.098 568.245 703.631 568.737C704.943 569.926 705.599 571.402 705.599 573.165C705.599 576.855 703.836 578.7 700.31 578.7C699.326 578.7 698.219 578.536 696.948 578.167C693.873 577.306 692.356 575.871 692.356 573.78C692.356 572.427 693.053 571.73 694.406 571.73C694.939 571.73 695.308 571.812 695.513 572.017C697.399 573.657 698.998 574.477 700.269 574.477C701.089 574.477 701.499 574.067 701.499 573.247C701.499 572.796 701.253 572.386 700.761 572.017C698.506 570.951 697.112 570.213 696.661 569.762C694.611 567.876 693.586 565.908 693.586 563.899ZM727.325 563.899C727.325 562.013 728.022 561.07 729.457 561.07C730.441 561.07 731.097 561.562 731.425 562.505C731.384 563.735 731.384 564.678 731.507 565.375L733.147 575.748C733.188 575.789 733.188 575.912 733.188 576.076C733.188 577.429 732.491 578.126 731.056 578.126C729.908 578.126 729.211 577.347 728.965 575.83C728.76 574.682 728.596 573.534 728.432 572.345L728.35 572.14H726.915H724.66C723.471 572.181 722.774 572.222 722.61 572.263L722.241 572.345V575.748C722.241 576.773 721.544 577.306 720.191 577.306C719.166 577.306 718.469 576.773 718.182 575.748C718.141 572.263 718.1 570.459 718.1 570.377C718.1 570.254 718.141 568.04 718.182 563.735C718.387 562.71 719.043 562.218 720.191 562.218C721.544 562.218 722.241 562.71 722.241 563.735V568.04C723.881 568.04 725.685 567.999 727.612 567.958V567.712V567.425C727.489 565.99 727.366 564.883 727.325 564.145V563.899ZM735.039 576.322C735.039 575.297 735.162 574.272 735.449 573.247L738.647 561.685C738.934 560.66 739.59 560.127 740.615 560.127C742.009 560.127 742.87 560.619 743.157 561.562L744.182 564.965L748.569 575.707C748.692 576.076 748.774 576.404 748.774 576.732C748.774 578.085 748.077 578.782 746.724 578.782C745.863 578.782 745.207 578.29 744.797 577.347C744.1 575.666 743.69 574.846 743.649 574.805C741.312 574.723 739.959 574.682 739.631 574.682C739.426 574.682 739.303 574.928 739.262 575.42L739.057 577.142C738.77 578.044 738.114 578.495 737.089 578.495C735.736 578.495 735.039 577.757 735.039 576.322ZM740.574 570.5H741.927C741.599 569.639 741.312 569.024 741.107 568.655C741.025 568.86 740.861 569.475 740.574 570.5ZM749.545 565.99C749.545 564.801 750.037 564.104 751.062 563.981L763.075 562.341H763.444C764.838 562.341 765.535 562.997 765.535 564.35C765.535 565.539 764.879 566.236 763.567 566.441L759.385 567.179L759.221 567.261V575.789C759.221 576.732 758.524 577.224 757.171 577.224C755.818 577.224 755.121 576.691 755.121 575.666V567.835C754.998 567.835 754.014 567.876 752.21 567.999H751.636C750.242 567.999 749.545 567.343 749.545 565.99Z" fill="#F6D6D6"/>
<path d="M687.5 557.208L685.5 564.208" stroke="#F6D6D6" stroke-width="3"/>
</svg>
