<svg width="28" height="42" viewBox="0 0 28 42" fill="none" xmlns="http://www.w3.org/2000/svg">
<path d="M7.68 35.688C8.36267 34.9627 9.30133 34.6 10.496 34.6C11.6907 34.6 12.544 35.0053 13.056 35.816C14.208 37.352 13.9307 38.9093 12.224 40.488C11.584 41.0853 10.8373 41.3413 9.984 41.256C9.13067 41.1707 8.448 40.808 7.936 40.168C7.424 39.528 7.06133 38.824 6.848 38.056C6.72 37.288 6.99733 36.4987 7.68 35.688ZM27.2 11.944C27.2 13.5653 26.6453 15.1867 25.536 16.808C24.384 18.4293 22.2293 20.8187 19.072 23.976C15.9147 27.1333 13.7387 28.9253 12.544 29.352C11.3493 29.7787 10.3253 29.352 9.472 28.072C8.064 25.9387 9.64267 22.8667 14.208 18.856C16.0853 17.1493 17.4293 15.848 18.24 14.952C19.0507 14.056 19.7547 12.968 20.352 11.688L17.152 9.32C15.1893 7.82666 13.6533 7.208 12.544 7.464C11.4347 7.72 10.368 8.85067 9.344 10.856C8.32 12.8613 7.44533 14.12 6.72 14.632C5.99467 15.144 5.09867 15.272 4.032 15.016C1.81333 14.4613 1.36533 12.2213 2.688 8.296C3.28533 6.504 4.18133 4.968 5.376 3.688C6.57067 2.408 7.91467 1.53333 9.408 1.064C11.6693 0.466666 13.6107 0.295999 15.232 0.551998C16.8533 0.807997 18.816 1.78933 21.12 3.496C23.424 5.20267 25.024 6.61067 25.92 7.72C26.7733 8.872 27.2 10.28 27.2 11.944Z" fill="#F28482"/>
</svg>
