<svg width="1458" height="59" viewBox="0 0 1458 59" fill="none" xmlns="http://www.w3.org/2000/svg">
<rect x="1223" y="3" width="234" height="55" rx="13" stroke="#F6BE61" stroke-width="2"/>
<rect x="1" y="3" width="234" height="55" rx="13" stroke="#F28482" stroke-width="2"/>
<rect x="307" y="3" width="233" height="55" rx="13" stroke="#A3A54F" stroke-width="2"/>
<path d="M386.32 32.736L386.152 38.712C385.016 39.144 383.672 39.36 382.12 39.36C379.736 39.36 377.768 38.584 376.216 37.032C374.664 35.512 373.888 33.544 373.888 31.128C373.888 28.712 374.688 26.688 376.288 25.056C377.904 23.44 379.92 22.632 382.336 22.632C383.648 22.632 384.92 22.84 386.152 23.256L386.32 29.352C385.264 28.296 384.136 27.768 382.936 27.768C381.992 27.768 381.216 28.096 380.608 28.752C380.048 29.36 379.768 30.12 379.768 31.032C379.768 31.96 380.08 32.728 380.704 33.336C381.344 33.944 382.136 34.248 383.08 34.248C384.328 34.248 385.408 33.744 386.32 32.736ZM398.172 37.008H393.756L393.324 39H387.18L392.724 22.992H399.156L404.868 39H398.7L398.172 37.008ZM396.42 30.144C396.292 29.6 396.188 29 396.108 28.344H395.892C395.876 28.92 395.788 29.52 395.628 30.144L394.836 33.216H397.164L396.42 30.144ZM412.027 39H406.483V22.992H412.027L415.747 29.04C416.387 30.08 416.891 31.024 417.259 31.872H417.427C417.091 30.464 416.923 29.2 416.923 28.08V22.992H422.491V39H416.923L412.939 32.688C412.587 32.128 412.219 31.432 411.835 30.6H411.667C411.907 31.832 412.027 32.816 412.027 33.552V39ZM430.31 39L424.094 22.992H430.166L432.398 30.528C432.558 31.072 432.678 31.784 432.758 32.664H432.902C432.934 31.928 433.046 31.216 433.238 30.528L435.422 22.992H441.494L435.302 39H430.31ZM451.281 37.008H446.865L446.433 39H440.289L445.833 22.992H452.265L457.977 39H451.809L451.281 37.008ZM449.529 30.144C449.401 29.6 449.297 29 449.217 28.344H449.001C448.985 28.92 448.897 29.52 448.737 30.144L447.945 33.216H450.273L449.529 30.144ZM471.4 24.024L469.84 28.104C468.688 27.304 467.6 26.904 466.576 26.904C466.096 26.904 465.728 27 465.472 27.192C465.28 27.336 465.184 27.528 465.184 27.768C465.184 27.912 465.2 28.024 465.232 28.104C465.264 28.184 465.352 28.272 465.496 28.368C465.64 28.464 465.848 28.544 466.12 28.608L467.968 29.016C469.136 29.272 470.048 29.728 470.704 30.384C471.52 31.184 471.928 32.24 471.928 33.552C471.928 35.056 471.448 36.312 470.488 37.32C469.16 38.68 467.28 39.36 464.848 39.36C464.096 39.36 463.344 39.28 462.592 39.12C461.84 38.976 461.288 38.84 460.936 38.712C460.584 38.584 460.072 38.384 459.4 38.112L458.872 37.896L460.624 33.384L461.248 33.864C462.272 34.648 463.352 35.04 464.488 35.04C465.08 35.04 465.496 34.944 465.736 34.752C465.944 34.576 466.048 34.336 466.048 34.032C466.048 33.792 465.984 33.608 465.856 33.48C465.728 33.352 465.36 33.224 464.752 33.096L463.336 32.832C462.152 32.608 461.224 32.152 460.552 31.464C459.784 30.68 459.4 29.696 459.4 28.512C459.4 27.008 459.92 25.736 460.96 24.696C462.304 23.32 464.16 22.632 466.528 22.632C468.24 22.632 469.864 23.096 471.4 24.024Z" fill="#A3A54F"/>
<rect x="611" y="3" width="235" height="55" rx="13" stroke="#F5CAC3" stroke-width="2"/>
<path d="M658.32 31.736L658.152 37.712C657.016 38.144 655.672 38.36 654.12 38.36C651.736 38.36 649.768 37.584 648.216 36.032C646.664 34.512 645.888 32.544 645.888 30.128C645.888 27.712 646.688 25.688 648.288 24.056C649.904 22.44 651.92 21.632 654.336 21.632C655.648 21.632 656.92 21.84 658.152 22.256L658.32 28.352C657.264 27.296 656.136 26.768 654.936 26.768C653.992 26.768 653.216 27.096 652.608 27.752C652.048 28.36 651.768 29.12 651.768 30.032C651.768 30.96 652.08 31.728 652.704 32.336C653.344 32.944 654.136 33.248 655.08 33.248C656.328 33.248 657.408 32.744 658.32 31.736ZM670.172 36.008H665.756L665.324 38H659.18L664.724 21.992H671.156L676.868 38H670.7L670.172 36.008ZM668.42 29.144C668.292 28.6 668.188 28 668.108 27.344H667.892C667.876 27.92 667.788 28.52 667.628 29.144L666.836 32.216H669.164L668.42 29.144ZM685.292 38H679.58V27.056L676.316 27.2V21.992H688.556V27.2L685.292 27.056V38ZM702.054 31.736L701.886 37.712C700.75 38.144 699.406 38.36 697.854 38.36C695.47 38.36 693.502 37.584 691.95 36.032C690.398 34.512 689.622 32.544 689.622 30.128C689.622 27.712 690.422 25.688 692.022 24.056C693.638 22.44 695.654 21.632 698.07 21.632C699.382 21.632 700.654 21.84 701.886 22.256L702.054 28.352C700.998 27.296 699.87 26.768 698.67 26.768C697.726 26.768 696.95 27.096 696.342 27.752C695.782 28.36 695.502 29.12 695.502 30.032C695.502 30.96 695.814 31.728 696.438 32.336C697.078 32.944 697.87 33.248 698.814 33.248C700.062 33.248 701.142 32.744 702.054 31.736ZM710.114 38H704.522V21.992H710.114V27.416H713.666V21.992H719.258V38H713.666V32.432H710.114V38ZM737.461 36.008H733.045L732.613 38H726.469L732.013 21.992H738.445L744.157 38H737.989L737.461 36.008ZM735.709 29.144C735.581 28.6 735.477 28 735.397 27.344H735.181C735.165 27.92 735.077 28.52 734.917 29.144L734.125 32.216H736.453L735.709 29.144ZM763.182 23.024L761.622 27.104C760.47 26.304 759.382 25.904 758.358 25.904C757.878 25.904 757.51 26 757.254 26.192C757.062 26.336 756.966 26.528 756.966 26.768C756.966 26.912 756.982 27.024 757.014 27.104C757.046 27.184 757.134 27.272 757.278 27.368C757.422 27.464 757.63 27.544 757.902 27.608L759.75 28.016C760.918 28.272 761.83 28.728 762.486 29.384C763.302 30.184 763.71 31.24 763.71 32.552C763.71 34.056 763.23 35.312 762.27 36.32C760.942 37.68 759.062 38.36 756.63 38.36C755.878 38.36 755.126 38.28 754.374 38.12C753.622 37.976 753.07 37.84 752.718 37.712C752.366 37.584 751.854 37.384 751.182 37.112L750.654 36.896L752.406 32.384L753.03 32.864C754.054 33.648 755.134 34.04 756.27 34.04C756.862 34.04 757.278 33.944 757.518 33.752C757.726 33.576 757.83 33.336 757.83 33.032C757.83 32.792 757.766 32.608 757.638 32.48C757.51 32.352 757.142 32.224 756.534 32.096L755.118 31.832C753.934 31.608 753.006 31.152 752.334 30.464C751.566 29.68 751.182 28.696 751.182 27.512C751.182 26.008 751.702 24.736 752.742 23.696C754.086 22.32 755.942 21.632 758.31 21.632C760.022 21.632 761.646 22.096 763.182 23.024ZM773.746 38H768.034V27.056L764.77 27.2V21.992H777.01V27.2L773.746 27.056V38ZM787.453 36.008H783.037L782.605 38H776.461L782.005 21.992H788.437L794.149 38H787.981L787.453 36.008ZM785.701 29.144C785.573 28.6 785.469 28 785.389 27.344H785.173C785.157 27.92 785.069 28.52 784.909 29.144L784.117 32.216H786.445L785.701 29.144ZM801.428 38H795.764V21.992H802.988C804.012 21.992 804.916 22.104 805.7 22.328C806.5 22.552 807.228 22.992 807.884 23.648C808.892 24.656 809.396 25.968 809.396 27.584C809.396 28.768 809.1 29.72 808.508 30.44C807.98 31.096 807.244 31.52 806.3 31.712V31.856C806.668 32.048 806.948 32.296 807.14 32.6L810.74 38H804.044L801.74 33.32L801.644 33.152C801.596 33.04 801.556 32.928 801.524 32.816L801.428 32.864V38ZM801.428 26.384V29.12H802.1C802.644 29.12 803.052 29 803.324 28.76C803.596 28.52 803.732 28.192 803.732 27.776C803.732 27.36 803.628 27.04 803.42 26.816C803.164 26.528 802.836 26.384 802.436 26.384H801.428Z" fill="#F8C4BB"/>
<rect x="918" y="1" width="234" height="55" rx="13" stroke="#84A59D" stroke-width="2"/>
<path d="M951.416 37H945.608V20.992H956.288V25.552H951.416V27.184H955.688V31.408H951.416V37ZM964.424 37H958.616V20.992H964.424V37ZM973.183 37H967.639V20.992H973.183L976.903 27.04C977.543 28.08 978.047 29.024 978.415 29.872H978.583C978.247 28.464 978.079 27.2 978.079 26.08V20.992H983.647V37H978.079L974.095 30.688C973.743 30.128 973.375 29.432 972.991 28.6H972.823C973.063 29.832 973.183 30.816 973.183 31.552V37ZM994.466 37H986.858V20.992H993.026C996.114 20.992 998.474 21.8 1000.11 23.416C1001.55 24.856 1002.27 26.784 1002.27 29.2C1002.27 31.52 1001.58 33.368 1000.2 34.744C998.73 36.248 996.818 37 994.466 37ZM992.618 25.888V32.104H993.05C994.138 32.104 994.962 31.856 995.522 31.36C996.146 30.816 996.458 30.048 996.458 29.056C996.458 28.048 996.146 27.248 995.522 26.656C994.978 26.144 994.218 25.888 993.242 25.888H992.618ZM1019.73 35.008H1015.31L1014.88 37H1008.73L1014.28 20.992H1020.71L1026.42 37H1020.25L1019.73 35.008ZM1017.97 28.144C1017.85 27.6 1017.74 27 1017.66 26.344H1017.45C1017.43 26.92 1017.34 27.52 1017.18 28.144L1016.39 31.216H1018.72L1017.97 28.144ZM1045.35 30.736L1045.18 36.712C1044.05 37.144 1042.7 37.36 1041.15 37.36C1038.77 37.36 1036.8 36.584 1035.25 35.032C1033.7 33.512 1032.92 31.544 1032.92 29.128C1032.92 26.712 1033.72 24.688 1035.32 23.056C1036.94 21.44 1038.95 20.632 1041.37 20.632C1042.68 20.632 1043.95 20.84 1045.18 21.256L1045.35 27.352C1044.3 26.296 1043.17 25.768 1041.97 25.768C1041.02 25.768 1040.25 26.096 1039.64 26.752C1039.08 27.36 1038.8 28.12 1038.8 29.032C1038.8 29.96 1039.11 30.728 1039.74 31.336C1040.38 31.944 1041.17 32.248 1042.11 32.248C1043.36 32.248 1044.44 31.744 1045.35 30.736ZM1064.86 28.984C1064.86 31.336 1064.11 33.272 1062.63 34.792C1060.95 36.504 1058.73 37.36 1055.98 37.36C1053.23 37.36 1051.01 36.504 1049.33 34.792C1047.84 33.272 1047.1 31.336 1047.1 28.984C1047.1 26.648 1047.84 24.72 1049.33 23.2C1051.01 21.488 1053.23 20.632 1055.98 20.632C1058.73 20.632 1060.95 21.488 1062.63 23.2C1064.11 24.72 1064.86 26.648 1064.86 28.984ZM1055.98 25.792C1055.1 25.792 1054.4 26.064 1053.89 26.608C1053.28 27.248 1052.98 28.048 1052.98 29.008C1052.98 29.984 1053.28 30.776 1053.89 31.384C1054.43 31.928 1055.13 32.2 1055.98 32.2C1056.83 32.2 1057.52 31.928 1058.07 31.384C1058.67 30.776 1058.98 29.984 1058.98 29.008C1058.98 27.984 1058.67 27.184 1058.07 26.608C1057.52 26.064 1056.83 25.792 1055.98 25.792ZM1067.37 31.216V20.992H1073.13V30.28C1073.13 31.016 1073.29 31.56 1073.63 31.912C1073.9 32.2 1074.29 32.344 1074.78 32.344C1075.31 32.344 1075.7 32.216 1075.96 31.96C1076.25 31.672 1076.39 31.112 1076.39 30.28V20.992H1082.17V30.808C1082.17 32.696 1081.61 34.216 1080.49 35.368C1079.2 36.696 1077.29 37.36 1074.78 37.36C1072.13 37.36 1070.14 36.656 1068.83 35.248C1067.85 34.192 1067.37 32.848 1067.37 31.216ZM1091.05 37H1085.39V20.992H1093.07C1095.02 20.992 1096.58 21.552 1097.75 22.672C1098.84 23.744 1099.38 25.144 1099.38 26.872C1099.38 28.584 1098.85 29.92 1097.8 30.88C1096.84 31.744 1095.53 32.176 1093.86 32.176H1091.05V37ZM1091.05 25.384V28.144H1092.04C1092.61 28.144 1093.05 28 1093.33 27.712C1093.59 27.488 1093.72 27.16 1093.72 26.728C1093.72 26.296 1093.57 25.968 1093.29 25.744C1093 25.504 1092.61 25.384 1092.11 25.384H1091.05ZM1112.1 37H1101.4V20.992H1107.21V31.84H1112.1V37ZM1125 37H1114.05V20.992H1124.85V25.384H1119.86V26.872H1124.4V31.072H1119.86V32.608H1125V37Z" fill="#84A59D"/>
</svg>
