<svg width="725" height="718" viewBox="0 0 725 718" fill="none" xmlns="http://www.w3.org/2000/svg">
<rect x="143.741" y="490.204" width="240.199" height="441.351" rx="13" transform="rotate(-89.8813 143.741 490.204)" fill="#F8C4BB"/>
<rect x="185.18" y="478.458" width="216.534" height="332.492" transform="rotate(-89.8813 185.18 478.458)" fill="#FDF0E6"/>
<rect x="160.173" y="405.756" width="60.3455" height="11.8325" rx="5.91623" transform="rotate(-91.4038 160.173 405.756)" fill="#E69290"/>
<circle cx="549.844" cy="370.354" r="19.9817" transform="rotate(-89.8813 549.844 370.354)" fill="#F8C4BB" stroke="#E69290" stroke-width="5"/>
<path d="M156.008 560.876C203.959 600.971 330.363 637.574 411.143 621.041C491.924 604.508 547.123 582.858 569.779 554.373M569.779 554.373L536.638 546.391M569.779 554.373L572.252 585.949" stroke="#F8C4BB" stroke-width="14" stroke-linecap="round"/>
<path d="M568.778 156.585C520.827 116.491 394.423 79.8876 313.643 96.4206C232.862 112.954 177.663 134.604 155.008 163.089M155.008 163.089L188.148 171.071M155.008 163.089L152.534 131.513" stroke="#F8C4BB" stroke-width="14" stroke-linecap="round"/>
</svg>
