<svg width="309" height="371" viewBox="0 0 309 371" fill="none" xmlns="http://www.w3.org/2000/svg">
<path fill-rule="evenodd" clip-rule="evenodd" d="M225.36 0L225.35 0.0165867L225.351 0.00222201L225.36 0ZM225.35 0.0165867L219.72 47.3644L202.71 124L265.722 81.5362L308.13 61.1277L289.11 81.3437L266.794 106.097L228.177 142.331L187.457 177.5L177.747 209.654C177.76 215.748 178.05 225.153 179.59 236.456C181.076 247.383 182.891 253.953 184.433 259.532L184.433 259.533L184.433 259.533C185.772 264.381 186.905 268.481 187.435 274.042C189.481 295.524 180.032 313.521 174.293 324.453L173.916 325.171C168.336 335.813 154.709 361.795 129.876 368.685L129.873 368.686C126.042 369.749 108.845 374.521 100.459 365.26C97.8981 362.432 96.8708 359.074 96.4079 356.64L94.8832 341.923L97.5116 324.472L107.456 292.99L127.081 252.469L135.761 240.471L144.441 230.568L156.386 221.795L160.725 218.326L151.671 192.799C135.782 191.971 125.28 193.363 115.949 195.436C109.309 196.907 98.6572 199.346 86.03 205.63C81.6075 207.833 79.4042 209.282 76.9509 210.895C74.5763 212.456 71.9674 214.171 66.885 216.874L66.8717 216.881C52.5398 224.5 45.3758 228.308 37.0784 228.579C24.6384 228.986 8.97595 222.572 2.78001 208.521C1.66733 205.992 -2.16106 196.373 1.65363 185.433C6.53615 171.445 20.164 166.057 23.9897 164.544L23.9967 164.541C24.0826 164.507 24.1797 164.468 24.2883 164.424C26.4698 163.54 33.2966 160.773 47.1193 162.206C56.2978 163.158 68.2529 166.363 85.1156 171.339L101.183 173.173L144.373 174.555L160.718 161.164L161.405 158.76L165.896 143.055L201.603 44.7492L214.785 16.7473L225.35 0.0165867ZM115.785 358.459C102.5 347.283 110.908 326.388 125.437 299.967C128.403 294.574 131.159 288.936 133.811 283.509C143.608 263.469 151.995 246.31 164.322 254.998C174.732 262.34 180.555 299.099 164.449 324.603C148.344 350.107 125.543 366.671 115.785 358.459ZM39 219.5C55.1152 217.104 71.1524 202.244 69.4467 190.772C67.7411 179.3 53.2944 171.942 37.1792 174.338C21.0639 176.734 9.38261 187.977 11.0882 199.448C12.7939 210.92 22.8847 221.896 39 219.5Z" fill="#534842"/>
<circle cx="171.5" cy="178.5" r="6.5" fill="#736258"/>
<path fill-rule="evenodd" clip-rule="evenodd" d="M202.71 124.623L187.457 178.762L228.177 143.173L266.794 106.507L289.11 81.4574L308.13 61L265.722 81.6522L202.71 124.623ZM144.373 174.831L160.5 161.651L160 171.421L151.671 193.294C135.782 192.455 125.28 193.864 115.949 195.962C109.309 197.451 98.6572 199.918 86.03 206.277C81.6074 208.507 79.4042 209.973 76.9509 211.605C74.5763 213.185 71.9674 214.92 66.885 217.655L66.8714 217.663C52.5397 225.373 45.3758 229.227 37.0784 229.5C24.6384 229.913 8.97595 223.421 2.78001 209.203C1.66733 206.643 -2.16106 196.91 1.65363 185.839C6.53615 171.684 20.164 166.231 23.9897 164.701L23.9967 164.698C24.0826 164.664 24.1797 164.624 24.2883 164.579C26.4698 163.685 33.2966 160.885 47.1193 162.334C56.2978 163.298 68.2529 166.541 85.1156 171.576L101.183 173.433L144.373 174.831ZM42.4746 216.794C55.8414 213.294 64.3779 201.465 61.5413 190.373C58.7048 179.281 45.5695 173.128 32.2027 176.628C18.8359 180.128 10.2995 191.958 13.136 203.049C15.9725 214.141 29.1078 220.295 42.4746 216.794Z" fill="#453B35"/>
</svg>
