<svg width="515" height="374" viewBox="0 0 515 374" fill="none" xmlns="http://www.w3.org/2000/svg">
<path d="M67.2122 319.208H65.9292V331.353H67.2122V319.208Z" fill="#E28FA4"/>
<path d="M86.796 363.519C86.796 366.188 77.0718 369.992 68.2255 369.992C59.3792 369.992 51.3433 368.791 51.3433 366.122C51.3433 363.452 59.3117 360.316 68.2255 360.316C77.1393 360.316 86.796 360.783 86.796 363.452V363.519Z" fill="#AD6678"/>
<path d="M60.2567 330.953H72.7495C73.0872 332.221 73.0196 333.556 73.4248 334.824C76.9363 346.435 81.5283 355.978 87.4033 363.853L81.5958 365.988L78.0843 363.586L72.6145 366.522H66.6044L67.0096 361.117L63.6331 366.188L51.0728 366.322C52.2883 364.587 52.9636 362.918 54.044 360.85C59.5139 350.373 60.7294 340.096 60.4593 333.022L60.3242 330.886L60.2567 330.953Z" fill="#F08AA4"/>
<path d="M133.056 318.147L131.854 318.588L136.132 329.974L137.335 329.532L133.056 318.147Z" fill="#E28FA4"/>
<path d="M167.025 352.948C167.966 355.451 160.19 362.362 151.897 365.405C143.604 368.449 135.648 370.087 134.707 367.585C133.767 365.083 140.132 359.401 148.488 356.334C156.844 353.268 166.062 350.383 167.002 352.886L167.025 352.948Z" fill="#AD6678"/>
<path d="M130.674 331.55L142.385 327.252C143.148 328.324 143.555 329.599 144.382 330.648C151.764 340.325 159.431 347.691 167.712 353.052L163.021 357.052L158.782 358.581L154.393 357.052L154.789 360.642L149.155 362.71L147.631 357.503L146.252 363.419L134.524 367.866C135.053 365.821 135.098 364.025 135.382 361.714C136.819 350.01 134.338 339.958 131.593 333.419L130.714 331.464L130.674 331.55Z" fill="#F08AA4"/>
<path d="M113.423 319.208C114.753 320.916 116.614 324.753 113.423 326.441C110.233 328.129 109.677 328.551 109.798 328.551" stroke="#E28FA4" stroke-width="2"/>
<path d="M120.005 362.677C119.113 365.197 108.935 365.564 101.135 362.869C93.3342 360.174 86.5717 356.619 87.4631 354.099C88.3546 351.579 96.5061 351.019 104.366 353.735C112.226 356.45 120.585 359.833 119.694 362.353L120.005 362.677Z" fill="#AD6678"/>
<path d="M106.172 324.898L117.457 328.798C117.357 330.048 116.87 331.233 116.831 332.505C116.292 344.091 117.39 354.145 120.181 363.092L114.252 363.209L109.738 362.676L109.738 360.441L106.507 359.164L100.538 359.012L102.632 354.255L97.9608 357.783L91.6426 355.97L89.0578 354.255L86.4726 353.735C88.1252 352.547 89.3671 351.499 91.0044 349.968C99.2942 342.21 103.677 333.305 105.693 326.831L106.254 324.859L106.172 324.898Z" fill="#F08AA4"/>
<path d="M321.85 317.941H323.25V331.201H321.85V317.941Z" fill="#E28FA4"/>
<path d="M300.469 366.318C300.469 369.233 311.086 373.385 320.744 373.385C330.402 373.385 339.175 372.074 339.175 369.16C339.175 366.245 330.476 362.821 320.744 362.821C311.012 362.821 300.469 363.331 300.469 366.245V366.318Z" fill="#AD6678"/>
<path d="M329.444 330.764H315.804C315.436 332.148 315.509 333.605 315.067 334.99C311.233 347.667 306.22 358.085 299.806 366.683L306.146 369.014L309.98 366.391L315.952 369.597H322.513L322.071 363.695L325.757 369.233L339.47 369.378C338.143 367.484 337.406 365.663 336.226 363.404C330.254 351.965 328.927 340.745 329.222 333.022L329.37 330.691L329.444 330.764Z" fill="#F08AA4"/>
<path d="M229.282 314.897L230.65 314.603L233.499 327.561L232.13 327.855L229.282 314.897Z" fill="#E28FA4"/>
<path d="M218.782 366.657C219.408 369.505 230.674 371.336 240.112 369.31C249.55 367.283 257.842 364.161 257.216 361.313C256.59 358.465 247.353 356.944 237.843 358.986C228.333 361.028 218.14 363.738 218.766 366.586L218.782 366.657Z" fill="#AD6678"/>
<path d="M239.457 325.834L226.129 328.696C226.066 330.126 226.451 331.535 226.316 332.98C225.294 346.173 222.633 357.406 218.212 367.153L224.909 368.101L229.717 367.04L232.842 363.081L234.616 366.613L241.028 365.236L239.328 359.562L244.12 364.2L257.551 361.465C255.848 359.892 254.736 358.267 253.098 356.307C244.805 346.382 241.097 335.697 239.726 328.088L239.37 325.779L239.457 325.834Z" fill="#F08AA4"/>
<path d="M271.399 317.941C269.947 319.805 267.915 323.995 271.399 325.838C274.882 327.68 275.489 328.141 275.357 328.141" stroke="#E28FA4" stroke-width="2"/>
<path d="M264.213 365.399C265.187 368.151 276.299 368.551 284.815 365.609C293.331 362.666 300.714 358.785 299.741 356.034C298.768 353.283 289.868 352.671 281.287 355.636C272.706 358.601 263.58 362.294 264.553 365.045L264.213 365.399Z" fill="#AD6678"/>
<path d="M279.316 324.154L266.994 328.41C267.104 329.776 267.636 331.069 267.679 332.458C268.267 345.107 267.068 356.084 264.021 365.852L270.494 365.98L275.423 365.398L275.423 362.958L278.95 361.563L285.466 361.398L283.18 356.204L288.28 360.056L295.178 358.077L298 356.205L300.823 355.637C299.018 354.339 297.663 353.195 295.875 351.523C286.824 343.054 282.04 333.332 279.838 326.263L279.226 324.111L279.316 324.154Z" fill="#F08AA4"/>
<path d="M216.964 366.601C216.058 369.352 205.716 369.753 197.789 366.81C189.862 363.868 182.99 359.987 183.896 357.236C184.802 354.485 193.086 353.873 201.073 356.838C209.06 359.803 217.554 363.496 216.648 366.247L216.964 366.601Z" fill="#AD6678"/>
<path d="M363.704 319.208H362.421V331.353H363.704V319.208Z" fill="#E28FA4"/>
<path d="M383.289 363.519C383.289 366.188 373.564 369.992 364.718 369.992C355.872 369.992 347.836 368.791 347.836 366.122C347.836 363.452 355.804 360.316 364.718 360.316C373.632 360.316 383.289 360.783 383.289 363.452V363.519Z" fill="#AD6678"/>
<path d="M356.749 330.953H369.242C369.58 332.221 369.512 333.556 369.917 334.824C373.429 346.435 378.021 355.978 383.896 363.853L378.089 365.988L374.577 363.586L369.107 366.522H363.097L363.502 361.117L360.126 366.188L347.565 366.322C348.781 364.587 349.456 362.918 350.537 360.85C356.007 350.373 357.222 340.096 356.952 333.022L356.817 330.886L356.749 330.953Z" fill="#F08AA4"/>
<path d="M429.549 318.147L428.346 318.588L432.625 329.974L433.828 329.532L429.549 318.147Z" fill="#E28FA4"/>
<path d="M463.518 352.948C464.459 355.451 456.683 362.362 448.39 365.405C440.097 368.449 432.14 370.087 431.2 367.585C430.26 365.083 436.625 359.401 444.981 356.334C453.337 353.268 462.554 350.383 463.495 352.886L463.518 352.948Z" fill="#AD6678"/>
<path d="M427.167 331.55L438.878 327.252C439.641 328.324 440.048 329.599 440.875 330.648C448.257 340.325 455.924 347.691 464.205 353.052L459.513 357.052L455.275 358.581L450.885 357.052L451.282 360.642L445.648 362.71L444.123 357.503L442.745 363.419L431.017 367.866C431.545 365.821 431.591 364.025 431.875 361.714C433.311 350.01 430.831 339.958 428.085 333.419L427.206 331.464L427.167 331.55Z" fill="#F08AA4"/>
<path d="M409.917 319.208C411.246 320.916 413.107 324.753 409.917 326.441C406.726 328.129 406.17 328.551 406.291 328.551" stroke="#E28FA4" stroke-width="2"/>
<path d="M416.498 362.677C415.606 365.197 405.428 365.564 397.628 362.869C389.827 360.174 383.065 356.619 383.956 354.099C384.848 351.579 392.999 351.019 400.859 353.735C408.719 356.45 417.078 359.833 416.187 362.353L416.498 362.677Z" fill="#AD6678"/>
<path d="M402.664 324.898L413.95 328.798C413.85 330.048 413.362 331.233 413.323 332.505C412.784 344.091 413.883 354.145 416.674 363.092L410.745 363.209L406.23 362.676L406.23 360.441L402.999 359.164L397.031 359.012L399.125 354.255L394.453 357.783L388.135 355.97L385.55 354.255L382.965 353.735C384.618 352.547 385.86 351.499 387.497 349.968C395.787 342.21 400.169 333.305 402.186 326.831L402.747 324.859L402.664 324.898Z" fill="#F08AA4"/>
<path d="M203.456 325.421L214.789 329.678C214.688 331.043 214.199 332.337 214.159 333.725C213.618 346.374 214.722 357.351 217.524 367.119L211.57 367.247L207.037 366.665L207.037 364.225L203.792 362.83L197.799 362.665L199.901 357.472L195.21 361.323L188.866 359.344L186.27 357.472L183.674 356.904C185.333 355.607 186.58 354.462 188.225 352.79C196.549 344.321 200.95 334.599 202.976 327.53L203.538 325.378L203.456 325.421Z" fill="#F08AA4"/>
<path d="M205.6 327.2C206.933 326.429 209.6 324.371 209.6 322.314C209.6 320.257 209.115 318.714 208.873 318.2" stroke="#E28FA4" stroke-width="2"/>
<path d="M506.9 280.4C511.4 280.4 515 276.2 515 270.8V196.4C515 191.1 511.3 186.8 506.9 186.8C491.3 186.8 478.3 173.6 475.3 156C474.5 151.5 471.3 148.2 467.5 148.2H53.4C49.6 148.2 46.3 151.5 45.6 156C42.6 173.6 29.6 186.8 14 186.8C-1.59997 186.8 10.8 186.7 9.20001 186.4C4.40001 185.5 0 190 0 195.9V271.3C0 277.1 4.30001 281.6 9.20001 280.8C14.1 280 12.4 280.4 14 280.4C29.6 280.4 42.6 293.6 45.6 311.2C48.6 328.8 49.6 319 53.4 319H467.5C471.3 319 474.6 315.7 475.3 311.2C478.3 293.6 491.3 280.4 506.9 280.4Z" fill="#F08AA4"/>
<path d="M498.4 276.4C502.7 276.4 506.2 272.6 506.2 267.7V200.3C506.2 195.5 502.7 191.6 498.4 191.6C483.4 191.6 470.8 179.6 467.9 163.7C467.2 159.6 464 156.7 460.3 156.7H60.3999C56.6999 156.7 53.5999 159.7 52.7999 163.7C49.8999 179.6 37.2999 191.6 22.2999 191.6C7.29993 191.6 19.1999 191.5 17.6999 191.2C12.9999 190.4 8.8999 194.5 8.8999 199.8V268.1C8.8999 273.4 13.0999 277.4 17.6999 276.7C22.2999 276 20.6999 276.3 22.2999 276.3C37.2999 276.3 49.8999 288.3 52.7999 304.2C53.4999 308.3 56.6999 311.2 60.3999 311.2H460.3C464 311.2 467.1 308.2 467.9 304.2C470.8 288.3 483.4 276.3 498.4 276.3V276.4Z" stroke="#AF7181" stroke-miterlimit="10"/>
<path d="M57.5001 162.6C59.1017 162.6 60.4001 161.302 60.4001 159.7C60.4001 158.098 59.1017 156.8 57.5001 156.8C55.8985 156.8 54.6001 158.098 54.6001 159.7C54.6001 161.302 55.8985 162.6 57.5001 162.6Z" fill="#526762"/>
<path d="M458.8 159.7C460.402 159.7 461.7 158.402 461.7 156.8C461.7 155.198 460.402 153.9 458.8 153.9C457.198 153.9 455.9 155.198 455.9 156.8C455.9 158.402 457.198 159.7 458.8 159.7Z" fill="#526762"/>
<path d="M56.3999 159.7C116 114.4 198.5 47.2 258 2L458.8 156.8" stroke="#AF7181" stroke-width="3" stroke-miterlimit="10"/>
<path d="M30.5601 237.432H38.4321C42.7841 237.432 45.4401 237.56 46.4001 237.816C47.3601 238.072 47.8401 238.808 47.8401 240.024C47.8401 241.24 47.3921 241.976 46.4961 242.232C45.6001 242.488 42.9761 242.6 38.6241 242.568H30.5601C30.5601 248.296 30.3681 251.544 29.9841 252.312C29.6321 253.08 29.0081 253.528 28.1121 253.656C27.2161 253.784 26.4481 253.544 25.8081 252.936C25.3921 252.52 25.1521 251.704 25.0881 250.488C25.0241 249.272 25.0721 245.416 25.2321 238.92C25.3921 232.424 25.4721 228.072 25.4721 225.864C25.4401 225.192 25.7761 224.504 26.4801 223.8C27.1841 223.096 27.8401 222.696 28.4481 222.6C29.0561 222.504 30.8001 222.52 33.6801 222.648C36.5601 222.776 39.2001 223.128 41.6001 223.704C44.0001 224.28 45.6481 224.936 46.5441 225.672C47.0561 226.088 47.3121 226.632 47.3121 227.304C47.3121 227.976 47.0561 228.584 46.5441 229.128C46.0321 229.672 45.4241 229.944 44.7201 229.944C44.0161 229.944 42.7201 229.624 40.8321 228.984C38.9761 228.344 35.5521 228.056 30.5601 228.12V237.432ZM66.5676 227.4C65.2876 226.728 64.4556 226.376 64.0716 226.344C63.6876 226.312 62.9996 226.52 62.0076 226.968C59.9916 227.8 58.5676 228.824 57.7356 230.04C56.9036 231.256 56.3596 232.984 56.1036 235.224C55.8476 237.464 56.3916 239.32 57.7356 240.792C59.0796 242.264 60.9036 243.032 63.2076 243.096C64.5516 243.096 65.7356 242.84 66.7596 242.328C67.7836 241.816 68.8076 241.016 69.8316 239.928C70.8556 238.776 71.5436 237.624 71.8956 236.472C72.2476 235.32 72.2156 234.312 71.7996 233.448C70.4556 230.504 68.7116 228.488 66.5676 227.4ZM50.7276 236.136C50.7276 232.616 51.6876 229.56 53.6076 226.968C55.5276 224.376 58.1356 222.568 61.4316 221.544C62.5516 221.192 63.6236 221.096 64.6476 221.256C65.6716 221.416 66.9356 221.848 68.4396 222.552C70.9676 223.704 73.0636 225.496 74.7276 227.928C76.3916 230.36 77.2396 232.824 77.2716 235.32C77.2396 237.816 76.2316 240.312 74.2476 242.808C72.2636 245.304 69.8956 247 67.1436 247.896C64.3916 248.728 61.7356 248.728 59.1756 247.896C56.6156 247.064 54.5676 245.592 53.0316 243.48C51.4956 241.368 50.7276 238.92 50.7276 236.136ZM93.3171 226.392C91.4611 225.432 90.0051 224.952 88.9491 224.952C87.8931 224.952 86.7091 225.272 85.3971 225.912C85.6531 231.064 85.9091 233.912 86.1651 234.456C86.3891 234.712 87.5891 234.584 89.7651 234.072C91.9411 233.56 93.6691 232.952 94.9491 232.248C96.2291 231.544 97.0291 230.92 97.3491 230.376C97.6691 229.832 97.5411 229.272 96.9651 228.696C96.3891 228.12 95.1731 227.352 93.3171 226.392ZM100.469 253.32C99.5411 253.32 98.7731 252.92 98.1651 252.12C97.7491 251.608 95.9251 249.864 92.6931 246.888C89.4611 243.912 87.5891 242.264 87.0771 241.944C86.8851 241.816 86.8211 243.128 86.8851 245.88C86.9491 248.632 86.9331 250.264 86.8371 250.776C86.7411 251.288 86.4211 251.72 85.8771 252.072C85.1411 252.616 84.3891 252.728 83.6211 252.408C82.8531 252.088 82.3731 251.56 82.1811 250.824C81.9891 250.088 81.7971 248.12 81.6051 244.92C81.4131 241.72 81.0771 239.768 80.5971 239.064C80.1491 238.36 80.0531 237.704 80.3091 237.096C80.5651 236.488 80.5811 234.04 80.3571 229.752C80.1331 225.464 80.0851 223.096 80.2131 222.648C80.3731 221.816 80.7571 221.176 81.3651 220.728C81.9731 220.28 82.6611 220.152 83.4291 220.344C84.1971 220.536 84.9331 220.504 85.6371 220.248C87.0451 219.672 88.7411 219.576 90.7251 219.96C92.7091 220.344 94.9171 221.24 97.3491 222.648C99.7811 224.056 101.429 225.528 102.293 227.064C103.157 228.6 103.157 230.312 102.293 232.2C101.685 233.512 100.773 234.648 99.5571 235.608C98.3411 236.568 96.5651 237.464 94.2291 238.296L91.9731 239.16C98.1491 244.504 101.701 247.928 102.629 249.432C103.013 250.136 103.205 250.648 103.205 250.968C103.205 251.288 102.981 251.768 102.533 252.408C102.085 253.048 101.397 253.352 100.469 253.32ZM120.007 227.16C119.655 227.16 119.575 227.432 119.767 227.976C119.959 228.904 120.135 232.344 120.295 238.296C120.487 244.248 120.551 247.864 120.487 249.144C120.423 250.424 120.183 251.256 119.767 251.64C119.351 252.024 118.791 252.248 118.087 252.312C117.383 252.376 116.791 252.216 116.311 251.832C115.831 251.448 115.495 250.232 115.303 248.184C115.111 246.136 114.919 241.928 114.727 235.56L114.439 226.968L110.935 226.728C109.111 226.568 107.847 226.296 107.143 225.912C106.439 225.528 106.087 224.792 106.087 223.704C106.087 222.616 106.663 221.912 107.815 221.592C108.967 221.272 110.855 221.256 113.479 221.544C116.103 221.832 117.767 221.944 118.471 221.88C119.175 221.816 120.167 221.56 121.447 221.112C122.727 220.6 123.655 220.312 124.231 220.248C124.807 220.184 125.447 220.312 126.151 220.632C126.663 220.952 126.951 221.56 127.015 222.456C127.079 223.352 126.887 224.024 126.439 224.472C125.991 224.92 124.919 225.48 123.223 226.152C121.559 226.824 120.487 227.16 120.007 227.16ZM149.867 222.36C150.251 221.528 150.875 221.112 151.739 221.112C152.603 221.112 153.195 221.208 153.515 221.4C153.835 221.592 154.091 222.088 154.283 222.888C154.475 223.688 154.555 224.888 154.523 226.488C154.459 228.088 154.427 230.248 154.427 232.968C154.171 241.32 154.507 246.728 155.435 249.192C155.627 249.608 155.371 250.232 154.667 251.064C153.963 251.896 153.355 252.328 152.843 252.36C152.331 252.328 151.739 251.864 151.067 250.968C150.395 250.072 149.995 249.272 149.867 248.568C149.739 247.864 149.643 247.4 149.579 247.176C149.515 246.952 149.451 246.68 149.387 246.36C149.323 246.04 149.243 245.88 149.147 245.88C149.051 245.88 148.955 245.848 148.859 245.784C148.763 245.72 148.587 245.784 148.331 245.976C148.075 246.168 147.883 246.36 147.755 246.552C147.563 246.712 147.259 246.984 146.843 247.368C144.507 249.544 142.123 250.392 139.691 249.912C137.259 249.432 135.003 247.688 132.923 244.68C131.611 242.728 130.763 240.792 130.379 238.872C129.995 236.952 129.835 234.04 129.899 230.136C129.963 226.232 130.043 223.832 130.139 222.936C130.267 222.04 130.555 221.384 131.003 220.968C131.675 220.488 132.107 220.248 132.299 220.248C132.491 220.248 132.907 220.44 133.547 220.824C134.187 221.208 134.603 221.544 134.795 221.832C134.987 222.12 135.067 224.152 135.035 227.928C134.939 231.704 134.955 234.2 135.083 235.416C135.211 236.632 135.467 237.832 135.851 239.016C136.235 240.2 137.035 241.464 138.251 242.808C139.403 244.152 140.299 244.84 140.939 244.872C141.579 244.84 142.411 244.312 143.435 243.288C144.459 242.264 145.371 241.096 146.171 239.784C147.675 237.352 148.635 233.336 149.051 227.736C149.211 224.984 149.483 223.192 149.867 222.36ZM159.217 237.816C158.641 233.592 158.353 231 158.353 230.04C158.353 229.08 158.641 228.216 159.217 227.448C159.793 226.68 160.433 226.28 161.137 226.248C161.841 226.28 162.369 226.424 162.721 226.68C163.073 226.936 163.489 227.448 163.969 228.216C164.833 229.656 166.225 231.272 168.145 233.064C169.681 234.568 171.857 236.44 174.673 238.68C177.489 240.92 179.089 242.056 179.473 242.088C179.761 242.088 179.841 241.576 179.713 240.552C179.521 237.128 179.361 233.944 179.233 231C179.073 228.056 179.025 226.136 179.089 225.24C179.153 224.344 179.377 223.688 179.761 223.272C180.145 222.856 180.785 222.616 181.681 222.552C182.577 222.488 183.169 222.632 183.457 222.984C183.745 223.336 183.985 224.664 184.177 226.968C184.369 229.272 184.577 233.016 184.801 238.2C185.025 243.384 185.105 246.264 185.041 246.84C184.977 247.416 184.673 247.896 184.129 248.28C182.881 249.24 181.329 249.272 179.473 248.376C177.617 247.48 174.705 245.464 170.737 242.328C166.769 239.128 164.737 237.576 164.641 237.672C164.545 237.768 164.721 239.144 165.169 241.8C165.617 244.456 165.841 246.104 165.841 246.744C165.841 247.384 165.665 247.944 165.313 248.424C164.641 249.48 163.777 249.816 162.721 249.432C161.665 249.048 160.961 248.072 160.609 246.504C160.257 244.936 159.793 242.04 159.217 237.816ZM194.843 226.008C194.459 226.136 194.267 226.456 194.267 226.968C194.267 227.48 194.059 229.608 193.643 233.352C197.739 233.064 200.523 232.824 201.995 232.632C203.467 232.44 204.395 232.408 204.779 232.536C205.163 232.664 205.675 233.016 206.315 233.592C206.891 234.168 207.179 234.648 207.179 235.032C207.179 235.416 206.907 235.912 206.363 236.52C205.787 237.064 205.115 237.432 204.347 237.624C203.579 237.816 201.947 237.976 199.451 238.104L193.787 238.44C193.691 240.392 193.835 242.168 194.219 243.768C194.603 245.368 195.259 246.296 196.187 246.552C197.211 246.808 202.699 247.112 212.651 247.464L213.275 248.76C213.563 249.336 213.707 249.752 213.707 250.008C213.707 250.264 213.563 250.6 213.275 251.016C212.987 251.432 212.779 251.704 212.651 251.832C212.523 251.96 212.155 252.072 211.547 252.168C210.939 252.264 210.235 252.312 209.435 252.312C208.635 252.312 207.259 252.328 205.307 252.36C200.027 252.36 196.331 252.008 194.219 251.304C192.107 250.6 190.603 249.24 189.707 247.224C189.259 246.104 188.811 243.784 188.363 240.264C187.915 236.744 187.819 234.76 188.075 234.312C188.331 233.832 188.555 232.472 188.747 230.232C188.939 227.992 189.067 226.488 189.131 225.72C189.195 224.952 189.387 224.232 189.707 223.56C190.027 222.888 190.363 222.392 190.715 222.072C191.067 221.752 191.659 221.464 192.491 221.208C193.355 220.952 194.235 220.76 195.131 220.632C196.027 220.504 197.883 220.312 200.699 220.056C203.515 219.8 205.323 219.544 206.123 219.288C208.203 218.648 209.707 218.744 210.635 219.576C211.147 220.024 211.403 220.6 211.403 221.304C211.403 222.008 211.147 222.616 210.635 223.128C210.155 223.64 208.795 224.12 206.555 224.568C204.315 225.016 201.899 225.336 199.307 225.528C196.715 225.72 195.227 225.88 194.843 226.008Z" fill="#EFC4C3"/>
<path d="M338.76 227.16C338.408 227.16 338.328 227.432 338.52 227.976C338.712 228.904 338.888 232.344 339.048 238.296C339.24 244.248 339.304 247.864 339.24 249.144C339.176 250.424 338.936 251.256 338.52 251.64C338.104 252.024 337.544 252.248 336.84 252.312C336.136 252.376 335.544 252.216 335.064 251.832C334.584 251.448 334.248 250.232 334.056 248.184C333.864 246.136 333.672 241.928 333.48 235.56L333.192 226.968L329.688 226.728C327.864 226.568 326.6 226.296 325.896 225.912C325.192 225.528 324.84 224.792 324.84 223.704C324.84 222.616 325.416 221.912 326.568 221.592C327.72 221.272 329.608 221.256 332.232 221.544C334.856 221.832 336.52 221.944 337.224 221.88C337.928 221.816 338.92 221.56 340.2 221.112C341.48 220.6 342.408 220.312 342.984 220.248C343.56 220.184 344.2 220.312 344.904 220.632C345.416 220.952 345.704 221.56 345.768 222.456C345.832 223.352 345.64 224.024 345.192 224.472C344.744 224.92 343.672 225.48 341.976 226.152C340.312 226.824 339.24 227.16 338.76 227.16ZM355.565 226.008C355.181 226.136 354.989 226.456 354.989 226.968C354.989 227.48 354.781 229.608 354.365 233.352C358.461 233.064 361.245 232.824 362.717 232.632C364.189 232.44 365.117 232.408 365.501 232.536C365.885 232.664 366.397 233.016 367.037 233.592C367.613 234.168 367.901 234.648 367.901 235.032C367.901 235.416 367.629 235.912 367.085 236.52C366.509 237.064 365.837 237.432 365.069 237.624C364.301 237.816 362.669 237.976 360.173 238.104L354.509 238.44C354.413 240.392 354.557 242.168 354.941 243.768C355.325 245.368 355.981 246.296 356.909 246.552C357.933 246.808 363.421 247.112 373.373 247.464L373.997 248.76C374.285 249.336 374.429 249.752 374.429 250.008C374.429 250.264 374.285 250.6 373.997 251.016C373.709 251.432 373.501 251.704 373.373 251.832C373.245 251.96 372.877 252.072 372.269 252.168C371.661 252.264 370.957 252.312 370.157 252.312C369.357 252.312 367.981 252.328 366.029 252.36C360.749 252.36 357.053 252.008 354.941 251.304C352.829 250.6 351.325 249.24 350.429 247.224C349.981 246.104 349.533 243.784 349.085 240.264C348.637 236.744 348.541 234.76 348.797 234.312C349.053 233.832 349.277 232.472 349.469 230.232C349.661 227.992 349.789 226.488 349.853 225.72C349.917 224.952 350.109 224.232 350.429 223.56C350.749 222.888 351.085 222.392 351.437 222.072C351.789 221.752 352.381 221.464 353.213 221.208C354.077 220.952 354.957 220.76 355.853 220.632C356.749 220.504 358.605 220.312 361.421 220.056C364.237 219.8 366.045 219.544 366.845 219.288C368.925 218.648 370.429 218.744 371.357 219.576C371.869 220.024 372.125 220.6 372.125 221.304C372.125 222.008 371.869 222.616 371.357 223.128C370.877 223.64 369.517 224.12 367.277 224.568C365.037 225.016 362.621 225.336 360.029 225.528C357.437 225.72 355.949 225.88 355.565 226.008ZM378.398 220.968C379.07 220.488 379.598 220.248 379.982 220.248C380.366 220.248 380.83 220.44 381.374 220.824C381.918 221.208 382.254 221.656 382.382 222.168C382.51 222.68 382.59 224.04 382.622 226.248C382.654 228.456 382.798 231.416 383.054 235.128C383.31 238.84 383.63 241.448 384.014 242.952C392.014 243.176 396.926 243.448 398.75 243.768C399.87 244.024 400.494 244.76 400.622 245.976C400.75 247.192 400.286 248.024 399.23 248.472C398.494 248.792 395.598 248.824 390.542 248.568C385.486 248.312 382.542 247.992 381.71 247.608C380.238 246.872 379.246 245.384 378.734 243.144C378.222 240.904 377.838 236.504 377.582 229.944L377.294 221.736L378.398 220.968ZM404.601 220.968C405.273 220.488 405.801 220.248 406.185 220.248C406.569 220.248 407.033 220.44 407.577 220.824C408.121 221.208 408.457 221.656 408.585 222.168C408.713 222.68 408.793 224.04 408.825 226.248C408.857 228.456 409.001 231.416 409.257 235.128C409.513 238.84 409.833 241.448 410.217 242.952C418.217 243.176 423.129 243.448 424.953 243.768C426.073 244.024 426.697 244.76 426.825 245.976C426.953 247.192 426.489 248.024 425.433 248.472C424.697 248.792 421.801 248.824 416.745 248.568C411.689 248.312 408.745 247.992 407.913 247.608C406.441 246.872 405.449 245.384 404.937 243.144C404.425 240.904 404.041 236.504 403.785 229.944L403.497 221.736L404.601 220.968ZM436.612 226.008C436.228 226.136 436.036 226.456 436.036 226.968C436.036 227.48 435.828 229.608 435.412 233.352C439.508 233.064 442.292 232.824 443.764 232.632C445.236 232.44 446.164 232.408 446.548 232.536C446.932 232.664 447.444 233.016 448.084 233.592C448.66 234.168 448.948 234.648 448.948 235.032C448.948 235.416 448.676 235.912 448.132 236.52C447.556 237.064 446.884 237.432 446.116 237.624C445.348 237.816 443.716 237.976 441.22 238.104L435.556 238.44C435.46 240.392 435.604 242.168 435.988 243.768C436.372 245.368 437.028 246.296 437.956 246.552C438.98 246.808 444.468 247.112 454.42 247.464L455.044 248.76C455.332 249.336 455.476 249.752 455.476 250.008C455.476 250.264 455.332 250.6 455.044 251.016C454.756 251.432 454.548 251.704 454.42 251.832C454.292 251.96 453.924 252.072 453.316 252.168C452.708 252.264 452.004 252.312 451.204 252.312C450.404 252.312 449.028 252.328 447.076 252.36C441.796 252.36 438.1 252.008 435.988 251.304C433.876 250.6 432.372 249.24 431.476 247.224C431.028 246.104 430.58 243.784 430.132 240.264C429.684 236.744 429.588 234.76 429.844 234.312C430.1 233.832 430.324 232.472 430.516 230.232C430.708 227.992 430.836 226.488 430.9 225.72C430.964 224.952 431.156 224.232 431.476 223.56C431.796 222.888 432.132 222.392 432.484 222.072C432.836 221.752 433.428 221.464 434.26 221.208C435.124 220.952 436.004 220.76 436.9 220.632C437.796 220.504 439.652 220.312 442.468 220.056C445.284 219.8 447.092 219.544 447.892 219.288C449.972 218.648 451.476 218.744 452.404 219.576C452.916 220.024 453.172 220.6 453.172 221.304C453.172 222.008 452.916 222.616 452.404 223.128C451.924 223.64 450.564 224.12 448.324 224.568C446.084 225.016 443.668 225.336 441.076 225.528C438.484 225.72 436.996 225.88 436.612 226.008ZM471.492 226.392C469.636 225.432 468.18 224.952 467.124 224.952C466.068 224.952 464.884 225.272 463.572 225.912C463.828 231.064 464.084 233.912 464.34 234.456C464.564 234.712 465.764 234.584 467.94 234.072C470.116 233.56 471.844 232.952 473.124 232.248C474.404 231.544 475.204 230.92 475.524 230.376C475.844 229.832 475.716 229.272 475.14 228.696C474.564 228.12 473.348 227.352 471.492 226.392ZM478.644 253.32C477.716 253.32 476.948 252.92 476.34 252.12C475.924 251.608 474.1 249.864 470.868 246.888C467.636 243.912 465.764 242.264 465.252 241.944C465.06 241.816 464.996 243.128 465.06 245.88C465.124 248.632 465.108 250.264 465.012 250.776C464.916 251.288 464.596 251.72 464.052 252.072C463.316 252.616 462.564 252.728 461.796 252.408C461.028 252.088 460.548 251.56 460.356 250.824C460.164 250.088 459.972 248.12 459.78 244.92C459.588 241.72 459.252 239.768 458.772 239.064C458.324 238.36 458.228 237.704 458.484 237.096C458.74 236.488 458.756 234.04 458.532 229.752C458.308 225.464 458.26 223.096 458.388 222.648C458.548 221.816 458.932 221.176 459.54 220.728C460.148 220.28 460.836 220.152 461.604 220.344C462.372 220.536 463.108 220.504 463.812 220.248C465.22 219.672 466.916 219.576 468.9 219.96C470.884 220.344 473.092 221.24 475.524 222.648C477.956 224.056 479.604 225.528 480.468 227.064C481.332 228.6 481.332 230.312 480.468 232.2C479.86 233.512 478.948 234.648 477.732 235.608C476.516 236.568 474.74 237.464 472.404 238.296L470.148 239.16C476.324 244.504 479.876 247.928 480.804 249.432C481.188 250.136 481.38 250.648 481.38 250.968C481.38 251.288 481.156 251.768 480.708 252.408C480.26 253.048 479.572 253.352 478.644 253.32Z" fill="#EFC4C3"/>
<path d="M237.373 175.473C237.305 174.897 237.028 174.45 236.543 174.132C236.058 173.814 235.464 173.654 234.759 173.654C234.244 173.654 233.793 173.738 233.407 173.904C233.024 174.071 232.725 174.3 232.509 174.592C232.297 174.884 232.191 175.215 232.191 175.586C232.191 175.897 232.265 176.164 232.413 176.387C232.564 176.607 232.757 176.791 232.992 176.939C233.227 177.083 233.473 177.202 233.731 177.297C233.988 177.387 234.225 177.461 234.441 177.518L235.623 177.836C235.926 177.916 236.263 178.026 236.634 178.166C237.009 178.306 237.367 178.497 237.708 178.74C238.053 178.978 238.337 179.285 238.56 179.66C238.784 180.035 238.896 180.495 238.896 181.041C238.896 181.67 238.731 182.238 238.401 182.745C238.075 183.253 237.598 183.656 236.969 183.956C236.344 184.255 235.585 184.404 234.691 184.404C233.858 184.404 233.136 184.27 232.526 184.001C231.92 183.732 231.443 183.357 231.094 182.876C230.75 182.395 230.555 181.836 230.509 181.2H231.964C232.002 181.639 232.149 182.003 232.407 182.291C232.668 182.575 232.998 182.787 233.396 182.927C233.797 183.064 234.229 183.132 234.691 183.132C235.229 183.132 235.712 183.045 236.14 182.87C236.568 182.692 236.907 182.446 237.157 182.132C237.407 181.814 237.532 181.442 237.532 181.018C237.532 180.632 237.424 180.317 237.208 180.075C236.992 179.833 236.708 179.636 236.356 179.484C236.004 179.333 235.623 179.2 235.214 179.086L233.782 178.677C232.873 178.416 232.153 178.043 231.623 177.558C231.093 177.073 230.827 176.439 230.827 175.654C230.827 175.003 231.004 174.435 231.356 173.95C231.712 173.461 232.189 173.083 232.788 172.814C233.39 172.541 234.062 172.404 234.805 172.404C235.555 172.404 236.221 172.539 236.805 172.808C237.388 173.073 237.85 173.437 238.191 173.899C238.536 174.361 238.718 174.886 238.736 175.473H237.373ZM241.212 184.2V172.564H248.235V173.814H242.621V177.745H247.871V178.995H242.621V182.95H248.326V184.2H241.212ZM250.775 184.2V172.564H257.798V173.814H252.184V177.745H257.434V178.995H252.184V182.95H257.888V184.2H250.775ZM266.701 175.473C266.633 174.897 266.356 174.45 265.871 174.132C265.387 173.814 264.792 173.654 264.087 173.654C263.572 173.654 263.121 173.738 262.735 173.904C262.352 174.071 262.053 174.3 261.837 174.592C261.625 174.884 261.519 175.215 261.519 175.586C261.519 175.897 261.593 176.164 261.741 176.387C261.892 176.607 262.085 176.791 262.32 176.939C262.555 177.083 262.801 177.202 263.059 177.297C263.316 177.387 263.553 177.461 263.769 177.518L264.951 177.836C265.254 177.916 265.591 178.026 265.962 178.166C266.337 178.306 266.695 178.497 267.036 178.74C267.381 178.978 267.665 179.285 267.888 179.66C268.112 180.035 268.224 180.495 268.224 181.041C268.224 181.67 268.059 182.238 267.729 182.745C267.404 183.253 266.926 183.656 266.298 183.956C265.673 184.255 264.913 184.404 264.019 184.404C263.186 184.404 262.464 184.27 261.854 184.001C261.248 183.732 260.771 183.357 260.423 182.876C260.078 182.395 259.883 181.836 259.837 181.2H261.292C261.33 181.639 261.477 182.003 261.735 182.291C261.996 182.575 262.326 182.787 262.724 182.927C263.125 183.064 263.557 183.132 264.019 183.132C264.557 183.132 265.04 183.045 265.468 182.87C265.896 182.692 266.235 182.446 266.485 182.132C266.735 181.814 266.86 181.442 266.86 181.018C266.86 180.632 266.752 180.317 266.536 180.075C266.32 179.833 266.036 179.636 265.684 179.484C265.332 179.333 264.951 179.2 264.542 179.086L263.11 178.677C262.201 178.416 261.481 178.043 260.951 177.558C260.421 177.073 260.155 176.439 260.155 175.654C260.155 175.003 260.332 174.435 260.684 173.95C261.04 173.461 261.517 173.083 262.116 172.814C262.718 172.541 263.39 172.404 264.133 172.404C264.883 172.404 265.549 172.539 266.133 172.808C266.716 173.073 267.178 173.437 267.519 173.899C267.864 174.361 268.046 174.886 268.065 175.473H266.701ZM275.518 184.2H274.04L278.313 172.564H279.768L284.04 184.2H282.563L279.086 174.404H278.995L275.518 184.2ZM276.063 179.654H282.018V180.904H276.063V179.654ZM285.853 184.2V172.564H287.262V182.95H292.671V184.2H285.853ZM294.853 184.2V172.564H296.262V182.95H301.671V184.2H294.853Z" fill="#EFC4C3"/>
<path d="M237.373 175.473L237.274 175.484L237.284 175.573H237.373V175.473ZM236.543 174.132L236.488 174.215L236.543 174.132ZM233.407 173.904L233.367 173.813L233.367 173.813L233.407 173.904ZM232.509 174.592L232.429 174.532L232.428 174.533L232.509 174.592ZM232.413 176.387L232.329 176.443L232.33 176.444L232.413 176.387ZM232.992 176.939L232.939 177.023L232.94 177.024L232.992 176.939ZM233.731 177.297L233.696 177.39L233.697 177.391L233.731 177.297ZM234.441 177.518L234.467 177.422L234.466 177.421L234.441 177.518ZM235.623 177.836L235.597 177.933L235.597 177.933L235.623 177.836ZM236.634 178.166L236.599 178.259L236.599 178.26L236.634 178.166ZM237.708 178.74L237.65 178.821L237.651 178.822L237.708 178.74ZM238.56 179.66L238.646 179.609L238.56 179.66ZM238.401 182.745L238.317 182.691L238.317 182.691L238.401 182.745ZM236.969 183.956L236.926 183.865L236.926 183.865L236.969 183.956ZM232.526 184.001L232.486 184.092L232.486 184.093L232.526 184.001ZM231.094 182.876L231.013 182.934L231.013 182.935L231.094 182.876ZM230.509 181.2V181.1H230.402L230.409 181.207L230.509 181.2ZM231.964 181.2L232.063 181.191L232.055 181.1H231.964V181.2ZM232.407 182.291L232.332 182.358L232.333 182.359L232.407 182.291ZM233.396 182.927L233.362 183.022L233.363 183.022L233.396 182.927ZM236.14 182.87L236.178 182.963L236.178 182.963L236.14 182.87ZM237.157 182.132L237.235 182.194L237.236 182.194L237.157 182.132ZM237.208 180.075L237.283 180.008L237.208 180.075ZM236.356 179.484L236.316 179.576L236.356 179.484ZM235.214 179.086L235.186 179.182L235.187 179.183L235.214 179.086ZM233.782 178.677L233.754 178.773L233.754 178.773L233.782 178.677ZM231.623 177.558L231.555 177.632H231.555L231.623 177.558ZM231.356 173.95L231.275 173.891L231.275 173.891L231.356 173.95ZM232.788 172.814L232.829 172.905L232.829 172.905L232.788 172.814ZM236.805 172.808L236.763 172.899L236.763 172.899L236.805 172.808ZM238.191 173.899L238.111 173.958L238.111 173.959L238.191 173.899ZM238.736 175.473V175.573H238.84L238.836 175.469L238.736 175.473ZM237.472 175.461C237.4 174.856 237.108 174.383 236.598 174.048L236.488 174.215C236.949 174.517 237.209 174.938 237.274 175.484L237.472 175.461ZM236.598 174.048C236.094 173.717 235.479 173.554 234.759 173.554V173.754C235.448 173.754 236.023 173.91 236.488 174.215L236.598 174.048ZM234.759 173.554C234.233 173.554 233.769 173.64 233.367 173.813L233.447 173.996C233.818 173.836 234.255 173.754 234.759 173.754V173.554ZM233.367 173.813C232.971 173.985 232.657 174.225 232.429 174.532L232.59 174.651C232.794 174.376 233.078 174.157 233.447 173.996L233.367 173.813ZM232.428 174.533C232.203 174.842 232.091 175.195 232.091 175.586H232.291C232.291 175.236 232.391 174.925 232.59 174.651L232.428 174.533ZM232.091 175.586C232.091 175.913 232.169 176.2 232.329 176.443L232.496 176.332C232.361 176.128 232.291 175.881 232.291 175.586H232.091ZM232.33 176.444C232.49 176.676 232.693 176.869 232.939 177.023L233.045 176.854C232.822 176.713 232.638 176.539 232.495 176.331L232.33 176.444ZM232.94 177.024C233.18 177.171 233.432 177.293 233.696 177.39L233.765 177.203C233.514 177.11 233.274 176.994 233.044 176.853L232.94 177.024ZM233.697 177.391C233.957 177.482 234.197 177.557 234.416 177.615L234.466 177.421C234.254 177.365 234.02 177.292 233.764 177.202L233.697 177.391ZM234.415 177.615L235.597 177.933L235.649 177.74L234.467 177.422L234.415 177.615ZM235.597 177.933C235.896 178.012 236.23 178.12 236.599 178.259L236.67 178.072C236.296 177.931 235.955 177.82 235.648 177.74L235.597 177.933ZM236.599 178.26C236.966 178.397 237.316 178.584 237.65 178.821L237.766 178.658C237.418 178.411 237.053 178.216 236.669 178.072L236.599 178.26ZM237.651 178.822C237.984 179.052 238.258 179.348 238.474 179.711L238.646 179.609C238.416 179.222 238.122 178.905 237.765 178.658L237.651 178.822ZM238.474 179.711C238.687 180.067 238.796 180.509 238.796 181.041H238.996C238.996 180.482 238.881 180.003 238.646 179.609L238.474 179.711ZM238.796 181.041C238.796 181.651 238.636 182.2 238.317 182.691L238.485 182.8C238.826 182.275 238.996 181.688 238.996 181.041H238.796ZM238.317 182.691C238.003 183.181 237.541 183.573 236.926 183.865L237.012 184.046C237.655 183.74 238.148 183.325 238.485 182.799L238.317 182.691ZM236.926 183.865C236.318 184.157 235.574 184.304 234.691 184.304V184.504C235.596 184.504 236.371 184.353 237.013 184.046L236.926 183.865ZM234.691 184.304C233.868 184.304 233.161 184.172 232.567 183.91L232.486 184.093C233.111 184.368 233.847 184.504 234.691 184.504V184.304ZM232.567 183.91C231.975 183.647 231.512 183.283 231.175 182.817L231.013 182.935C231.373 183.432 231.865 183.817 232.486 184.092L232.567 183.91ZM231.176 182.818C230.843 182.353 230.653 181.812 230.609 181.193L230.409 181.207C230.456 181.86 230.657 182.437 231.013 182.934L231.176 182.818ZM230.509 181.3H231.964V181.1H230.509V181.3ZM231.864 181.209C231.904 181.666 232.058 182.051 232.332 182.358L232.481 182.224C232.24 181.955 232.1 181.612 232.063 181.191L231.864 181.209ZM232.333 182.359C232.607 182.656 232.951 182.876 233.362 183.022L233.429 182.833C233.045 182.698 232.73 182.494 232.481 182.223L232.333 182.359ZM233.363 183.022C233.776 183.162 234.219 183.232 234.691 183.232V183.032C234.239 183.032 233.818 182.965 233.428 182.833L233.363 183.022ZM234.691 183.232C235.24 183.232 235.736 183.143 236.178 182.963L236.102 182.778C235.688 182.946 235.218 183.032 234.691 183.032V183.232ZM236.178 182.963C236.619 182.779 236.973 182.524 237.235 182.194L237.079 182.07C236.841 182.369 236.516 182.606 236.101 182.778L236.178 182.963ZM237.236 182.194C237.5 181.857 237.632 181.464 237.632 181.018H237.432C237.432 181.421 237.314 181.77 237.078 182.07L237.236 182.194ZM237.632 181.018C237.632 180.612 237.518 180.273 237.283 180.008L237.133 180.141C237.33 180.362 237.432 180.651 237.432 181.018H237.632ZM237.283 180.008C237.055 179.753 236.759 179.548 236.395 179.392L236.316 179.576C236.658 179.723 236.929 179.912 237.133 180.141L237.283 180.008ZM236.395 179.392C236.038 179.239 235.653 179.105 235.24 178.99L235.187 179.183C235.592 179.295 235.969 179.426 236.316 179.576L236.395 179.392ZM235.241 178.99L233.809 178.581L233.754 178.773L235.186 179.182L235.241 178.99ZM233.81 178.581C232.911 178.323 232.206 177.956 231.69 177.484L231.555 177.632C232.1 178.13 232.835 178.509 233.754 178.773L233.81 178.581ZM231.69 177.484C231.183 177.02 230.927 176.413 230.927 175.654H230.727C230.727 176.464 231.002 177.126 231.555 177.632L231.69 177.484ZM230.927 175.654C230.927 175.022 231.098 174.475 231.437 174.009L231.275 173.891C230.909 174.395 230.727 174.984 230.727 175.654H230.927ZM231.437 174.009C231.782 173.535 232.245 173.167 232.829 172.905L232.747 172.722C232.134 172.998 231.642 173.387 231.275 173.891L231.437 174.009ZM232.829 172.905C233.417 172.639 234.075 172.504 234.805 172.504V172.304C234.05 172.304 233.363 172.443 232.746 172.722L232.829 172.905ZM234.805 172.504C235.543 172.504 236.195 172.637 236.763 172.899L236.847 172.717C236.248 172.441 235.567 172.304 234.805 172.304V172.504ZM236.763 172.899C237.333 173.158 237.781 173.511 238.111 173.958L238.271 173.839C237.919 173.362 237.443 172.988 236.846 172.717L236.763 172.899ZM238.111 173.959C238.443 174.404 238.618 174.909 238.637 175.476L238.836 175.469C238.817 174.862 238.628 174.318 238.271 173.839L238.111 173.959ZM238.736 175.373H237.373V175.573H238.736V175.373ZM241.212 184.2H241.112V184.3H241.212V184.2ZM241.212 172.564V172.464H241.112V172.564H241.212ZM248.235 172.564H248.335V172.464H248.235V172.564ZM248.235 173.814V173.914H248.335V173.814H248.235ZM242.621 173.814V173.714H242.521V173.814H242.621ZM242.621 177.745H242.521V177.845H242.621V177.745ZM247.871 177.745H247.971V177.645H247.871V177.745ZM247.871 178.995V179.095H247.971V178.995H247.871ZM242.621 178.995V178.895H242.521V178.995H242.621ZM242.621 182.95H242.521V183.05H242.621V182.95ZM248.326 182.95H248.426V182.85H248.326V182.95ZM248.326 184.2V184.3H248.426V184.2H248.326ZM241.312 184.2V172.564H241.112V184.2H241.312ZM241.212 172.664H248.235V172.464H241.212V172.664ZM248.135 172.564V173.814H248.335V172.564H248.135ZM248.235 173.714H242.621V173.914H248.235V173.714ZM242.521 173.814V177.745H242.721V173.814H242.521ZM242.621 177.845H247.871V177.645H242.621V177.845ZM247.771 177.745V178.995H247.971V177.745H247.771ZM247.871 178.895H242.621V179.095H247.871V178.895ZM242.521 178.995V182.95H242.721V178.995H242.521ZM242.621 183.05H248.326V182.85H242.621V183.05ZM248.226 182.95V184.2H248.426V182.95H248.226ZM248.326 184.1H241.212V184.3H248.326V184.1ZM250.775 184.2H250.675V184.3H250.775V184.2ZM250.775 172.564V172.464H250.675V172.564H250.775ZM257.798 172.564H257.898V172.464H257.798V172.564ZM257.798 173.814V173.914H257.898V173.814H257.798ZM252.184 173.814V173.714H252.084V173.814H252.184ZM252.184 177.745H252.084V177.845H252.184V177.745ZM257.434 177.745H257.534V177.645H257.434V177.745ZM257.434 178.995V179.095H257.534V178.995H257.434ZM252.184 178.995V178.895H252.084V178.995H252.184ZM252.184 182.95H252.084V183.05H252.184V182.95ZM257.888 182.95H257.988V182.85H257.888V182.95ZM257.888 184.2V184.3H257.988V184.2H257.888ZM250.875 184.2V172.564H250.675V184.2H250.875ZM250.775 172.664H257.798V172.464H250.775V172.664ZM257.698 172.564V173.814H257.898V172.564H257.698ZM257.798 173.714H252.184V173.914H257.798V173.714ZM252.084 173.814V177.745H252.284V173.814H252.084ZM252.184 177.845H257.434V177.645H252.184V177.845ZM257.334 177.745V178.995H257.534V177.745H257.334ZM257.434 178.895H252.184V179.095H257.434V178.895ZM252.084 178.995V182.95H252.284V178.995H252.084ZM252.184 183.05H257.888V182.85H252.184V183.05ZM257.788 182.95V184.2H257.988V182.95H257.788ZM257.888 184.1H250.775V184.3H257.888V184.1ZM266.701 175.473L266.602 175.484L266.612 175.573H266.701V175.473ZM265.871 174.132L265.817 174.215L265.871 174.132ZM262.735 173.904L262.695 173.813L262.695 173.813L262.735 173.904ZM261.837 174.592L261.757 174.532L261.756 174.533L261.837 174.592ZM261.741 176.387L261.657 176.443L261.658 176.444L261.741 176.387ZM262.32 176.939L262.267 177.023L262.268 177.024L262.32 176.939ZM263.059 177.297L263.024 177.39L263.026 177.391L263.059 177.297ZM263.769 177.518L263.795 177.422L263.795 177.421L263.769 177.518ZM264.951 177.836L264.925 177.933L264.926 177.933L264.951 177.836ZM265.962 178.166L265.927 178.259L265.927 178.26L265.962 178.166ZM267.036 178.74L266.978 178.821L266.979 178.822L267.036 178.74ZM267.888 179.66L267.974 179.609L267.888 179.66ZM267.729 182.745L267.645 182.691L267.645 182.691L267.729 182.745ZM266.298 183.956L266.255 183.865L266.254 183.865L266.298 183.956ZM261.854 184.001L261.814 184.092L261.814 184.093L261.854 184.001ZM260.423 182.876L260.341 182.934L260.342 182.935L260.423 182.876ZM259.837 181.2V181.1H259.73L259.738 181.207L259.837 181.2ZM261.292 181.2L261.391 181.191L261.384 181.1H261.292V181.2ZM261.735 182.291L261.661 182.358L261.661 182.359L261.735 182.291ZM262.724 182.927L262.69 183.022L262.692 183.022L262.724 182.927ZM265.468 182.87L265.506 182.963L265.506 182.963L265.468 182.87ZM266.485 182.132L266.563 182.194L266.564 182.194L266.485 182.132ZM266.536 180.075L266.611 180.008L266.536 180.075ZM265.684 179.484L265.644 179.576L265.684 179.484ZM264.542 179.086L264.514 179.182L264.515 179.183L264.542 179.086ZM263.11 178.677L263.082 178.773L263.083 178.773L263.11 178.677ZM260.951 177.558L260.883 177.632L260.951 177.558ZM260.684 173.95L260.603 173.891L260.603 173.891L260.684 173.95ZM262.116 172.814L262.157 172.905L262.157 172.905L262.116 172.814ZM266.133 172.808L266.091 172.899L266.091 172.899L266.133 172.808ZM267.519 173.899L267.439 173.958L267.439 173.959L267.519 173.899ZM268.065 175.473V175.573H268.168L268.165 175.469L268.065 175.473ZM266.8 175.461C266.729 174.856 266.436 174.383 265.926 174.048L265.817 174.215C266.277 174.517 266.537 174.938 266.602 175.484L266.8 175.461ZM265.926 174.048C265.422 173.717 264.807 173.554 264.087 173.554V173.754C264.777 173.754 265.351 173.91 265.817 174.215L265.926 174.048ZM264.087 173.554C263.562 173.554 263.097 173.64 262.695 173.813L262.775 173.996C263.146 173.836 263.583 173.754 264.087 173.754V173.554ZM262.695 173.813C262.299 173.985 261.985 174.225 261.757 174.532L261.918 174.651C262.122 174.376 262.406 174.157 262.775 173.996L262.695 173.813ZM261.756 174.533C261.532 174.842 261.419 175.195 261.419 175.586H261.619C261.619 175.236 261.719 174.925 261.918 174.651L261.756 174.533ZM261.419 175.586C261.419 175.913 261.497 176.2 261.657 176.443L261.824 176.332C261.689 176.128 261.619 175.881 261.619 175.586H261.419ZM261.658 176.444C261.818 176.676 262.021 176.869 262.267 177.023L262.374 176.854C262.15 176.713 261.967 176.539 261.823 176.331L261.658 176.444ZM262.268 177.024C262.508 177.171 262.761 177.293 263.024 177.39L263.093 177.203C262.842 177.11 262.602 176.994 262.373 176.853L262.268 177.024ZM263.026 177.391C263.285 177.482 263.525 177.557 263.744 177.615L263.795 177.421C263.582 177.365 263.348 177.292 263.092 177.202L263.026 177.391ZM263.743 177.615L264.925 177.933L264.977 177.74L263.795 177.422L263.743 177.615ZM264.926 177.933C265.224 178.012 265.558 178.12 265.927 178.259L265.998 178.072C265.624 177.931 265.283 177.82 264.976 177.74L264.926 177.933ZM265.927 178.26C266.294 178.397 266.644 178.584 266.978 178.821L267.094 178.658C266.746 178.411 266.381 178.216 265.997 178.072L265.927 178.26ZM266.979 178.822C267.312 179.052 267.586 179.348 267.803 179.711L267.974 179.609C267.744 179.222 267.45 178.905 267.093 178.658L266.979 178.822ZM267.803 179.711C268.015 180.067 268.124 180.509 268.124 181.041H268.324C268.324 180.482 268.209 180.003 267.974 179.609L267.803 179.711ZM268.124 181.041C268.124 181.651 267.964 182.2 267.645 182.691L267.813 182.8C268.154 182.275 268.324 181.688 268.324 181.041H268.124ZM267.645 182.691C267.331 183.181 266.869 183.573 266.255 183.865L266.341 184.046C266.983 183.74 267.476 183.325 267.814 182.799L267.645 182.691ZM266.254 183.865C265.646 184.157 264.902 184.304 264.019 184.304V184.504C264.924 184.504 265.699 184.353 266.341 184.046L266.254 183.865ZM264.019 184.304C263.196 184.304 262.489 184.172 261.895 183.91L261.814 184.093C262.439 184.368 263.175 184.504 264.019 184.504V184.304ZM261.895 183.91C261.303 183.647 260.84 183.283 260.504 182.817L260.342 182.935C260.702 183.432 261.194 183.817 261.814 184.092L261.895 183.91ZM260.504 182.818C260.171 182.353 259.981 181.812 259.937 181.193L259.738 181.207C259.784 181.86 259.985 182.437 260.341 182.934L260.504 182.818ZM259.837 181.3H261.292V181.1H259.837V181.3ZM261.192 181.209C261.232 181.666 261.387 182.051 261.661 182.358L261.81 182.224C261.568 181.955 261.428 181.612 261.391 181.191L261.192 181.209ZM261.661 182.359C261.935 182.656 262.279 182.876 262.69 183.022L262.757 182.833C262.373 182.698 262.058 182.494 261.809 182.223L261.661 182.359ZM262.692 183.022C263.104 183.162 263.547 183.232 264.019 183.232V183.032C263.567 183.032 263.146 182.965 262.756 182.833L262.692 183.022ZM264.019 183.232C264.568 183.232 265.064 183.143 265.506 182.963L265.43 182.778C265.016 182.946 264.546 183.032 264.019 183.032V183.232ZM265.506 182.963C265.948 182.779 266.301 182.524 266.563 182.194L266.407 182.07C266.169 182.369 265.844 182.606 265.43 182.778L265.506 182.963ZM266.564 182.194C266.828 181.857 266.96 181.464 266.96 181.018H266.76C266.76 181.421 266.642 181.77 266.406 182.07L266.564 182.194ZM266.96 181.018C266.96 180.612 266.846 180.273 266.611 180.008L266.462 180.141C266.658 180.362 266.76 180.651 266.76 181.018H266.96ZM266.611 180.008C266.384 179.753 266.087 179.548 265.723 179.392L265.644 179.576C265.986 179.723 266.257 179.912 266.462 180.141L266.611 180.008ZM265.723 179.392C265.367 179.239 264.982 179.105 264.569 178.99L264.515 179.183C264.92 179.295 265.297 179.426 265.644 179.576L265.723 179.392ZM264.569 178.99L263.138 178.581L263.083 178.773L264.514 179.182L264.569 178.99ZM263.138 178.581C262.239 178.323 261.534 177.956 261.018 177.484L260.883 177.632C261.428 178.13 262.163 178.509 263.082 178.773L263.138 178.581ZM261.018 177.484C260.511 177.02 260.255 176.413 260.255 175.654H260.055C260.055 176.464 260.33 177.126 260.883 177.632L261.018 177.484ZM260.255 175.654C260.255 175.022 260.426 174.475 260.765 174.009L260.603 173.891C260.237 174.395 260.055 174.984 260.055 175.654H260.255ZM260.765 174.009C261.11 173.535 261.573 173.167 262.157 172.905L262.075 172.722C261.462 172.998 260.97 173.387 260.603 173.891L260.765 174.009ZM262.157 172.905C262.745 172.639 263.403 172.504 264.133 172.504V172.304C263.378 172.304 262.691 172.443 262.074 172.722L262.157 172.905ZM264.133 172.504C264.871 172.504 265.523 172.637 266.091 172.899L266.175 172.717C265.576 172.441 264.895 172.304 264.133 172.304V172.504ZM266.091 172.899C266.661 173.158 267.109 173.511 267.439 173.958L267.6 173.839C267.247 173.362 266.771 172.988 266.174 172.717L266.091 172.899ZM267.439 173.959C267.771 174.404 267.946 174.909 267.965 175.476L268.165 175.469C268.145 174.862 267.956 174.318 267.599 173.839L267.439 173.959ZM268.065 175.373H266.701V175.573H268.065V175.373ZM275.518 184.2V184.3H275.588L275.612 184.233L275.518 184.2ZM274.04 184.2L273.947 184.165L273.897 184.3H274.04V184.2ZM278.313 172.564V172.464H278.243L278.219 172.529L278.313 172.564ZM279.768 172.564L279.862 172.529L279.838 172.464H279.768V172.564ZM284.04 184.2V184.3H284.184L284.134 184.165L284.04 184.2ZM282.563 184.2L282.469 184.233L282.493 184.3H282.563V184.2ZM279.086 174.404L279.18 174.371L279.157 174.304H279.086V174.404ZM278.995 174.404V174.304H278.924L278.901 174.371L278.995 174.404ZM276.063 179.654V179.554H275.963V179.654H276.063ZM282.018 179.654H282.118V179.554H282.018V179.654ZM282.018 180.904V181.004H282.118V180.904H282.018ZM276.063 180.904H275.963V181.004H276.063V180.904ZM275.518 184.1H274.04V184.3H275.518V184.1ZM274.134 184.234L278.407 172.598L278.219 172.529L273.947 184.165L274.134 184.234ZM278.313 172.664H279.768V172.464H278.313V172.664ZM279.674 172.598L283.947 184.234L284.134 184.165L279.862 172.529L279.674 172.598ZM284.04 184.1H282.563V184.3H284.04V184.1ZM282.657 184.166L279.18 174.371L278.992 174.438L282.469 184.233L282.657 184.166ZM279.086 174.304H278.995V174.504H279.086V174.304ZM278.901 174.371L275.423 184.166L275.612 184.233L279.089 174.438L278.901 174.371ZM276.063 179.754H282.018V179.554H276.063V179.754ZM281.918 179.654V180.904H282.118V179.654H281.918ZM282.018 180.804H276.063V181.004H282.018V180.804ZM276.163 180.904V179.654H275.963V180.904H276.163ZM285.853 184.2H285.753V184.3H285.853V184.2ZM285.853 172.564V172.464H285.753V172.564H285.853ZM287.262 172.564H287.362V172.464H287.262V172.564ZM287.262 182.95H287.162V183.05H287.262V182.95ZM292.671 182.95H292.771V182.85H292.671V182.95ZM292.671 184.2V184.3H292.771V184.2H292.671ZM285.953 184.2V172.564H285.753V184.2H285.953ZM285.853 172.664H287.262V172.464H285.853V172.664ZM287.162 172.564V182.95H287.362V172.564H287.162ZM287.262 183.05H292.671V182.85H287.262V183.05ZM292.571 182.95V184.2H292.771V182.95H292.571ZM292.671 184.1H285.853V184.3H292.671V184.1ZM294.853 184.2H294.753V184.3H294.853V184.2ZM294.853 172.564V172.464H294.753V172.564H294.853ZM296.262 172.564H296.362V172.464H296.262V172.564ZM296.262 182.95H296.162V183.05H296.262V182.95ZM301.671 182.95H301.771V182.85H301.671V182.95ZM301.671 184.2V184.3H301.771V184.2H301.671ZM294.953 184.2V172.564H294.753V184.2H294.953ZM294.853 172.664H296.262V172.464H294.853V172.664ZM296.162 172.564V182.95H296.362V172.564H296.162ZM296.262 183.05H301.671V182.85H296.262V183.05ZM301.571 182.95V184.2H301.771V182.95H301.571ZM301.671 184.1H294.853V184.3H301.671V184.1Z" fill="#EFC4C3"/>
<path d="M220.009 298.2V286.564H221.418V292.336H221.555L226.782 286.564H228.623L223.736 291.814L228.623 298.2H226.918L222.873 292.791L221.418 294.427V298.2H220.009ZM239.674 286.564V298.2H238.31L231.969 289.064H231.856V298.2H230.447V286.564H231.81L238.174 295.723H238.288V286.564H239.674ZM252.312 292.382C252.312 293.609 252.09 294.67 251.647 295.564C251.204 296.458 250.596 297.147 249.823 297.632C249.05 298.117 248.168 298.359 247.175 298.359C246.183 298.359 245.3 298.117 244.528 297.632C243.755 297.147 243.147 296.458 242.704 295.564C242.261 294.67 242.039 293.609 242.039 292.382C242.039 291.154 242.261 290.094 242.704 289.2C243.147 288.306 243.755 287.617 244.528 287.132C245.3 286.647 246.183 286.404 247.175 286.404C248.168 286.404 249.05 286.647 249.823 287.132C250.596 287.617 251.204 288.306 251.647 289.2C252.09 290.094 252.312 291.154 252.312 292.382ZM250.948 292.382C250.948 291.374 250.78 290.524 250.442 289.831C250.109 289.137 249.656 288.613 249.084 288.257C248.516 287.901 247.88 287.723 247.175 287.723C246.471 287.723 245.833 287.901 245.261 288.257C244.692 288.613 244.24 289.137 243.903 289.831C243.569 290.524 243.403 291.374 243.403 292.382C243.403 293.389 243.569 294.24 243.903 294.933C244.24 295.626 244.692 296.151 245.261 296.507C245.833 296.863 246.471 297.041 247.175 297.041C247.88 297.041 248.516 296.863 249.084 296.507C249.656 296.151 250.109 295.626 250.442 294.933C250.78 294.24 250.948 293.389 250.948 292.382ZM256.795 298.2L253.613 286.564H255.045L257.477 296.041H257.59L260.067 286.564H261.658L264.136 296.041H264.249L266.681 286.564H268.113L264.931 298.2H263.477L260.908 288.927H260.817L258.249 298.2H256.795ZM276.232 289.473C276.164 288.897 275.888 288.45 275.403 288.132C274.918 287.814 274.323 287.654 273.619 287.654C273.103 287.654 272.653 287.738 272.266 287.904C271.884 288.071 271.584 288.3 271.369 288.592C271.156 288.884 271.05 289.215 271.05 289.586C271.05 289.897 271.124 290.164 271.272 290.387C271.423 290.607 271.617 290.791 271.852 290.939C272.086 291.083 272.333 291.202 272.59 291.297C272.848 291.387 273.084 291.461 273.3 291.518L274.482 291.836C274.785 291.916 275.122 292.026 275.494 292.166C275.869 292.306 276.227 292.497 276.567 292.74C276.912 292.978 277.196 293.285 277.42 293.66C277.643 294.035 277.755 294.495 277.755 295.041C277.755 295.67 277.59 296.238 277.261 296.745C276.935 297.253 276.458 297.656 275.829 297.956C275.204 298.255 274.444 298.404 273.55 298.404C272.717 298.404 271.995 298.27 271.386 298.001C270.78 297.732 270.302 297.357 269.954 296.876C269.609 296.395 269.414 295.836 269.369 295.2H270.823C270.861 295.639 271.009 296.003 271.266 296.291C271.528 296.575 271.857 296.787 272.255 296.927C272.656 297.064 273.088 297.132 273.55 297.132C274.088 297.132 274.571 297.045 274.999 296.87C275.427 296.692 275.766 296.446 276.016 296.132C276.266 295.814 276.391 295.442 276.391 295.018C276.391 294.632 276.283 294.317 276.067 294.075C275.852 293.833 275.567 293.636 275.215 293.484C274.863 293.333 274.482 293.2 274.073 293.086L272.641 292.677C271.732 292.416 271.013 292.043 270.482 291.558C269.952 291.073 269.687 290.439 269.687 289.654C269.687 289.003 269.863 288.435 270.215 287.95C270.571 287.461 271.048 287.083 271.647 286.814C272.249 286.541 272.922 286.404 273.664 286.404C274.414 286.404 275.081 286.539 275.664 286.808C276.247 287.073 276.709 287.437 277.05 287.899C277.395 288.361 277.577 288.886 277.596 289.473H276.232ZM285.049 298.2H283.572L287.844 286.564H289.299L293.572 298.2H292.094L288.617 288.404H288.526L285.049 298.2ZM285.594 293.654H291.549V294.904H285.594V293.654ZM295.384 298.2V286.564H296.793V296.95H302.202V298.2H295.384ZM304.384 298.2V286.564H305.793V296.95H311.202V298.2H304.384Z" fill="#EFC4C3"/>
<path d="M234.846 249.972C236.744 247.536 245.543 236.659 260.295 235.093C272.631 233.701 282.206 239.618 286.347 242.141C291.005 245.013 294.37 248.145 296.526 250.494M265.729 234.832L264.781 198.2M271.509 235.702L276.944 202.638M276.771 237.268L286.519 209.425M282.206 239.618L294.542 216.56M286.433 242.054L299.977 223.346M290.315 244.752L303.6 230.656M258.742 235.267L253.652 202.464M253.48 236.572L244.853 210.643M248.649 238.574L236.572 216.56M244.681 240.836L229.929 222.302M240.022 244.49L227.6 231.526M239.246 251.625C240.712 249.711 247.786 240.488 260.467 238.835C278.152 236.398 289.798 250.929 290.401 251.625C289.711 252.583 288.676 253.801 287.296 255.106C285.226 257.107 277.03 265.112 264.953 265.199C251.151 265.286 242.438 254.932 241.23 253.453L239.332 251.625H239.246ZM267.541 245.883C265.471 246.492 264.436 247.188 263.314 249.363C262.02 251.887 263.659 256.15 266.161 257.194C267.369 257.716 268.49 257.368 268.576 257.716C268.663 258.151 266.42 259.544 264.263 259.283C261.416 258.935 259.173 255.802 258.828 252.757C258.483 249.972 259.605 246.666 262.02 245.361C262.279 245.187 264.349 244.142 266.247 244.926C266.678 245.1 267.972 245.796 267.627 245.97L267.541 245.883Z" stroke="#EFC4C3" stroke-width="2" stroke-miterlimit="10"/>
</svg>
