<svg width="121" height="137" viewBox="0 0 121 137" fill="none" xmlns="http://www.w3.org/2000/svg">
<path d="M52.8071 5.9559C55.0159 -1.78351 65.9841 -1.78351 68.1929 5.9559L75.4675 31.4465C76.6524 35.5981 80.9177 38.0607 85.1055 37.011L110.818 30.5657C118.625 28.6088 124.109 38.1076 118.511 43.8902L100.073 62.9355C97.07 66.0374 97.07 70.9626 100.073 74.0645L118.511 93.1098C124.109 98.8924 118.625 108.391 110.818 106.434L85.1055 99.989C80.9177 98.9393 76.6524 101.402 75.4675 105.554L68.1929 131.044C65.9841 138.784 55.0159 138.784 52.8071 131.044L45.5325 105.554C44.3476 101.402 40.0823 98.9393 35.8945 99.989L10.1816 106.434C2.37476 108.391 -3.10938 98.8924 2.48879 93.1098L20.927 74.0645C23.93 70.9626 23.93 66.0374 20.927 62.9355L2.48879 43.8902C-3.10937 38.1076 2.37476 28.6088 10.1816 30.5657L35.8945 37.011C40.0823 38.0607 44.3476 35.5981 45.5325 31.4465L52.8071 5.9559Z" fill="#F6BD60"/>
</svg>
