<svg width="58" height="47" viewBox="0 0 58 47" fill="none" xmlns="http://www.w3.org/2000/svg">
<path d="M58 15C58 23.2843 45.0163 30 29 30C12.9837 30 0 23.2843 0 15C0 6.71573 12.9837 0 29 0C45.0163 0 58 6.71573 58 15Z" fill="#F4C7C7"/>
<path d="M11.72 37.624C11.72 35.944 12.896 35.104 15.272 35.104C17.504 35.104 18.608 35.752 18.608 37.072C18.608 38.368 18.08 39.016 17.048 39.016C16.376 39.016 15.968 38.728 15.848 38.128C15.776 37.816 15.752 37.648 15.728 37.648H14.24C14.192 37.648 14.168 37.672 14.168 37.72C14.168 38.44 14.6 38.968 15.44 39.328C16.568 39.784 17.288 40.168 17.6 40.456C18.368 41.152 18.752 42.016 18.752 43.048C18.752 45.208 17.72 46.288 15.656 46.288C15.08 46.288 14.432 46.192 13.688 45.976C11.888 45.472 11 44.632 11 43.408C11 42.616 11.408 42.208 12.2 42.208C12.512 42.208 12.728 42.256 12.848 42.376C13.952 43.336 14.888 43.816 15.632 43.816C16.112 43.816 16.352 43.576 16.352 43.096C16.352 42.832 16.208 42.592 15.92 42.376C14.6 41.752 13.784 41.32 13.52 41.056C12.32 39.952 11.72 38.8 11.72 37.624Z" fill="white"/>
<path d="M19.4217 38.848C19.4217 38.152 19.7097 37.744 20.3097 37.672L27.3418 36.712H27.5578C28.3738 36.712 28.7817 37.096 28.7817 37.888C28.7817 38.584 28.3977 38.992 27.6297 39.112L25.1818 39.544L25.0858 39.592V44.584C25.0858 45.136 24.6777 45.424 23.8857 45.424C23.0937 45.424 22.6858 45.112 22.6858 44.512V39.928C22.6138 39.928 22.0378 39.952 20.9818 40.024H20.6458C19.8298 40.024 19.4217 39.64 19.4217 38.848Z" fill="white"/>
<path d="M29.5865 44.896C29.5865 44.296 29.6585 43.696 29.8265 43.096L31.6985 36.328C31.8665 35.728 32.2505 35.416 32.8505 35.416C33.6665 35.416 34.1705 35.704 34.3385 36.256L34.9385 38.248L37.5065 44.536C37.5785 44.752 37.6265 44.944 37.6265 45.136C37.6265 45.928 37.2185 46.336 36.4265 46.336C35.9225 46.336 35.5385 46.048 35.2985 45.496C34.8905 44.512 34.6505 44.032 34.6265 44.008C33.2585 43.96 32.4665 43.936 32.2745 43.936C32.1545 43.936 32.0825 44.08 32.0585 44.368L31.9385 45.376C31.7705 45.904 31.3865 46.168 30.7865 46.168C29.9945 46.168 29.5865 45.736 29.5865 44.896ZM32.8265 41.488H33.6185C33.4265 40.984 33.2585 40.624 33.1385 40.408C33.0905 40.528 32.9945 40.888 32.8265 41.488Z" fill="white"/>
<path d="M38.606 37.528V36.448C38.606 35.512 39.374 35.056 40.886 35.056C41.702 35.056 42.494 35.224 43.286 35.536C44.846 36.184 45.614 37.192 45.614 38.512C45.614 39.904 45.014 40.96 43.814 41.656L43.934 41.776L47.486 44.368C47.75 44.56 47.894 44.872 47.894 45.28C47.894 46.072 47.486 46.456 46.694 46.456C46.43 46.456 46.214 46.408 46.046 46.288L41.558 43.168V45.136C41.558 45.736 41.15 46.048 40.358 46.048C39.758 46.048 39.374 45.76 39.206 45.208C39.206 43.168 39.014 40.6 38.606 37.528ZM41.054 37.456V37.696L41.366 40.096H41.414C42.614 40.096 43.214 39.64 43.214 38.704C43.214 38.008 42.494 37.576 41.054 37.456Z" fill="white"/>
</svg>
