<svg width="58" height="47" viewBox="0 0 58 47" fill="none" xmlns="http://www.w3.org/2000/svg">
<path d="M58 15C58 23.2843 45.0163 30 29 30C12.9837 30 0 23.2843 0 15C0 6.71573 12.9837 0 29 0C45.0163 0 58 6.71573 58 15Z" fill="#F4C7C7"/>
<path d="M6.512 37.624C6.512 35.944 7.688 35.104 10.064 35.104C12.296 35.104 13.4 35.752 13.4 37.072C13.4 38.368 12.872 39.016 11.84 39.016C11.168 39.016 10.76 38.728 10.64 38.128C10.568 37.816 10.544 37.648 10.52 37.648H9.032C8.984 37.648 8.96 37.672 8.96 37.72C8.96 38.44 9.392 38.968 10.232 39.328C11.36 39.784 12.08 40.168 12.392 40.456C13.16 41.152 13.544 42.016 13.544 43.048C13.544 45.208 12.512 46.288 10.448 46.288C9.872 46.288 9.224 46.192 8.48 45.976C6.68 45.472 5.792 44.632 5.792 43.408C5.792 42.616 6.2 42.208 6.992 42.208C7.304 42.208 7.52 42.256 7.64 42.376C8.744 43.336 9.68 43.816 10.424 43.816C10.904 43.816 11.144 43.576 11.144 43.096C11.144 42.832 11 42.592 10.712 42.376C9.392 41.752 8.576 41.32 8.312 41.056C7.112 39.952 6.512 38.8 6.512 37.624Z" fill="white"/>
<path d="M14.2137 38.848C14.2137 38.152 14.5018 37.744 15.1018 37.672L22.1338 36.712H22.3498C23.1658 36.712 23.5737 37.096 23.5737 37.888C23.5737 38.584 23.1897 38.992 22.4217 39.112L19.9738 39.544L19.8778 39.592V44.584C19.8778 45.136 19.4697 45.424 18.6777 45.424C17.8857 45.424 17.4778 45.112 17.4778 44.512V39.928C17.4058 39.928 16.8298 39.952 15.7738 40.024H15.4377C14.6217 40.024 14.2137 39.64 14.2137 38.848Z" fill="white"/>
<path d="M24.3785 44.896C24.3785 44.296 24.4505 43.696 24.6185 43.096L26.4905 36.328C26.6585 35.728 27.0425 35.416 27.6425 35.416C28.4585 35.416 28.9625 35.704 29.1305 36.256L29.7305 38.248L32.2985 44.536C32.3705 44.752 32.4185 44.944 32.4185 45.136C32.4185 45.928 32.0105 46.336 31.2185 46.336C30.7145 46.336 30.3305 46.048 30.0905 45.496C29.6825 44.512 29.4425 44.032 29.4185 44.008C28.0505 43.96 27.2585 43.936 27.0665 43.936C26.9465 43.936 26.8745 44.08 26.8505 44.368L26.7305 45.376C26.5625 45.904 26.1785 46.168 25.5785 46.168C24.7865 46.168 24.3785 45.736 24.3785 44.896ZM27.6185 41.488H28.4105C28.2185 40.984 28.0505 40.624 27.9305 40.408C27.8825 40.528 27.7865 40.888 27.6185 41.488Z" fill="white"/>
<path d="M33.398 37.528V36.448C33.398 35.512 34.166 35.056 35.678 35.056C36.494 35.056 37.286 35.224 38.078 35.536C39.638 36.184 40.406 37.192 40.406 38.512C40.406 39.904 39.806 40.96 38.606 41.656L38.726 41.776L42.278 44.368C42.542 44.56 42.686 44.872 42.686 45.28C42.686 46.072 42.278 46.456 41.486 46.456C41.222 46.456 41.006 46.408 40.838 46.288L36.35 43.168V45.136C36.35 45.736 35.942 46.048 35.15 46.048C34.55 46.048 34.166 45.76 33.998 45.208C33.998 43.168 33.806 40.6 33.398 37.528ZM35.846 37.456V37.696L36.158 40.096H36.206C37.406 40.096 38.006 39.64 38.006 38.704C38.006 38.008 37.286 37.576 35.846 37.456Z" fill="white"/>
<path d="M42.1044 38.848C42.1044 38.152 42.3924 37.744 42.9924 37.672L50.0244 36.712H50.2404C51.0564 36.712 51.4644 37.096 51.4644 37.888C51.4644 38.584 51.0804 38.992 50.3124 39.112L47.8644 39.544L47.7684 39.592V44.584C47.7684 45.136 47.3604 45.424 46.5684 45.424C45.7764 45.424 45.3684 45.112 45.3684 44.512V39.928C45.2964 39.928 44.7204 39.952 43.6644 40.024H43.3284C42.5124 40.024 42.1044 39.64 42.1044 38.848Z" fill="white"/>
</svg>
