<svg width="532" height="416" viewBox="0 0 532 416" fill="none" xmlns="http://www.w3.org/2000/svg">
<path d="M532 413C528.953 342.991 527.834 261.734 524.787 191.725H4.53903L0 413" fill="#939552"/>
<path d="M23.5 413C23.7 270.1 36.2667 231.155 37.3333 231C38.2667 231 39.0667 255.825 43.3333 341.317C44.8 370.952 46.0667 395.622 47 413" fill="#646737"/>
<path d="M178 413C179.562 371.595 183.687 260 189 260C194.562 260 198.687 373.588 200 413" fill="#646737"/>
<path d="M457.5 413.481C452.049 372.304 436.629 259.763 433.128 260.138C429.463 260.53 438.874 374.088 442.217 413.482" fill="#646737"/>
<path d="M339.145 413C338.719 328.434 339.267 263.237 340.302 263.001C341.52 262.765 343.773 297.489 347 413" fill="#646737"/>
<path d="M502 412.799C500.487 361.138 497.526 318.724 494.895 287.567C493.25 268.47 492.066 254.801 491.211 255.002C489.105 255.404 489.961 332.795 492.132 396.316C492.395 403.15 492.592 408.98 492.724 413" fill="#646737"/>
<path d="M525.515 191.649C525.515 229.011 409.031 259.298 265.369 259.298C121.708 259.298 5.22363 229.011 5.22363 191.649C5.22363 154.288 121.708 124 265.369 124C348 125.929 313.754 124.707 327.498 125.929C408.471 133.196 525.515 161.94 525.515 191.585V191.649Z" fill="#A3A550"/>
<path d="M333.152 149.627C332.617 152.628 443.5 169.105 443.5 188.23C443.5 214.77 236.112 223.067 237.003 236.426C237.538 244.546 312.413 251.255 390.972 235.249C398.044 233.836 504.295 211.651 502.988 188.23C501.324 159.101 333.865 145.861 333.152 149.627Z" fill="#999B4B"/>
<path d="M121.323 163.388C121.559 165.506 75.1644 174.166 75.1644 187.767C75.1644 206.564 164.412 215.418 163.999 224.912C163.762 230.686 130.531 235.434 95.7054 224.078C92.5771 223.052 45.4152 207.334 46.0055 190.782C46.7138 170.125 121.028 160.758 121.323 163.453V163.388Z" fill="#999B4B"/>
<path d="M356.995 174.342C357.01 174.541 364.29 178.278 364.583 183.559C365.159 193.321 341.014 200.25 341.277 201.828C341.506 203.61 370.948 198.597 370.658 188.108C370.481 181.113 357.077 174.134 357.051 174.437L356.995 174.342Z" fill="#999B4B"/>
<ellipse cx="268" cy="185" rx="91" ry="20" fill="#999B4B"/>
<path d="M424.244 59.5791L421.631 81.5326L403.285 81.2217L400.673 56.7805L424.244 59.5791Z" fill="#F6BE60"/>
<path d="M415.039 81.2837H409.628V182.282H415.039V81.2837Z" fill="#F6BE60"/>
<path d="M413.049 196.399C427.406 196.399 439.045 192.696 439.045 188.128C439.045 183.56 427.406 179.856 413.049 179.856C398.692 179.856 387.053 183.56 387.053 188.128C387.053 192.696 398.692 196.399 413.049 196.399Z" fill="#F6BE60"/>
<path d="M414.916 157.966C414.729 162.816 415.227 170.404 419.02 175.814C423.374 181.971 428.971 182.842 428.598 185.143C427.851 189.87 401.98 192.171 400.114 186.573C399.617 185.019 401.42 183.588 403.535 180.541C406.582 176.188 409.443 169.347 409.692 158.339" fill="#F6BE60"/>
<path d="M412.49 91.048C416.611 91.048 419.952 90.2405 419.952 89.2444C419.952 88.2484 416.611 87.4409 412.49 87.4409C408.368 87.4409 405.027 88.2484 405.027 89.2444C405.027 90.2405 408.368 91.048 412.49 91.048Z" fill="#F6BE60"/>
<path d="M413.795 61.6314C425.817 61.6314 435.562 59.5431 435.562 56.9671C435.562 54.391 425.817 52.3027 413.795 52.3027C401.774 52.3027 392.028 54.391 392.028 56.9671C392.028 59.5431 401.774 61.6314 413.795 61.6314Z" fill="#F6BE60"/>
<path d="M422.938 0H402.042V58.7084H422.938V0Z" fill="#FFF4CD"/>
<path d="M401.17 61.3827C401.17 61.1961 400.984 60.7607 401.108 60.7607C401.979 60.7607 405.524 61.507 408.82 61.507C416.158 61.507 422.564 61.0717 424.057 61.0717C425.549 61.0717 424.057 61.0717 424.057 61.4448C423.932 62.4399 416.469 62.1911 412.8 63.5593C408.26 65.1763 405.275 65.8604 402.476 66.1092C399.678 66.3579 401.295 62.2533 401.17 61.4448V61.3827Z" fill="#D8AF66"/>
<path d="M409.628 81.4083C411.556 81.4083 413.422 81.3461 415.35 81.4083C415.226 81.5326 415.039 81.8436 414.852 81.968C413.236 82.963 410.872 83.0874 409.691 83.0874V81.4083H409.628Z" fill="#D8AF66"/>
<path d="M420.264 79.7913H419.331L420.637 63.3107L422.627 62.751L420.264 79.7913Z" fill="#F3CF83"/>
<path d="M424.741 53.8574C427.788 53.422 432.142 55.5365 433.821 56.1584C435.5 56.7803 432.142 58.0242 431.271 58.3973C428.97 59.5168 426.482 59.268 426.482 58.957C426.482 58.5839 430.649 58.0864 430.587 57.2157C430.587 56.7182 429.032 56.2206 425.923 55.2878C424.554 54.8524 423.497 54.6036 423.497 54.2927C423.497 54.0439 424.368 53.9196 424.679 53.8574H424.741Z" fill="#F3CF83"/>
<path d="M416.657 88.6223C417.275 88.6223 417.776 88.5109 417.776 88.3735C417.776 88.2361 417.275 88.1248 416.657 88.1248C416.038 88.1248 415.537 88.2361 415.537 88.3735C415.537 88.5109 416.038 88.6223 416.657 88.6223Z" fill="#F3CF83"/>
<path d="M409.629 87.5029C410.562 87.3163 411.619 87.2541 412.925 87.2541C413.734 87.2541 414.418 87.3785 415.04 87.4407H415.226V87.3163L413.112 87.0054C412.739 87.0054 412.365 87.0054 411.93 87.0054H409.567V87.4407L409.629 87.5029Z" fill="#D8AF66"/>
<path d="M415.35 90.8613C414.417 91.0479 413.298 90.8613 411.992 90.8613C411.183 90.8613 410.499 90.8613 409.815 90.8613H409.628V91.2344V93.1002C410.002 93.1002 412.551 91.421 412.987 91.3588L415.35 91.2344V90.7991V90.8613Z" fill="#D8AF66"/>
<path d="M429.095 182.655C432.516 183.091 436.247 185.827 435.998 188.253C435.563 191.735 426.981 192.793 426.732 192.295C426.545 191.86 432.391 190.118 432.205 187.942C432.018 185.578 424.431 184.832 424.555 183.588C424.617 182.904 426.981 182.407 429.033 182.655H429.095Z" fill="#F3CF83"/>
<path d="M133.191 60.6365L130.579 82.59L112.233 82.279L109.621 57.8379L133.191 60.6365Z" fill="#F6BE60"/>
<path d="M123.985 82.3411H118.574V183.339H123.985V82.3411Z" fill="#F6BE60"/>
<path d="M121.996 197.457C136.353 197.457 147.992 193.753 147.992 189.185C147.992 184.617 136.353 180.914 121.996 180.914C107.639 180.914 95.9998 184.617 95.9998 189.185C95.9998 193.753 107.639 197.457 121.996 197.457Z" fill="#F6BE60"/>
<path d="M123.862 159.023C123.675 163.874 124.173 171.461 127.967 176.872C132.32 183.029 137.917 183.899 137.544 186.2C136.798 190.927 110.926 193.228 109.06 187.631C108.563 186.076 110.366 184.646 112.481 181.598C115.528 177.245 118.389 170.404 118.638 159.396" fill="#F6BE60"/>
<path d="M121.436 92.1049C125.557 92.1049 128.899 91.2974 128.899 90.3013C128.899 89.3053 125.557 88.4978 121.436 88.4978C117.314 88.4978 113.973 89.3053 113.973 90.3013C113.973 91.2974 117.314 92.1049 121.436 92.1049Z" fill="#F6BE60"/>
<path d="M122.742 62.6888C134.763 62.6888 144.508 60.6005 144.508 58.0244C144.508 55.4484 134.763 53.3601 122.742 53.3601C110.72 53.3601 100.975 55.4484 100.975 58.0244C100.975 60.6005 110.72 62.6888 122.742 62.6888Z" fill="#F6BE60"/>
<path d="M131.884 1.05713H110.988V59.7656H131.884V1.05713Z" fill="#FFF4CD"/>
<path d="M110.117 62.44C110.117 62.2535 109.93 61.8181 110.054 61.8181C110.925 61.8181 114.47 62.5644 117.766 62.5644C125.105 62.5644 131.51 62.1291 133.003 62.1291C134.495 62.1291 133.003 62.1291 133.003 62.5022C132.878 63.4973 125.416 63.2485 121.746 64.6167C117.206 66.2337 114.221 66.9178 111.423 67.1665C108.624 67.4153 110.241 63.3107 110.117 62.5022V62.44Z" fill="#D8AF66"/>
<path d="M118.574 82.4656C120.502 82.4656 122.368 82.4034 124.296 82.4656C124.172 82.59 123.985 82.9009 123.799 83.0253C122.182 84.0204 119.818 84.1448 118.637 84.1448V82.4656H118.574Z" fill="#D8AF66"/>
<path d="M129.21 80.8485H128.277L129.583 64.3678L131.573 63.8081L129.21 80.8485Z" fill="#F3CF83"/>
<path d="M133.687 54.9148C136.734 54.4794 141.088 56.5939 142.767 57.2158C144.446 57.8377 141.088 59.0816 140.217 59.4547C137.916 60.5741 135.428 60.3254 135.428 60.0144C135.428 59.6413 139.595 59.1437 139.533 58.2731C139.533 57.7755 137.978 57.278 134.869 56.3451C133.5 55.9098 132.443 55.661 132.443 55.3501C132.443 55.1013 133.314 54.9769 133.625 54.9148H133.687Z" fill="#F3CF83"/>
<path d="M125.603 89.6797C126.221 89.6797 126.722 89.5683 126.722 89.4309C126.722 89.2935 126.221 89.1821 125.603 89.1821C124.985 89.1821 124.483 89.2935 124.483 89.4309C124.483 89.5683 124.985 89.6797 125.603 89.6797Z" fill="#F3CF83"/>
<path d="M118.575 88.56C119.508 88.3734 120.565 88.3112 121.871 88.3112C122.68 88.3112 123.364 88.4357 123.986 88.4978H124.173V88.3735L122.058 88.0625C121.685 88.0625 121.312 88.0625 120.876 88.0625H118.513V88.4978L118.575 88.56Z" fill="#D8AF66"/>
<path d="M124.296 91.9184C123.363 92.105 122.244 91.9184 120.938 91.9184C120.129 91.9184 119.445 91.9184 118.761 91.9184H118.574V92.2915V94.1573C118.948 94.1573 121.497 92.4781 121.933 92.4159L124.296 92.2915V91.8562V91.9184Z" fill="#D8AF66"/>
<path d="M138.041 183.713C141.462 184.148 145.193 186.885 144.945 189.31C144.509 192.793 135.927 193.85 135.678 193.352C135.492 192.917 141.338 191.176 141.151 188.999C140.964 186.636 133.377 185.889 133.502 184.646C133.564 183.962 135.927 183.464 137.979 183.713H138.041Z" fill="#F3CF83"/>
</svg>
