<svg width="172" height="249" viewBox="0 0 172 249" fill="none" xmlns="http://www.w3.org/2000/svg">
<path d="M115 122C116.667 120.5 119.5 123 117.5 145C115 172.5 74 201.5 107 217.5C133.4 230.3 149.333 237.833 154 240C158.333 246.667 172.5 245.5 169 233.5C161.559 207.988 179 212.5 136.5 237.5C102.5 257.5 89.6667 240.167 87.5 229" stroke="#84A59D" stroke-width="3"/>
<path d="M54.8213 162.212L12.7165 62.4063L53.2095 53.5437C62.9826 51.4047 72.2678 47.4515 80.5835 41.8892L113.429 19.9188L155.534 119.724C155.534 119.724 113.741 124.53 100.918 128.336C88.0946 132.143 54.8213 162.212 54.8213 162.212Z" fill="#6C9F9C"/>
<ellipse cx="33.3156" cy="112.5" rx="72.8721" ry="5.41617" transform="rotate(-112.873 33.3156 112.5)" fill="#C7C7C7"/>
<ellipse cx="135.843" cy="69.2472" rx="72.8721" ry="5.41617" transform="rotate(-112.873 135.843 69.2472)" fill="#C7C7C7"/>
<ellipse cx="133.787" cy="66.9079" rx="58.1007" ry="2.46189" transform="rotate(-112.873 133.787 66.9079)" fill="#AAAAAA"/>
<ellipse cx="34.4853" cy="111.472" rx="55.6388" ry="4.92379" transform="rotate(-112.873 34.4853 111.472)" fill="#AAAAAA"/>
<path d="M148.942 119.299L108.751 24.03" stroke="#73ADA9" stroke-width="2"/>
<path d="M148.294 120.641L101.081 28.6496" stroke="#5E8380" stroke-width="2"/>
<path d="M100.798 126.784L67.355 50.0443" stroke="#73ADA9" stroke-width="2"/>
<path d="M110.112 126.061L94.8585 34.1663" stroke="#73ADA9" stroke-width="2"/>
<path d="M110.112 126.061L76.953 44.9265" stroke="#73ADA9" stroke-width="2"/>
<path d="M134.709 121.028L97.7313 30.8168" stroke="#73ADA9" stroke-width="2"/>
<path d="M85.6426 40.1915L125.252 123.949" stroke="#618F8D" stroke-width="2"/>
<path d="M58.9756 159.39L18.0191 62.3069" stroke="#51817E" stroke-width="2"/>
<path d="M57.0078 159.152L24.7922 60.8335" stroke="#73ADA9" stroke-width="2"/>
<path d="M98.8906 127.588L67.3548 50.0437" stroke="#60908E" stroke-width="2"/>
<path d="M91.0391 134.107L44.0476 55.6013" stroke="#73ADA9" stroke-width="2"/>
<path d="M91.0391 134.107L55.9724 53.7765" stroke="#598987" stroke-width="2"/>
<path d="M69.0977 152.983L29.0512 59.7905" stroke="#73ADA9" stroke-width="2"/>
<path d="M56.2048 55.2819L77.5723 144.063" stroke="#639B98" stroke-width="2"/>
<path d="M48.8818 69.5942L43.9194 55.8562C43.1224 53.6497 44.1231 51.1979 46.2363 50.1792V50.1792C48.881 48.9044 49.6581 45.5044 47.8299 43.2073L43.4381 37.6891" stroke="#6C9F9C" stroke-width="2"/>
</svg>
