<svg width="143" height="231" viewBox="0 0 143 231" fill="none" xmlns="http://www.w3.org/2000/svg">
<ellipse cx="27.6331" cy="62.4754" rx="62.2673" ry="5.1293" transform="rotate(-85.8397 27.6331 62.4754)" fill="#C7C7C7"/>
<ellipse cx="132.74" cy="70.1207" rx="62.2673" ry="5.1293" transform="rotate(-85.8397 132.74 70.1207)" fill="#C7C7C7"/>
<ellipse cx="131.992" cy="67.5349" rx="49.6456" ry="2.3315" transform="rotate(-85.8397 131.992 67.5349)" fill="#AAAAAA"/>
<ellipse cx="29.0587" cy="62.157" rx="47.5419" ry="4.663" transform="rotate(-85.8397 29.0587 62.157)" fill="#AAAAAA"/>
<path d="M24.7393 108.667L31.4542 16.3514L70.0936 25.7556C78.8785 27.8937 87.9623 28.5271 96.9589 27.629L134.7 23.8614L127.985 116.177C127.985 116.177 90.5818 103.332 78.1164 101.16C65.6511 98.9878 24.7393 108.667 24.7393 108.667Z" fill="#F6BD60"/>
<path d="M122.589 113.254L128.999 25.1342" stroke="#F8C470" stroke-width="2"/>
<path d="M121.471 114.015L120.549 25.6112" stroke="#F8C470" stroke-width="2"/>
<path d="M78.6748 99.9352L82.9335 28.5327" stroke="#F6BD60" stroke-width="2"/>
<path d="M86.8623 103.062L112.942 27.3409" stroke="#F8C470" stroke-width="2"/>
<path d="M109.811 108.949L116.794 25.9336" stroke="#F8C470" stroke-width="2"/>
<path d="M102.588 28.275L100.57 107.434" stroke="#F8C470" stroke-width="2"/>
<path d="M29.4521 108.166L35.9839 18.3678" stroke="#F6BD60" stroke-width="2"/>
<path d="M27.8877 107.208L42.3396 19.9226" stroke="#F8C470" stroke-width="2"/>
<path d="M67.3105 101.64L60.8539 23.552" stroke="#F8C470" stroke-width="2"/>
<path d="M67.3105 101.64L71.7185 26.8729" stroke="#F8C470" stroke-width="2"/>
<path d="M40.7354 107.299L46.3862 20.8122" stroke="#F8C470" stroke-width="2"/>
<path d="M71.2756 28.1062L51.6903 103.878" stroke="#F8C470" stroke-width="2"/>
<path d="M89.6209 87C96.9543 91.5 107.221 103.6 89.6209 116C67.6209 131.5 -19.8791 109 7.12092 164C34.1209 219 105.621 158.5 73.6208 171C48.0208 181 67.2875 214.167 80.1208 229.5" stroke="#F8C470" stroke-width="3"/>
</svg>
