<svg width="384" height="567" viewBox="0 0 384 567" fill="none" xmlns="http://www.w3.org/2000/svg">
<rect x="9.48926" y="143.125" width="39.4187" height="47.0231" transform="rotate(-59.7331 9.48926 143.125)" fill="#F6BE61"/>
<rect x="45.9214" y="126.152" width="39.4187" height="47.0231" transform="rotate(-59.7331 45.9214 126.152)" fill="#F6BE61"/>
<rect x="82.3535" y="109.179" width="39.4187" height="47.0231" transform="rotate(-59.7331 82.3535 109.179)" fill="#F6BE61"/>
<rect x="118.786" y="92.2053" width="39.4187" height="47.0231" transform="rotate(-59.7331 118.786 92.2053)" fill="#F6BE61"/>
<rect x="155.217" y="75.232" width="39.4187" height="47.0231" transform="rotate(-59.7331 155.217 75.232)" fill="#F6BE61"/>
<rect x="191.649" y="58.2587" width="39.4187" height="47.0231" transform="rotate(-59.7331 191.649 58.2587)" fill="#F6BE61"/>
<rect x="228.082" y="41.2853" width="39.4187" height="47.0231" transform="rotate(-59.7331 228.082 41.2853)" fill="#F6BE61"/>
<rect x="264.514" y="24.312" width="39.4187" height="47.0231" transform="rotate(-59.7331 264.514 24.312)" fill="#F6BE61"/>
<rect x="300.946" y="7.33862" width="39.4187" height="47.0231" transform="rotate(-59.7331 300.946 7.33862)" fill="#F6BE61"/>
<rect x="337.378" y="-9.6347" width="39.4187" height="47.0231" transform="rotate(-59.7331 337.378 -9.6347)" fill="#F6BE61"/>
<rect x="29.584" y="186.257" width="39.4187" height="47.0231" transform="rotate(-59.7331 29.584 186.257)" fill="#F6BE61"/>
<rect x="66.0161" y="169.284" width="39.4187" height="47.0231" transform="rotate(-59.7331 66.0161 169.284)" fill="#F6BE61"/>
<rect x="102.448" y="152.31" width="39.4187" height="47.0231" transform="rotate(-59.7331 102.448 152.31)" fill="#F6BE61"/>
<rect x="138.88" y="135.337" width="39.4187" height="47.0231" transform="rotate(-59.7331 138.88 135.337)" fill="#F6BE61"/>
<rect x="175.312" y="118.364" width="39.4187" height="47.0231" transform="rotate(-59.7331 175.312 118.364)" fill="#F6BE61"/>
<rect x="211.744" y="101.39" width="39.4187" height="47.0231" transform="rotate(-59.7331 211.744 101.39)" fill="#F6BE61"/>
<rect x="248.176" y="84.4171" width="39.4187" height="47.0231" transform="rotate(-59.7331 248.176 84.4171)" fill="#F6BE61"/>
<rect x="284.608" y="67.4437" width="39.4187" height="47.0231" transform="rotate(-59.7331 284.608 67.4437)" fill="#F6BE61"/>
<rect x="321.041" y="50.4704" width="39.4187" height="47.0231" transform="rotate(-59.7331 321.041 50.4704)" fill="#F6BE61"/>
<rect x="357.473" y="33.4971" width="39.4187" height="47.0231" transform="rotate(-59.7331 357.473 33.4971)" fill="#F6BE61"/>
<rect x="49.6787" y="229.389" width="39.4187" height="47.0231" transform="rotate(-59.7331 49.6787 229.389)" fill="#F6BE61"/>
<rect x="86.1108" y="212.415" width="39.4187" height="47.0231" transform="rotate(-59.7331 86.1108 212.415)" fill="#F6BE61"/>
<rect x="122.542" y="195.442" width="39.4187" height="47.0231" transform="rotate(-59.7331 122.542 195.442)" fill="#F6BE61"/>
<rect x="158.975" y="178.469" width="39.4187" height="47.0231" transform="rotate(-59.7331 158.975 178.469)" fill="#F6BE61"/>
<rect x="195.407" y="161.495" width="39.4187" height="47.0231" transform="rotate(-59.7331 195.407 161.495)" fill="#F6BE61"/>
<rect x="231.839" y="144.522" width="39.4187" height="47.0231" transform="rotate(-59.7331 231.839 144.522)" fill="#F6BE61"/>
<rect x="268.271" y="127.549" width="39.4187" height="47.0231" transform="rotate(-59.7331 268.271 127.549)" fill="#F6BE61"/>
<rect x="304.703" y="110.575" width="39.4187" height="47.0231" transform="rotate(-59.7331 304.703 110.575)" fill="#F6BE61"/>
<rect x="341.135" y="93.6022" width="39.4187" height="47.0231" transform="rotate(-59.7331 341.135 93.6022)" fill="#F6BE61"/>
<rect x="377.567" y="76.6288" width="39.4187" height="47.0231" transform="rotate(-59.7331 377.567 76.6288)" fill="#F6BE61"/>
<rect x="69.7734" y="272.521" width="39.4187" height="47.0231" transform="rotate(-59.7331 69.7734 272.521)" fill="#F6BE61"/>
<rect x="106.205" y="255.547" width="39.4187" height="47.0231" transform="rotate(-59.7331 106.205 255.547)" fill="#F6BE61"/>
<rect x="142.637" y="238.574" width="39.4187" height="47.0231" transform="rotate(-59.7331 142.637 238.574)" fill="#F6BE61"/>
<rect x="179.069" y="221.601" width="39.4187" height="47.0231" transform="rotate(-59.7331 179.069 221.601)" fill="#F6BE61"/>
<rect x="215.501" y="204.627" width="39.4187" height="47.0231" transform="rotate(-59.7331 215.501 204.627)" fill="#F6BE61"/>
<rect x="251.934" y="187.654" width="39.4187" height="47.0231" transform="rotate(-59.7331 251.934 187.654)" fill="#F6BE61"/>
<rect x="288.366" y="170.681" width="39.4187" height="47.0231" transform="rotate(-59.7331 288.366 170.681)" fill="#F6BE61"/>
<rect x="324.798" y="153.707" width="39.4187" height="47.0231" transform="rotate(-59.7331 324.798 153.707)" fill="#F6BE61"/>
<rect x="361.229" y="136.734" width="39.4187" height="47.0231" transform="rotate(-59.7331 361.229 136.734)" fill="#F6BE61"/>
<rect x="89.8677" y="315.652" width="39.4187" height="47.0231" transform="rotate(-59.7331 89.8677 315.652)" fill="#F6BE61"/>
<rect x="126.3" y="298.679" width="39.4187" height="47.0231" transform="rotate(-59.7331 126.3 298.679)" fill="#F6BE61"/>
<rect x="162.732" y="281.706" width="39.4187" height="47.0231" transform="rotate(-59.7331 162.732 281.706)" fill="#F6BE61"/>
<rect x="199.164" y="264.732" width="39.4187" height="47.0231" transform="rotate(-59.7331 199.164 264.732)" fill="#F6BE61"/>
<rect x="235.596" y="247.759" width="39.4187" height="47.0231" transform="rotate(-59.7331 235.596 247.759)" fill="#F6BE61"/>
<rect x="272.028" y="230.786" width="39.4187" height="47.0231" transform="rotate(-59.7331 272.028 230.786)" fill="#F6BE61"/>
<rect x="308.46" y="213.812" width="39.4187" height="47.0231" transform="rotate(-59.7331 308.46 213.812)" fill="#F6BE61"/>
<rect x="344.892" y="196.839" width="39.4187" height="47.0231" transform="rotate(-59.7331 344.892 196.839)" fill="#F6BE61"/>
<rect x="381.324" y="179.866" width="39.4187" height="47.0231" transform="rotate(-59.7331 381.324 179.866)" fill="#F6BE61"/>
<rect x="109.962" y="358.784" width="39.4187" height="47.0231" transform="rotate(-59.7331 109.962 358.784)" fill="#F6BE61"/>
<rect x="146.395" y="341.811" width="39.4187" height="47.0231" transform="rotate(-59.7331 146.395 341.811)" fill="#F6BE61"/>
<rect x="182.827" y="324.837" width="39.4187" height="47.0231" transform="rotate(-59.7331 182.827 324.837)" fill="#F6BE61"/>
<rect x="219.259" y="307.864" width="39.4187" height="47.0231" transform="rotate(-59.7331 219.259 307.864)" fill="#F6BE61"/>
<rect x="255.691" y="290.891" width="39.4187" height="47.0231" transform="rotate(-59.7331 255.691 290.891)" fill="#F6BE61"/>
<rect x="292.123" y="273.917" width="39.4187" height="47.0231" transform="rotate(-59.7331 292.123 273.917)" fill="#F6BE61"/>
<rect x="328.555" y="256.944" width="39.4187" height="47.0231" transform="rotate(-59.7331 328.555 256.944)" fill="#F6BE61"/>
<rect x="364.987" y="239.971" width="39.4187" height="47.0231" transform="rotate(-59.7331 364.987 239.971)" fill="#F6BE61"/>
<rect x="130.057" y="401.916" width="39.4187" height="47.0231" transform="rotate(-59.7331 130.057 401.916)" fill="#F6BE61"/>
<rect x="166.489" y="384.943" width="39.4187" height="47.0231" transform="rotate(-59.7331 166.489 384.943)" fill="#F6BE61"/>
<rect x="202.921" y="367.969" width="39.4187" height="47.0231" transform="rotate(-59.7331 202.921 367.969)" fill="#F6BE61"/>
<rect x="239.354" y="350.996" width="39.4187" height="47.0231" transform="rotate(-59.7331 239.354 350.996)" fill="#F6BE61"/>
<rect x="275.785" y="334.022" width="39.4187" height="47.0231" transform="rotate(-59.7331 275.785 334.022)" fill="#F6BE61"/>
<rect x="312.217" y="317.049" width="39.4187" height="47.0231" transform="rotate(-59.7331 312.217 317.049)" fill="#F6BE61"/>
<rect x="348.649" y="300.076" width="39.4187" height="47.0231" transform="rotate(-59.7331 348.649 300.076)" fill="#F6BE61"/>
<rect x="150.152" y="445.047" width="39.4187" height="47.0231" transform="rotate(-59.7331 150.152 445.047)" fill="#F6BE61"/>
<rect x="186.584" y="428.074" width="39.4187" height="47.0231" transform="rotate(-59.7331 186.584 428.074)" fill="#F6BE61"/>
<rect x="223.016" y="411.101" width="39.4187" height="47.0231" transform="rotate(-59.7331 223.016 411.101)" fill="#F6BE61"/>
<rect x="259.448" y="394.128" width="39.4187" height="47.0231" transform="rotate(-59.7331 259.448 394.128)" fill="#F6BE61"/>
<rect x="295.88" y="377.154" width="39.4187" height="47.0231" transform="rotate(-59.7331 295.88 377.154)" fill="#F6BE61"/>
<rect x="332.312" y="360.181" width="39.4187" height="47.0231" transform="rotate(-59.7331 332.312 360.181)" fill="#F6BE61"/>
<rect x="368.744" y="343.208" width="39.4187" height="47.0231" transform="rotate(-59.7331 368.744 343.208)" fill="#F6BE61"/>
<rect x="170.247" y="488.179" width="39.4187" height="47.0231" transform="rotate(-59.7331 170.247 488.179)" fill="#F6BE61"/>
<rect x="206.679" y="471.206" width="39.4187" height="47.0231" transform="rotate(-59.7331 206.679 471.206)" fill="#F6BE61"/>
<rect x="243.11" y="454.233" width="39.4187" height="47.0231" transform="rotate(-59.7331 243.11 454.233)" fill="#F6BE61"/>
<rect x="279.542" y="437.259" width="39.4187" height="47.0231" transform="rotate(-59.7331 279.542 437.259)" fill="#F6BE61"/>
<rect x="315.975" y="420.286" width="39.4187" height="47.0231" transform="rotate(-59.7331 315.975 420.286)" fill="#F6BE61"/>
<rect x="352.407" y="403.312" width="39.4187" height="47.0231" transform="rotate(-59.7331 352.407 403.312)" fill="#F6BE61"/>
<rect x="190.341" y="531.311" width="39.4187" height="47.0231" transform="rotate(-59.7331 190.341 531.311)" fill="#F6BE61"/>
<rect x="226.773" y="514.338" width="39.4187" height="47.0231" transform="rotate(-59.7331 226.773 514.338)" fill="#F6BE61"/>
<rect x="263.205" y="497.364" width="39.4187" height="47.0231" transform="rotate(-59.7331 263.205 497.364)" fill="#F6BE61"/>
<rect x="299.637" y="480.391" width="39.4187" height="47.0231" transform="rotate(-59.7331 299.637 480.391)" fill="#F6BE61"/>
<rect x="336.069" y="463.418" width="39.4187" height="47.0231" transform="rotate(-59.7331 336.069 463.418)" fill="#F6BE61"/>
<rect x="372.501" y="446.444" width="39.4187" height="47.0231" transform="rotate(-59.7331 372.501 446.444)" fill="#F6BE61"/>
</svg>
