<svg width="526" height="588" viewBox="0 0 526 588" fill="none" xmlns="http://www.w3.org/2000/svg">
<rect x="100.493" y="52.7778" width="70.2098" height="515" transform="rotate(-27.4478 100.493 52.7778)" fill="#F6BE61"/>
<path d="M401.914 556.067L337.284 508.694L399.558 475.969L401.914 556.067Z" fill="#E5DAC7"/>
<path d="M401.791 555.845L389.483 546.775L401.251 539.864L401.791 555.845Z" fill="#F6BE61"/>
<path d="M100.253 52.9712L117.559 44.1675L354.182 499.452L337.266 507.942L100.253 52.9712Z" fill="#D7AA5E"/>
<path d="M145.751 28.8229L163.057 20.0197L400.157 476.202L383.24 484.691L145.751 28.8229Z" fill="#D7AA5E"/>
<path d="M337.039 508.764L353.642 499.885L392.912 544.655L389.797 547.164L337.039 508.764Z" fill="#E1D6C4"/>
<path d="M399.634 475.682L383.344 484.95L397.434 542.298L401.49 540.957L399.634 475.682Z" fill="#E1D6C4"/>
<ellipse cx="131.235" cy="35.525" rx="35.5341" ry="9.5" transform="rotate(-27.9231 131.235 35.525)" fill="#E1D6C4"/>
<ellipse cx="131.009" cy="35.3258" rx="22.6926" ry="7.20056" transform="rotate(-30.15 131.009 35.3258)" fill="#F6BE61"/>
</svg>
