<svg width="384" height="474" viewBox="0 0 384 474" fill="none" xmlns="http://www.w3.org/2000/svg">
<rect x="9.48926" y="50.1253" width="39.4187" height="47.0231" transform="rotate(-59.7331 9.48926 50.1253)" fill="#F6BE61"/>
<rect x="45.9214" y="33.1519" width="39.4187" height="47.0231" transform="rotate(-59.7331 45.9214 33.1519)" fill="#F6BE61"/>
<rect x="82.3533" y="16.1786" width="39.4187" height="47.0231" transform="rotate(-59.7331 82.3533 16.1786)" fill="#F6BE61"/>
<rect x="118.785" y="-0.794724" width="39.4187" height="47.0231" transform="rotate(-59.7331 118.785 -0.794724)" fill="#F6BE61"/>
<rect x="155.218" y="-17.7681" width="39.4187" height="47.0231" transform="rotate(-59.7331 155.218 -17.7681)" fill="#F6BE61"/>
<rect x="29.584" y="93.257" width="39.4187" height="47.0231" transform="rotate(-59.7331 29.584 93.257)" fill="#F6BE61"/>
<rect x="66.0159" y="76.2837" width="39.4187" height="47.0231" transform="rotate(-59.7331 66.0159 76.2837)" fill="#F6BE61"/>
<rect x="102.448" y="59.3104" width="39.4187" height="47.0231" transform="rotate(-59.7331 102.448 59.3104)" fill="#F6BE61"/>
<rect x="138.88" y="42.337" width="39.4187" height="47.0231" transform="rotate(-59.7331 138.88 42.337)" fill="#F6BE61"/>
<rect x="175.312" y="25.3637" width="39.4187" height="47.0231" transform="rotate(-59.7331 175.312 25.3637)" fill="#F6BE61"/>
<rect x="211.744" y="8.39037" width="39.4187" height="47.0231" transform="rotate(-59.7331 211.744 8.39037)" fill="#F6BE61"/>
<rect x="248.176" y="-8.58296" width="39.4187" height="47.0231" transform="rotate(-59.7331 248.176 -8.58296)" fill="#F6BE61"/>
<rect x="49.6785" y="136.389" width="39.4187" height="47.0231" transform="rotate(-59.7331 49.6785 136.389)" fill="#F6BE61"/>
<rect x="86.1106" y="119.415" width="39.4187" height="47.0231" transform="rotate(-59.7331 86.1106 119.415)" fill="#F6BE61"/>
<rect x="122.543" y="102.442" width="39.4187" height="47.0231" transform="rotate(-59.7331 122.543 102.442)" fill="#F6BE61"/>
<rect x="158.975" y="85.4688" width="39.4187" height="47.0231" transform="rotate(-59.7331 158.975 85.4688)" fill="#F6BE61"/>
<rect x="195.407" y="68.4955" width="39.4187" height="47.0231" transform="rotate(-59.7331 195.407 68.4955)" fill="#F6BE61"/>
<rect x="231.839" y="51.5221" width="39.4187" height="47.0231" transform="rotate(-59.7331 231.839 51.5221)" fill="#F6BE61"/>
<rect x="268.271" y="34.5488" width="39.4187" height="47.0231" transform="rotate(-59.7331 268.271 34.5488)" fill="#F6BE61"/>
<rect x="304.703" y="17.5755" width="39.4187" height="47.0231" transform="rotate(-59.7331 304.703 17.5755)" fill="#F6BE61"/>
<rect x="341.135" y="0.602142" width="39.4187" height="47.0231" transform="rotate(-59.7331 341.135 0.602142)" fill="#F6BE61"/>
<rect x="377.567" y="-16.3712" width="39.4187" height="47.0231" transform="rotate(-59.7331 377.567 -16.3712)" fill="#F6BE61"/>
<rect x="69.7732" y="179.52" width="39.4187" height="47.0231" transform="rotate(-59.7331 69.7732 179.52)" fill="#F6BE61"/>
<rect x="106.205" y="162.547" width="39.4187" height="47.0231" transform="rotate(-59.7331 106.205 162.547)" fill="#F6BE61"/>
<rect x="142.637" y="145.574" width="39.4187" height="47.0231" transform="rotate(-59.7331 142.637 145.574)" fill="#F6BE61"/>
<rect x="179.069" y="128.601" width="39.4187" height="47.0231" transform="rotate(-59.7331 179.069 128.601)" fill="#F6BE61"/>
<rect x="215.501" y="111.627" width="39.4187" height="47.0231" transform="rotate(-59.7331 215.501 111.627)" fill="#F6BE61"/>
<rect x="251.934" y="94.6539" width="39.4187" height="47.0231" transform="rotate(-59.7331 251.934 94.6539)" fill="#F6BE61"/>
<rect x="288.365" y="77.6805" width="39.4187" height="47.0231" transform="rotate(-59.7331 288.365 77.6805)" fill="#F6BE61"/>
<rect x="324.798" y="60.7072" width="39.4187" height="47.0231" transform="rotate(-59.7331 324.798 60.7072)" fill="#F6BE61"/>
<rect x="361.23" y="43.7339" width="39.4187" height="47.0231" transform="rotate(-59.7331 361.23 43.7339)" fill="#F6BE61"/>
<rect x="89.8679" y="222.652" width="39.4187" height="47.0231" transform="rotate(-59.7331 89.8679 222.652)" fill="#F6BE61"/>
<rect x="126.3" y="205.679" width="39.4187" height="47.0231" transform="rotate(-59.7331 126.3 205.679)" fill="#F6BE61"/>
<rect x="162.732" y="188.706" width="39.4187" height="47.0231" transform="rotate(-59.7331 162.732 188.706)" fill="#F6BE61"/>
<rect x="199.164" y="171.732" width="39.4187" height="47.0231" transform="rotate(-59.7331 199.164 171.732)" fill="#F6BE61"/>
<rect x="235.596" y="154.759" width="39.4187" height="47.0231" transform="rotate(-59.7331 235.596 154.759)" fill="#F6BE61"/>
<rect x="272.028" y="137.786" width="39.4187" height="47.0231" transform="rotate(-59.7331 272.028 137.786)" fill="#F6BE61"/>
<rect x="308.46" y="120.812" width="39.4187" height="47.0231" transform="rotate(-59.7331 308.46 120.812)" fill="#F6BE61"/>
<rect x="344.892" y="103.839" width="39.4187" height="47.0231" transform="rotate(-59.7331 344.892 103.839)" fill="#F6BE61"/>
<rect x="381.324" y="86.8656" width="39.4187" height="47.0231" transform="rotate(-59.7331 381.324 86.8656)" fill="#F6BE61"/>
<rect x="109.962" y="265.784" width="39.4187" height="47.0231" transform="rotate(-59.7331 109.962 265.784)" fill="#F6BE61"/>
<rect x="146.395" y="248.811" width="39.4187" height="47.0231" transform="rotate(-59.7331 146.395 248.811)" fill="#F6BE61"/>
<rect x="182.827" y="231.837" width="39.4187" height="47.0231" transform="rotate(-59.7331 182.827 231.837)" fill="#F6BE61"/>
<rect x="219.259" y="214.864" width="39.4187" height="47.0231" transform="rotate(-59.7331 219.259 214.864)" fill="#F6BE61"/>
<rect x="255.691" y="197.891" width="39.4187" height="47.0231" transform="rotate(-59.7331 255.691 197.891)" fill="#F6BE61"/>
<rect x="292.123" y="180.917" width="39.4187" height="47.0231" transform="rotate(-59.7331 292.123 180.917)" fill="#F6BE61"/>
<rect x="328.555" y="163.944" width="39.4187" height="47.0231" transform="rotate(-59.7331 328.555 163.944)" fill="#F6BE61"/>
<rect x="364.987" y="146.971" width="39.4187" height="47.0231" transform="rotate(-59.7331 364.987 146.971)" fill="#F6BE61"/>
<rect x="130.057" y="308.916" width="39.4187" height="47.0231" transform="rotate(-59.7331 130.057 308.916)" fill="#F6BE61"/>
<rect x="166.489" y="291.942" width="39.4187" height="47.0231" transform="rotate(-59.7331 166.489 291.942)" fill="#F6BE61"/>
<rect x="202.921" y="274.969" width="39.4187" height="47.0231" transform="rotate(-59.7331 202.921 274.969)" fill="#F6BE61"/>
<rect x="239.353" y="257.996" width="39.4187" height="47.0231" transform="rotate(-59.7331 239.353 257.996)" fill="#F6BE61"/>
<rect x="275.785" y="241.022" width="39.4187" height="47.0231" transform="rotate(-59.7331 275.785 241.022)" fill="#F6BE61"/>
<rect x="312.218" y="224.049" width="39.4187" height="47.0231" transform="rotate(-59.7331 312.218 224.049)" fill="#F6BE61"/>
<rect x="348.649" y="207.076" width="39.4187" height="47.0231" transform="rotate(-59.7331 348.649 207.076)" fill="#F6BE61"/>
<rect x="150.152" y="352.047" width="39.4187" height="47.0231" transform="rotate(-59.7331 150.152 352.047)" fill="#F6BE61"/>
<rect x="186.584" y="335.074" width="39.4187" height="47.0231" transform="rotate(-59.7331 186.584 335.074)" fill="#F6BE61"/>
<rect x="223.016" y="318.101" width="39.4187" height="47.0231" transform="rotate(-59.7331 223.016 318.101)" fill="#F6BE61"/>
<rect x="259.448" y="301.128" width="39.4187" height="47.0231" transform="rotate(-59.7331 259.448 301.128)" fill="#F6BE61"/>
<rect x="295.88" y="284.154" width="39.4187" height="47.0231" transform="rotate(-59.7331 295.88 284.154)" fill="#F6BE61"/>
<rect x="332.312" y="267.181" width="39.4187" height="47.0231" transform="rotate(-59.7331 332.312 267.181)" fill="#F6BE61"/>
<rect x="368.744" y="250.208" width="39.4187" height="47.0231" transform="rotate(-59.7331 368.744 250.208)" fill="#F6BE61"/>
<rect x="170.246" y="395.179" width="39.4187" height="47.0231" transform="rotate(-59.7331 170.246 395.179)" fill="#F6BE61"/>
<rect x="206.678" y="378.206" width="39.4187" height="47.0231" transform="rotate(-59.7331 206.678 378.206)" fill="#F6BE61"/>
<rect x="243.111" y="361.232" width="39.4187" height="47.0231" transform="rotate(-59.7331 243.111 361.232)" fill="#F6BE61"/>
<rect x="279.542" y="344.259" width="39.4187" height="47.0231" transform="rotate(-59.7331 279.542 344.259)" fill="#F6BE61"/>
<rect x="315.975" y="327.286" width="39.4187" height="47.0231" transform="rotate(-59.7331 315.975 327.286)" fill="#F6BE61"/>
<rect x="352.407" y="310.312" width="39.4187" height="47.0231" transform="rotate(-59.7331 352.407 310.312)" fill="#F6BE61"/>
<rect x="190.341" y="438.311" width="39.4187" height="47.0231" transform="rotate(-59.7331 190.341 438.311)" fill="#F6BE61"/>
<rect x="226.773" y="421.338" width="39.4187" height="47.0231" transform="rotate(-59.7331 226.773 421.338)" fill="#F6BE61"/>
<rect x="263.205" y="404.364" width="39.4187" height="47.0231" transform="rotate(-59.7331 263.205 404.364)" fill="#F6BE61"/>
<rect x="299.637" y="387.391" width="39.4187" height="47.0231" transform="rotate(-59.7331 299.637 387.391)" fill="#F6BE61"/>
<rect x="336.069" y="370.418" width="39.4187" height="47.0231" transform="rotate(-59.7331 336.069 370.418)" fill="#F6BE61"/>
<rect x="372.501" y="353.444" width="39.4187" height="47.0231" transform="rotate(-59.7331 372.501 353.444)" fill="#F6BE61"/>
</svg>
